<?xml version="1.0" encoding="utf-8"?>
<!-- Generator: Adobe Illustrator 24.3.0, SVG Export Plug-In . SVG Version: 6.00 Build 0)  -->
<svg version="1.1" id="Layer_1" xmlns="http://www.w3.org/2000/svg" xmlns:xlink="http://www.w3.org/1999/xlink" x="0px" y="0px"
	 viewBox="0 0 150 150" style="enable-background:new 0 0 150 150;" xml:space="preserve">
<style type="text/css">
	.st0{fill:#DCEEFD;}
	.st1{fill:#002031;}
	.st2{fill:#DD933C;}
	.st3{fill:#FE6F43;}
	.st4{fill:#FE9C7E;}
	.st5{fill:#FFFFFF;}
	.st6{fill:#1540EB;}
	.st7{fill:#59ACF5;}
	.st8{fill:#FFCC00;}
	.st9{fill:#82C6F8;}
	.st10{fill:#D2793C;}
	.st11{fill:#1BC1D7;}
	.st12{fill:#F4C9DB;}
	.st13{fill:#104A4A;}
	.st14{fill:#F48D91;}
	.st15{fill:#22AEC3;}
	.st16{fill:#EDA7C5;}
	.st17{fill:#237978;}
	.st18{fill:#C8915C;}
	.st19{fill-rule:evenodd;clip-rule:evenodd;fill:#F4C9DB;}
	.st20{fill-rule:evenodd;clip-rule:evenodd;fill:#1540EB;}
	.st21{fill-rule:evenodd;clip-rule:evenodd;fill:#59ACF5;}
	.st22{fill:#1D1D1B;}
	.st23{fill-rule:evenodd;clip-rule:evenodd;fill:#A87A6A;}
	.st24{fill:#3DEC94;}
</style>
<g>
	<g>
		<circle class="st0" cx="75" cy="79.1" r="55.8"/>
	</g>
	<g>
		<g>
			<path class="st23" d="M109.8,122.7c-9.5,7.6-21.6,12.2-34.8,12.2c-0.6,0-1.1,0-1.7,0l-7.7-17c0,0-6.1-3.1-9.8-9.3
				c-0.7-1.1-1.3-2.3-1.7-3.5c-0.7-1.9,4.2-2.5,11.1-2.5c2.3,0,4.8,0.1,7.3,0.2c4.1,0.2,8.4,0.5,12.3,0.9c2.8,0.2,5.4,0.5,7.5,0.7
				c1,0.1,1.9,0.2,2.6,0.3c1.8,0.2,2.9,0.3,2.9,0.3l0.4,0.6h6.9c-0.2,3.2,0.2,6.3,1.1,9.4C107,117.7,108.2,120.3,109.8,122.7z"/>
		</g>
		<g>
			<polygon class="st23" points="41.4,59.6 53.7,59.5 50.8,66.8 			"/>
		</g>
		<g>
			<path class="st23" d="M73.4,61L64,72.4L31.2,43.1c-2.2-1.9-2.4-5.3-0.6-7.5l0,0c1.9-2.2,5.1-2.6,7.5-0.9L73.4,61z"/>
		</g>
		<g>
			<polygon class="st1" points="49.1,42.9 47.5,57.6 51.3,61.1 51.3,44.6 			"/>
		</g>
		<g>
			<g>
				<g>
					<path class="st21" d="M99.8,12.8h-35c-4,0-7.4,3-7.8,7l-8.4,83.7c-0.3,2.7,1.8,5,4.5,5h35c4,0,7.4-3,7.8-7l8.4-83.7
						C104.6,15.1,102.5,12.8,99.8,12.8z"/>
				</g>
				<g>
					<path class="st20" d="M96.4,12.8h-35c-4,0-7.4,3-7.8,7l-8.4,83.7c-0.3,2.7,1.8,5,4.5,5h42l9.2-90.8
						C101.2,15.1,99.1,12.8,96.4,12.8z"/>
				</g>
				<g>
					<g>
						<polygon class="st24" points="90.2,92.2 49,92.2 55.9,20.7 97,20.7 						"/>
					</g>
				</g>
			</g>
			<g>
				<ellipse transform="matrix(0.7252 -0.6885 0.6885 0.7252 -50.2777 75.1669)" class="st7" cx="69" cy="100.6" rx="4.4" ry="4"/>
			</g>
		</g>
		<g>
			<path class="st23" d="M85.2,111c0,0-1.3-8.6,0.2-15.7c1.8-8.7,8.4-12.1,8.4-12.1l2.3-18c0.6-3.9,3.2-6.8,7.2-6.6l0.7,0
				c1.1,0.1,2,0.9,2,2c0,0,1.5,23.8,1.2,28.8c-0.3,5-1.2,28.4-1.2,28.4L69.8,116L85.2,111z"/>
		</g>
		<g>
			<path class="st23" d="M54.3,75.2L54.3,75.2c-1.7,2.4-4.9,2.9-7.3,1.3l-8.9-5.9c-2.8-1.9-3.5-5.7-1.5-8.4l0,0
				c2-2.9,6.1-3.4,8.8-1.1l8.1,7C55.6,69.9,55.9,73,54.3,75.2z"/>
		</g>
		<g>
			<circle class="st23" cx="47.1" cy="83.6" r="5.9"/>
		</g>
		<g>
			<circle class="st23" cx="47.1" cy="95.3" r="5.5"/>
		</g>
	</g>
	<g>
		<path class="st1" d="M106.4,70.5c-2.4,0-2.8-2.7-2.9-2.7l-0.1-6.2l2.1-1.9l0.3,0.4l-2,1.8l0.1,6c0,0.1,0.4,2.4,2.5,2.3l0,0.5
			C106.5,70.5,106.5,70.5,106.4,70.5z"/>
	</g>
	<g>
		<path class="st1" d="M86.1,113.4c-0.1,0-0.2-0.1-0.2-0.2c-2.9-9.5-1.1-16.6-1.1-16.7c0-0.1,0.2-0.2,0.3-0.2c0.1,0,0.2,0.2,0.2,0.3
			c0,0.1-1.8,7.1,1.1,16.4C86.4,113.2,86.3,113.3,86.1,113.4C86.1,113.4,86.1,113.4,86.1,113.4z"/>
	</g>
	<g>
		<g>
			<path class="st22" d="M57.4,52.2L61,49c0.4-0.4,1.1-0.4,1.5,0.1l8.7,9.8l13.8-17.4c0.4-0.5,1-0.5,1.5-0.2l3.9,3.2
				c0.4,0.4,0.5,1,0.2,1.5L72.2,68.7c-0.5,0.6-1.4,0.6-1.9,0L57.3,53.7C56.9,53.2,57,52.6,57.4,52.2z"/>
		</g>
	</g>
</g>
</svg>
