<?xml version="1.0" encoding="UTF-8"?>
<svg width="19px" height="18px" viewBox="0 0 19 18" version="1.1" xmlns="http://www.w3.org/2000/svg" xmlns:xlink="http://www.w3.org/1999/xlink">
    <title>Group</title>
    <g id="Page-1" stroke="none" stroke-width="1" fill="none" fill-rule="evenodd">
        <g id="Artboard" transform="translate(-48.000000, -106.000000)" fill="#383836">
            <g id="Group" transform="translate(48.500000, 106.000000)">
                <path d="M7.5,1.5 C7.5,0.671574 8.171574,0 9,0 C9.779696,0 10.420448,0.594887 10.493134,1.355539 L10.5,1.5 L10.5,16.5 C10.5,17.328427 9.828427,18 9,18 C8.220304,18 7.579552,17.405112 7.506866,16.64446 L7.5,16.5 L7.5,1.5 Z" id="Fill-1"></path>
                <path d="M16.5,7.5 C17.328426,7.5 18,8.171573 18,9 C18,9.779696 17.405113,10.420449 16.644461,10.493133 L16.5,10.5 L1.5,10.5 C0.671573,10.5 0,9.828427 0,9 C0,8.220304 0.594888,7.579551 1.35554,7.506867 L1.5,7.5 L16.5,7.5 Z" id="Fill-1"></path>
            </g>
        </g>
    </g>
</svg>