<svg width="335" height="236" viewBox="0 0 335 236" fill="none" xmlns="http://www.w3.org/2000/svg">
<path d="M97.5002 112.5H96.7002V146.8H97.5002V112.5Z" fill="#002031"/>
<path d="M117.8 112.5H117V146.8H117.8V112.5Z" fill="#002031"/>
<path d="M120.2 117.1H94.2004C92.4004 117.1 90.9004 115.6 90.9004 113.8C90.9004 112 92.4004 110.5 94.2004 110.5H120.2V117.1Z" fill="#59ACF5"/>
<path d="M120.6 117.1C122.422 117.1 123.9 115.623 123.9 113.8C123.9 111.977 122.422 110.5 120.6 110.5C118.777 110.5 117.3 111.977 117.3 113.8C117.3 115.623 118.777 117.1 120.6 117.1Z" fill="#002031"/>
<path d="M170.1 45.0996L158.5 48.1996C156.6 48.6996 155 49.8996 153.9 51.5996L153.2 52.7996C152.6 53.6996 152.8 54.9996 153.6 55.6996L157.7 59.6996L188.9 50.1996L188.6 49.7996C187.3 47.8996 185.2 46.5996 182.9 46.3996L170.1 45.0996Z" fill="#FE6F43"/>
<path d="M168.1 50.0004L162.3 49.5004L168.7 47.4004L183.6 47.9004L182.2 49.3004L168.1 50.0004Z" fill="#002031"/>
<path d="M225.6 64.1002L228.5 58.5002L219.7 56.2002L217.2 59.1002L225.6 64.1002Z" fill="#A87A6A"/>
<path d="M141.2 152.1V216.8C141.2 220 138.6 222.6 135.4 222.6H92.2004C89.0004 222.6 86.4004 220 86.4004 216.8V152.1C86.4004 148.9 89.0004 146.3 92.2004 146.3H135.4C138.6 146.3 141.2 148.9 141.2 152.1Z" fill="#002031"/>
<path d="M66 233.3C66 235.3 85 235.4 148.6 235.4C209.8 235.4 231 234.2 231 233.3C231 232.5 210.4 231.6 149.2 231.6C84.9 231.5 66 231.8 66 233.3Z" fill="#DCEEFD"/>
<path d="M177.8 123.3L198.3 222.9L204.7 226.8L208 222L196.2 109.7L185.1 108.9C185.2 108.9 178 111.3 177.8 123.3Z" fill="#237978"/>
<path d="M190.7 123.5L190.3 107.2L175.3 109.8L175.7 124.2L190.7 123.5Z" fill="#237978"/>
<path d="M160.4 110.5C160.4 110.5 159.7 119.5 159.6 132.9C159.5 146.4 164.4 221.8 164.4 221.8L173.7 223.4L181.7 110.1L160.4 110.5Z" fill="#237978"/>
<path d="M160.9 111.5H196.2C196.9 111.5 197.5 110.9 197.5 110.2L187.1 50L165.1 50.7L159.6 110.2C159.6 110.9 160.2 111.5 160.9 111.5Z" fill="#FFCC00"/>
<path d="M154 230.3H175.3L174.9 222.1C174.9 222.1 172.2 222.2 169.7 222.2C169.7 222.2 169.2 221 167.7 219.5C167.1 218.9 164.3 218.2 163.3 219.6L158.9 224.9L157.9 225.7L156.2 227.1C154 228.2 154 230.3 154 230.3Z" fill="#82C6F8"/>
<path d="M175.6 233.4H153.8V230.3H166C167 230.3 167.9 229.8 168.3 228.9C168.8 228.1 169.7 227.5 170.6 227.5H175.1L175.6 233.4Z" fill="#002031"/>
<path d="M163.793 224.056L159.394 224.144L159.408 224.843L163.807 224.756L163.793 224.056Z" fill="#002031"/>
<path d="M166.087 222.221L161.189 222.374L161.211 223.074L166.109 222.92L166.087 222.221Z" fill="#002031"/>
<path d="M171.1 231.3H173.3C173.8 231.3 174.2 230.9 174.2 230.4C174.2 229.9 173.8 229.5 173.3 229.5H171.1C170.6 229.5 170.2 229.9 170.2 230.4C170.2 230.9 170.6 231.3 171.1 231.3Z" fill="#FE6F43"/>
<path d="M154 230.3H166.6L165 228.4C164.5 227.9 163.9 227.6 163.2 227.6H162.2C161.7 227.6 161.1 227.4 160.7 227.1C159.9 226.5 158.9 226 157.9 225.8L156.2 227.2C154 228.2 154 230.3 154 230.3Z" fill="#59ACF5"/>
<path d="M195.3 230.3H223.4C223.4 230.3 223.4 228.2 221.2 227.1L219.2 226.1L216.8 224.9L209.5 219.6C208.8 219.2 207.9 219.4 207.3 220C205.9 221.4 205 223.2 202.5 223.1C200.8 223 198.7 222.2 198.2 221C198 220.4 196.7 220.5 196.5 221.2L195.3 230.3Z" fill="#82C6F8"/>
<path d="M194.899 233.4H223.499V230.3H206.599C205.999 230.3 205.399 230.1 204.899 229.7L202.999 228.2C202.499 227.8 201.899 227.6 201.299 227.6H195.499L194.899 233.4Z" fill="#002031"/>
<path d="M216.039 224.153L212.977 225.083L213.18 225.753L216.242 224.823L216.039 224.153Z" fill="#002031"/>
<path d="M210.899 224.2L210.699 223.5L213.899 222.6L214.099 223.2L210.899 224.2Z" fill="#002031"/>
<path d="M197.5 231.3H201.2C201.7 231.3 202.1 230.9 202.1 230.4C202.1 229.9 201.7 229.5 201.2 229.5H197.5C197 229.5 196.6 229.9 196.6 230.4C196.6 230.9 197 231.3 197.5 231.3Z" fill="#FE6F43"/>
<path d="M207.899 230.3H223.399C223.399 230.3 223.399 228.2 221.199 227.1L219.199 226.1L217.999 227C217.599 227.3 216.999 227.5 216.499 227.5H211.199C210.499 227.5 209.799 227.8 209.399 228.3L207.899 230.3Z" fill="#59ACF5"/>
<path d="M179.799 138.4C179.799 138.4 179.799 138.3 179.799 138.4C179.599 138.4 179.399 138.2 179.399 138L179.999 123.6L185.999 123.7C186.199 123.7 186.399 123.9 186.399 124.1C186.399 124.3 186.199 124.5 185.999 124.5L180.699 124.4L180.099 138C180.199 138.2 179.999 138.4 179.799 138.4Z" fill="#002031"/>
<path d="M160 119L196.7 113.3L196.3 109.7L160.4 110.5L160 119Z" fill="#0E6866"/>
<path d="M169.9 33.0996C169.4 33.5996 168.1 50.8996 168.1 50.8996C168.1 50.8996 178.2 57.3996 182.4 50.0996L179 33.8996L169.9 33.0996Z" fill="#A87A6A"/>
<path d="M172.8 113.3H156.2C153.7 113.3 151.7 111.3 151.8 108.8L152 103L152.1 100.5L153.5 55.2C156.7 52.2 160.9 50.5 165.3 50.2L168.3 50C168.3 50 169 52.3 169.2 55.3L172.8 113.3Z" fill="#FE6F43"/>
<path d="M172.8 113.3H156.2V116.2H172.8V113.3Z" fill="#F45A31"/>
<path d="M202.8 113.3H189.1V116.2H202.8V113.3Z" fill="#F45A31"/>
<path d="M153.4 55.2002L101.5 106.8L117.4 107L153.4 75.4002V55.2002Z" fill="#FE6F43"/>
<path d="M82.2996 233C85.1715 233 87.4996 230.671 87.4996 227.8C87.4996 224.928 85.1715 222.6 82.2996 222.6C79.4277 222.6 77.0996 224.928 77.0996 227.8C77.0996 230.671 79.4277 233 82.2996 233Z" fill="#002031"/>
<path d="M111.9 233C114.772 233 117.1 230.671 117.1 227.8C117.1 224.928 114.772 222.6 111.9 222.6C109.028 222.6 106.7 224.928 106.7 227.8C106.7 230.671 109.028 233 111.9 233Z" fill="#002031"/>
<path d="M134.3 233C137.171 233 139.5 230.671 139.5 227.8C139.5 224.928 137.171 222.6 134.3 222.6C131.428 222.6 129.1 224.928 129.1 227.8C129.1 230.671 131.428 233 134.3 233Z" fill="#002031"/>
<path d="M122.7 222.6H79.5998C76.3998 222.6 73.7998 220 73.7998 216.8V152.1C73.7998 148.9 76.3998 146.3 79.5998 146.3H122.8C126 146.3 128.6 148.9 128.6 152.1V216.8C128.6 220 126 222.6 122.7 222.6Z" fill="#59ACF5"/>
<path d="M135.7 151.7V217C135.7 219.4 134.3 221.6 132.2 222.6H129.8C132.7 222.4 135 220 135 217V151.7C135 149 133.1 146.8 130.5 146.2H132.3C134.4 147.3 135.7 149.4 135.7 151.7Z" fill="white"/>
<path d="M232.3 59.6H224C223 59.6 222.4 58.8 222.5 57.8L225.5 40.8C225.7 39.8 226.6 39 227.6 39H235.9C236.9 39 237.5 39.8 237.4 40.8L234.4 57.8C234.2 58.8 233.3 59.6 232.3 59.6Z" fill="#002031"/>
<path d="M230.9 59.6H222.6C221.6 59.6 221 58.8 221.1 57.8L224.1 40.8C224.3 39.8 225.2 39 226.2 39H234.5C235.5 39 236.1 39.8 236 40.8L233 57.8C232.9 58.8 231.9 59.6 230.9 59.6Z" fill="#82C6F8"/>
<path d="M231.8 55.2002H223.3L225.8 40.7002H234.4L231.8 55.2002Z" fill="white"/>
<path d="M223.7 55.2002H223.3L225.8 40.7002H226.2L223.7 55.2002Z" fill="#002031"/>
<path d="M226.9 58.7998C226.6 58.7998 226.2 58.6998 226 58.3998C225.8 58.0998 225.7 57.7998 225.8 57.4998C225.9 56.7998 226.5 56.2998 227.2 56.2998C227.5 56.2998 227.9 56.3998 228.1 56.6998C228.3 56.9998 228.4 57.2998 228.3 57.5998C228.2 58.2998 227.6 58.7998 226.9 58.7998ZM227.2 56.9998C226.9 56.9998 226.5 57.2998 226.5 57.5998C226.5 57.6998 226.5 57.8998 226.6 57.9998C226.7 58.0998 226.8 58.0998 226.9 58.0998C227.2 58.0998 227.6 57.7998 227.6 57.4998C227.6 57.3998 227.6 57.1998 227.5 57.0998C227.5 57.0998 227.4 56.9998 227.2 56.9998Z" fill="white"/>
<path d="M228.25 47.3496H226.15C225.95 47.3496 225.65 47.5496 225.65 47.7496L225.25 49.8496C225.25 49.9496 225.25 49.9496 225.25 49.9496C225.25 50.1496 225.35 50.2496 225.55 50.2496C225.55 50.2496 225.55 50.2496 225.65 50.2496H227.75C227.95 50.2496 228.25 50.0496 228.25 49.8496L228.35 49.5496L228.65 48.0496L228.75 47.7496C228.65 47.5496 228.45 47.3496 228.25 47.3496ZM227.25 49.3496H226.35L226.55 48.4496H227.45L227.25 49.3496Z" fill="#002031"/>
<path d="M228.95 43.5498H226.85C226.65 43.5498 226.35 43.7498 226.35 43.9498L225.95 46.0498V46.1498C225.95 46.3498 226.05 46.5498 226.35 46.5498H228.45C228.65 46.5498 228.95 46.3498 228.95 46.1498L229.35 44.0498C229.35 43.7498 229.15 43.5498 228.95 43.5498ZM227.95 45.5498H227.05L227.25 44.6498H228.15L227.95 45.5498Z" fill="#002031"/>
<path d="M232.75 43.5498H230.65C230.45 43.5498 230.15 43.7498 230.15 43.9498L229.75 46.0498C229.75 46.2498 229.85 46.4498 230.15 46.4498H232.25C232.45 46.4498 232.75 46.2498 232.75 46.0498L233.15 43.9498C233.15 43.7498 232.95 43.5498 232.75 43.5498ZM231.75 45.4498H230.85L231.05 44.5498H231.95L231.75 45.4498Z" fill="#002031"/>
<path fill-rule="evenodd" clip-rule="evenodd" d="M230.3 48.399H229.4C229.3 48.399 229.3 48.299 229.3 48.299L229.4 47.599C229.4 47.499 229.5 47.499 229.6 47.499H230.3C230.4 47.499 230.4 47.599 230.4 47.599L230.3 48.399Z" fill="#002031"/>
<path fill-rule="evenodd" clip-rule="evenodd" d="M231.2 49.3994H230.2L230.3 48.3994H231.3L231.2 49.3994Z" fill="#002031"/>
<path fill-rule="evenodd" clip-rule="evenodd" d="M231.9 50.3994H231.2C231.1 50.3994 231.1 50.2994 231.1 50.2994L231.2 49.3994H232.1C232.2 49.3994 232.2 49.4994 232.2 49.4994L232.1 50.1994C232 50.2994 231.9 50.3994 231.9 50.3994Z" fill="#002031"/>
<path fill-rule="evenodd" clip-rule="evenodd" d="M232.2 48.3994H231.3L231.4 47.4994C231.4 47.3994 231.5 47.3994 231.6 47.3994H232.3C232.4 47.3994 232.4 47.4994 232.4 47.4994L232.3 48.1994C232.4 48.2994 232.3 48.3994 232.2 48.3994Z" fill="#002031"/>
<path fill-rule="evenodd" clip-rule="evenodd" d="M229.8 50.399H229.1C229 50.399 229 50.299 229 50.299L229.1 49.599C229.1 49.499 229.2 49.499 229.3 49.499H230.2L230.1 50.399C230 50.299 229.9 50.399 229.8 50.399Z" fill="#002031"/>
<path d="M217 55.6L219.4 48.2L226.7 47L226.1 49.8L222.5 51.3L220.6 62.1L217.3 60.7L217 55.6Z" fill="#A87A6A"/>
<path d="M235.5 49.7998C236.328 49.7998 237 49.1282 237 48.2998C237 47.4714 236.328 46.7998 235.5 46.7998C234.672 46.7998 234 47.4714 234 48.2998C234 49.1282 234.672 49.7998 235.5 49.7998Z" fill="#A87A6A"/>
<path d="M234.9 52.5C235.729 52.5 236.4 51.8284 236.4 51C236.4 50.1716 235.729 49.5 234.9 49.5C234.072 49.5 233.4 50.1716 233.4 51C233.4 51.8284 234.072 52.5 234.9 52.5Z" fill="#A87A6A"/>
<path d="M234.4 55.2002C235.229 55.2002 235.9 54.5286 235.9 53.7002C235.9 52.8718 235.229 52.2002 234.4 52.2002C233.572 52.2002 232.9 52.8718 232.9 53.7002C232.9 54.5286 233.572 55.2002 234.4 55.2002Z" fill="#A87A6A"/>
<path d="M194.4 55L206.4 78.6L217 55.6L225.6 64.2L212.8 93.6C211.7 96.2 209.2 97.8 206.4 97.8C203.6 97.8 201.1 96.1 200 93.5L186.7 66.6L194.4 55Z" fill="#FE6F43"/>
<path d="M189.1 19.2999C190.2 20.9999 189.1 24.7999 186.7 23.9999C185.3 22.6999 184.1 20.7999 183.8 18.7999C183.9 16.0999 188.4 17.3999 189.1 19.2999Z" fill="#002031"/>
<path d="M167.1 27.8002C167.4 34.1002 175.3 39.6002 175.3 39.6002C175.3 39.6002 182 42.8002 187.6 38.9002C193.1 35.1002 187.7 22.0002 186.1 19.2002C184.9 17.0002 181 16.2002 178.2 16.2002C171.7 16.3002 166.8 21.4002 167.1 27.8002Z" fill="#A87A6A"/>
<path d="M165.3 20.5002C164.2 13.0002 175 13.1002 175 13.1002C175 13.1002 175.7 10.6002 176.9 10.0002C178.9 8.8002 179.6 11.0002 179.3 12.4002C180.3 10.7002 180.9 8.2002 183.2 8.2002C185.1 8.6002 185.4 11.7002 184.1 12.8002C191.7 6.0002 194.6 19.8002 180.9 21.2002C177 21.6002 173.2 21.6002 172.8 21.2002C173.3 25.2002 171.2 29.1002 167.3 30.3002C167.4 30.4002 165.6 24.9002 165.3 20.5002Z" fill="#002031"/>
<path d="M188.4 31.3998C187.5 31.3998 186.6 30.9998 185.9 30.2998C185.2 29.5998 184.8 28.5998 184.8 27.5998C184.8 25.4998 186.5 23.7998 188.5 23.7998C189.4 23.7998 190.3 24.1998 191 24.8998C191.7 25.5998 192.1 26.5998 192.1 27.5998C192 29.6998 190.4 31.3998 188.4 31.3998ZM185.5 27.5998C185.5 28.4998 185.8 29.2998 186.4 29.7998C186.9 30.2998 187.7 30.5998 188.4 30.5998C190 30.5998 191.4 29.1998 191.4 27.4998C191.4 26.5998 191.1 25.7998 190.5 25.2998C190 24.7998 189.2 24.4998 188.5 24.4998C186.9 24.4998 185.5 25.8998 185.5 27.5998Z" fill="#DCEEFD"/>
<path d="M180.2 32.1C179.3 32.1 178.4 31.7 177.7 31C177 30.3 176.6 29.3 176.6 28.3C176.6 26.2 178.3 24.5 180.3 24.5C181.2 24.5 182.1 24.9 182.8 25.6C183.5 26.3 183.9 27.3 183.9 28.3C183.9 30.4 182.2 32.1 180.2 32.1ZM180.3 25.2C178.7 25.2 177.3 26.6 177.3 28.3C177.3 29.1 177.6 29.9 178.2 30.5C178.7 31 179.5 31.3 180.2 31.3C181.8 31.3 183.2 29.9 183.2 28.2C183.2 27.4 182.9 26.6 182.3 26C181.8 25.5 181.1 25.2 180.3 25.2Z" fill="#DCEEFD"/>
<path d="M184.6 32.2004C184.5 32.2004 184.4 32.1004 184.4 32.0004C184.4 31.9004 184.4 31.8004 184.6 31.7004C184.8 31.6004 185.5 31.4004 185.6 31.0004C185.7 30.7004 185.2 29.7004 184.8 29.0004C184.5 28.5004 184.3 28.0004 184.2 27.7004C184.2 27.6004 184.2 27.5004 184.4 27.4004C184.5 27.4004 184.6 27.4004 184.7 27.6004C184.8 27.9004 185 28.4004 185.3 28.9004C185.9 30.1004 186.2 30.8004 186.1 31.3004C185.7 32.0004 184.7 32.2004 184.6 32.2004C184.7 32.2004 184.7 32.2004 184.6 32.2004Z" fill="#002031"/>
<path d="M183.6 27.5998C183.4 27.5998 183.3 27.4998 183.3 27.2998C183.3 27.0998 183.4 26.8998 183.6 26.8998L185.2 26.7998C185.4 26.7998 185.6 26.8998 185.6 27.0998C185.6 27.2998 185.5 27.4998 185.3 27.4998L183.6 27.5998Z" fill="#DCEEFD"/>
<path d="M171 29.2998C170.8 29.2998 170.7 29.1998 170.7 28.9998C170.7 28.7998 170.8 28.5998 171 28.5998L177.1 27.7998C177.3 27.7998 177.5 27.8998 177.5 28.0998C177.5 28.2998 177.4 28.4998 177.2 28.4998L171 29.2998Z" fill="#DCEEFD"/>
<path d="M168.7 34.9004C170.633 34.9004 172.2 33.3334 172.2 31.4004C172.2 29.4674 170.633 27.9004 168.7 27.9004C166.767 27.9004 165.2 29.4674 165.2 31.4004C165.2 33.3334 166.767 34.9004 168.7 34.9004Z" fill="#A87A6A"/>
<path d="M181.821 28.7827C182.203 28.724 182.458 28.3224 182.391 27.8857C182.324 27.449 181.96 27.1426 181.578 27.2013C181.196 27.26 180.94 27.6616 181.007 28.0983C181.074 28.535 181.439 28.8415 181.821 28.7827Z" fill="#002031"/>
<path d="M187.724 28.1821C188.106 28.1234 188.361 27.7218 188.294 27.2851C188.227 26.8484 187.863 26.542 187.481 26.6007C187.099 26.6594 186.843 27.061 186.911 27.4978C186.978 27.9345 187.342 28.2409 187.724 28.1821Z" fill="#002031"/>
<path d="M182.5 35.4005C180.7 35.4005 179.8 34.4005 179.8 34.3005C179.7 34.1005 179.7 33.9005 179.9 33.7005C180.1 33.6005 180.3 33.6005 180.5 33.8005C180.6 33.9005 181.8 35.3004 184.7 34.1004C184.9 34.0004 185.1 34.1005 185.2 34.3005C185.3 34.5005 185.2 34.7005 185 34.8005C184 35.2005 183.2 35.4005 182.5 35.4005Z" fill="#002031"/>
<path d="M177.3 25.8C177.2 25.8 177.1 25.8 177 25.7C176.8 25.6 176.8 25.3 177 25.1C177.1 25 178.7 23.1 180.3 23C180.6 23 180.7 23.2 180.7 23.4C180.7 23.6 180.5 23.8 180.3 23.8C179.3 23.9 178 25.1 177.6 25.6C177.5 25.8 177.4 25.8 177.3 25.8Z" fill="#002031"/>
<path d="M186 23.8002C185.8 23.8002 185.6 23.7002 185.6 23.5002C185.6 23.3002 185.7 23.1002 185.9 23.0002L188.1 22.7002C188.3 22.7002 188.5 22.8002 188.6 23.0002C188.6 23.2002 188.5 23.4002 188.3 23.5002L186 23.8002C186 23.8002 186.1 23.8002 186 23.8002Z" fill="#002031"/>
<path d="M180.4 40.6998L176.4 40.2998L180.9 42.9998L180.4 40.6998Z" fill="#A36B5B"/>
<path d="M166.1 67.3004C166 67.3004 165.9 67.2004 165.9 67.1004V52.1004C165.9 52.0004 166 51.9004 166.1 51.9004C166.2 51.9004 166.3 52.0004 166.3 52.1004V67.0004C166.4 67.2004 166.3 67.3004 166.1 67.3004Z" fill="white"/>
<path d="M205.6 81.0002H205.5C205.3 80.9002 205.2 80.7002 205.3 80.5002L206.1 78.5002C206.2 78.4002 206.3 78.3002 206.5 78.2002C206.7 78.2002 206.8 78.3002 206.9 78.4002L207.7 80.2002C207.8 80.4002 207.7 80.6002 207.5 80.7002C207.3 80.8002 207.1 80.7002 207 80.5002L206.6 79.6002L206.2 80.8002C205.9 80.9002 205.8 81.0002 205.6 81.0002Z" fill="#002031"/>
<path d="M152.6 83.1004L154.5 74.4004L152.8 75.8004L152.6 83.1004Z" fill="#002031"/>
<path d="M182.2 49.2998L189.1 113.3H203.2C206.1 113.3 208.2 110.7 207.6 107.9L194.4 54.9998C192.5 51.5998 188.9 49.4998 185 49.3998L182.2 49.2998Z" fill="#FE6F43"/>
<path d="M187.1 66.5004C187 66.5004 186.9 66.4004 186.9 66.3004L184.5 50.7004C184.5 50.6004 184.6 50.5004 184.7 50.4004C184.8 50.4004 184.9 50.5004 185 50.6004L187.4 66.2004C187.3 66.4004 187.2 66.5004 187.1 66.5004Z" fill="white"/>
<path d="M163.5 96.8004L151.9 103L152 100.5L162.5 94.9004L163.5 96.8004Z" fill="#F45A31"/>
<path d="M206.2 103.7L197.1 98.8004L198.1 96.9004L205.5 100.9L206.2 103.7Z" fill="#F45A31"/>
<path d="M204.9 98.2002C204.7 98.2002 204.6 98.1002 204.5 97.9002L198.4 72.5002C198.3 72.3002 198.5 72.1002 198.7 72.0002C198.9 71.9002 199.1 72.1002 199.2 72.3002L205.3 97.7002C205.4 97.9002 205.2 98.1002 204.9 98.2002C204.9 98.2002 205 98.2002 204.9 98.2002Z" fill="#002031"/>
<path d="M101.6 106.8L97.9004 110.5L99.7004 117.9H110.9V110.5H117.9L117.4 107L101.6 106.8Z" fill="#A87A6A"/>
<path d="M83.5998 155.4H82.7998V214H83.5998V155.4Z" fill="#002031"/>
<path d="M95.0998 155.4H94.2998V214H95.0998V155.4Z" fill="#002031"/>
<path d="M106.5 155.4H105.7V214H106.5V155.4Z" fill="#002031"/>
<path d="M118 155.4H117.2V214H118V155.4Z" fill="#002031"/>
<path d="M102.398 115.152L101.715 115.303L102.32 118.037L103.003 117.885L102.398 115.152Z" fill="#002031"/>
<path d="M105.597 115.143L104.913 115.294L105.518 118.028L106.201 117.877L105.597 115.143Z" fill="#002031"/>
<path d="M108.798 115.148L108.114 115.299L108.719 118.033L109.403 117.882L108.798 115.148Z" fill="#002031"/>
<path d="M253.6 31.6996C262.492 31.6996 269.7 24.6257 269.7 15.8996C269.7 7.17351 262.492 0.0996094 253.6 0.0996094C244.708 0.0996094 237.5 7.17351 237.5 15.8996C237.5 24.6257 244.708 31.6996 253.6 31.6996Z" fill="#1540EB"/>
<path d="M253.9 31.1994L248.1 36.7994C247.7 37.1994 247 36.8994 247 36.2994L247.4 28.8994L253.9 31.1994Z" fill="#1540EB"/>
<path d="M260.9 16.1994C260.7 16.2994 260.4 16.1994 260.3 15.9994L258.4 13.2994C258.3 13.1994 258.2 13.0994 258 13.0994L254.5 12.6994C254.4 12.6994 254.3 12.6994 254.3 12.6994L251.6 13.4994C251.5 13.4994 251.4 13.5994 251.3 13.6994L250.6 14.6994V14.7994L250.1 15.9994C250 16.1994 250.1 16.3994 250.2 16.5994L251.9 18.3994C252 18.5994 252.3 18.5994 252.5 18.5994L253.9 18.1994C254 18.1994 254.2 18.1994 254.3 18.1994L255.2 18.5994C255.3 18.6994 255.4 18.7994 255.5 18.8994L256.4 21.0994C256.4 21.1994 256.5 21.2994 256.4 21.3994L256.3 21.8994C256.3 21.9994 256.3 22.1994 256.4 22.2994L258 25.0994C258.1 25.2994 258.4 25.3994 258.7 25.3994L259.2 25.2994C259.3 25.2994 259.4 25.1994 259.5 25.0994L260.5 23.5994C260.6 23.4994 260.6 23.3994 260.6 23.2994V22.2994C260.6 22.1994 260.6 21.9994 260.7 21.8994L261 21.5994C261.1 21.4994 261.2 21.2994 261.1 21.0994L260.8 19.9994C260.8 19.8994 260.8 19.8994 260.8 19.7994V19.0994C260.8 18.9994 260.8 18.8994 260.9 18.8994L261.8 17.0994C261.8 16.5994 261.4 16.0994 260.9 16.1994ZM269.1 11.5994C268 7.59941 265.3 4.39941 262 2.39941L258.6 4.29941C258.5 4.39941 258.3 4.19941 258.4 4.09941L258.6 3.69941C258.6 3.59941 258.6 3.49941 258.5 3.49941L254.8 2.89941C254.7 2.89941 254.7 2.89941 254.6 2.99941L252.8 6.29941C252.7 6.39941 252.8 6.49941 252.9 6.49941L254.1 6.79941C254.2 6.79941 254.3 6.79941 254.3 6.69941L255 5.49941C255.1 5.29941 255.4 5.39941 255.3 5.59941V5.69941L255.4 5.79941C255.4 5.89941 255.5 5.89941 255.6 5.89941H255.8C256 5.89941 256.1 6.09941 255.9 6.19941L255.6 6.39941C255.5 6.39941 255.5 6.49941 255.5 6.49941V6.99941C255.5 7.09941 255.5 7.09941 255.4 7.09941L254.7 7.49941L253.6 7.69941H253.5L252.5 8.49941L251.7 9.29941C251.7 9.29941 251.6 9.39941 251.7 9.49941L251.9 10.0994C251.9 10.1994 251.9 10.2994 251.8 10.2994L251.1 10.5994C251 10.5994 251 10.6994 251 10.6994L250.9 11.4994C250.9 11.5994 251 11.6994 251.1 11.6994H252C252.1 11.6994 252.1 11.6994 252.1 11.5994L253.3 9.99941C253.3 9.89941 253.4 9.89941 253.5 9.89941L254.5 10.2994C254.5 10.2994 254.5 10.2994 254.6 10.2994L255.2 10.9994C255.3 11.0994 255.4 11.0994 255.5 10.9994L255.8 10.6994C255.8 10.6994 255.8 10.5994 255.8 10.4994L255.6 9.89941C255.6 9.79941 255.7 9.59941 255.8 9.69941L256.8 9.99941H257.3C257.4 9.99941 257.5 10.0994 257.5 10.1994L257.4 10.6994C257.4 10.7994 257.5 10.8994 257.6 10.8994L258.9 10.7994C259 10.7994 259.1 10.8994 259.1 10.9994L258.9 11.5994V11.6994L261.1 14.9994C261.2 15.0994 261.3 15.0994 261.3 14.9994L263.2 13.5994C263.3 13.5994 263.3 13.4994 263.3 13.3994C263.2 13.0994 263.1 12.1994 263.2 12.1994C263.3 12.1994 265 12.2994 265.5 12.2994C265.6 12.2994 265.6 12.2994 265.6 12.3994L267.1 14.8994C267.2 14.9994 267.3 14.9994 267.4 14.8994L268.6 13.3994C268.6 13.2994 268.7 13.2994 268.8 13.2994L269.8 13.4994C269.4 13.1994 269.3 12.3994 269.1 11.5994ZM250.4 2.89941L250.3 0.599414C250.3 0.499414 250.3 0.499414 250.2 0.399414C249.8 0.499414 249.5 0.499414 249.1 0.599414C246.9 1.19941 245 2.19941 243.4 3.49941C243.5 3.59941 243.6 3.69941 243.7 3.89941L244.7 6.19941C244.9 6.69941 245.4 6.89941 246 6.79941C246.2 6.79941 246.4 6.59941 246.6 6.49941L247.9 4.99941C248 4.89941 248 4.89941 248.1 4.79941L249.9 3.69941C250.3 3.69941 250.5 3.29941 250.4 2.89941ZM249.5 21.2994L247.1 20.4994H247L244.4 19.0994C244.3 18.9994 244.1 18.9994 244 18.9994L242.7 19.1994C242.5 19.1994 242.4 19.2994 242.3 19.3994L238.2 17.6994C238.1 17.6994 238.1 17.5994 238.1 17.5994L237.8 16.1994C237.8 16.0994 237.8 15.9994 237.9 15.9994L239.3 15.4994C239.3 15.4994 239.3 15.4994 239.4 15.4994L240.3 15.3994C240.4 15.3994 240.4 15.3994 240.4 15.2994L241.6 13.4994C241.6 13.4994 241.6 13.4994 241.6 13.3994L241.8 12.2994C241.8 12.1994 241.8 12.1994 241.9 12.1994L243.6 11.1994L243.7 11.0994L243.9 10.1994C243.9 10.0994 243.9 10.0994 243.9 9.99941L242.4 8.19941L242.3 8.09941H240.7C240.6 8.09941 240.5 8.09941 240.5 8.19941L240.2 8.99941L239.9 9.99941C239.9 10.0994 239.8 10.1994 239.7 10.0994L238.7 9.79941C237.6 12.3994 237.2 15.1994 237.6 18.0994L238.3 18.4994L242.1 19.8994L241.7 21.4994C241.7 21.5994 241.7 21.7994 241.8 21.8994L242.9 23.8994C243 23.9994 243.1 24.0994 243.2 24.1994L243.9 24.4994C244.1 24.5994 244.3 24.7994 244.3 24.9994L244.4 28.0994L244.5 28.7994C245 29.1994 245.6 29.4994 246.2 29.7994L247.7 26.2994C247.7 26.2994 247.7 26.1994 247.8 26.1994L248.7 24.9994C248.8 24.8994 248.8 24.8994 248.9 24.7994L249.5 24.4994C249.7 24.3994 249.8 24.1994 249.8 23.9994L250 21.6994C249.9 21.5994 249.7 21.3994 249.5 21.2994Z" fill="#1BC1D7"/>
<path d="M213.8 31.4C222.47 31.4 229.5 24.3709 229.5 15.7C229.5 7.02913 222.47 0 213.8 0C205.129 0 198.1 7.02913 198.1 15.7C198.1 24.3709 205.129 31.4 213.8 31.4Z" fill="#DCEEFD"/>
<path d="M223.7 7.6002L222 5.8002C221.9 5.7002 221.7 5.6002 221.5 5.6002L217.4 6.1002C217.2 6.1002 217 6.2002 216.9 6.3002L214.9 7.5002C214.7 7.7002 214.5 7.9002 214.5 8.2002V10.2002C214.5 10.4002 214.6 10.6002 214.9 10.6002L215.5 10.7002C215.7 10.7002 215.7 10.9002 215.7 11.0002C215.7 11.1002 215.6 11.4002 215.6 11.5002L215.7 12.3002C215.7 12.5002 215.8 12.6002 216 12.7002L216.7 13.1002C216.8 13.2002 216.9 13.4002 216.9 13.5002L216.8 14.0002C216.8 14.2002 216.6 14.4002 216.5 14.4002L216 14.7002C215.9 14.8002 215.7 15.0002 215.6 15.1002L215.5 15.3002C215.4 15.4002 215.2 15.6002 215.1 15.7002L214.9 15.8002C214.8 15.9002 214.5 15.9002 214.4 15.8002L213.6 15.5002C213.5 15.5002 213.4 15.4002 213.3 15.4002C213 15.3002 212.8 15.0002 212.8 14.7002V13.3002C212.8 13.1002 212.9 12.8002 213.2 12.7002L213.5 12.6002C213.7 12.6002 213.8 12.4002 213.8 12.3002V12.1002C213.8 11.9002 213.7 11.8002 213.6 11.8002H213.3C213.1 11.8002 213 11.6002 212.9 11.5002L212.5 10.6002C212.4 10.5002 212.3 10.4002 212.1 10.5002L211.9 10.6002C211.8 10.7002 211.6 10.6002 211.5 10.5002L211.3 10.2002C211.2 10.1002 211.2 10.1002 211.1 10.1002C211 10.1002 210.8 10.2002 210.8 10.3002L209.6 15.4002C209.6 15.6002 209.5 15.8002 209.4 15.9002L207.8 18.0002C207.7 18.1002 207.5 18.3002 207.4 18.4002L207.2 18.7002C207.1 18.8002 206.9 19.0002 206.7 19.2002C206.6 19.3002 206.5 19.5002 206.5 19.6002C206.5 19.7002 206.6 19.8002 206.7 19.8002C206.9 19.8002 207 20.0002 207.1 20.1002V20.2002C207.1 20.4002 207.1 20.4002 206.9 20.3002L206.8 20.2002C206.7 20.1002 206.4 20.0002 206.3 20.1002H205.9C205.7 20.1002 205.6 20.3002 205.6 20.4002V20.5002C205.6 20.7002 205.8 20.8002 205.9 20.8002H206.4C206.5 20.8002 206.5 20.8002 206.6 20.9002C206.9 21.1002 207.7 21.8002 207.8 21.9002C207.9 22.0002 207.9 22.1002 207.9 22.2002C207.8 22.3002 207.7 22.3002 207.6 22.3002L207.1 22.0002C207 21.9002 206.7 21.9002 206.6 21.9002L205.9 22.0002C205.8 22.0002 205.6 22.0002 205.5 21.9002C205.3 21.8002 205 21.7002 204.8 21.9002L204.7 22.0002C204.6 22.1002 204.6 22.3002 204.7 22.4002C204.8 22.4002 204.9 22.5002 204.9 22.5002L206 22.9002C206.1 23.0002 206.4 22.9002 206.5 22.8002L206.6 22.7002C206.7 22.6002 206.9 22.5002 207.1 22.6002L207.8 22.9002C207.9 23.0002 208 23.1002 207.9 23.2002C207.8 23.3002 207.6 23.4002 207.5 23.3002L207.2 23.2002C207.1 23.1002 206.8 23.2002 206.7 23.2002L206.6 23.3002C206.5 23.4002 206.2 23.4002 206.1 23.3002L205 22.9002C204.9 22.8002 204.6 22.8002 204.5 22.9002L204.1 23.1002C204 23.2002 203.8 23.3002 203.8 23.5002V23.6002C203.8 23.8002 203.9 24.0002 204 24.0002L204.2 24.1002C204.3 24.2002 204.5 24.2002 204.6 24.1002L204.8 23.9002C204.9 23.8002 205.1 23.8002 205.2 23.9002L205.8 24.4002C205.9 24.5002 206.1 24.6002 206.3 24.5002L207.3 24.3002C207.5 24.3002 207.7 24.1002 207.8 24.0002L208.3 23.5002C208.4 23.4002 208.6 23.3002 208.8 23.3002H209.2C209.4 23.3002 209.5 23.2002 209.6 23.0002L209.7 22.9002C209.8 22.8002 209.9 22.6002 210.1 22.6002L210.8 22.4002C211 22.4002 211.2 22.4002 211.3 22.5002L211.5 22.6002C211.6 22.7002 211.9 22.7002 212 22.7002L212.4 22.6002C212.6 22.6002 212.8 22.6002 212.8 22.8002L213.5 23.8002C213.6 23.9002 213.8 24.0002 214 24.0002H214.9C215.1 24.0002 215.3 24.1002 215.4 24.2002L216.7 25.1002C216.8 25.2002 216.9 25.4002 216.8 25.5002L215.8 27.2002C215.7 27.3002 215.7 27.6002 215.8 27.7002L216.2 28.2002C216.3 28.3002 216.5 28.4002 216.7 28.4002H217.7C217.9 28.4002 218 28.3002 218 28.1002L218.1 27.0002C218.1 26.8002 218 26.7002 217.8 26.7002C217.6 26.7002 217.4 26.6002 217.4 26.5002C217.3 26.4002 217.4 26.2002 217.5 26.1002L218.3 25.5002C218.4 25.4002 218.5 25.2002 218.5 25.1002C218.5 24.9002 218.5 24.7002 218.6 24.6002L219.1 23.5002C219.2 23.4002 219.2 23.1002 219.1 23.0002L218.5 21.5002C218.4 21.4002 218.3 21.1002 218.3 21.0002L217.8 20.1002C217.7 20.0002 217.8 19.8002 217.9 19.7002L218.4 19.3002C218.5 19.2002 218.7 19.2002 218.9 19.2002L219.7 19.5002C219.8 19.6002 220.1 19.6002 220.2 19.5002L221.4 19.1002C221.5 19.0002 221.8 18.9002 221.8 18.8002L222 18.6002C222.1 18.5002 222.1 18.3002 221.9 18.2002L221.6 18.0002C221.5 17.9002 221.5 17.8002 221.6 17.6002L223 16.4002C223.1 16.3002 223.2 16.1002 223.2 15.9002L223.1 14.7002C223.1 14.5002 222.9 14.4002 222.8 14.4002L221.8 14.3002C221.6 14.3002 221.5 14.1002 221.5 14.0002V13.0002C221.5 12.8002 221.6 12.7002 221.8 12.7002H222.9C223.1 12.7002 223.2 12.6002 223.2 12.4002L223.9 8.2002C223.9 7.9002 223.9 7.7002 223.7 7.6002ZM213.1 15.1002C213.2 15.2002 213.3 15.3002 213.5 15.4002L214.2 15.6002C214.3 15.6002 214.6 15.6002 214.7 15.6002H214.8C214.9 15.5002 215.1 15.4002 215.2 15.3002V15.2002C215.3 15.1002 215.4 14.9002 215.6 14.8002L216.1 14.4002C216.2 14.3002 216.4 14.1002 216.4 14.0002V13.8002C216.4 13.7002 216.3 13.5002 216.2 13.4002L215.7 13.1002C215.6 13.0002 215.4 13.0002 215.2 13.1002L213.1 14.7002C213.1 14.9002 213 15.0002 213.1 15.1002ZM211 9.6002C211.1 9.6002 211.2 9.5002 211.3 9.4002L211.6 8.9002C211.7 8.8002 211.7 8.5002 211.6 8.4002L211.5 8.3002C211.4 8.2002 211.3 8.2002 211.2 8.3002L210.9 8.9002C210.8 9.0002 210.8 9.3002 210.8 9.4002C210.8 9.5002 210.9 9.6002 211 9.6002ZM211.7 7.8002C211.9 7.9002 212.1 7.9002 212.2 7.8002L212.7 7.3002C212.8 7.2002 212.8 7.0002 212.8 7.0002C212.7 6.9002 212.5 7.0002 212.4 7.1002L211.7 7.6002C211.6 7.6002 211.6 7.7002 211.7 7.8002ZM213.1 6.6002C213.2 6.7002 213.3 6.8002 213.4 6.7002L214.5 6.1002C214.6 6.0002 214.8 5.9002 214.9 5.8002C215 5.7002 215 5.6002 214.8 5.7002L213.1 6.1002C212.9 6.1002 212.9 6.3002 212.9 6.4002L213.1 6.6002ZM216 5.9002H216.3C216.5 5.9002 216.7 5.9002 216.9 5.8002L217.4 5.6002C217.5 5.5002 217.5 5.5002 217.4 5.5002H216.2C216 5.5002 215.9 5.6002 215.9 5.7002C215.7 5.8002 215.8 5.9002 216 5.9002ZM218.5 5.6002L219.1 5.3002C219.2 5.2002 219.2 5.2002 219.1 5.2002H218.5C218.3 5.2002 218.2 5.3002 218.2 5.5002C218.2 5.6002 218.4 5.7002 218.5 5.6002ZM206.1 21.8002H205.7C205.6 21.8002 205.4 21.7002 205.4 21.6002C205.4 21.5002 205.5 21.3002 205.6 21.3002H206C206.1 21.3002 206.3 21.4002 206.3 21.5002C206.3 21.6002 206.2 21.8002 206.1 21.8002Z" fill="#1BC1D7"/>
<path d="M215 31.2004L220.8 36.8004C221.2 37.2004 221.9 36.9004 221.9 36.3004L221.5 28.9004L215 31.2004Z" fill="#DCEEFD"/>
</svg>
