<?xml version="1.0" encoding="utf-8"?>
<!-- Generator: Adobe Illustrator 24.3.0, SVG Export Plug-In . SVG Version: 6.00 Build 0)  -->
<svg version="1.1" id="Layer_1" xmlns="http://www.w3.org/2000/svg" xmlns:xlink="http://www.w3.org/1999/xlink" x="0px" y="0px"
	 viewBox="0 0 335 236" style="enable-background:new 0 0 335 236;" xml:space="preserve">
<style type="text/css">
	.st0{fill:#002031;}
	.st1{fill:#1540EB;}
	.st2{fill:#FE6F43;}
	.st3{fill:#A87A6A;}
	.st4{fill:#DCEEFD;}
	.st5{fill:#104A4A;}
	.st6{fill:#FFCC00;}
	.st7{fill:#82C6F8;}
	.st8{fill:#59ACF5;}
	.st9{fill:#F45A31;}
	.st10{fill:#FFFFFF;}
	.st11{fill-rule:evenodd;clip-rule:evenodd;fill:#002031;}
	.st12{fill:#A36B5B;}
	.st13{fill:#1BC1D7;}
	.st14{fill-rule:evenodd;clip-rule:evenodd;fill:#DCEEFD;}
	.st15{fill:#F4C9DB;}
	.st16{fill:#EDA7C5;}
	.st17{fill-rule:evenodd;clip-rule:evenodd;fill:#FFFFFF;}
	.st18{fill-rule:evenodd;clip-rule:evenodd;fill:#59ACF5;}
	.st19{fill-rule:evenodd;clip-rule:evenodd;fill:#3DEC94;}
	.st20{fill-rule:evenodd;clip-rule:evenodd;fill:#1540EB;}
	.st21{fill:#237978;}
	.st22{fill:#478F8E;}
	.st23{fill:#99E6FF;}
</style>
<g>
	<g>
		<circle class="st4" cx="167.7" cy="116.9" r="114.1"/>
	</g>
	<g>
		<g>
			<path class="st0" d="M67.7,130.2L54.7,53.4c-0.6-3.7,1.9-7.4,5.6-8L56,46.1c-3.7,0.6-6.2,4.1-5.6,7.8l12.9,77
				c0.6,3.7,4.1,6.2,7.8,5.6l4.3-0.7C71.8,136.4,68.3,133.9,67.7,130.2z"/>
		</g>
		<g>
			<path class="st10" d="M202.4,114.5L73.8,136.2c-3.7,0.6-7.2-1.9-7.8-5.6L53.1,53.8c-0.6-3.7,1.9-7.2,5.6-7.8l128.6-21.7
				c3.7-0.6,7.2,1.9,7.8,5.6l12.9,76.8C208.6,110.4,206.1,113.9,202.4,114.5z"/>
		</g>
		<g>
			<path class="st14" d="M172.2,73.1l-5.3,47.4l35.5-6c3.7-0.6,6.2-4.1,5.6-7.8l-6.3-37.2L179.8,67C176,66.6,172.6,69.3,172.2,73.1z
				"/>
		</g>
		<g>
			<path class="st0" d="M65.5,131.1c-0.2,0-0.3-0.1-0.3-0.3L52.2,54c-0.3-1.9,0.1-3.8,1.2-5.3c1.1-1.5,2.7-2.6,4.6-2.9l70.2-11.8
				c0.2,0,0.4,0.1,0.4,0.3c0,0.2-0.1,0.4-0.3,0.4L58.2,46.5c-1.7,0.3-3.2,1.2-4.2,2.6c-1,1.4-1.4,3.1-1.1,4.8l12.9,76.8
				C65.9,130.8,65.7,131,65.5,131.1C65.5,131.1,65.5,131.1,65.5,131.1z"/>
		</g>
		<g>
			<g>
				<path class="st4" d="M100.3,90.2l-26.9,4.5c-1.6,0.3-3.1-0.8-3.4-2.4l-5.7-33.9c-0.3-1.6,0.8-3.1,2.4-3.4l26.9-4.5
					c1.6-0.3,3.1,0.8,3.4,2.4l5.7,33.9C103,88.4,101.9,89.9,100.3,90.2z"/>
			</g>
			<g>
				<g>
					<path class="st0" d="M90.6,61.6c0.9,1.4,0.4,4.7-1.3,4.3c-1.1-1-2.1-2.6-2.4-4.3C86.7,59.2,89.9,60,90.6,61.6z"/>
				</g>
				<g>
					<path class="st1" d="M73.4,94.7l26.9-4.5c1.5-0.3,2.5-1.6,2.4-3.1l-1.9-3.9c-1.8-3.4-5.6-5.2-9.3-4.6L78,80.9
						c-3.5,0.6-6.3,3.1-7.1,6.5l-0.9,4.4l0.1,0.5C70.3,93.9,71.8,95,73.4,94.7z"/>
				</g>
				<g>
					<path class="st15" d="M79.2,72.1c0,0,1.3,1.8,2.1,2l-0.2,6.4l5.3,3.3l2.4-5l-0.8-5.1c1.6-0.6,3.7-2.2,3.2-5
						c-0.2-1.1-0.7-4.3-1.8-5.9c-0.1-0.2-0.2-0.3-0.3-0.5c-0.4-0.6-0.8-1.1-1.3-1.6c-0.9-0.9-2-1.5-3.4-1.6c-0.5,0-1.6,0.1-2.1,0.2
						c-0.6,0.1-1.2,0.2-1.8,0.4c-1.5,0.6-2.5,2.2-2.9,3.8c-0.3,1.3-0.3,2.6-0.2,4c0,0.2,0.2,0.7,0.1,1c0,0,0,0.1-0.1,0.1
						c-0.1,0.2-0.3,0.3-0.4,0.5c-0.3,0.4-0.4,1-0.3,1.5C77,71.5,78.1,72.3,79.2,72.1z"/>
				</g>
				<g>
					<path class="st16" d="M88.1,73.5c0,0-1.4,0.6-3.8,0.7l4,2.5L88.1,73.5z"/>
				</g>
				<g>
					<path class="st0" d="M86.1,69.4c-0.1,0-0.2-0.1-0.2-0.2c0-0.1,0-0.3,0.2-0.3c0,0,0.3-0.1,0.4-0.4c0-0.2-0.2-0.9-0.4-1.3
						c-0.2-0.4-0.3-0.9-0.4-1.1c0-0.1,0.1-0.3,0.2-0.3c0.1,0,0.3,0.1,0.3,0.2c0,0.2,0.2,0.6,0.3,1c0.3,0.8,0.5,1.3,0.4,1.6
						C86.8,69.2,86.2,69.4,86.1,69.4C86.2,69.4,86.2,69.4,86.1,69.4z"/>
				</g>
				<g>
					<circle class="st0" cx="83" cy="67.2" r="0.4"/>
				</g>
				<g>
					<circle class="st0" cx="88.1" cy="66.4" r="0.4"/>
				</g>
				<g>
					<path class="st0" d="M76,62.9c-0.8-4.6,5.8-4.7,5.8-4.7s0.4-1.5,1.1-1.9c1.2-0.8,1.7,0.5,1.5,1.5c0.6-1.1,0.9-2.6,2.3-2.6
						c1.2,0.2,1.4,2.1,0.7,2.8c4.5-4.3,5.4,4.6-3,5.7c-2.4,0.3-4.8,0.1-5-0.1c0.4,2.4,1,5.2-1.3,6C78,69.4,76.2,65.5,76,62.9z"/>
				</g>
				<g>
					<path class="st15" d="M78.9,69.3l0-1.5c0,0-2.4,0.5-2.2,2.3L78.9,69.3z"/>
				</g>
				<g>
					<path class="st0" d="M85.6,70.6c-0.3,0-0.7,0-1.1-0.1c-0.1,0-0.2-0.2-0.2-0.3c0-0.1,0.1-0.2,0.3-0.2c1.7,0.3,2.9-0.3,2.9-0.3
						c0.1-0.1,0.3,0,0.3,0.1c0.1,0.1,0,0.3-0.1,0.3C87.7,70.2,86.9,70.6,85.6,70.6z"/>
				</g>
				<g>
					<circle class="st15" cx="91" cy="66.9" r="1.7"/>
				</g>
			</g>
		</g>
		<g>
			
				<rect x="111.6" y="41.3" transform="matrix(0.9861 -0.166 0.166 0.9861 -5.1231 25.1979)" class="st0" width="73.2" height="3.9"/>
		</g>
		<g>
			
				<rect x="161.9" y="44.1" transform="matrix(0.9861 -0.166 0.166 0.9861 -5.1148 29.4477)" class="st0" width="23.3" height="2.3"/>
		</g>
		<g>
			<g>
				
					<rect x="114.2" y="60" transform="matrix(0.9861 -0.166 0.166 0.9861 -8.2204 22.4923)" class="st0" width="32.6" height="0.8"/>
			</g>
			<g>
				
					<rect x="115.8" y="70.2" transform="matrix(0.9861 -0.166 0.166 0.9861 -9.9597 21.9487)" class="st0" width="21.1" height="0.8"/>
			</g>
			<g>
				
					<rect x="117.4" y="79.3" transform="matrix(0.9861 -0.166 0.166 0.9861 -11.462 22.3325)" class="st0" width="21.1" height="0.8"/>
			</g>
			<g>
				
					<rect x="142.3" y="75.4" transform="matrix(0.9861 -0.166 0.166 0.9861 -10.4852 26.1554)" class="st0" width="17.9" height="0.8"/>
			</g>
			<g>
				<g>
					<circle class="st0" cx="115.8" cy="66" r="0.9"/>
				</g>
				<g>
					<circle class="st0" cx="119.3" cy="65.4" r="0.9"/>
				</g>
				<g>
					<circle class="st0" cx="122.8" cy="64.9" r="0.9"/>
				</g>
				<g>
					<circle class="st0" cx="126.2" cy="64.3" r="0.9"/>
				</g>
				<g>
					<circle class="st0" cx="129.7" cy="63.7" r="0.9"/>
				</g>
				<g>
					<circle class="st0" cx="133.1" cy="63.1" r="0.9"/>
				</g>
				<g>
					<circle class="st0" cx="136.6" cy="62.5" r="0.9"/>
				</g>
				<g>
					<circle class="st0" cx="140" cy="62" r="0.9"/>
				</g>
				<g>
					<circle class="st0" cx="143.5" cy="61.4" r="0.9"/>
				</g>
				<g>
					<circle class="st0" cx="146.9" cy="60.8" r="0.9"/>
				</g>
				<g>
					<circle class="st0" cx="150.4" cy="60.2" r="0.9"/>
				</g>
			</g>
			<g>
				<g>
					<circle class="st0" cx="117.4" cy="75.2" r="0.9"/>
				</g>
				<g>
					<circle class="st0" cx="120.9" cy="74.7" r="0.9"/>
				</g>
				<g>
					<circle class="st0" cx="124.3" cy="74.1" r="0.9"/>
				</g>
				<g>
					<circle class="st0" cx="127.8" cy="73.5" r="0.9"/>
				</g>
				<g>
					<circle class="st0" cx="131.2" cy="72.9" r="0.9"/>
				</g>
				<g>
					<circle class="st0" cx="134.7" cy="72.3" r="0.9"/>
				</g>
				<g>
					<circle class="st0" cx="138.1" cy="71.7" r="0.9"/>
				</g>
				<g>
					<circle class="st0" cx="141.6" cy="71.2" r="0.9"/>
				</g>
			</g>
			<g>
				<g>
					<circle class="st0" cx="118.9" cy="84.4" r="0.9"/>
				</g>
				<g>
					<circle class="st0" cx="122.4" cy="83.9" r="0.9"/>
				</g>
				<g>
					<circle class="st0" cx="125.9" cy="83.3" r="0.9"/>
				</g>
				<g>
					<circle class="st0" cx="129.3" cy="82.7" r="0.9"/>
				</g>
				<g>
					<circle class="st0" cx="143.1" cy="80.4" r="0.9"/>
				</g>
				<g>
					<circle class="st0" cx="146.6" cy="79.8" r="0.9"/>
				</g>
				<g>
					<circle class="st0" cx="150" cy="79.2" r="0.9"/>
				</g>
			</g>
		</g>
		<g>
			<path class="st0" d="M117.7,100l-0.3-0.7c1-0.4,1.8-1,2.5-1.8c-0.4-1.4-0.3-3.4,0.2-4.9c0.5-1.4,1.4-2.2,2.6-2.4
				c0.5-0.1,0.9,0.2,1,0.7c0.4,1.3-0.8,4.4-2.9,6.8c0.1,0.2,0.2,0.4,0.3,0.5c0.6,0.7,1.9,0.5,2.9,0.1c1.2-0.6,2.7-2.2,3.9-3.9
				c-0.2-1.5-0.1-3.1,0.3-4.4c0.4-1.2,1.1-2,1.9-2.1c0.5-0.1,0.9,0.1,1,0.6c0.3,1-0.9,3.7-2.5,6.1c0.2,0.8,0.4,1.5,0.8,1.8
				c0.3,0.3,1-0.1,1.4-0.4c1.2-0.9,2.5-2.6,3.6-4.2c-0.3-1.2-0.3-2.7,0.1-3.6c0.4-0.9,1.1-1,1.5-0.9c0.4,0.1,0.7,0.3,0.8,0.7
				c0.2,0.8-0.5,2.3-1.5,4c0.1,0.5,0.3,0.8,0.6,1c1.2,1,3.1,0.3,3.9,0c1.8-0.8,3-1.6,3.6-2.8l0.7,0.4c-1,1.7-2.7,2.6-4,3.1
				c-1.1,0.5-3.2,1.1-4.7-0.1c-0.2-0.2-0.4-0.5-0.6-0.8c-1.1,1.6-2.4,3.1-3.4,3.9c-1,0.8-1.9,0.9-2.5,0.3c-0.3-0.4-0.6-0.9-0.8-1.5
				c-1.2,1.7-2.6,3.1-3.8,3.6c-1.3,0.6-2.9,0.8-3.8-0.3c-0.1-0.1-0.2-0.3-0.3-0.4C119.5,99,118.6,99.6,117.7,100z M122.8,91
				C122.8,91,122.8,91,122.8,91c-1.1,0.2-1.7,1.1-2,1.9c-0.5,1.2-0.5,2.7-0.3,3.9c1.7-2.1,2.6-4.8,2.4-5.6
				C122.9,91.1,122.9,91,122.8,91z M130.4,88.6C130.4,88.6,130.3,88.6,130.4,88.6c-0.8,0.1-1.2,1-1.4,1.6c-0.3,0.9-0.4,2-0.4,3.1
				c0.9-1.5,1.6-2.9,1.8-3.9C130.5,88.9,130.5,88.7,130.4,88.6L130.4,88.6C130.4,88.6,130.4,88.6,130.4,88.6z M135.8,88
				c-0.1,0-0.4,0.1-0.5,0.5c-0.2,0.6-0.3,1.4-0.2,2.2c0.7-1.2,1.1-2.2,0.9-2.6C136,88,136,88,135.8,88C135.9,88,135.9,88,135.8,88z"
				/>
		</g>
		<g>
			<g>
				<circle class="st4" cx="74.4" cy="103.3" r="2.1"/>
			</g>
			<g>
				<circle class="st4" cx="81.5" cy="102.2" r="2.1"/>
			</g>
			<g>
				<circle class="st4" cx="88.5" cy="101" r="2.1"/>
			</g>
			<g>
				<circle class="st4" cx="95.5" cy="99.8" r="2.1"/>
			</g>
			<g>
				<circle class="st4" cx="102.6" cy="98.6" r="2.1"/>
			</g>
		</g>
		<g>
			<g>
				<circle class="st4" cx="162.4" cy="88.5" r="2.1"/>
			</g>
			<g>
				<circle class="st4" cx="169.5" cy="87.3" r="2.1"/>
			</g>
			<g>
				<circle class="st4" cx="176.5" cy="86.2" r="2.1"/>
			</g>
			<g>
				<circle class="st4" cx="183.5" cy="85" r="2.1"/>
			</g>
			<g>
				<circle class="st4" cx="190.6" cy="83.8" r="2.1"/>
			</g>
		</g>
		<g>
			<g>
				<path class="st0" d="M76.5,120.7c-0.1,0-0.1,0-0.2-0.1l-2.2-1.6c-0.2-0.1-0.2-0.3-0.1-0.5l1.6-2.2c0.1-0.2,0.3-0.2,0.5-0.1
					c0.2,0.1,0.2,0.3,0.1,0.5l-1.4,1.9l1.9,1.4c0.2,0.1,0.2,0.3,0.1,0.5C76.7,120.6,76.6,120.7,76.5,120.7z"/>
			</g>
			<g>
				<path class="st0" d="M80.7,120c-0.1,0-0.1,0-0.2-0.1l-2.2-1.6c-0.2-0.1-0.2-0.3-0.1-0.5l1.6-2.2c0.1-0.2,0.3-0.2,0.5-0.1
					c0.2,0.1,0.2,0.3,0.1,0.5L79,118l1.9,1.4c0.2,0.1,0.2,0.3,0.1,0.5C80.9,119.9,80.8,120,80.7,120z"/>
			</g>
			<g>
				<path class="st0" d="M84.9,119.3c-0.1,0-0.1,0-0.2-0.1l-2.2-1.6c-0.1-0.1-0.1-0.1-0.1-0.2c0-0.1,0-0.2,0.1-0.3L84,115
					c0.1-0.2,0.3-0.2,0.5-0.1c0.2,0.1,0.2,0.3,0.1,0.5l-1.4,1.9l1.9,1.4c0.2,0.1,0.2,0.3,0.1,0.5C85.1,119.2,85,119.3,84.9,119.3z"
					/>
			</g>
			<g>
				<path class="st0" d="M89.2,118.5c-0.1,0-0.1,0-0.2-0.1l-2.2-1.6c-0.1-0.1-0.1-0.1-0.1-0.2c0-0.1,0-0.2,0.1-0.3l1.6-2.2
					c0.1-0.2,0.3-0.2,0.5-0.1c0.2,0.1,0.2,0.3,0.1,0.5l-1.4,1.9l1.9,1.4c0.2,0.1,0.2,0.3,0.1,0.5C89.4,118.5,89.3,118.5,89.2,118.5z
					"/>
			</g>
			<g>
				<path class="st0" d="M93.4,117.8c-0.1,0-0.1,0-0.2-0.1l-2.2-1.6c-0.1-0.1-0.1-0.1-0.1-0.2c0-0.1,0-0.2,0.1-0.3l1.6-2.2
					c0.1-0.2,0.3-0.2,0.5-0.1c0.2,0.1,0.2,0.3,0.1,0.5l-1.4,1.9l1.9,1.4c0.2,0.1,0.2,0.3,0.1,0.5C93.6,117.8,93.5,117.8,93.4,117.8z
					"/>
			</g>
			<g>
				<path class="st0" d="M97.6,117.1c-0.1,0-0.1,0-0.2-0.1l-2.2-1.6c-0.2-0.1-0.2-0.3-0.1-0.5l1.6-2.2c0.1-0.2,0.3-0.2,0.5-0.1
					c0.2,0.1,0.2,0.3,0.1,0.5l-1.4,1.9l1.9,1.4c0.2,0.1,0.2,0.3,0.1,0.5C97.8,117.1,97.7,117.1,97.6,117.1z"/>
			</g>
			<g>
				<path class="st0" d="M101.9,116.4c-0.1,0-0.1,0-0.2-0.1l-2.2-1.6c-0.2-0.1-0.2-0.3-0.1-0.5l1.6-2.2c0.1-0.2,0.3-0.2,0.5-0.1
					c0.2,0.1,0.2,0.3,0.1,0.5l-1.4,1.9l1.9,1.4c0.2,0.1,0.2,0.3,0.1,0.5C102.1,116.4,102,116.4,101.9,116.4z"/>
			</g>
			<g>
				<path class="st0" d="M106.1,115.7c-0.1,0-0.1,0-0.2-0.1l-2.2-1.6c-0.2-0.1-0.2-0.3-0.1-0.5l1.6-2.2c0.1-0.2,0.3-0.2,0.5-0.1
					c0.2,0.1,0.2,0.3,0.1,0.5l-1.4,1.9l1.9,1.4c0.2,0.1,0.2,0.3,0.1,0.5C106.3,115.6,106.2,115.7,106.1,115.7z"/>
			</g>
			<g>
				<path class="st0" d="M110.3,115c-0.1,0-0.1,0-0.2-0.1l-2.2-1.6c-0.2-0.1-0.2-0.3-0.1-0.5l1.6-2.2c0.1-0.2,0.3-0.2,0.5-0.1
					c0.2,0.1,0.2,0.3,0.1,0.5l-1.4,1.9l1.9,1.4c0.2,0.1,0.2,0.3,0.1,0.5C110.5,114.9,110.4,115,110.3,115z"/>
			</g>
			<g>
				<path class="st0" d="M114.5,114.3c-0.1,0-0.1,0-0.2-0.1l-2.2-1.6c-0.2-0.1-0.2-0.3-0.1-0.5l1.6-2.2c0.1-0.2,0.3-0.2,0.5-0.1
					c0.2,0.1,0.2,0.3,0.1,0.5l-1.4,1.9l1.9,1.4c0.2,0.1,0.2,0.3,0.1,0.5C114.8,114.2,114.7,114.3,114.5,114.3z"/>
			</g>
			<g>
				<path class="st0" d="M118.8,113.6c-0.1,0-0.1,0-0.2-0.1l-2.2-1.6c-0.2-0.1-0.2-0.3-0.1-0.5l1.6-2.2c0.1-0.2,0.3-0.2,0.5-0.1
					c0.2,0.1,0.2,0.3,0.1,0.5l-1.4,1.9l1.9,1.4c0.2,0.1,0.2,0.3,0.1,0.5C119,113.5,118.9,113.6,118.8,113.6z"/>
			</g>
			<g>
				<path class="st0" d="M123,112.8c-0.1,0-0.1,0-0.2-0.1l-2.2-1.6c-0.2-0.1-0.2-0.3-0.1-0.5l1.6-2.2c0.1-0.2,0.3-0.2,0.5-0.1
					c0.2,0.1,0.2,0.3,0.1,0.5l-1.4,1.9l1.9,1.4c0.2,0.1,0.2,0.3,0.1,0.5C123.2,112.8,123.1,112.8,123,112.8z"/>
			</g>
			<g>
				<path class="st0" d="M127.2,112.1c-0.1,0-0.1,0-0.2-0.1l-2.2-1.6c-0.1-0.1-0.1-0.1-0.1-0.2c0-0.1,0-0.2,0.1-0.3l1.6-2.2
					c0.1-0.2,0.3-0.2,0.5-0.1c0.2,0.1,0.2,0.3,0.1,0.5l-1.4,1.9l1.9,1.4c0.2,0.1,0.2,0.3,0.1,0.5
					C127.5,112.1,127.3,112.1,127.2,112.1z"/>
			</g>
			<g>
				<path class="st0" d="M131.5,111.4c-0.1,0-0.1,0-0.2-0.1l-2.2-1.6c-0.1-0.1-0.1-0.1-0.1-0.2c0-0.1,0-0.2,0.1-0.3l1.6-2.2
					c0.1-0.2,0.3-0.2,0.5-0.1c0.2,0.1,0.2,0.3,0.1,0.5l-1.4,1.9l1.9,1.4c0.2,0.1,0.2,0.3,0.1,0.5
					C131.7,111.4,131.6,111.4,131.5,111.4z"/>
			</g>
			<g>
				<path class="st0" d="M135.7,110.7c-0.1,0-0.1,0-0.2-0.1l-2.2-1.6c-0.1-0.1-0.1-0.1-0.1-0.2c0-0.1,0-0.2,0.1-0.3l1.6-2.2
					c0.1-0.2,0.3-0.2,0.5-0.1c0.2,0.1,0.2,0.3,0.1,0.5l-1.4,1.9l1.9,1.4c0.2,0.1,0.2,0.3,0.1,0.5
					C135.9,110.7,135.8,110.7,135.7,110.7z"/>
			</g>
			<g>
				<path class="st0" d="M139.9,110c-0.1,0-0.1,0-0.2-0.1l-2.2-1.6c-0.1-0.1-0.1-0.1-0.1-0.2c0-0.1,0-0.2,0.1-0.3l1.6-2.2
					c0.1-0.2,0.3-0.2,0.5-0.1c0.2,0.1,0.2,0.3,0.1,0.5l-1.4,1.9l1.9,1.4c0.2,0.1,0.2,0.3,0.1,0.5C140.1,109.9,140,110,139.9,110z"/>
			</g>
			<g>
				<path class="st0" d="M144.2,109.3c-0.1,0-0.1,0-0.2-0.1l-2.2-1.6c-0.2-0.1-0.2-0.3-0.1-0.5l1.6-2.2c0.1-0.2,0.3-0.2,0.5-0.1
					c0.2,0.1,0.2,0.3,0.1,0.5l-1.4,1.9l1.9,1.4c0.2,0.1,0.2,0.3,0.1,0.5C144.4,109.2,144.3,109.3,144.2,109.3z"/>
			</g>
			<g>
				<path class="st0" d="M148.4,108.6c-0.1,0-0.1,0-0.2-0.1L146,107c-0.2-0.1-0.2-0.3-0.1-0.5l1.6-2.2c0.1-0.2,0.3-0.2,0.5-0.1
					s0.2,0.3,0.1,0.5l-1.4,1.9l1.9,1.4c0.2,0.1,0.2,0.3,0.1,0.5C148.6,108.5,148.5,108.6,148.4,108.6z"/>
			</g>
			<g>
				<path class="st0" d="M152.6,107.9c-0.1,0-0.1,0-0.2-0.1l-2.2-1.6c-0.2-0.1-0.2-0.3-0.1-0.5l1.6-2.2c0.1-0.2,0.3-0.2,0.5-0.1
					c0.2,0.1,0.2,0.3,0.1,0.5l-1.4,1.9l1.9,1.4c0.2,0.1,0.2,0.3,0.1,0.5C152.8,107.8,152.7,107.9,152.6,107.9z"/>
			</g>
			<g>
				<path class="st0" d="M156.8,107.2c-0.1,0-0.1,0-0.2-0.1l-2.2-1.6c-0.2-0.1-0.2-0.3-0.1-0.5l1.6-2.2c0.1-0.2,0.3-0.2,0.5-0.1
					c0.2,0.1,0.2,0.3,0.1,0.5l-1.4,1.9l1.9,1.4c0.2,0.1,0.2,0.3,0.1,0.5C157.1,107.1,157,107.2,156.8,107.2z"/>
			</g>
			<g>
				<path class="st0" d="M161.1,106.4c-0.1,0-0.1,0-0.2-0.1l-2.2-1.6c-0.2-0.1-0.2-0.3-0.1-0.5l1.6-2.2c0.1-0.2,0.3-0.2,0.5-0.1
					s0.2,0.3,0.1,0.5l-1.4,1.9l1.9,1.4c0.2,0.1,0.2,0.3,0.1,0.5C161.3,106.4,161.2,106.4,161.1,106.4z"/>
			</g>
			<g>
				<path class="st0" d="M165.3,105.7c-0.1,0-0.1,0-0.2-0.1l-2.2-1.6c-0.2-0.1-0.2-0.3-0.1-0.5l1.6-2.2c0.1-0.2,0.3-0.2,0.5-0.1
					c0.2,0.1,0.2,0.3,0.1,0.5l-1.4,1.9l1.9,1.4c0.2,0.1,0.2,0.3,0.1,0.5C165.5,105.7,165.4,105.7,165.3,105.7z"/>
			</g>
			<g>
				<path class="st0" d="M169.5,105c-0.1,0-0.1,0-0.2-0.1l-2.2-1.6c-0.1-0.1-0.1-0.1-0.1-0.2c0-0.1,0-0.2,0.1-0.3l1.6-2.2
					c0.1-0.2,0.3-0.2,0.5-0.1c0.2,0.1,0.2,0.3,0.1,0.5l-1.4,1.9l1.9,1.4c0.2,0.1,0.2,0.3,0.1,0.5C169.8,105,169.6,105,169.5,105z"/>
			</g>
			<g>
				<path class="st0" d="M173.8,104.3c-0.1,0-0.1,0-0.2-0.1l-2.2-1.6c-0.1-0.1-0.1-0.1-0.1-0.2c0-0.1,0-0.2,0.1-0.3l1.6-2.2
					c0.1-0.2,0.3-0.2,0.5-0.1c0.2,0.1,0.2,0.3,0.1,0.5l-1.4,1.9l1.9,1.4c0.2,0.1,0.2,0.3,0.1,0.5C174,104.3,173.9,104.3,173.8,104.3
					z"/>
			</g>
			<g>
				<path class="st0" d="M178,103.6c-0.1,0-0.1,0-0.2-0.1l-2.2-1.6c-0.1-0.1-0.1-0.1-0.1-0.2c0-0.1,0-0.2,0.1-0.3l1.6-2.2
					c0.1-0.2,0.3-0.2,0.5-0.1c0.2,0.1,0.2,0.3,0.1,0.5l-1.4,1.9l1.9,1.4c0.2,0.1,0.2,0.3,0.1,0.5C178.2,103.5,178.1,103.6,178,103.6
					z"/>
			</g>
			<g>
				<path class="st0" d="M182.2,102.9c-0.1,0-0.1,0-0.2-0.1l-2.2-1.6c-0.1-0.1-0.1-0.1-0.1-0.2c0-0.1,0-0.2,0.1-0.3l1.6-2.2
					c0.1-0.2,0.3-0.2,0.5-0.1c0.2,0.1,0.2,0.3,0.1,0.5l-1.4,1.9l1.9,1.4c0.2,0.1,0.2,0.3,0.1,0.5
					C182.4,102.8,182.3,102.9,182.2,102.9z"/>
			</g>
			<g>
				<path class="st0" d="M186.5,102.2c-0.1,0-0.1,0-0.2-0.1l-2.2-1.6c-0.2-0.1-0.2-0.3-0.1-0.5l1.6-2.2c0.1-0.2,0.3-0.2,0.5-0.1
					c0.2,0.1,0.2,0.3,0.1,0.5l-1.4,1.9l1.9,1.4c0.2,0.1,0.2,0.3,0.1,0.5C186.7,102.1,186.6,102.2,186.5,102.2z"/>
			</g>
			<g>
				<path class="st0" d="M190.7,101.5c-0.1,0-0.1,0-0.2-0.1l-2.2-1.6c-0.2-0.1-0.2-0.3-0.1-0.5l1.6-2.2c0.1-0.2,0.3-0.2,0.5-0.1
					c0.2,0.1,0.2,0.3,0.1,0.5l-1.4,1.9l1.9,1.4c0.2,0.1,0.2,0.3,0.1,0.5C190.9,101.4,190.8,101.5,190.7,101.5z"/>
			</g>
			<g>
				<path class="st0" d="M194.9,100.7c-0.1,0-0.1,0-0.2-0.1l-2.2-1.6c-0.2-0.1-0.2-0.3-0.1-0.5l1.6-2.2c0.1-0.2,0.3-0.2,0.5-0.1
					c0.2,0.1,0.2,0.3,0.1,0.5l-1.4,1.9l1.9,1.4c0.2,0.1,0.2,0.3,0.1,0.5C195.1,100.7,195,100.7,194.9,100.7z"/>
			</g>
		</g>
		<g>
			<g>
				<path class="st0" d="M77.6,127.2c-0.1,0-0.1,0-0.2-0.1l-2.2-1.6c-0.2-0.1-0.2-0.3-0.1-0.5l1.6-2.2c0.1-0.2,0.3-0.2,0.5-0.1
					c0.2,0.1,0.2,0.3,0.1,0.5l-1.4,1.9l1.9,1.4c0.2,0.1,0.2,0.3,0.1,0.5C77.8,127.1,77.7,127.2,77.6,127.2z"/>
			</g>
			<g>
				<path class="st0" d="M81.8,126.4c-0.1,0-0.1,0-0.2-0.1l-2.2-1.6c-0.1-0.1-0.1-0.1-0.1-0.2c0-0.1,0-0.2,0.1-0.3l1.6-2.2
					c0.1-0.2,0.3-0.2,0.5-0.1c0.2,0.1,0.2,0.3,0.1,0.5l-1.4,1.9l1.9,1.4c0.2,0.1,0.2,0.3,0.1,0.5C82,126.4,81.9,126.4,81.8,126.4z"
					/>
			</g>
			<g>
				<path class="st0" d="M86,125.7c-0.1,0-0.1,0-0.2-0.1l-2.2-1.6c-0.2-0.1-0.2-0.3-0.1-0.5l1.6-2.2c0.1-0.2,0.3-0.2,0.5-0.1
					c0.2,0.1,0.2,0.3,0.1,0.5l-1.4,1.9l1.9,1.4c0.2,0.1,0.2,0.3,0.1,0.5C86.2,125.7,86.1,125.7,86,125.7z"/>
			</g>
			<g>
				<path class="st0" d="M90.3,125c-0.1,0-0.1,0-0.2-0.1l-2.2-1.6c-0.2-0.1-0.2-0.3-0.1-0.5l1.6-2.2c0.1-0.2,0.3-0.2,0.5-0.1
					c0.2,0.1,0.2,0.3,0.1,0.5l-1.4,1.9l1.9,1.4c0.2,0.1,0.2,0.3,0.1,0.5C90.5,125,90.4,125,90.3,125z"/>
			</g>
			<g>
				<path class="st0" d="M94.5,124.3c-0.1,0-0.1,0-0.2-0.1l-2.2-1.6c-0.2-0.1-0.2-0.3-0.1-0.5l1.6-2.2c0.1-0.2,0.3-0.2,0.5-0.1
					c0.2,0.1,0.2,0.3,0.1,0.5l-1.4,1.9l1.9,1.4c0.2,0.1,0.2,0.3,0.1,0.5C94.7,124.3,94.6,124.3,94.5,124.3z"/>
			</g>
			<g>
				<path class="st0" d="M98.7,123.6c-0.1,0-0.1,0-0.2-0.1l-2.2-1.6c-0.2-0.1-0.2-0.3-0.1-0.5l1.6-2.2c0.1-0.2,0.3-0.2,0.5-0.1
					c0.2,0.1,0.2,0.3,0.1,0.5l-1.4,1.9l1.9,1.4c0.2,0.1,0.2,0.3,0.1,0.5C98.9,123.5,98.8,123.6,98.7,123.6z"/>
			</g>
			<g>
				<path class="st0" d="M102.9,122.9c-0.1,0-0.1,0-0.2-0.1l-2.2-1.6c-0.2-0.1-0.2-0.3-0.1-0.5l1.6-2.2c0.1-0.2,0.3-0.2,0.5-0.1
					c0.2,0.1,0.2,0.3,0.1,0.5l-1.4,1.9l1.9,1.4c0.2,0.1,0.2,0.3,0.1,0.5C103.2,122.8,103.1,122.9,102.9,122.9z"/>
			</g>
			<g>
				<path class="st0" d="M107.2,122.2c-0.1,0-0.1,0-0.2-0.1l-2.2-1.6c-0.2-0.1-0.2-0.3-0.1-0.5l1.6-2.2c0.1-0.2,0.3-0.2,0.5-0.1
					c0.2,0.1,0.2,0.3,0.1,0.5l-1.4,1.9l1.9,1.4c0.2,0.1,0.2,0.3,0.1,0.5C107.4,122.1,107.3,122.2,107.2,122.2z"/>
			</g>
			<g>
				<path class="st0" d="M111.4,121.5c-0.1,0-0.1,0-0.2-0.1l-2.2-1.6c-0.1-0.1-0.1-0.1-0.1-0.2c0-0.1,0-0.2,0.1-0.3l1.6-2.2
					c0.1-0.2,0.3-0.2,0.5-0.1c0.2,0.1,0.2,0.3,0.1,0.5l-1.4,1.9l1.9,1.4c0.2,0.1,0.2,0.3,0.1,0.5
					C111.6,121.4,111.5,121.5,111.4,121.5z"/>
			</g>
			<g>
				<path class="st0" d="M115.6,120.8c-0.1,0-0.1,0-0.2-0.1l-2.2-1.6c-0.1-0.1-0.1-0.1-0.1-0.2c0-0.1,0-0.2,0.1-0.3l1.6-2.2
					c0.1-0.2,0.3-0.2,0.5-0.1c0.2,0.1,0.2,0.3,0.1,0.5l-1.4,1.9l1.9,1.4c0.2,0.1,0.2,0.3,0.1,0.5
					C115.9,120.7,115.7,120.8,115.6,120.8z"/>
			</g>
			<g>
				<path class="st0" d="M119.9,120c-0.1,0-0.1,0-0.2-0.1l-2.2-1.6c-0.2-0.1-0.2-0.3-0.1-0.5l1.6-2.2c0.1-0.2,0.3-0.2,0.5-0.1
					c0.2,0.1,0.2,0.3,0.1,0.5l-1.4,1.9l1.9,1.4c0.2,0.1,0.2,0.3,0.1,0.5C120.1,120,120,120,119.9,120z"/>
			</g>
			<g>
				<path class="st0" d="M124.1,119.3c-0.1,0-0.1,0-0.2-0.1l-2.2-1.6c-0.1-0.1-0.1-0.1-0.1-0.2c0-0.1,0-0.2,0.1-0.3l1.6-2.2
					c0.1-0.2,0.3-0.2,0.5-0.1c0.2,0.1,0.2,0.3,0.1,0.5l-1.4,1.9l1.9,1.4c0.2,0.1,0.2,0.3,0.1,0.5
					C124.3,119.3,124.2,119.3,124.1,119.3z"/>
			</g>
			<g>
				<path class="st0" d="M128.3,118.6c-0.1,0-0.1,0-0.2-0.1l-2.2-1.6c-0.2-0.1-0.2-0.3-0.1-0.5l1.6-2.2c0.1-0.2,0.3-0.2,0.5-0.1
					c0.2,0.1,0.2,0.3,0.1,0.5l-1.4,1.9l1.9,1.4c0.2,0.1,0.2,0.3,0.1,0.5C128.5,118.6,128.4,118.6,128.3,118.6z"/>
			</g>
			<g>
				<path class="st0" d="M132.6,117.9c-0.1,0-0.1,0-0.2-0.1l-2.2-1.6c-0.2-0.1-0.2-0.3-0.1-0.5l1.6-2.2c0.1-0.2,0.3-0.2,0.5-0.1
					c0.2,0.1,0.2,0.3,0.1,0.5l-1.4,1.9l1.9,1.4c0.2,0.1,0.2,0.3,0.1,0.5C132.8,117.9,132.7,117.9,132.6,117.9z"/>
			</g>
			<g>
				<path class="st0" d="M136.8,117.2c-0.1,0-0.1,0-0.2-0.1l-2.2-1.6c-0.2-0.1-0.2-0.3-0.1-0.5l1.6-2.2c0.1-0.2,0.3-0.2,0.5-0.1
					c0.2,0.1,0.2,0.3,0.1,0.5l-1.4,1.9l1.9,1.4c0.2,0.1,0.2,0.3,0.1,0.5C137,117.1,136.9,117.2,136.8,117.2z"/>
			</g>
			<g>
				<path class="st0" d="M141,116.5c-0.1,0-0.1,0-0.2-0.1l-2.2-1.6c-0.2-0.1-0.2-0.3-0.1-0.5l1.6-2.2c0.1-0.2,0.3-0.2,0.5-0.1
					c0.2,0.1,0.2,0.3,0.1,0.5l-1.4,1.9l1.9,1.4c0.2,0.1,0.2,0.3,0.1,0.5C141.2,116.4,141.1,116.5,141,116.5z"/>
			</g>
			<g>
				<path class="st0" d="M145.2,115.8c-0.1,0-0.1,0-0.2-0.1l-2.2-1.6c-0.2-0.1-0.2-0.3-0.1-0.5l1.6-2.2c0.1-0.2,0.3-0.2,0.5-0.1
					c0.2,0.1,0.2,0.3,0.1,0.5l-1.4,1.9l1.9,1.4c0.2,0.1,0.2,0.3,0.1,0.5C145.5,115.7,145.4,115.8,145.2,115.8z"/>
			</g>
			<g>
				<path class="st0" d="M149.5,115.1c-0.1,0-0.1,0-0.2-0.1l-2.2-1.6c-0.2-0.1-0.2-0.3-0.1-0.5l1.6-2.2c0.1-0.2,0.3-0.2,0.5-0.1
					c0.2,0.1,0.2,0.3,0.1,0.5l-1.4,1.9l1.9,1.4c0.2,0.1,0.2,0.3,0.1,0.5C149.7,115,149.6,115.1,149.5,115.1z"/>
			</g>
			<g>
				<path class="st0" d="M153.7,114.3c-0.1,0-0.1,0-0.2-0.1l-2.2-1.6c-0.1-0.1-0.1-0.1-0.1-0.2c0-0.1,0-0.2,0.1-0.3l1.6-2.2
					c0.1-0.2,0.3-0.2,0.5-0.1c0.2,0.1,0.2,0.3,0.1,0.5l-1.4,1.9l1.9,1.4c0.2,0.1,0.2,0.3,0.1,0.5
					C153.9,114.3,153.8,114.3,153.7,114.3z"/>
			</g>
			<g>
				<path class="st0" d="M157.9,113.6c-0.1,0-0.1,0-0.2-0.1l-2.2-1.6c-0.1-0.1-0.1-0.1-0.1-0.2c0-0.1,0-0.2,0.1-0.3l1.6-2.2
					c0.1-0.2,0.3-0.2,0.5-0.1s0.2,0.3,0.1,0.5l-1.4,1.9l1.9,1.4c0.2,0.1,0.2,0.3,0.1,0.5C158.2,113.6,158,113.6,157.9,113.6z"/>
			</g>
			<g>
				<path class="st0" d="M162.2,112.9c-0.1,0-0.1,0-0.2-0.1l-2.2-1.6c-0.1-0.1-0.1-0.1-0.1-0.2c0-0.1,0-0.2,0.1-0.3l1.6-2.2
					c0.1-0.2,0.3-0.2,0.5-0.1c0.2,0.1,0.2,0.3,0.1,0.5l-1.4,1.9l1.9,1.4c0.2,0.1,0.2,0.3,0.1,0.5
					C162.4,112.9,162.3,112.9,162.2,112.9z"/>
			</g>
			<g>
				<path class="st0" d="M166.4,112.2c-0.1,0-0.1,0-0.2-0.1l-2.2-1.6c-0.2-0.1-0.2-0.3-0.1-0.5l1.6-2.2c0.1-0.2,0.3-0.2,0.5-0.1
					c0.2,0.1,0.2,0.3,0.1,0.5l-1.4,1.9l1.9,1.4c0.2,0.1,0.2,0.3,0.1,0.5C166.6,112.2,166.5,112.2,166.4,112.2z"/>
			</g>
			<g>
				<path class="st0" d="M170.6,111.5c-0.1,0-0.1,0-0.2-0.1l-2.2-1.6c-0.2-0.1-0.2-0.3-0.1-0.5l1.6-2.2c0.1-0.2,0.3-0.2,0.5-0.1
					s0.2,0.3,0.1,0.5l-1.4,1.9l1.9,1.4c0.2,0.1,0.2,0.3,0.1,0.5C170.8,111.4,170.7,111.5,170.6,111.5z"/>
			</g>
			<g>
				<path class="st0" d="M174.9,110.8c-0.1,0-0.1,0-0.2-0.1l-2.2-1.6c-0.2-0.1-0.2-0.3-0.1-0.5l1.6-2.2c0.1-0.2,0.3-0.2,0.5-0.1
					c0.2,0.1,0.2,0.3,0.1,0.5l-1.4,1.9l1.9,1.4c0.2,0.1,0.2,0.3,0.1,0.5C175.1,110.7,175,110.8,174.9,110.8z"/>
			</g>
			<g>
				<path class="st0" d="M179.1,110.1c-0.1,0-0.1,0-0.2-0.1l-2.2-1.6c-0.2-0.1-0.2-0.3-0.1-0.5l1.6-2.2c0.1-0.2,0.3-0.2,0.5-0.1
					c0.2,0.1,0.2,0.3,0.1,0.5l-1.4,1.9l1.9,1.4c0.2,0.1,0.2,0.3,0.1,0.5C179.3,110,179.2,110.1,179.1,110.1z"/>
			</g>
			<g>
				<path class="st0" d="M183.3,109.4c-0.1,0-0.1,0-0.2-0.1l-2.2-1.6c-0.2-0.1-0.2-0.3-0.1-0.5l1.6-2.2c0.1-0.2,0.3-0.2,0.5-0.1
					c0.2,0.1,0.2,0.3,0.1,0.5l-1.4,1.9l1.9,1.4c0.2,0.1,0.2,0.3,0.1,0.5C183.5,109.3,183.4,109.4,183.3,109.4z"/>
			</g>
			<g>
				<path class="st0" d="M187.6,108.6c-0.1,0-0.1,0-0.2-0.1l-2.2-1.6c-0.2-0.1-0.2-0.3-0.1-0.5l1.6-2.2c0.1-0.2,0.3-0.2,0.5-0.1
					s0.2,0.3,0.1,0.5l-1.4,1.9l1.9,1.4c0.2,0.1,0.2,0.3,0.1,0.5C187.8,108.6,187.7,108.6,187.6,108.6z"/>
			</g>
			<g>
				<path class="st0" d="M191.8,107.9c-0.1,0-0.1,0-0.2-0.1l-2.2-1.6c-0.2-0.1-0.2-0.3-0.1-0.5l1.6-2.2c0.1-0.2,0.3-0.2,0.5-0.1
					c0.2,0.1,0.2,0.3,0.1,0.5l-1.4,1.9l1.9,1.4c0.2,0.1,0.2,0.3,0.1,0.5C192,107.9,191.9,107.9,191.8,107.9z"/>
			</g>
			<g>
				<path class="st0" d="M196,107.2c-0.1,0-0.1,0-0.2-0.1l-2.2-1.6c-0.1-0.1-0.1-0.1-0.1-0.2c0-0.1,0-0.2,0.1-0.3l1.6-2.2
					c0.1-0.2,0.3-0.2,0.5-0.1c0.2,0.1,0.2,0.3,0.1,0.5l-1.4,1.9l1.9,1.4c0.2,0.1,0.2,0.3,0.1,0.5C196.2,107.2,196.1,107.2,196,107.2
					z"/>
			</g>
		</g>
	</g>
	<g>
		<g>
			<path class="st17" d="M239.2,225.8l-64.5-7.2c-3.8-0.4-6.5-3.8-6.1-7.6l16.3-146.7c0.4-3.8,3.8-6.5,7.6-6.1l64.5,7.2
				c3.8,0.4,6.5,3.8,6.1,7.6l-16.3,146.7C246.4,223.5,243,226.2,239.2,225.8z"/>
		</g>
		<g>
			<path class="st18" d="M233.2,225.1l-64.5-7.2c-3.8-0.4-6.5-3.8-6.1-7.6l16.3-146.7c0.4-3.8,3.8-6.5,7.6-6.1l64.5,7.2
				c3.8,0.4,6.5,3.8,6.1,7.6l-16.3,146.7C240.3,222.8,236.9,225.6,233.2,225.1z"/>
		</g>
		<g>
			
				<rect x="174.7" y="74.7" transform="matrix(0.9939 0.1103 -0.1103 0.9939 16.3982 -22.3736)" class="st17" width="71.4" height="124.6"/>
		</g>
		<g>
			<path class="st0" d="M200.8,215.9c-0.2,0-0.5,0-0.7,0c-1.7-0.2-3.1-1-4.2-2.3s-1.5-2.9-1.3-4.6c0.4-3.4,3.5-5.9,6.9-5.5
				c1.7,0.2,3.1,1,4.2,2.3s1.5,2.9,1.3,4.6C206.7,213.5,204,215.9,200.8,215.9z M200.8,204.2c-2.7,0-5.1,2.1-5.4,4.9
				c-0.2,1.4,0.3,2.9,1.2,4c0.9,1.1,2.2,1.9,3.7,2c3,0.3,5.7-1.8,6-4.8c0.2-1.4-0.3-2.9-1.2-4c-0.9-1.1-2.2-1.9-3.7-2
				C201.2,204.2,201,204.2,200.8,204.2z"/>
		</g>
		<g>
			<path class="st0" d="M261.3,91.5c-0.1,0-0.2,0-0.2,0l-1.7-0.2c-0.6-0.1-1.1-0.4-1.5-0.8c-0.4-0.5-0.5-1-0.5-1.6l0.5-4.6
				c0.1-0.6,0.4-1.1,0.8-1.5c0.5-0.4,1.1-0.5,1.6-0.5l1.7,0.2c1.2,0.1,2.1,1.2,2,2.5l-0.5,4.6C263.4,90.6,262.4,91.5,261.3,91.5z
				 M261.1,90.7c0.8,0.1,1.5-0.5,1.6-1.3l0.5-4.6c0.1-0.8-0.5-1.5-1.3-1.6l-1.7-0.2c-0.8-0.1-1.5,0.5-1.6,1.3l-0.5,4.6
				c0,0.4,0.1,0.8,0.3,1c0.2,0.3,0.6,0.5,1,0.5L261.1,90.7z"/>
		</g>
		<g>
			<path class="st0" d="M260,103c-0.1,0-0.2,0-0.2,0l-1.7-0.2c-1.2-0.1-2.1-1.2-2-2.5l0.5-4.6c0.1-1.2,1.2-2.1,2.5-2l1.7,0.2
				c1.2,0.1,2.1,1.2,2,2.5l-0.5,4.6C262.1,102.1,261.2,103,260,103z M259.9,102.2c0.4,0,0.8-0.1,1-0.3c0.3-0.2,0.5-0.6,0.5-1
				l0.5-4.6c0-0.4-0.1-0.8-0.3-1c-0.2-0.3-0.6-0.5-1-0.5l-1.7-0.2c-0.8-0.1-1.5,0.5-1.6,1.3l-0.5,4.6c-0.1,0.8,0.5,1.5,1.3,1.6
				L259.9,102.2z"/>
		</g>
		<g>
			
				<rect x="207.3" y="48.3" transform="matrix(0.1103 -0.9939 0.9939 0.1103 108.9029 289.6956)" class="st19" width="18" height="71.4"/>
		</g>
		<g>
			<path class="st20" d="M217.5,190l-27-3c-2.5-0.3-4.3-2.4-4.1-4.8v0c0.3-2.4,2.5-4.1,5-3.8l27,3c2.5,0.3,4.3,2.4,4.1,4.8l0,0
				C222.2,188.6,220,190.3,217.5,190z"/>
		</g>
		<g>
			
				<rect x="203.1" y="114.9" transform="matrix(0.1103 -0.9939 0.9939 0.1103 46.6711 333.58)" class="st14" width="13" height="51.7"/>
		</g>
		<g>
			
				<rect x="205.3" y="96" transform="matrix(0.1103 -0.9939 0.9939 0.1103 67.2706 318.9543)" class="st14" width="13" height="51.7"/>
		</g>
		<g>
			
				<rect x="184" y="149.9" transform="matrix(0.1103 -0.9939 0.9939 0.1103 11.9357 330.3772)" class="st14" width="13" height="17.3"/>
		</g>
		<g>
			
				<rect x="212.5" y="147.6" transform="matrix(0.1103 -0.9939 0.9939 0.1103 34.2063 361.5741)" class="st14" width="13" height="28.1"/>
		</g>
		<g>
			<g>
				<rect x="185.9" y="80" transform="matrix(0.7766 -0.63 0.63 0.7766 -10.8391 136.0021)" class="st0" width="0.8" height="6.6"/>
			</g>
			<g>
				
					<rect x="183" y="82.9" transform="matrix(0.7905 -0.6124 0.6124 0.7905 -11.9722 131.5651)" class="st0" width="6.6" height="0.8"/>
			</g>
		</g>
		<g>
			
				<rect x="206" y="88" transform="matrix(9.967011e-02 -0.995 0.995 9.967011e-02 80.4077 300.8058)" class="st0" width="0.8" height="36"/>
		</g>
		<g>
			
				<rect x="206.5" y="84" transform="matrix(9.967011e-02 -0.995 0.995 9.967011e-02 84.7406 297.7371)" class="st0" width="0.8" height="36"/>
		</g>
	</g>
</g>
</svg>
