<?xml version="1.0" encoding="utf-8"?>
<!-- Generator: Adobe Illustrator 24.3.0, SVG Export Plug-In . SVG Version: 6.00 Build 0)  -->
<svg version="1.1" id="Layer_1" xmlns="http://www.w3.org/2000/svg" xmlns:xlink="http://www.w3.org/1999/xlink" x="0px" y="0px"
	 viewBox="0 0 335 236" style="enable-background:new 0 0 335 236;" xml:space="preserve">
<style type="text/css">
	.st0{fill:#DCEEFD;}
	.st1{fill:#002031;}
	.st2{fill:#DD933C;}
	.st3{fill:#FE6F43;}
	.st4{fill:#FE9C7E;}
	.st5{fill:#FFFFFF;}
	.st6{fill:#1540EB;}
	.st7{fill:#59ACF5;}
	.st8{fill:#FFCC00;}
	.st9{fill:#82C6F8;}
	.st10{fill:#D2793C;}
	.st11{fill:#1BC1D7;}
	.st12{fill:#F4C9DB;}
	.st13{fill:#104A4A;}
	.st14{fill:#F48D91;}
	.st15{fill:#22AEC3;}
	.st16{fill:#EDA7C5;}
	.st17{fill:#237978;}
	.st18{fill:#C8915C;}
	.st19{fill-rule:evenodd;clip-rule:evenodd;fill:#F4C9DB;}
	.st20{fill-rule:evenodd;clip-rule:evenodd;fill:#1540EB;}
	.st21{fill-rule:evenodd;clip-rule:evenodd;fill:#59ACF5;}
	.st22{fill:#1D1D1B;}
	.st23{fill-rule:evenodd;clip-rule:evenodd;fill:#A87A6A;}
	.st24{fill:#3DEC94;}
</style>
<ellipse class="st0" cx="157.8" cy="233.2" rx="60.5" ry="2.8"/>
<g>
	<g>
		<g>
			<path class="st13" d="M171.2,69h-7l0,0c0-0.6,0.5-1.1,1.1-1.1h4.7C170.6,67.8,171.2,68.3,171.2,69L171.2,69z"/>
		</g>
		<g>
			<path class="st17" d="M174.6,64.4h-6.2c-0.7,0-1.2,0.7-1,1.3l1,3.9l4.9-0.7L174.6,64.4z"/>
		</g>
		<g>
			<polygon class="st7" points="166.5,127.8 167,112.7 182.3,115.4 181.9,128.5 			"/>
		</g>
		<g>
			<g>
				<path class="st1" d="M128.8,52.9l5.7-2.1l-0.1-0.3l1.1,0.1c0,0,0,0,0.1,0l0.1,0l0,0c0.8,0.1,1.5,0.6,1.8,1.4l5.7,16.3
					c0.4,1.1-0.2,2.4-1.3,2.8l-5.9,2.1c-1.1,0.4-2.4-0.2-2.8-1.3l-5.7-16.3C127.1,54.5,127.7,53.3,128.8,52.9z"/>
			</g>
			<g>
				<path class="st6" d="M140.6,71l-5.9,2.1c-1.1,0.4-2.4-0.2-2.8-1.3l-5.7-16.3c-0.4-1.1,0.2-2.4,1.3-2.8l5.9-2.1
					c1.1-0.4,2.4,0.2,2.8,1.3l5.7,16.3C142.3,69.4,141.7,70.6,140.6,71z"/>
			</g>
		</g>
		<g>
			<path class="st18" d="M134.2,60.8l-6.1,3.3c-1.8,1.1-2.6,3.3-2,5.3l2.7,9.1l7.7-3l-1.8-5.5l3.2-2.7L134.2,60.8z"/>
		</g>
		<g>
			<path class="st17" d="M156.7,73l-13.7,19.8l-6.9-18.2l-8.5,0.3c0,0,3.3,18,7.6,26.7c2.5,5.2,8.8,4.9,12.1,2.8
				c9.1-6,16.1-12.8,16.1-12.8L156.7,73z"/>
		</g>
		<g>
			<g>
				<polygon class="st14" points="163.6,76.2 162.4,76.2 163.2,74.9 				"/>
			</g>
		</g>
		<g>
			<path class="st1" d="M131.6,65.1c-0.1,0-0.1,0-0.2-0.1c-0.1-0.1,0-0.2,0.1-0.3l3.6-2.2c0.1-0.1,0.2,0,0.3,0.1
				c0.1,0.1,0,0.2-0.1,0.3l-3.6,2.2C131.7,65.1,131.6,65.1,131.6,65.1z"/>
		</g>
		<g>
			<path class="st1" d="M133.1,67.4c-0.1,0-0.1,0-0.2-0.1c-0.1-0.1,0-0.2,0.1-0.3l3.4-2.3c0.1-0.1,0.2,0,0.3,0.1
				c0.1,0.1,0,0.2-0.1,0.3l-3.4,2.3C133.2,67.4,133.2,67.4,133.1,67.4z"/>
		</g>
		<g>
			<path class="st7" d="M193.7,116c0,0,0.7,7.6,0.9,21.3c0.2,13.7,1,83.8,1,83.8l-9.5,1.6l-11.9-107.2L193.7,116z"/>
		</g>
		<g>
			<path class="st7" d="M176.7,127.5l-37.1,94.8l-6.6,4l-3.4-4.9L160,115.3l12.1-0.8C172.2,114.5,176.6,115.4,176.7,127.5z"/>
		</g>
		<g>
			<path class="st17" d="M165.9,68.9l28.5,0c5.4,0,11.5,4.8,10.7,10.4l-2.1,6.6l-3.6,0.6l-4.7,29.6l-33.5-0.3c-1.3,0-2.3-1-2.4-2.3
				c-0.3-6-1-22.1-1.2-29.8c-0.1-3-2.2-5.3-2.1-6.2C155.9,71,160.8,68.9,165.9,68.9z"/>
		</g>
		<g>
			<g>
				<path class="st8" d="M128.4,219l-7.5,5.4l-4.5,2.2c-2.2,1.2-2.2,3.3-2.2,3.3h28.7l-1.2-9.3c-0.2-0.7-1.5-0.8-1.7-0.2
					c-0.5,1.3-2.6,2.1-4.4,2.2c-2.6,0.1-3.5-1.7-4.9-3.2C130.1,218.8,129.2,218.6,128.4,219z"/>
			</g>
			<g>
				<path class="st5" d="M141.3,233h-25.4c-1,0-1.8-0.8-1.8-1.8l0-1.4H143l0.1,1.2C143.2,232.1,142.4,233,141.3,233z"/>
			</g>
			<g>
				<polygon class="st1" points="124.7,225.2 121.5,224.2 121.7,223.6 124.9,224.6 				"/>
			</g>
			<g>
				
					<rect x="125.2" y="221.1" transform="matrix(0.2832 -0.9591 0.9591 0.2832 -123.7322 280.0429)" class="st1" width="0.6" height="3.4"/>
			</g>
		</g>
		<g>
			<g>
				<path class="st8" d="M196.7,219l4.5,5.4l2.7,2.2c2.3,1.2,2.3,3.3,2.3,3.3h-21.7l0.4-8.3c0,0,2.8,0.1,5.3,0.1c0,0,0.5-1.3,2-2.7
					C192.9,218.3,195.7,217.6,196.7,219z"/>
			</g>
			<g>
				<path class="st5" d="M186.2,233h18.1c1.1,0,1.9-0.9,2-1.9l0-1.2h-22l-0.1,1.1C184.2,232.1,185.1,233,186.2,233z"/>
			</g>
			<g>
				
					<rect x="199.4" y="222.1" transform="matrix(2.463374e-02 -0.9997 0.9997 2.463374e-02 -28.9695 418.0686)" class="st1" width="0.7" height="3.6"/>
			</g>
			<g>
				
					<rect x="197.3" y="220" transform="matrix(3.683809e-02 -0.9993 0.9993 3.683809e-02 -31.511 411.391)" class="st1" width="0.7" height="4.2"/>
			</g>
		</g>
		<g>
			<g>
				<path class="st18" d="M197.8,119l-1.3,0.8c-1.2,0.7-2.7,0.7-3.9,0.1l-1.6-0.8l-6.1,2.6c-0.6,0.3-1.3,0.2-1.8-0.2l-1.7-1.4
					c-0.7-0.6-0.7-1.7,0-2.3c1.1-1,2.4-2.2,2.3-2.2c-0.1,0.1-1.8,0.5-2.8,0.8c-0.5,0.1-1-0.2-1.1-0.6l0,0c-0.1-0.5,0.1-0.9,0.5-1.1
					l5.6-2.2c1.4-0.7,2.8-0.5,4.4-0.1l2.9,0.5L197.8,119z"/>
			</g>
			<g>
				<path class="st1" d="M182.8,121.5c-0.1,0-0.1,0-0.2-0.1c-0.1-0.1,0-0.2,0.1-0.3l5.8-3.6c0.1-0.1,0.2,0,0.3,0.1
					c0.1,0.1,0,0.2-0.1,0.3l-5.8,3.6C182.8,121.5,182.8,121.5,182.8,121.5z"/>
			</g>
			<g>
				<path class="st1" d="M181.5,120.2c-0.1,0-0.1,0-0.2-0.1c-0.1-0.1,0-0.2,0-0.3l5.2-3.8c0.1-0.1,0.2,0,0.3,0c0.1,0.1,0,0.2,0,0.3
					l-5.2,3.8C181.6,120.1,181.5,120.2,181.5,120.2z"/>
			</g>
		</g>
		<g>
			<path class="st17" d="M202.3,72.3c0,0,13.7,15.4,16.8,19.3c2.9,3.7,2.5,8-1.3,11.4c-3.4,3-20.2,16.3-20.2,16.3l-5.7-8l14.4-14.8
				l-17-16L202.3,72.3z"/>
		</g>
		<g>
			<polygon class="st1" points="207.8,98.3 205.5,95.7 209.4,96.5 209.3,97.2 207.3,96.7 208.3,97.8 			"/>
		</g>
		<g>
			<rect x="198" y="86.4" transform="matrix(0.7006 -0.7136 0.7136 0.7006 -4.0894 168.1888)" class="st1" width="0.6" height="5"/>
		</g>
		<g>
			<polygon class="st3" points="171.2,69 167.7,77.3 170.6,115.8 178.7,115.9 182,68.7 			"/>
		</g>
		<g>
			<g>
				<path class="st4" d="M181.4,77.5l0.1-0.9c0,0-0.1,0-0.1,0c-4.5,1.9-9,4.2-13.2,6.8l0.1,0.9C172.4,81.7,176.8,79.4,181.4,77.5z"
					/>
			</g>
			<g>
				<path class="st4" d="M180.2,94.3l0.1-0.8c-2,0.4-3.9,1-5.8,1.5c-1.7,0.5-3.5,1-5.3,1.4l0.1,0.8c1.8-0.4,3.7-0.9,5.4-1.5
					C176.5,95.2,178.3,94.7,180.2,94.3z"/>
			</g>
			<g>
				<path class="st4" d="M179.9,97.2c-3.6,1.5-7,3.3-10.4,5.3l0.1,0.9c0.1,0,0.1-0.1,0.2-0.1c3.2-1.9,6.6-3.7,10.1-5.2L179.9,97.2z"
					/>
			</g>
			<g>
				<path class="st4" d="M167.7,78.1c4.4-1.8,9.1-3,13.9-3.6l0.1-0.8c-4.8,0.6-9.5,1.8-14,3.6L167.7,78.1z"/>
			</g>
			<g>
				<path class="st4" d="M178.9,112.1c-2.6,1.5-5.4,2.3-8.4,2.5l0.1,0.8c2.9-0.2,5.7-1,8.2-2.4L178.9,112.1z"/>
			</g>
			<g>
				<path class="st4" d="M170.3,111.8l0.1,0.9c2.9-1.8,5.8-3.4,8.8-4.9l0.1-0.9C176.2,108.4,173.2,110,170.3,111.8z"/>
			</g>
			<g>
				<path class="st4" d="M168.4,86.9l0.1,0.8c3.2-0.5,6.3-1.4,9.4-2.4c1-0.3,2-0.6,3.1-0.9l0.1-0.8c-1.1,0.3-2.2,0.7-3.4,1
					C174.6,85.5,171.5,86.4,168.4,86.9z"/>
			</g>
			<g>
				<path class="st4" d="M174.7,105.8c1.6-0.6,3.1-1.2,4.8-1.7l0.1-0.8c-1.7,0.5-3.4,1.2-5.1,1.8c-1.5,0.6-3,1.1-4.5,1.6l0.1,0.8
					C171.6,107,173.1,106.4,174.7,105.8z"/>
			</g>
			<g>
				<path class="st4" d="M168.9,93.4l0.1,0.9c1.9-1.3,4.1-2.3,6.1-3.2l5.6-2.6l0.1-0.9l-5.9,2.8C172.9,91.2,170.8,92.2,168.9,93.4z"
					/>
			</g>
		</g>
		<g>
			<polygon class="st18" points="185.7,51.5 184.6,68.8 176.2,72.3 173.3,69 176.8,56.2 			"/>
		</g>
		<g>
			<path class="st1" d="M187.1,40.8c0.3-0.6-0.4-2.3-2.2-3.5c-1.6-1.2-3.9-1.6-6-1.5c-4.6,0.4-6.5,2.5-6.5,2.5s-1.5-0.1-1.8,0.6
				c-0.6,1.4,0.1,2.3,0.5,2.6c0.1,0,0.1,0.1,0.2,0.1c0.2,0,0.3,0.1,0.3,0.2c2.7,1.7,6.8,3.6,9.5,4.3l5.5,1.5
				c0.5,0.1,1.7,0.2,1.7-0.3C188.9,41.2,187.8,40.8,187.1,40.8z"/>
		</g>
		<g>
			<path class="st18" d="M188.2,48.5c-0.5,5.6-4.9,10.6-10.4,11.5c-6.3,1.1-10.4-3.2-9.9-10.1c0.5-6.1,4.5-12.4,10.1-12.8
				C183.7,36.8,188.9,41,188.2,48.5z"/>
		</g>
		<g>
			<g>
				<path class="st1" d="M185.6,52.2l-0.2,3.3c0.7-0.9,1.3-1.9,1.8-2.9L185.6,52.2z"/>
			</g>
			<g>
				<polygon class="st1" points="184.1,51.9 184.1,51.9 184,52 				"/>
			</g>
		</g>
		<g>
			<path class="st1" d="M168.4,47.6l-0.1,3.2c0,0.9,0.7,1.6,1.6,1.6l0.3,0c0.5-0.4,1.1-0.6,1.8-0.6l3.7,0.2c1,0,1.9,0.5,2.5,1.3
				l0.1,0.2c0.6,0.7,1.4,1,2.3,1v0c1-0.1,1.8-0.7,2.2-1.5l2.1-4.4l2,2.5l-2.1,5.3c-1.1,2.9-3.3,4.5-7.3,4.5l-5.3,0
				c-4.4,0-5.7-4.2-5-6.9L168.4,47.6z"/>
		</g>
		<g>
			
				<rect x="157.6" y="86.1" transform="matrix(0.9989 -4.596703e-02 4.596703e-02 0.9989 -4.1068 7.3574)" class="st1" width="0.6" height="13.7"/>
		</g>
		<g>
			
				<ellipse transform="matrix(0.9884 -0.1519 0.1519 0.9884 -5.2553 26.5891)" class="st1" cx="171.5" cy="47.7" rx="0.6" ry="0.7"/>
		</g>
		<g>
			<ellipse transform="matrix(0.9884 -0.1519 0.1519 0.9884 -5.2335 27.4133)" class="st1" cx="176.9" cy="48" rx="0.6" ry="0.7"/>
		</g>
		<g>
			<path class="st1" d="M174,51.7C174,51.7,174,51.7,174,51.7c-0.1,0-1-0.1-1.3-0.7c-0.2-0.4,0-1.1,0.5-2.2c0.2-0.5,0.3-0.9,0.4-1.2
				c0-0.1,0.1-0.2,0.2-0.2c0.1,0,0.2,0.1,0.2,0.2c-0.1,0.3-0.2,0.8-0.4,1.3c-0.2,0.7-0.6,1.7-0.5,1.9c0.2,0.3,0.8,0.5,1,0.5
				c0.1,0,0.2,0.1,0.2,0.2C174.2,51.6,174.1,51.7,174,51.7z"/>
		</g>
		<g>
			<path class="st5" d="M175.5,54.1C175.5,54.1,175.5,54.1,175.5,54.1l-3.4-0.5c-0.1,0-0.2-0.1-0.2-0.2c0-0.1,0.1-0.2,0.2-0.2
				l3.3,0.5c0.1,0,0.2,0.1,0.2,0.2C175.7,54,175.6,54.1,175.5,54.1z"/>
		</g>
		<g>
			<path class="st1" d="M179,46.7C179,46.7,179,46.7,179,46.7l-2.6-0.4c-0.2,0-0.3-0.2-0.2-0.3c0-0.2,0.2-0.3,0.3-0.2l2.5,0.4
				c0.2,0,0.3,0.2,0.2,0.3C179.3,46.6,179.2,46.7,179,46.7z"/>
		</g>
		<g>
			<path class="st1" d="M170.3,45.8c-0.1,0-0.3-0.1-0.3-0.2c0-0.2,0.1-0.3,0.2-0.4l2.5-0.5c0.2,0,0.3,0.1,0.4,0.2
				c0,0.2-0.1,0.3-0.2,0.4L170.3,45.8C170.4,45.8,170.4,45.8,170.3,45.8z"/>
		</g>
		<g>
			<path class="st1" d="M178.1,36.8c-2.8,0-5.3,2.2-7,4.7c0.8,0.6,2.1,1.1,3.8,1.3c1.6,0.2,7.5-0.2,8.7-0.4c0.6-0.1,2.5-0.3,2.5-0.3
				s-1.7,1-2,1.9c-0.8,3.1,0.3,5,1,6.5c0.8,1.7,1.2,2.5,2,2.3c0.6-1.3,1-2.8,1.1-4.2C189.2,39.8,184.2,36.8,178.1,36.8z"/>
		</g>
		<g>
			<path class="st18" d="M184.5,54.5c1.6,0.4,3.2-0.5,3.6-2c0.4-1.6-0.5-3.2-2-3.6L184.5,54.5z"/>
		</g>
		<g>
			<polygon class="st5" points="176.1,139.2 175.1,129.7 170.3,129.7 170.3,129 175.7,129 176.8,139.2 			"/>
		</g>
		<g>
			<path class="st17" d="M187.6,64.4h-5.2c-0.7,0-1.2,0.6-1.1,1.3l0.6,4.2l7.1-0.3v-3.9C189,65,188.4,64.4,187.6,64.4z"/>
		</g>
		<g>
			<path class="st1" d="M217.5,103.2c-1.9-2.4-2.6-4.8-2.2-6.9c0.6-3.2,3.4-4.9,3.6-4.9l0.3,0.6c0,0-2.7,1.6-3.2,4.5
				c-0.4,2,0.3,4.2,2,6.4L217.5,103.2z"/>
		</g>
		<g>
			<path class="st1" d="M147.1,104.6c-1.5-2-3.2-3.1-5.2-3.4c-3.2-0.5-5.9,1.6-5.9,1.6l-0.4-0.5c0.1-0.1,2.9-2.2,6.4-1.7
				c2.1,0.3,4,1.5,5.6,3.7L147.1,104.6z"/>
		</g>
		<g>
			<path class="st13" d="M194.5,69h-7l0,0c0-0.6,0.5-1.1,1.1-1.1h4.7C194,67.8,194.5,68.3,194.5,69L194.5,69z"/>
		</g>
		<g>
			<polygon class="st13" points="172.6,64.4 171.2,69 173.3,69 174.6,64.4 			"/>
		</g>
		<g>
			<polygon class="st1" points="192.9,113.2 191.5,111.3 196,106.6 196.5,107.1 192.3,111.3 193.4,112.8 			"/>
		</g>
		<g>
			<g>
				<path class="st0" d="M140.8,29.2l-2.6-1.1c0-1.2-0.3-2.5-0.6-3.7l2.1-1.8c0.8-0.7,0.9-1.8,0.4-2.7l-1.2-2
					c-0.5-0.9-1.6-1.2-2.6-0.8l-2.6,1.1c-0.9-0.8-1.9-1.6-3-2.1l0.1-2.8c0.1-1-0.6-2-1.6-2.2l-2.3-0.5c-1-0.2-2,0.3-2.4,1.3
					l-1.1,2.6c-1.2,0-2.5,0.3-3.6,0.6l-1.8-2.1c-0.7-0.8-1.8-0.9-2.7-0.4l-2,1.2c-0.9,0.6-1.2,1.6-0.8,2.6l1,2.6
					c-0.8,0.9-1.6,1.9-2.1,3l-2.8-0.1c-1-0.1-1.9,0.6-2.2,1.6l-0.5,2.3c-0.2,1,0.3,2,1.2,2.4l2.6,1.1c0,1.2,0.3,2.5,0.6,3.7
					l-2.1,1.8c-0.8,0.7-0.9,1.8-0.4,2.7l1.2,2c0.5,0.9,1.6,1.2,2.6,0.8l2.6-1.1c0.9,0.8,1.9,1.6,3,2.1l-0.1,2.8
					c-0.1,1,0.6,2,1.6,2.2l2.3,0.5c1,0.2,2-0.3,2.4-1.3l1.1-2.6c1.2,0,2.5-0.3,3.6-0.6l1.8,2c0.7,0.8,1.8,0.9,2.7,0.4l2-1.2
					c0.9-0.5,1.2-1.6,0.8-2.6l-1-2.6c0.8-0.9,1.6-1.9,2.1-3l2.8,0.1c1,0.1,1.9-0.6,2.2-1.6l0.5-2.3
					C142.3,30.6,141.7,29.6,140.8,29.2z M130.1,30.1c-0.8,3.4-4.1,5.5-7.5,4.7c-3.4-0.8-5.5-4.1-4.7-7.5s4.1-5.5,7.5-4.7
					C128.7,23.3,130.8,26.7,130.1,30.1C130.1,30.1,130.1,30.1,130.1,30.1z"/>
			</g>
			<g>
				<path class="st0" d="M163.1,12.1l-0.1-1.9c0-0.8-0.6-1.5-1.4-1.6l-2-0.3c-0.4-1.2-1.1-2.2-2-3.1l0.6-1.9c0.3-0.8-0.1-1.6-0.8-2
					l-1.6-0.9c-0.7-0.4-1.6-0.2-2.1,0.5l-1.2,1.5c-1.2-0.2-2.5-0.2-3.7,0.1l-1.3-1.5c-0.5-0.6-1.4-0.7-2.1-0.3l-1.6,1
					c-0.7,0.4-1,1.3-0.7,2.1l0.8,1.9c-0.8,1-1.4,2.1-1.7,3.3l-2,0.4c-0.8,0.2-1.4,0.9-1.3,1.7l0.1,1.8c0,0.8,0.6,1.5,1.4,1.6l2,0.3
					c0.4,1.2,1.1,2.2,2,3.1l-0.6,1.9c-0.2,0.8,0.1,1.6,0.8,2l1.6,0.9c0.7,0.4,1.6,0.2,2.1-0.5l1.2-1.6c1.2,0.2,2.5,0.2,3.7-0.1
					l1.3,1.5c0.5,0.6,1.4,0.7,2.1,0.3l1.6-1c0.7-0.4,1-1.3,0.7-2.1l-0.7-1.8c0.8-1,1.4-2.1,1.7-3.3l1.9-0.4
					C162.5,13.6,163.1,12.9,163.1,12.1z M152.8,14.5C152.8,14.5,152.8,14.6,152.8,14.5c-1.7,1-3.8,0.5-4.8-1.1
					c-1-1.6-0.5-3.8,1.1-4.8c1.6-1,3.8-0.5,4.8,1.1C155,11.3,154.5,13.5,152.8,14.5z"/>
			</g>
		</g>
	</g>
</g>
</svg>
