<?xml version="1.0" encoding="UTF-8"?>
<svg width="200px" height="200px" viewBox="0 0 200 200" version="1.1" xmlns="http://www.w3.org/2000/svg" xmlns:xlink="http://www.w3.org/1999/xlink">
    <title>Image</title>
    <defs>
        <rect id="path-1" x="0" y="0" width="200" height="200"></rect>
    </defs>
    <g id="🦠--CoronaTester-Burger_App_Android" stroke="none" stroke-width="1" fill="none" fill-rule="evenodd">
        <g id="Image">
            <mask id="mask-2" fill="white">
                <use xlink:href="#path-1"></use>
            </mask>
            <g id="Mask"></g>
            <g id="holder_testafspraak" opacity="0.8" mask="url(#mask-2)">
                <g transform="translate(1.000000, 44.000000)">
                    <path d="M232,66.8 L191.3,66.8 L191.3,14.5 L232,14.5 L232,66.8 Z M192.3,65.8 L231,65.8 L231,15.5 L192.3,15.5 L192.3,65.8 Z" id="Shape" fill="#94E5FF" fill-rule="nonzero"></path>
                    <path d="M37.8,50 L1,50 C0.7,50 0.5,49.8 0.5,49.5 L0.5,1.1 C0.5,0.8 0.7,0.6 1,0.6 L37.9,0.6 C38.2,0.6 38.4,0.8 38.4,1.1 L38.4,49.5 C38.3,49.7 38.1,50 37.8,50 Z M1.5,49 L37.4,49 L37.4,1.6 L1.5,1.6 L1.5,49 Z" id="Shape" fill="#94E5FF" fill-rule="nonzero"></path>
                    <g id="Group" stroke-width="1" fill="none" fill-rule="evenodd" transform="translate(101.000000, 98.000000)">
                        <polygon id="Path" fill="#94E5FF" fill-rule="nonzero" points="157.1 86.8 156.1 86.8 156.1 6 4.9 6 4.9 40.4 3.9 40.4 3.9 5 157.1 5"></polygon>
                        <path d="M157.7,6 L3,6 C1.4,6 0.2,4.7 0.2,3.2 C0.2,1.6 1.5,0.4 3,0.4 L157.7,0.4 C159.3,0.4 160.5,1.7 160.5,3.2 C160.6,4.7 159.3,6 157.7,6 Z M3,1.3 C2,1.3 1.2,2.1 1.2,3.1 C1.2,4.1 2,4.9 3,4.9 L157.7,4.9 C158.7,4.9 159.5,4.1 159.5,3.1 C159.5,2.1 158.7,1.3 157.7,1.3 L3,1.3 Z" id="Shape" fill="#94E5FF" fill-rule="nonzero"></path>
                    </g>
                    <g id="Group" stroke-width="1" fill="none" fill-rule="evenodd" transform="translate(31.000000, 32.000000)">
                        <g transform="translate(0.000000, 33.206250)" fill="#40C5F6" fill-rule="nonzero">
                            <rect id="Rectangle" x="32.4" y="71.7" width="7.3" height="33.9"></rect>
                            <path d="M67.8,73.7 L13.4,73.7 C10.3,73.7 7.6,71.4 7.1,68.3 L7.1,68.3 L66.8,68.3 L67.8,73.7 Z" id="Path"></path>
                            <path d="M51.8,68.3 L7.2,68.3 L0.4,13.5 C-0.4,6.7 4.9,0.7 11.7,0.7 L34.6,0.7 C39.6,0.7 43.9,4.4 44.5,9.4 L51.8,68.3 Z" id="Path"></path>
                        </g>
                        <g transform="translate(8.000000, 0.000000)" fill-rule="nonzero">
                            <path d="M34.5,8 C35.8,9.4 35.4,12.9 33.1,12.6 C31.6,11.7 30.2,10.1 29.7,8.4 C29.3,5.9 33.6,6.4 34.5,8 Z" id="Path" fill="#F17277"></path>
                            <path d="M41.6,40 L58.1,72.2 C60.2,76.4 57.8,81.4 53.2,82.3 L47.6,83.4 L41.6,40 Z" id="Path" fill="#0E6866"></path>
                            <path d="M18.5,36.7 L33.3,35.9 C38.1,35.4 42.1,38.6 43.7,44.8 C43.7,44.8 48.6,65.2 50.5,81.9 L8,81.9 L8.5,54.8 L6.1,54.5 L6,46.9 C7.1,41.9 12.6,37.3 18.5,36.7 Z" id="Path" fill="#237978"></path>
                            <path d="M31.9,44 C36.4,43.6 35.8,37.8 35.5,35.9 C34.8,35.8 33.9,35.8 33.2,35.8 L18.3,36.7 C19.2,38.1 23.8,44.7 31.9,44 Z" id="Path" fill="#0E6866"></path>
                            <path d="M20.5,25.5 L20.9,36.5 C20.9,36.5 25.5,42.4 31,42 C35.1,41.8 33.8,36 33.8,36 L31.1,26.9 C31.1,27 38.1,26 37.1,19.2 C36.8,16.9 35,11.7 33.2,8.8 C31.3,5.6 28.2,5.2 25.8,5.5 C25,5.6 23.4,5.8 22.7,6 C21.8,6.2 20.9,6.4 20.1,6.8 C17.9,7.9 16.6,10.3 16.3,12.8 C16,14.8 16.2,16.8 16.5,18.7 C16.6,19.1 16.8,19.8 16.7,20.1 C16.7,20.2 16.7,20.2 16.6,20.3 C16.4,20.5 16.1,20.8 16,21 C15.6,21.7 15.5,22.5 15.7,23.2 C16.2,25 18.8,25.9 20.5,25.5 Z" id="Path" fill="#F4C9DB"></path>
                            <path d="M31.1,26.9 C29,27 26.5,27 26.5,27 L32.8,32.9 L31.1,26.9 Z" id="Path" fill="#E7B2CB"></path>
                            <path d="M30.8,17.6 C30.7,17.6 30.6,17.5 30.5,17.4 C30.4,17.2 30.5,17 30.6,16.9 C30.6,16.9 31.2,16.6 31.7,16.2 C31.8,16.1 31.9,16 31.9,15.8 C31.9,15.6 31.9,15.5 31.7,15.4 C31.6,15.3 31.4,15.1 31.2,15 C30.5,14.3 29.5,13.5 29.3,12.5 C29.3,12.3 29.4,12.1 29.6,12.1 C29.8,12.1 30,12.2 30,12.4 C30.1,13.2 31,13.9 31.7,14.5 C31.9,14.7 32.1,14.8 32.2,15 C32.5,15.3 32.6,15.6 32.6,16 C32.6,16.4 32.4,16.7 32.1,16.9 C31.5,17.3 30.9,17.6 30.9,17.6 C30.9,17.6 30.8,17.6 30.8,17.6 Z" id="Path" fill="#002031"></path>
                            <path d="M13.1,14.2 C11.8,8.5 14.9,9 14.9,9 C14.9,9 13.6,5.2 16.8,3.7 C21.5,1.5 26.1,2.8 26.1,2.8 C26.1,2.8 27.8,0.2 29.9,7.10542736e-15 C31.6,0.2 31.5,2.6 30.5,3.7 C36.2,-2.6 40.2,6.1 28,10 C24.2,11.2 19,11.4 19,11.4 C19.8,15 20.9,22 17.5,23.5 C17.5,23.5 13.8,19.6 13.1,14.2 Z" id="Path" fill="#F17277"></path>
                            <path d="M19.3,24.1 L18.8,19.1 C18.8,19.1 15.3,20.1 15.8,22.8 L19.3,24.1 Z" id="Path" fill="#F4C9DB"></path>
                            <g transform="translate(32.000000, 73.000000)" id="Path">
                                <path d="M13.1,3.4 L14.4,1.8 C14.9,1.1 15.7,0.7 16.6,0.7 L17.8,0.6 C19.1,0.5 20.2,1.4 20.5,2.6 L21.5,6.5 C21.9,8.2 20.6,9.9 18.8,9.8 L13.6,9.7 L13.1,3.4 Z" fill="#DB9BBC"></path>
                                <path d="M0.2,9.2 L19.4,9.5 C20.1,9.5 20.9,9.2 21,8.7 C21.2,8.1 21.3,7.1 20.5,6.7 L10.1,1.5 C9.6,1.3 9.1,1.2 8.6,1.2 L0,2.2 L0.2,9.2 Z" fill="#F4C9DB"></path>
                                <path d="M20.5,7.2 C20.5,7.2 20.5,7.2 20.5,7.2 L13.5,6.2 C13.3,6.2 13.2,6 13.2,5.8 C13.2,5.6 13.4,5.5 13.6,5.5 L20.6,6.5 C20.8,6.5 20.9,6.7 20.9,6.9 C20.9,7 20.7,7.2 20.5,7.2 Z" fill="#002031"></path>
                                <path d="M16.5,5.2 C16.4,5.2 16.4,5.2 16.5,5.2 L10.6,4 C10.4,4 10.3,3.8 10.3,3.6 C10.3,3.4 10.5,3.3 10.7,3.3 L16.5,4.5 C16.7,4.5 16.8,4.7 16.8,4.9 C16.8,5.1 16.6,5.2 16.5,5.2 Z" fill="#002031"></path>
                            </g>
                            <path d="M5.9,46.9 L0.2,73.1 C-0.8,77.7 2.7,82.1 7.4,82.1 L37.4,82.1 L37.4,71.9 C32.1,70.4 15.7,69.1 15.7,69.1 L21.3,49 L5.9,46.9 Z" id="Path" fill="#237978"></path>
                            <path d="M32.5,71.1 C32.4,71.1 32.4,71.1 32.5,71.1 C26,70.1 15.1,69.4 15,69.4 C14.9,69.4 14.8,69.3 14.7,69.3 C14.6,69.2 14.6,69.1 14.6,69 L17.6,54.1 C17.6,53.9 17.8,53.8 18,53.8 C18.2,53.8 18.3,54 18.3,54.2 L15.4,68.7 C17.4,68.8 26.7,69.5 32.5,70.4 C32.7,70.4 32.8,70.6 32.8,70.8 C32.8,70.9 32.6,71.1 32.5,71.1 Z" id="Path" fill="#FFFFFF"></path>
                            <path d="M15.9,69.3 C15.9,69.3 15.9,69.3 15.9,69.3 C15.9,69.3 14.1,69.2 12.8,69.2 C12.6,69.2 12.4,69 12.4,68.9 C12.4,68.8 12.6,68.6 12.8,68.6 C14.1,68.6 15.9,68.7 15.9,68.7 C16.1,68.7 16.2,68.9 16.2,69.1 C16.3,69.2 16.1,69.3 15.9,69.3 Z" id="Path" fill="#FFFFFF"></path>
                            <path d="M31.5,48.9 C31.4,48.9 31.4,48.9 31.3,48.9 C31,48.8 30.9,48.5 31,48.2 L33.4,42.6 C33.5,42.3 33.8,42.2 34.1,42.3 C34.4,42.4 34.5,42.7 34.4,43 L32,48.6 C31.8,48.8 31.6,48.9 31.5,48.9 Z" id="Path" fill="#0E6866"></path>
                            <path d="M35.5,48.1 C35.4,48.1 35.3,48.1 35.2,48 L30,44 C29.8,43.8 29.7,43.5 29.9,43.3 C30.1,43.1 30.4,43 30.6,43.2 L35.8,47.2 C36,47.4 36.1,47.7 35.9,47.9 C35.8,48 35.6,48.1 35.5,48.1 Z" id="Path" fill="#0E6866"></path>
                            <path d="M23.8,14 C23.7,14 23.7,14 23.6,14 C23.4,13.9 23.4,13.7 23.4,13.5 C23.4,13.4 24.4,11.6 25.9,11.2 C26.1,11.2 26.3,11.3 26.3,11.5 C26.3,11.7 26.2,11.9 26,11.9 C24.8,12.2 24,13.8 23.9,13.8 C24.1,13.9 24,14 23.8,14 Z" id="Path" fill="#002031"></path>
                            <path d="M33,10.3 C32.9,10.3 32.9,10.3 33,10.3 L30.9,10.3 C30.7,10.3 30.6,10.1 30.6,9.9 C30.6,9.7 30.8,9.6 31,9.6 C31,9.6 31,9.6 31,9.6 L33.1,9.6 C33.3,9.6 33.4,9.8 33.4,10 C33.3,10.2 33.1,10.3 33,10.3 Z" id="Path" fill="#002031"></path>
                            <path d="M22.8,82 L22.7,83.4 C21.7,92.9 29.2,101.1 38.8,101.1 L67.2,101.1 C67.2,101.1 68.5,119.8 68.5,141.7 L82.5,141.7 L83.1,95.9 C83.2,89 77.7,83.2 71.5,83.1 L50.7,82 L22.8,82 L22.8,82 Z" id="Path" fill="#002031"></path>
                            <path d="M9.7,82 L9.3,85.6 C8.2,96 16.1,101.2 25.6,101.2 L54,101.2 C54,101.2 50.8,119.9 50.8,141.8 L65.1,141.8 L72.3,97.9 C74,87.3 67.9,83.9 63.1,83.3 L46.8,82.1 L9.7,82.1 L9.7,82 Z" id="Path" fill="#334D5A"></path>
                            <path d="M54.7,138.2 L54,138.1 L57.5,103.8 C57.6,102.2 58.1,100.9 58.8,100.4 C59.3,100.1 59.8,100 60.3,99.9 C60.9,99.8 61,99.8 61,99.5 C60.9,99.4 60,99.3 59.5,99.3 C58.5,99.2 57.5,99.2 57.5,98.5 C57.5,98.2 57.6,97.9 57.8,97.6 C58.4,96.9 59.8,97 60,97 C60.3,97 60.5,96.8 60.5,96.7 C60.5,96.6 60.2,96.3 59.7,96.3 L25.8,96.3 C21.2,96.3 18.2,95.4 16.5,93.4 C15.1,91.8 14.6,89.5 15,86.4 L15.7,82 L16.4,82.1 L15.7,86.5 C15.3,89.4 15.7,91.5 17,92.9 C18.6,94.7 21.3,95.5 25.7,95.5 L59.6,95.5 C60.6,95.5 61.1,96 61.1,96.6 C61.1,97 60.8,97.5 60,97.6 C59.6,97.6 58.6,97.7 58.3,98 C58.2,98.1 58.2,98.2 58.2,98.3 C58.3,98.4 59.1,98.4 59.5,98.5 C60.4,98.6 61.2,98.6 61.5,99 C61.6,99.1 61.7,99.3 61.6,99.5 C61.5,100.3 60.8,100.4 60.3,100.5 C59.9,100.6 59.5,100.6 59.1,100.9 C58.6,101.2 58.2,102.4 58.1,103.7 L54.7,138.2 Z" id="Path" fill="#002031"></path>
                            <path d="M15.5,89 L15.3,88.3 C19.7,87.3 20.7,82.2 20.7,82.2 L21.4,82.3 C21.4,82.4 20.3,87.8 15.5,89 Z" id="Path" fill="#002031"></path>
                            <path d="M35.3,82 L37.6,82 L37.6,72.6 C37.6,72.1 37.3,71.7 36.8,71.6 C36.3,71.5 35.8,71.4 35.3,71.3 L35.3,82 Z" id="Path" fill="#0E6866"></path>
                            <path d="M28.2,18.8 C28.2,18.8 29.1,20 30.5,20.1 C31.2,20.2 32.1,20 32.8,19 L28.2,18.8 Z" id="Path" fill="#FFFFFF"></path>
                            <circle id="Oval" fill="#002031" cx="26.5" cy="14.2" r="1"></circle>
                            <circle id="Oval" fill="#002031" cx="32.6" cy="12.6" r="1"></circle>
                        </g>
                    </g>
                    <g id="Group" stroke-width="1" fill="none" fill-rule="evenodd" transform="translate(99.000000, 4.000000)">
                        <path d="M60.4,26 L62.8,30.8 L73.4,27.7 L68.4,16.8 L65.7,5.6 L60,4.5 L48.1,9 C48.1,9 47.4,11.6 48.1,14 C48.6,15.7 49.6,16.8 49.5,18.1 L54.4,25 L60.4,26 Z" id="Path" fill="#CE99BB" fill-rule="nonzero"></path>
                        <path d="M49.5,18 C49.1,18.8 48.6,19.1 48.2,19.7 C47.7,20.3 47.4,21.4 47.9,22.3 L50.5,27 C51.7,29.3 54.7,30 56.8,28.6 L60.3,26.3 C60.8,26 61.1,25.4 60.9,24.8 L59.7,19.4 C59.4,18.2 58.4,17.4 57.2,17.5 L49.5,18 Z" id="Path" fill="#DCEEFD" fill-rule="nonzero"></path>
                        <path d="M66.8,16.3 C66.8,18.5 71.4,23.4 71.4,23.4 C71.4,23.4 75.9,17.8 75.9,11.8 C75.9,6 73.5,4.8 71.4,4.6 C70.7,4.5 70.2,4 70.2,3.4 C70.1,2.3 69,1.2 67.1,0.5 C64.5,-0.5 58.1,1.9 55.6,2.9 C55,3.1 54.4,3.1 53.9,2.8 C52.4,1.9 49.3,0.5 47.2,2.7 C44.5,5.7 46.6,10.1 48.1,11.1 C49.6,12.1 59.7,10.4 59.7,10.4 C59.7,10.4 59.5,12.4 61.7,13.8 C63.9,15.2 66.9,14.4 66.9,14.4 C66.9,14.4 66.8,14.7 66.8,16.3 Z" id="Path" fill="#1BC1D7" fill-rule="nonzero"></path>
                        <polygon id="Path" fill="#DCEEFD" fill-rule="nonzero" points="60.7 25.8 60.1 25.3 68.1 16 66.3 13.6 57.4 18.5 57 17.9 66.5 12.7 69.1 16.1"></polygon>
                        <circle id="Oval" fill="#CE99BB" fill-rule="nonzero" cx="66.8" cy="15" r="2.4"></circle>
                        <g opacity="0.28" transform="translate(44.000000, 11.000000)" fill="#FFFFFF" fill-rule="nonzero" id="Path">
                            <g>
                                <polygon points="1.6 0.5 0.2 22 14.4 22 12 0.1"></polygon>
                            </g>
                        </g>
                        <path d="M67.2,12.1 L45.2,12.1 L45.2,9.6 L67.2,9.6 C67.9,9.6 68.4,10.2 68.4,10.8 L68.4,10.8 C68.4,11.5 67.8,12.1 67.2,12.1 Z" id="Path" fill="#99E6FF" fill-rule="nonzero"></path>
                        <circle id="Oval" fill="#002031" fill-rule="nonzero" cx="51.1" cy="15.2" r="1"></circle>
                        <path d="M52.4,13.7 C52.4,13.7 52.3,13.7 52.3,13.7 C51.2,13.2 50.1,13.5 50.1,13.5 C49.9,13.6 49.7,13.5 49.7,13.3 C49.6,13.1 49.7,12.9 49.9,12.9 C50,12.9 51.3,12.5 52.6,13.1 C52.8,13.2 52.9,13.4 52.8,13.6 C52.7,13.6 52.6,13.7 52.4,13.7 Z" id="Path" fill="#002031" fill-rule="nonzero"></path>
                        <g transform="translate(39.000000, 67.000000)" fill="#99E6FF" fill-rule="nonzero" id="Path">
                            <path d="M3.3,21.2 L3.3,21.2 C2.1,21.2 1.1,20.2 1.1,19 L1.1,1.6 L5.5,1.6 L5.5,19 C5.5,20.2 4.5,21.2 3.3,21.2 Z"></path>
                            <path d="M6,2.4 L0.8,2.4 C0.5,2.4 0.3,2.2 0.3,1.9 L0.3,1 C0.3,0.7 0.5,0.5 0.8,0.5 L6,0.5 C6.3,0.5 6.5,0.7 6.5,1 L6.5,1.9 C6.4,2.2 6.2,2.4 6,2.4 Z"></path>
                        </g>
                        <path d="M49.5,69.4 L38.5,69.4 C37.8,69.4 37.2,70 37.3,70.7 L37.4,71.8 C37.4,72.2 37.7,72.6 38.1,72.8 L38.6,73.1 L37.9,74 C37.7,74.3 37.6,74.7 37.6,75.1 L37.8,76.1 C37.9,76.7 38.4,77.2 39,77.3 L39.2,77.3 L38.7,78.1 C38.4,78.5 38.3,79 38.4,79.4 L38.5,79.7 C38.7,80.7 39.7,81.4 40.7,81.2 L51.8,78.6 L49.5,69.4 Z" id="Path" fill="#1BC1D7" fill-rule="nonzero"></path>
                        <path d="M26,46.2 L23.1,40.1 C22.7,39.2 21.9,38.4 21,38 L15.5,35.7 C14.3,35.2 12.8,35.4 11.8,36.3 L7.6,40.1 C7.3,40.4 7.2,40.9 7.5,41.3 L7.7,41.5 C7.9,41.8 8.2,42 8.6,42 L10.3,42.2 L10.6,42.6 C10.8,42.9 11.2,43.1 11.5,43.1 L12.8,43.2 C13.1,43.2 13.5,43.2 13.8,43 L15,42.5 L19.8,45.9 L22.4,51.9 L26,46.2 Z" id="Path" fill="#1BC1D7" fill-rule="nonzero"></path>
                        <g transform="translate(0.000000, 38.000000)" fill-rule="nonzero">
                            <rect id="Rectangle" fill="#DCEEFD" x="3.8" y="1.8" width="22.2" height="1"></rect>
                            <path d="M18.6,2.9 L16.4,2.1 C15.7,1.8 14.9,2.1 14.5,2.7 L14.5,2.7 C14.1,3.4 14.3,4.4 15,4.8 L16.1,5.5 L18.6,2.9 Z" id="Path" fill="#1BC1D7"></path>
                            <path d="M4.5,2.1 C4.5,2.9 2.9,3.5 1.7,3.5 C0.5,3.5 0,2.9 0,2.1 C0,1.3 0.5,0.7 1.7,0.7 C2.9,0.7 4.5,1.4 4.5,2.1 Z" id="Path" fill="#DCEEFD"></path>
                        </g>
                        <path d="M17.9,44.8 C17.8,44.8 17.8,44.8 17.7,44.7 C17.6,44.6 16,43.6 14.8,42.9 C14.4,42.6 14.1,42.2 14,41.7 C13.9,41.2 14,40.7 14.3,40.3 C14.8,39.6 15.7,39.4 16.5,39.7 L19.8,41 C20,41.1 20.1,41.3 20,41.5 C19.9,41.7 19.7,41.8 19.5,41.7 L16.2,40.4 C15.7,40.2 15.2,40.4 14.8,40.8 C14.6,41.1 14.5,41.4 14.6,41.7 C14.7,42 14.8,42.3 15.1,42.5 C16.3,43.3 18,44.3 18.1,44.4 C18.3,44.5 18.3,44.7 18.2,44.9 C18.1,44.8 18,44.8 17.9,44.8 Z" id="Path" fill="#002031" fill-rule="nonzero"></path>
                        <path d="M62.7,29.9 C54.2,34.9402003 42.3,53.3523605 42.3,53.3523605 L25.4,44.4034335 L20.3,51.2951359 C20.3,51.2951359 31.3,60.6555079 38,64.6670959 C40.6,66.2100143 45,66.3128755 47.7,64.5642346 C54.3,60.2440629 62.6,54.0723891 62.6,54.0723891" id="Path" fill="#DCEEFD" fill-rule="nonzero"></path>
                        <polygon id="Path" fill="#002031" fill-rule="nonzero" points="62.8 118 69.3 121.3 70.1 116.1"></polygon>
                        <polygon id="Path" fill="#1BC1D7" fill-rule="nonzero" points="80.3 172.4 65.4 172 70 116.7 81 115.3"></polygon>
                        <path d="M102.4,115.8 C103.2,117.9 106.4,173.9 106.4,173.9 L79.7,173.9 L79.7,115.3 C79.8,115.4 101.6,113.7 102.4,115.8 Z" id="Path" fill="#1BC1D7" fill-rule="nonzero"></path>
                        <rect id="Rectangle" fill="#FFFFFF" fill-rule="nonzero" x="79.4" y="115.4" width="1" height="58.5"></rect>
                        <path d="M57.9,42.6733678 C57.9,42.6733678 73,73.7144647 72.9,74.8266864 C72.8,75.9389081 62.8,117.9 62.8,117.9 L107.3,117.9 C107.3,117.9 112.1,98.6888977 112.1,83.6233491 C112.1,66.6366902 96.8,39.6400359 81.8,29.2255962 C78.5,26.9000417 74.2,26.2933753 70.3,27.5067081 L62.6,29.8322626 L57.9,42.6733678 Z" id="Path" fill="#DCEEFD" fill-rule="nonzero"></path>
                        <path d="M72.1,73.1 C72.6,74.3 73,75.2 73,75.3 C73,75.5 72.7,77 72.2,79.2 L78.3,77.9 C82.2,77 84.3,74.6 85,72.1 L90.1,53.9 L73,69.1 L72.1,73.1 Z" id="Path" fill="#99E6FF" fill-rule="nonzero"></path>
                        <path d="M78,41.2 L72.5,62.3 L48.4,68.6 L50.2,79.6 L75.2,75.8 C78.4,75.4 81.2,73.4 82.6,70.6 L92.4,50.5 L78,41.2 Z" id="Path" fill="#DCEEFD" fill-rule="nonzero"></path>
                        <path d="M48.4,68.9 C48.2,68.9 48.1,68.8 48.1,68.6 C48.1,68.4 48.2,68.2 48.4,68.2 L72.3,62 L77.3,42.5 C77.3,42.3 77.5,42.2 77.7,42.2 C77.9,42.2 78,42.4 78,42.6 L73,62.3 C73,62.4 72.9,62.5 72.7,62.6 L48.4,68.9 C48.5,68.9 48.5,68.9 48.4,68.9 Z" id="Path" fill="#69DBFF" fill-rule="nonzero"></path>
                        <path d="M65,59.1 C64.9,59.1 64.7,59 64.7,58.9 L60.2,49.3 C60.1,49.1 60.2,48.9 60.4,48.8 C60.6,48.7 60.8,48.8 60.9,49 L65.4,58.6 C65.5,58.8 65.4,59 65.2,59.1 C65.1,59.1 65,59.1 65,59.1 Z" id="Path" fill="#69DBFF" fill-rule="nonzero"></path>
                        <path d="M96.4,109.6 L85.7,109.6 C84.8,109.6 83.9,109.2 83.3,108.5 C82.7,107.8 82.5,106.9 82.6,106 L84.6,95.1 C84.6,94.9 84.8,94.8 84.9,94.8 L102,94.8 C102.1,94.8 102.2,94.8 102.3,94.9 C102.4,95 102.4,95.1 102.4,95.2 L99.5,107.2 C99,108.6 97.8,109.6 96.4,109.6 Z M85.3,95.5 L83.4,106.1 C83.3,106.8 83.5,107.5 83.9,108 C84.3,108.5 85,108.8 85.7,108.8 L96.4,108.8 C97.5,108.8 98.4,108.1 98.7,107 L101.5,95.4 L85.3,95.4 L85.3,95.5 Z" id="Shape" fill="#002031" fill-rule="nonzero"></path>
                        <path d="M92.6,99.4 C91.8,99.4 91.2,98.8 91.2,98 C91.2,97.2 91.8,96.6 92.6,96.6 C93.4,96.6 94,97.2 94,98 C94,98.8 93.3,99.4 92.6,99.4 Z M92.6,97.3 C92.2,97.3 91.9,97.6 91.9,98 C91.9,98.4 92.2,98.7 92.6,98.7 C93,98.7 93.3,98.4 93.3,98 C93.3,97.6 92.9,97.3 92.6,97.3 Z" id="Shape" fill="#002031" fill-rule="nonzero"></path>
                    </g>
                    <g id="Group" stroke-width="1" fill="none" fill-rule="evenodd" transform="translate(107.000000, 79.000000)">
                        <g fill="#94E5FF" fill-rule="nonzero">
                            <path d="M5.6,16.8 C4.5,16.8 3.6,15.9 3.6,14.8 L3.6,2.9 L3.3,2.9 C3,2.9 2.8,2.7 2.8,2.4 L2.8,0.7 C2.8,0.4 3,0.2 3.3,0.2 L8,0.2 C8.3,0.2 8.5,0.4 8.5,0.7 L8.5,2.4 C8.5,2.7 8.3,2.9 8,2.9 L7.7,2.9 L7.7,14.8 C7.6,15.9 6.7,16.8 5.6,16.8 Z M3.8,1.9 L4.1,1.9 C4.4,1.9 4.6,2.1 4.6,2.4 L4.6,14.8 C4.6,15.4 5.1,15.8 5.6,15.8 C6.1,15.8 6.6,15.3 6.6,14.8 L6.6,2.4 C6.6,2.1 6.8,1.9 7.1,1.9 L7.4,1.9 L7.4,1.2 L3.7,1.2 L3.7,1.9 L3.8,1.9 Z" id="Shape"></path>
                            <path d="M12.1,16.8 C11,16.8 10.1,15.9 10.1,14.8 L10.1,2.9 L9.8,2.9 C9.5,2.9 9.3,2.7 9.3,2.4 L9.3,0.7 C9.3,0.4 9.5,0.2 9.8,0.2 L14.5,0.2 C14.8,0.2 15,0.4 15,0.7 L15,2.4 C15,2.7 14.8,2.9 14.5,2.9 L14.2,2.9 L14.2,14.8 C14.1,15.9 13.2,16.8 12.1,16.8 Z M10.3,1.9 L10.6,1.9 C10.9,1.9 11.1,2.1 11.1,2.4 L11.1,14.8 C11.1,15.4 11.6,15.8 12.1,15.8 C12.6,15.8 13.1,15.3 13.1,14.8 L13.1,2.4 C13.1,2.1 13.3,1.9 13.6,1.9 L13.9,1.9 L13.9,1.2 L10.2,1.2 L10.2,1.9 L10.3,1.9 Z" id="Shape"></path>
                            <path d="M18.6,16.8 C17.5,16.8 16.6,15.9 16.6,14.8 L16.6,2.9 L16.3,2.9 C16,2.9 15.8,2.7 15.8,2.4 L15.8,0.7 C15.8,0.4 16,0.2 16.3,0.2 L21,0.2 C21.3,0.2 21.5,0.4 21.5,0.7 L21.5,2.4 C21.5,2.7 21.3,2.9 21,2.9 L20.7,2.9 L20.7,14.8 C20.7,15.9 19.8,16.8 18.6,16.8 Z M16.8,1.9 L17.1,1.9 C17.4,1.9 17.6,2.1 17.6,2.4 L17.6,14.8 C17.6,15.4 18.1,15.8 18.6,15.8 C19.1,15.8 19.6,15.3 19.6,14.8 L19.6,2.4 C19.6,2.1 19.8,1.9 20.1,1.9 L20.4,1.9 L20.4,1.2 L16.7,1.2 L16.7,1.9 L16.8,1.9 Z" id="Shape"></path>
                            <path d="M23.8,20.8 C23.5,20.8 23.3,20.6 23.3,20.3 L23.3,4.1 L1.4,4.1 L1.4,20.3 C1.4,20.6 1.2,20.8 0.9,20.8 C0.6,20.8 0.4,20.6 0.4,20.3 L0.4,3.6 C0.4,3.3 0.6,3.1 0.9,3.1 L23.8,3.1 C24.1,3.1 24.3,3.3 24.3,3.6 L24.3,20.3 C24.3,20.5 24.1,20.8 23.8,20.8 Z" id="Path"></path>
                        </g>
                        <path d="M23.8,14.1 L0.9,14.1 C0.6,14.1 0.4,13.9 0.4,13.6 C0.4,13.3 0.6,13.1 0.9,13.1 L23.8,13.1 C24.1,13.1 24.3,13.3 24.3,13.6 C24.3,13.9 24.1,14.1 23.8,14.1 Z" id="Path" fill="#94E5FF" fill-rule="nonzero"></path>
                    </g>
                </g>
            </g>
        </g>
    </g>
</svg>