<svg width="375" height="260" viewBox="0 0 375 260" fill="none" xmlns="http://www.w3.org/2000/svg">
<path d="M301.971 137.058L186.095 128.068H301.971V137.058Z" fill="#DCEEFD"/>
<path fill-rule="evenodd" clip-rule="evenodd" d="M201.443 64.704V118.421H304.931V64.704C304.931 36.2009 281.69 12.96 253.187 12.96C224.684 12.96 201.443 36.2009 201.443 64.704ZM303.835 117.435H202.43H202.32V64.8136C202.32 36.8587 225.122 14.0562 253.077 14.0562C281.032 14.0562 303.835 36.8587 303.835 64.8136V117.435Z" fill="#DCEEFD"/>
<path d="M206.705 118.092H205.718V64.923C205.718 37.5162 228.192 14.2752 255.818 13.0693V14.056C228.74 15.1523 206.705 37.9547 206.705 64.923V118.092Z" fill="#DCEEFD"/>
<circle cx="177.873" cy="78.5167" r="1.53478" fill="#F4C9DB"/>
<path d="M187.63 83.9981L177.435 78.8456L181.272 67.2251L188.288 68.3214L191.467 82.0248L187.63 83.9981Z" fill="#F4C9DB"/>
<path d="M179.079 80.2712L177.763 62.402C177.654 61.4153 178.421 60.5383 179.517 60.4287L186.643 59.8805C187.63 59.7709 188.507 60.5383 188.616 61.6346L189.932 79.5038C190.042 80.4904 189.274 81.3675 188.178 81.4771L181.052 82.0252C180.066 82.0252 179.188 81.2578 179.079 80.2712Z" fill="#002031"/>
<path d="M177.873 80.3806L176.557 62.5113C176.448 61.5247 177.215 60.6477 178.311 60.538L185.437 59.9899C186.424 59.8803 187.301 60.6477 187.41 61.7439L188.726 79.6132C188.836 80.5998 188.068 81.4768 186.972 81.5865L179.846 82.1346C178.859 82.1346 177.982 81.3672 177.873 80.3806Z" fill="#1540EB"/>
<path d="M193.878 78.5164L192.453 76.6527L192.344 73.5832C192.344 71.8291 191.028 70.2944 189.274 69.9655L184.231 69.0885C183.245 68.8692 182.258 69.6366 182.148 70.6232C182.039 71.3906 182.587 72.158 183.354 72.3773L189.493 74.3506L190.041 81.6956L193.878 78.5164Z" fill="#F4C9DB"/>
<circle cx="176.886" cy="73.1451" r="1.53478" fill="#F4C9DB"/>
<circle cx="176.996" cy="75.9952" r="1.53478" fill="#F4C9DB"/>
<path fill-rule="evenodd" clip-rule="evenodd" d="M178.421 64.9228H178.75C179.298 64.9228 179.956 64.4843 179.956 63.9362C180.175 63.1688 179.737 62.511 178.969 62.2918C178.202 62.0725 177.544 62.511 177.325 63.2784C177.325 63.6073 177.325 63.9362 177.544 64.2651C177.763 64.594 178.092 64.8132 178.421 64.9228ZM177.873 63.2784C177.982 62.9496 178.311 62.6207 178.75 62.6207H178.969C179.408 62.7303 179.737 63.2784 179.627 63.7169C179.517 64.1555 178.969 64.4843 178.531 64.3747C178.092 64.2651 177.763 63.7169 177.873 63.2784Z" fill="white"/>
<path d="M172.063 70.5137C171.953 70.5137 171.953 70.5137 171.843 70.5137C171.734 70.4041 171.624 70.2944 171.624 70.1848L172.063 66.2382L167.349 67.3345C167.239 67.3345 167.02 67.3345 166.91 67.1153C166.801 67.0056 166.801 66.7864 166.91 66.6768L169.87 63.3879L165.814 61.0858C165.704 60.9761 165.595 60.8665 165.595 60.7569C165.595 60.6473 165.704 60.5376 165.924 60.428L170.747 59.6606L169.761 56.0429C169.761 55.9333 169.761 55.714 169.87 55.6044C169.98 55.4948 170.199 55.4948 170.309 55.6044L173.817 58.5643L175.79 53.7407C175.9 53.6311 176.009 53.5215 176.119 53.5215C176.229 53.5215 176.448 53.6311 176.448 53.8504L177.325 58.5643C177.325 58.7836 177.215 58.8932 176.996 59.0028C176.777 59.0028 176.667 58.8932 176.557 58.674L175.9 55.1659L174.255 59.3317C174.255 59.4414 174.146 59.551 174.036 59.551C173.926 59.551 173.817 59.551 173.707 59.4414L170.638 56.9199L171.515 59.8799C171.515 59.9895 171.515 60.0991 171.515 60.2087C171.515 60.3184 171.405 60.3184 171.295 60.3184L167.02 60.9761L170.528 62.9494C170.638 62.9494 170.638 63.0591 170.747 63.1687C170.747 63.2783 170.747 63.3879 170.638 63.4976L168.116 66.2382L172.172 65.2516C172.282 65.2516 172.392 65.2516 172.501 65.3612C172.611 65.4709 172.611 65.5805 172.611 65.6901L172.282 69.3078L174.475 67.6634C174.584 67.5538 174.803 67.5538 175.023 67.773C175.132 67.8826 175.132 68.1019 174.913 68.3212L172.063 70.4041C172.172 70.5137 172.063 70.5137 172.063 70.5137Z" fill="#002031"/>
<path d="M233.015 39.7086C231.919 41.5722 233.344 45.4092 235.866 44.4225C237.291 42.9974 238.387 40.8048 238.497 38.8316C238.168 35.9812 233.563 37.6257 233.015 39.7086Z" fill="#002031"/>
<path d="M300.436 108.883C300.436 111.076 299.669 112.94 298.572 114.365C297.367 115.79 295.722 116.667 293.968 116.667H220.737C218.545 116.667 215.365 115.242 214.159 111.953C213.282 109.541 213.392 106.143 215.475 101.648C215.585 101.429 215.694 101.209 215.804 100.99L218.216 96.3859L221.395 90.2468L223.697 85.8617L226.547 80.3803L227.534 78.407C228.082 77.3107 228.74 76.4337 229.398 75.5567C231.371 73.2545 233.892 71.8294 236.633 71.3909C237.181 71.2812 237.729 71.2812 238.387 71.2812H261.19C266.123 71.2812 270.837 73.0353 274.893 76.1048C276.428 77.2011 277.743 78.6263 279.059 80.0514L298.463 103.183C298.572 103.292 298.682 103.402 298.792 103.621C298.901 103.731 299.011 103.841 299.121 104.06C299.23 104.169 299.23 104.279 299.34 104.389C299.559 104.718 299.778 105.046 299.888 105.485C300.107 106.033 300.217 106.472 300.326 107.02C300.326 107.677 300.436 108.335 300.436 108.883Z" fill="#F17277"/>
<path d="M230.275 110.528C230.055 110.528 229.836 110.308 229.946 110.089L233.125 95.0701C233.125 94.8508 233.344 94.7412 233.563 94.7412C233.783 94.7412 233.892 94.9605 233.892 95.1797L230.713 110.199C230.603 110.418 230.494 110.528 230.275 110.528Z" fill="#002031"/>
<path d="M243.978 65.6904H240.689C239.155 65.6904 237.73 66.4578 236.743 67.6637C234.989 69.8563 235.537 73.1451 237.839 74.7895L246.719 81.4767L242.772 71.6103L243.978 65.6904Z" fill="#E93737"/>
<path d="M246.39 114.913C246.171 115.132 245.842 117.325 244.198 118.092C242.115 119.079 239.703 119.079 237.62 118.092L233.235 117.106L223.259 116.777C222.601 116.996 221.834 116.777 221.395 116.229C220.737 115.352 221.066 114.255 221.943 113.707L234.441 107.458C234.989 107.129 235.647 107.02 236.195 107.129L246.5 108.335L246.39 114.913Z" fill="#F4C9DB"/>
<path d="M221.943 114.146C221.724 114.146 221.614 114.036 221.614 113.817C221.614 113.598 221.724 113.488 221.943 113.378L230.384 112.172C230.604 112.172 230.713 112.282 230.823 112.501C230.823 112.72 230.713 112.83 230.494 112.94L221.943 114.146Z" fill="#002031"/>
<rect x="248.199" y="116.656" width="4.16583" height="9.86645" transform="rotate(-180 248.199 116.656)" fill="#E93737"/>
<path d="M254.393 55.0567L256.147 65.1424L256.695 68.1024V68.3216L256.037 69.1986L255.928 69.3083L254.503 71.2815L249.898 77.311L249.021 78.4073L247.158 80.7095L246.938 80.9287L246.719 81.2576L246.39 80.5999L245.403 78.4073L242.115 71.2815L242.005 70.9527L242.334 65.5809L242.663 59.9899C242.663 60.0996 232.906 60.9766 233.125 53.7412C233.125 51.8775 233.235 44.971 234.55 42.0111C234.66 41.6822 234.77 41.4629 234.989 41.1341C235.537 40.0378 236.085 39.0511 236.743 38.1741C238.058 36.4201 239.703 34.9949 242.005 34.5564C242.882 34.3372 244.746 34.3372 245.623 34.2275C246.609 34.2275 247.706 34.2275 248.692 34.4468C251.433 35.1046 253.516 37.4067 254.612 40.0378C255.489 42.1207 255.818 44.4229 256.037 46.6154C256.037 47.0539 256.037 47.9309 256.147 48.2598L256.257 48.3695C256.476 48.5887 256.914 48.808 257.134 49.0272C257.682 49.685 258.12 50.562 258.12 51.439C258.011 53.4123 256.366 55.0567 254.393 55.0567Z" fill="#F4C9DB"/>
<path d="M242.553 59.9898C242.553 59.9898 244.526 59.9898 248.144 58.8936L242.443 63.6075L242.553 59.9898Z" fill="#EDA7C5"/>
<path d="M256.147 65.1426L264.588 66.0196C268.096 66.3485 271.056 68.6506 272.152 71.9395L273.249 75.009L271.166 74.2416C267.438 72.8165 263.272 73.0357 259.655 74.8994L246.719 81.3674L251.981 73.8031C253.187 71.8298 254.831 70.0758 256.804 68.7603L256.147 65.1426Z" fill="#E93737"/>
<path d="M278.511 105.047H276.318L273.687 101.758C273.578 101.648 273.578 101.429 273.797 101.21C273.906 101.1 274.126 101.1 274.345 101.319L276.757 104.389H278.62C278.84 104.389 278.949 104.499 278.949 104.718C278.84 104.827 278.73 105.047 278.511 105.047Z" fill="#002031"/>
<path d="M248.144 116.996C247.925 116.996 247.815 116.886 247.815 116.667V106.801C247.815 105.485 248.911 104.279 250.336 104.279H276.428C276.647 104.279 276.757 104.389 276.757 104.608C276.757 104.827 276.647 104.937 276.428 104.937H250.336C249.35 104.937 248.582 105.704 248.582 106.691V116.558C248.582 116.886 248.363 116.996 248.144 116.996Z" fill="#002031"/>
<path d="M243.978 116.996C243.759 116.996 243.649 116.887 243.649 116.667V106.362H248.144C248.363 106.362 248.473 106.472 248.473 106.691C248.473 106.91 248.363 107.02 248.144 107.02H244.307V116.558C244.307 116.887 244.198 116.996 243.978 116.996Z" fill="#002031"/>
<path d="M246.719 81.6958C246.609 81.6958 246.609 81.6958 246.5 81.5861C246.39 81.4765 246.281 81.2573 246.39 81.1476L251.652 73.5834C253.626 70.2945 256.366 68.102 259.545 67.4442H259.655C259.765 67.3346 259.874 67.4442 259.984 67.4442C260.094 67.5539 260.094 67.6635 260.094 67.7731C260.094 67.9924 259.874 67.9924 259.655 68.102C256.695 68.7598 254.064 70.8427 252.091 74.0219L246.829 81.6958C246.829 81.5861 246.719 81.6958 246.719 81.6958Z" fill="white"/>
<path d="M239.593 52.5351C239.484 52.5351 238.278 52.5351 237.73 51.7677C237.401 51.3292 237.73 50.3426 238.387 48.8078C238.716 48.0404 239.045 47.273 239.045 46.9441C239.045 46.7249 239.264 46.6152 239.374 46.6152C239.593 46.6152 239.703 46.8345 239.703 46.9441C239.703 47.4923 239.374 48.2596 239.045 49.027C238.716 49.7944 238.278 51.0003 238.387 51.3292C238.607 51.6581 239.374 51.7677 239.703 51.7677C239.922 51.7677 240.032 51.8773 240.032 52.0966C239.922 52.3158 239.813 52.5351 239.593 52.5351Z" fill="#002031"/>
<circle cx="241.786" cy="47.9307" r="0.657763" fill="#002031"/>
<circle cx="235.537" cy="47.9307" r="0.657763" fill="#002031"/>
<path d="M226.767 111.734C226.548 111.734 226.438 111.624 226.438 111.405C226.438 111.185 226.548 111.076 226.767 110.966L233.783 109.541C234.002 109.541 234.112 109.651 234.222 109.87C234.222 110.089 234.112 110.199 233.893 110.308L226.767 111.734C226.876 111.734 226.876 111.734 226.767 111.734Z" fill="#002031"/>
<path d="M202.101 77.9687L228.85 102.525L216.023 114.584L191.247 91.4528C189.713 90.0277 189.384 87.7255 190.699 86.0811L196.51 78.5168C197.715 76.7628 200.346 76.5435 202.101 77.9687Z" fill="#F17277"/>
<path d="M220.628 97.2629C220.518 97.2629 220.299 97.1533 220.299 97.0437L219.093 94.0837C219.093 93.9741 219.093 93.7548 219.202 93.6452C219.312 93.5356 219.422 93.5356 219.641 93.6452L223.478 95.6185C223.697 95.7281 223.697 95.9474 223.587 96.057C223.478 96.2763 223.259 96.2763 223.149 96.1666L220.079 94.6319L220.956 96.7148C221.066 96.934 220.956 97.1533 220.737 97.1533C220.628 97.2629 220.628 97.2629 220.628 97.2629Z" fill="#002031"/>
<rect x="187.07" y="84.791" width="11.2916" height="3.94658" transform="rotate(-54.3311 187.07 84.791)" fill="#F17277"/>
<path d="M190.261 87.5059C190.151 87.5059 190.151 87.5059 190.042 87.3962C189.932 87.2866 189.823 87.0674 189.932 86.8481L196.51 77.6394C196.619 77.5298 196.839 77.4202 197.058 77.5298C197.168 77.6394 197.277 77.8587 197.168 78.0779L190.59 87.2866C190.48 87.3962 190.371 87.5059 190.261 87.5059Z" fill="#002031"/>
<path d="M257.243 38.722C257.243 30.8289 246.171 32.4733 246.171 32.4733C246.171 32.4733 245.074 30.0615 243.759 29.5134C241.566 28.5267 241.128 30.9385 241.676 32.3637C240.36 30.7193 239.374 28.1978 237.072 28.6363C235.208 29.2941 235.318 32.5829 236.743 33.5696C227.863 27.6497 226.876 42.3397 241.237 41.7916C245.294 41.682 249.24 41.0242 249.569 40.5857C249.679 44.7515 251.433 49.5751 255.599 50.2329C255.599 50.2329 257.572 43.2168 257.243 38.722Z" fill="#002031"/>
<path d="M254.064 50.2329L253.625 47.7114C253.625 47.7114 257.791 47.8211 258.011 50.8906L254.064 50.2329Z" fill="#F4C9DB"/>
<path d="M239.593 54.8376C238.826 54.8376 238.277 54.6183 238.277 54.6183C238.058 54.5087 237.949 54.3991 238.058 54.1798C238.168 53.9606 238.277 53.8509 238.497 53.9606C238.606 53.9606 241.237 54.7279 242.553 52.4258C242.662 52.2065 242.882 52.2065 242.991 52.3161C243.211 52.4258 243.211 52.645 243.101 52.7547C242.224 54.5087 240.689 54.8376 239.593 54.8376Z" fill="#002031"/>
<path d="M264.149 95.3997H255.27C254.831 95.3997 254.393 95.0709 254.393 94.5227V91.8917C254.393 91.4532 254.721 91.0146 255.27 91.0146H264.149C264.588 91.0146 265.026 91.3435 265.026 91.8917V94.5227C265.026 95.0709 264.588 95.3997 264.149 95.3997Z" fill="#E93737"/>
<path d="M264.149 94.7418H254.831C254.393 94.7418 253.954 94.3033 253.954 93.8648V91.1241C253.954 90.6856 254.393 90.2471 254.831 90.2471H264.149C264.588 90.2471 265.026 90.6856 265.026 91.1241V93.9744C265.026 94.4129 264.588 94.7418 264.149 94.7418Z" fill="white"/>
<path d="M259.436 91.8914H255.818C255.708 91.8914 255.599 91.7818 255.599 91.6722C255.599 91.5625 255.708 91.4529 255.818 91.4529H259.436C259.545 91.4529 259.655 91.5625 259.655 91.6722C259.655 91.7818 259.545 91.8914 259.436 91.8914Z" fill="#002031"/>
<path d="M261.738 93.5359H255.818C255.708 93.5359 255.599 93.4263 255.599 93.3167C255.599 93.2071 255.708 93.0974 255.818 93.0974H261.738C261.847 93.0974 261.957 93.2071 261.957 93.3167C261.957 93.4263 261.847 93.5359 261.738 93.5359Z" fill="#002031"/>
<path fill-rule="evenodd" clip-rule="evenodd" d="M268.206 179.045H287.829C289.254 179.045 290.351 177.949 290.351 176.524V171.7C290.351 170.275 289.254 169.179 287.829 169.179H268.206C266.781 169.179 265.685 170.275 265.685 171.7V176.524C265.685 177.949 266.781 179.045 268.206 179.045ZM266.671 171.7C266.671 170.823 267.329 170.165 268.206 170.165H287.829C288.706 170.165 289.364 170.823 289.364 171.7V176.524C289.364 177.401 288.706 178.059 287.829 178.059H268.206C267.329 178.059 266.671 177.401 266.671 176.524V171.7Z" fill="#DCEEFD"/>
<path fill-rule="evenodd" clip-rule="evenodd" d="M254.174 193.077H273.797C275.222 193.077 276.318 191.981 276.318 190.556V185.732C276.318 184.307 275.222 183.211 273.797 183.211H254.174C252.749 183.211 251.652 184.307 251.652 185.732V190.556C251.652 191.981 252.749 193.077 254.174 193.077ZM252.749 185.732C252.749 184.855 253.406 184.198 254.283 184.198H273.907C274.784 184.198 275.441 184.855 275.441 185.732V190.556C275.441 191.433 274.784 192.091 273.907 192.091H254.283C253.406 192.091 252.749 191.433 252.749 190.556V185.732Z" fill="#DCEEFD"/>
<path fill-rule="evenodd" clip-rule="evenodd" d="M208.788 164.465H228.411C229.836 164.465 230.933 163.369 230.933 161.944V157.12C230.933 155.695 229.836 154.599 228.411 154.599H208.788C207.363 154.599 206.267 155.695 206.267 157.12V161.944C206.267 163.369 207.363 164.465 208.788 164.465ZM207.363 157.12C207.363 156.243 208.021 155.585 208.898 155.585H228.521C229.398 155.585 230.056 156.243 230.056 157.12V161.944C230.056 162.821 229.398 163.478 228.521 163.478H208.898C208.021 163.478 207.363 162.821 207.363 161.944V157.12Z" fill="#DCEEFD"/>
<path fill-rule="evenodd" clip-rule="evenodd" d="M151.453 32.0354H170.199C171.515 32.0354 172.611 30.9391 172.611 29.6236V25.0192C172.611 23.7037 171.515 22.6074 170.199 22.6074H151.453C150.137 22.6074 149.041 23.7037 149.041 25.0192V29.6236C149.041 30.9391 150.137 32.0354 151.453 32.0354ZM150.028 24.9096C150.028 24.1422 150.685 23.4844 151.453 23.4844H170.199C170.966 23.4844 171.624 24.1422 171.624 24.9096V29.5139C171.624 30.2813 170.966 30.9391 170.199 30.9391H151.453C150.685 30.9391 150.028 30.2813 150.028 29.5139V24.9096Z" fill="#DCEEFD"/>
<path fill-rule="evenodd" clip-rule="evenodd" d="M168.555 19.6472H187.301C188.617 19.6472 189.713 18.5509 189.713 17.2354V12.631C189.713 11.3155 188.617 10.2192 187.301 10.2192H168.555C167.239 10.2192 166.143 11.3155 166.143 12.631V17.2354C166.143 18.5509 167.239 19.6472 168.555 19.6472ZM167.13 12.5214C167.13 11.754 167.787 11.0963 168.555 11.0963H187.301C188.069 11.0963 188.726 11.754 188.726 12.5214V17.1258C188.726 17.8931 188.069 18.5509 187.301 18.5509H168.555C167.787 18.5509 167.13 17.8931 167.13 17.1258V12.5214Z" fill="#DCEEFD"/>
<rect x="181.491" y="116.558" width="123.66" height="11.6205" fill="#59ACF5"/>
<rect x="275.989" y="116.558" width="29.1608" height="11.6205" fill="#1540EB"/>
<path d="M243.759 46.3961C243.54 46.3961 243.43 46.2865 243.43 46.0673C243.211 44.7517 241.786 44.8614 241.676 44.8614C241.457 44.8614 241.347 44.7517 241.238 44.5325C241.238 44.3132 241.347 44.2036 241.567 44.094C242.334 43.9843 243.759 44.3132 244.088 45.848C244.088 46.1769 243.978 46.2865 243.759 46.3961Z" fill="#002031"/>
<path d="M234.66 45.4094C234.55 45.4094 234.55 45.4094 234.441 45.2998C234.331 45.1902 234.221 44.9709 234.331 44.8613C234.77 44.3131 235.975 43.3265 237.291 44.2035C237.51 44.3131 237.51 44.5324 237.401 44.642C237.291 44.8613 237.072 44.8613 236.962 44.7516C235.866 44.0939 235.098 45.1902 234.989 45.2998C234.879 45.4094 234.77 45.4094 234.66 45.4094Z" fill="#002031"/>
<ellipse cx="101.682" cy="47.3829" rx="8.98943" ry="11.5109" fill="#002031"/>
<path d="M183.574 246.027C183.574 247.672 150.357 248.987 122.073 248.987C93.7889 248.987 78.77 247.562 78.77 246.027C78.77 244.493 94.0082 243.067 122.182 243.067C150.357 243.067 183.574 244.383 183.574 246.027Z" fill="#DCEEFD"/>
<path d="M156.496 76.4342L151.343 78.1883C150.357 78.5171 149.26 77.969 148.931 76.9824L143.45 60.9768C143.121 59.9901 143.669 58.8939 144.656 58.565L149.808 56.8109C150.795 56.4821 151.891 57.0302 152.22 58.0168L157.702 74.0224C158.031 75.0091 157.482 76.1053 156.496 76.4342Z" fill="#002031"/>
<path d="M155.29 76.7628L150.137 78.5169C149.151 78.8457 148.054 78.2976 147.725 77.311L142.244 61.3054C141.915 60.3187 142.463 59.2225 143.45 58.8936L148.602 57.1396C149.589 56.8107 150.685 57.3588 151.014 58.3455L156.496 74.351C156.824 75.3377 156.276 76.4339 155.29 76.7628Z" fill="#59ACF5"/>
<path d="M127.006 79.5039L139.503 97.3731L145.643 80.1617L153.097 79.9424C153.097 79.9424 151.124 96.3865 146.081 105.595C143.56 110.09 139.832 110.419 136.872 108.555C128.65 103.183 122.95 93.6458 122.95 93.6458L127.006 79.5039Z" fill="#FFCC00"/>
<path d="M99.5991 118.312C99.5991 118.312 86.2245 129.055 91.8155 150.652C92.3637 152.735 92.6926 154.818 92.8022 156.901L93.7888 188.912H144.546L127.335 117.764L99.5991 118.312Z" fill="#FFCC00"/>
<path d="M99.709 53.4121L102.779 73.3643L115.824 73.6931L108.808 57.6876L99.709 53.4121Z" fill="#C26E5E"/>
<path d="M112.207 65.5809L110.672 61.9632L105.41 61.415L112.207 65.5809Z" fill="#A95643"/>
<path d="M109.137 62.4018C103.217 61.8537 97.2972 56.9204 97.2972 51.0006C97.1876 44.9711 102.011 40.1475 107.931 40.1475C110.891 40.1475 113.522 41.3534 115.386 43.4363C116.043 44.094 116.592 44.9711 117.14 45.8481C118.017 47.3829 118.675 49.1369 118.894 51.0006C119.99 58.236 115.934 63.0595 109.137 62.4018Z" fill="#C26E5E"/>
<path d="M116.811 45.4098C116.811 45.4098 108.698 44.9713 107.821 44.2039L115.166 43.4365C115.934 44.0943 116.372 44.5328 116.811 45.4098Z" fill="#A95643"/>
<path d="M117.03 34.2278C116.701 34.5567 116.482 34.8856 116.482 34.8856C116.482 34.8856 115.715 32.3642 114.509 32.0353C114.07 31.9257 113.522 31.816 113.084 32.0353C112.097 32.2545 111.33 32.5834 110.343 33.3508C109.685 33.7893 108.479 32.9123 107.273 32.693C104.971 32.3642 104.313 34.5567 102.669 35.2145C101.902 35.5433 101.244 35.8722 100.586 36.3107C100.148 36.6396 99.8188 36.9685 99.4899 37.2974C99.3802 37.5166 99.161 37.6263 99.161 37.8455C99.0514 38.284 99.2706 38.6129 99.4899 38.9418C100.148 39.9284 105.081 43.5461 107.383 43.9846C109.685 44.5328 111.987 44.4232 114.29 43.9846C115.167 43.875 116.044 43.6558 116.921 43.2173C117.798 42.8884 118.455 42.2306 119.004 41.4632C119.442 40.6958 119.442 39.9284 119.661 39.0514C119.661 38.8322 119.442 36.53 119.113 34.6663C118.894 33.8989 117.688 33.5701 117.03 34.2278Z" fill="#002031"/>
<path d="M131.282 88.2736C130.514 82.6826 126.458 79.1746 122.512 74.6799C121.415 73.3643 119.99 72.3777 118.346 71.8296L116.044 71.0622C115.495 70.9525 115.057 70.7333 114.618 70.4044C113.413 68.2119 112.207 65.6904 112.207 65.6904L101.573 66.1289L101.902 68.3215C102.011 69.637 101.134 70.9525 99.8188 71.391L94.8855 72.7066H94.9952C88.856 73.0355 84.6902 78.5168 85.6768 84.9848L88.1983 92.7684L92.4737 93.4261C92.4737 93.4261 97.7358 103.073 99.161 118.75L127.226 118.421C126.787 114.694 132.049 93.755 131.282 88.2736Z" fill="#FFCC00"/>
<path d="M72.4116 100.881C83.8129 96.6053 95.4333 92.6587 107.163 89.1507C114.399 86.9581 121.854 84.8752 129.637 83.2308L129.527 83.1212C128.87 82.0249 128.212 81.0382 127.444 80.1612L127.006 79.6131V79.7227C126.458 79.065 125.91 78.4072 125.362 77.7494C118.455 79.2842 111.768 81.2575 105.409 83.1212C102.011 84.1078 98.5029 85.2041 95.1045 86.3003C103.655 81.5864 112.316 77.2013 121.196 73.2547C120.428 72.7066 119.551 72.1584 118.565 71.8296L116.263 71.0622C115.714 70.9525 115.276 70.7333 114.837 70.4044C113.631 68.2119 112.426 65.6904 112.426 65.6904L110.891 65.8001C107.931 66.5674 104.971 67.4445 102.011 68.3215V68.4311C102.121 69.7466 101.244 71.0622 99.9281 71.5007L94.9948 72.8162H95.1045C90.829 73.0355 87.4306 75.8858 86.2247 79.7227C85.8958 80.1612 85.5669 80.7094 85.1284 81.3671C91.1579 78.9553 97.297 76.6532 103.546 74.6799C96.0911 78.2976 88.6364 82.4634 81.5107 86.7389C78.0026 92.1106 74.056 98.2497 72.4116 100.881Z" fill="#FEDE6A"/>
<path d="M140.381 94.9609L139.504 97.3727L138.078 95.3994C124.156 98.3593 110.672 102.744 97.4067 107.349C97.8452 109.322 98.2838 111.405 98.6126 113.707C108.698 110.199 118.894 106.801 129.308 104.06C129.418 103.512 129.528 102.964 129.637 102.416C130.076 102.854 130.514 103.293 130.843 103.731C134.022 102.964 137.201 102.196 140.381 101.538C137.64 102.744 135.009 103.95 132.378 105.156C133.803 106.362 135.228 107.568 136.763 108.664C137.311 108.993 137.859 109.212 138.407 109.432C140.819 108.335 143.231 107.239 145.752 106.143C145.862 106.033 145.972 105.814 145.972 105.704C147.616 102.196 149.26 98.7978 150.576 92.6587C147.397 93.0972 143.779 94.3031 140.381 94.9609Z" fill="#FEDE6A"/>
<path d="M102.23 188.802H110.781C111.768 187.925 112.864 187.048 114.07 186.171C122.292 180.142 131.062 174.88 139.942 169.727L137.749 160.518C125.252 164.794 112.973 169.837 101.134 175.757C108.917 169.837 117.139 164.575 125.8 160.08C129.308 158.326 132.816 156.572 136.434 154.927L133.474 142.759C121.195 146.596 109.027 151.09 97.1871 156.243C107.602 149.227 118.455 142.978 129.637 137.497C130.404 137.168 131.172 136.729 131.939 136.4L130.404 130.042C129.198 130.59 127.992 131.138 126.896 131.686C114.837 137.497 103.326 144.294 92.2539 151.858C92.5828 153.393 92.802 155.037 92.9117 156.681L93.1309 165.013C105.848 159.203 119.003 154.05 132.377 149.775C129.198 151.31 126.019 152.844 122.95 154.489C112.425 159.97 102.668 166.438 93.4598 173.893L93.8983 186.939C94.4465 186.61 94.9946 186.39 95.5427 186.062L95.6524 185.952C103.984 181.348 112.535 177.291 121.305 173.564C117.687 175.866 114.07 178.388 110.562 180.909C107.273 183.321 104.313 185.842 102.23 188.802Z" fill="#FEDE6A"/>
<path d="M128.212 121.381C117.688 124.232 107.273 127.74 97.1873 131.686C107.054 125.437 117.249 119.737 127.664 114.584C127.883 112.501 128.431 109.761 128.979 106.801C115.276 113.378 102.121 120.833 89.4038 129.055C90.3905 129.932 91.2675 130.7 91.8156 131.248C91.0482 134.098 90.5001 137.387 90.6097 141.114C103.436 135.962 116.482 131.028 129.856 127.52L128.212 121.381Z" fill="#FEDE6A"/>
<path d="M143.779 85.5329C145.642 84.8751 150.137 81.2574 150.466 80.1611H145.642L143.779 85.5329Z" fill="#FEDE6A"/>
<path d="M83.8131 108.116L86.773 104.718C81.9494 107.568 77.3451 110.528 72.7407 113.598C73.0696 113.926 73.2889 114.255 73.6177 114.584C74.8236 115.9 77.2354 118.092 79.8665 120.504L84.9093 118.64C87.3211 117.763 89.7329 116.886 92.1447 116.009L83.8131 108.116Z" fill="#FEDE6A"/>
<path d="M143.011 182.663L141.477 176.414C135.886 178.387 130.514 180.799 125.252 183.101C120.867 185.075 116.372 187.048 111.768 188.802H128.212C133.255 186.609 138.078 184.417 143.011 182.663Z" fill="#FEDE6A"/>
<path d="M97.1874 106.033C108.918 99.4558 121.086 93.7552 133.584 88.8219L129.856 83.4502C118.017 88.1642 106.506 93.6455 95.3237 99.7847C95.8719 101.539 96.5296 103.622 97.1874 106.033Z" fill="#FEDE6A"/>
<path d="M103.107 130.481C102.888 130.481 102.778 130.371 102.778 130.152L100.696 94.0843C99.9281 78.9558 96.9682 74.4611 94.666 73.3648C93.0216 72.5974 91.5965 73.584 91.4868 73.584C91.2676 73.6937 91.0483 73.6937 90.9387 73.4744C90.8291 73.2552 90.8291 73.0359 91.0483 72.9263C91.158 72.9263 92.8024 71.6108 94.9949 72.5974C98.7222 74.3514 100.805 81.5868 101.463 93.9747L103.546 130.042C103.546 130.261 103.327 130.481 103.107 130.481Z" fill="white"/>
<path d="M83.7031 129.494L80.0854 146.267L101.463 146.377L104.642 128.727L83.7031 129.494Z" fill="#478F8E"/>
<path d="M110.343 146.377L106.615 128.727H104.642L101.463 146.377H110.343Z" fill="#104A4A"/>
<path d="M91.2672 139.689L83.2644 129.713C83.1548 129.603 83.1548 129.274 83.374 129.165C83.4836 129.055 83.8125 129.055 83.9222 129.274L91.3768 138.702L103.765 128.726C103.874 128.617 104.203 128.617 104.313 128.836C104.422 128.946 104.422 129.274 104.203 129.384L91.2672 139.689Z" fill="white"/>
<path d="M99.5992 124.67L102.45 126.643C105.19 128.507 106.725 131.686 106.615 134.975L106.286 143.635H99.0511L96.7489 137.167L94.3371 133.879L93.5697 131.467L91.7061 129.165L99.5992 124.67Z" fill="#C26E5E"/>
<path d="M113.193 53.9606C113.083 53.9606 112.864 53.8509 112.864 53.6317C112.864 53.4124 112.974 53.3028 113.083 53.1932C113.303 53.1932 113.851 52.9739 113.96 52.645C114.07 52.4258 113.522 51.3295 113.193 50.7814C112.974 50.2332 112.645 49.7947 112.535 49.4659C112.426 49.2466 112.535 49.0273 112.754 49.0273C112.974 49.0273 113.193 49.0273 113.193 49.2466C113.303 49.5755 113.522 50.014 113.741 50.4525C114.399 51.6584 114.728 52.4258 114.508 52.9739C114.399 53.6317 113.412 53.9606 113.193 53.9606C113.193 53.9606 113.303 53.9606 113.193 53.9606Z" fill="#002031"/>
<path d="M107.492 127.192L100.586 125.438L100.805 128.946L107.492 128.726V127.192Z" fill="#C26E5E"/>
<path d="M100.367 125.108C100.367 125.108 98.7223 131.357 95.3239 135.084L94.5565 133.988L93.7891 131.576L93.5698 131.248L100.367 125.108Z" fill="#A95643"/>
<rect x="101.463" y="139.141" width="0.767391" height="4.49472" fill="#002031"/>
<path d="M87.4307 77.5303C87.4307 77.5303 74.7139 96.9343 72.0829 101.319C69.4518 105.704 69.6711 110.528 73.508 114.475C77.345 118.421 92.4735 131.905 92.4735 131.905L100.805 124.451L83.7034 107.897L98.503 90.6855L87.4307 77.5303Z" fill="#FFCC00"/>
<rect x="103.649" y="143.663" width="6.13915" height="0.767393" transform="rotate(-89.8498 103.649 143.663)" fill="#002031"/>
<circle cx="116.153" cy="49.5757" r="0.657763" fill="#002031"/>
<circle cx="110.124" cy="49.9043" r="0.657763" fill="#002031"/>
<path d="M129.637 104.06C129.308 104.06 129.199 103.841 129.308 103.622L131.172 93.7551C131.281 93.207 131.391 92.6588 131.391 92.1107C131.72 88.0545 130.295 83.8886 127.664 80.7095C127.554 80.5998 127.554 80.2709 127.664 80.1613C127.773 80.0517 128.102 80.0517 128.212 80.1613C131.062 83.5598 132.487 87.8352 132.158 92.1107C132.158 92.7685 132.049 93.3166 131.939 93.8647L130.076 103.731C129.966 103.95 129.856 104.06 129.637 104.06Z" fill="white"/>
<path d="M96.749 188.802L99.3801 228.377L108.589 228.487L110.891 188.802H96.749Z" fill="#C26E5E"/>
<path d="M124.704 188.802L137.53 227.391L147.835 227.829L139.065 188.802H124.704Z" fill="#C26E5E"/>
<path d="M89.1844 79.6132L87.4304 77.5303C87.4304 77.5303 86.4437 78.9554 85.0186 81.148C86.4437 80.5998 87.7592 80.1613 89.1844 79.6132Z" fill="#FEDE6A"/>
<path d="M83.8131 108.116L86.773 104.718C81.9494 107.568 77.3451 110.528 72.7407 113.598C73.0696 113.926 73.2889 114.255 73.6177 114.584C74.8236 115.9 77.2354 118.092 79.8665 120.504L84.9093 118.64C87.3211 117.763 89.7329 116.886 92.1447 116.009L83.8131 108.116Z" fill="#FEDE6A"/>
<path d="M97.4066 92.22L98.6125 90.9045L90.7194 81.4766C87.6498 83.2306 84.5802 84.9846 81.5107 86.8483C78.1122 92.1104 74.1657 98.2495 72.4116 100.99C80.6337 97.811 89.075 94.9607 97.4066 92.22Z" fill="#FEDE6A"/>
<path d="M100.915 124.67L99.1609 122.916C95.8721 124.889 92.5833 126.972 89.2944 129.165C91.2677 130.919 92.5833 132.125 92.5833 132.125L100.915 124.67Z" fill="#FEDE6A"/>
<path d="M153.097 80.0517L153.865 73.6934L146.739 75.9955L145.643 80.1614L153.097 80.0517Z" fill="#C26E5E"/>
<path d="M150.905 74.4606L151.124 72.0488L154.522 67.9926C155.18 67.4444 156.057 67.5541 156.605 68.2118C157.044 68.76 157.044 69.5273 156.605 70.0755L153.536 75.228L150.905 74.4606Z" fill="#C26E5E"/>
<path d="M152.221 72.7071L144.766 67.9932L144.218 72.7071L146.739 76.4345L151.563 74.6804L152.221 72.7071Z" fill="#C26E5E"/>
<rect x="144.383" y="69.4185" width="0.548122" height="2.30211" transform="rotate(-51.0887 144.383 69.4185)" fill="#002031"/>
<rect x="144.22" y="71.3379" width="0.548138" height="2.74069" transform="rotate(-46.3938 144.22 71.3379)" fill="#002031"/>
<path d="M136.653 227.391L148.712 226.952L149.37 233.749L155.29 242.738L159.675 243.725C160.552 243.944 161.1 244.821 160.881 245.589C160.771 246.356 160.004 246.904 159.237 246.904H147.835C147.397 246.904 146.958 246.685 146.739 246.247L142.902 240.107V246.904H139.833L136.982 237.696L138.298 233.42L136.653 227.391Z" fill="#59ACF5"/>
<path d="M109.466 228.487L98.3934 228.377L99.1608 235.284L96.8586 243.725L95.1046 244.054C94.3372 244.164 93.7891 244.712 93.7891 245.479C93.7891 246.247 94.4468 246.904 95.2142 246.904H101.901C102.669 246.904 103.327 246.466 103.546 245.699L105.3 241.423L105.738 246.904H108.041L109.356 238.244L108.26 235.613L109.466 228.487Z" fill="#59ACF5"/>
<path d="M99.051 243.835H96.4199C96.3103 243.835 96.2007 243.725 96.2007 243.616C96.2007 243.506 96.3103 243.396 96.4199 243.396H99.051C99.1606 243.396 99.2702 243.506 99.2702 243.616C99.2702 243.725 99.1606 243.835 99.051 243.835Z" fill="white"/>
<path d="M115.166 54.728H111.11C110.891 54.728 110.781 54.9473 110.891 55.1665C111.548 56.1532 113.193 58.2361 115.495 55.2762C115.495 55.0569 115.385 54.728 115.166 54.728Z" fill="white"/>
<circle cx="94.5562" cy="36.5298" r="7.45465" fill="#002031"/>
<ellipse cx="97.7355" cy="52.645" rx="2.19254" ry="2.52143" fill="#C26E5E"/>
<path d="M100.038 51.7678C100.257 52.316 100.367 52.9737 100.915 52.9737C101.353 52.9737 101.682 50.8908 101.682 50.4523C103.655 50.1234 104.971 49.1368 106.286 47.602C107.492 46.0672 108.15 43.9843 108.04 42.011C108.04 41.7917 108.04 41.5725 107.821 41.4629C107.712 41.3532 107.602 41.3532 107.492 41.2436C105.519 40.3666 103.436 39.4896 101.463 38.5029C100.147 39.8185 98.8318 41.2436 97.6259 42.7784C96.7488 43.9843 95.8718 45.2998 95.6526 46.725C95.5429 47.2731 95.5429 47.9309 95.7622 48.3694C95.7622 48.3694 96.2007 50.0138 97.0777 50.1234C98.0644 50.233 99.5992 50.4523 100.038 51.7678Z" fill="#002031"/>
<path d="M93.8987 42.45C93.6795 42.45 93.5698 42.2307 93.5698 42.1211C93.5698 42.1211 93.6795 37.0782 99.9282 35.7627C100.147 35.7627 100.367 35.8723 100.367 36.0916C100.367 36.3108 100.257 36.5301 100.038 36.5301C94.3372 37.736 94.2276 42.0114 94.2276 42.2307C94.2276 42.3403 94.118 42.45 93.8987 42.45Z" fill="white"/>
<path d="M83.1552 110.2L82.4974 109.871L83.2648 108.665L80.9627 109.103L80.853 108.446L83.9226 107.897C84.0322 107.897 84.1418 107.897 84.2515 108.007C84.3611 108.117 84.3611 108.226 84.2515 108.336L83.1552 110.2Z" fill="#002031"/>
<rect x="92.2168" y="97.7549" width="7.56441" height="0.657774" transform="rotate(-49.3838 92.2168 97.7549)" fill="#002031"/>
</svg>
