<?xml version="1.0" encoding="utf-8"?>
<!-- Generator: Adobe Illustrator 24.3.0, SVG Export Plug-In . SVG Version: 6.00 Build 0)  -->
<svg version="1.1" id="Layer_1" xmlns="http://www.w3.org/2000/svg" xmlns:xlink="http://www.w3.org/1999/xlink" x="0px" y="0px"
	 viewBox="0 0 335 236" style="enable-background:new 0 0 335 236;" xml:space="preserve">
<style type="text/css">
	.st0{fill:#DCEEFD;}
	.st1{fill:#002031;}
	.st2{fill:#DD933C;}
	.st3{fill:#FE6F43;}
	.st4{fill:#FE9C7E;}
	.st5{fill:#FFFFFF;}
	.st6{fill:#1540EB;}
	.st7{fill:#59ACF5;}
	.st8{fill:#FFCC00;}
	.st9{fill:#82C6F8;}
	.st10{fill:#D2793C;}
	.st11{fill:#1BC1D7;}
	.st12{fill:#F4C9DB;}
	.st13{fill:#104A4A;}
	.st14{fill:#F48D91;}
	.st15{fill:#22AEC3;}
	.st16{fill:#EDA7C5;}
	.st17{fill:#237978;}
	.st18{fill:#C8915C;}
	.st19{fill-rule:evenodd;clip-rule:evenodd;fill:#F4C9DB;}
	.st20{fill-rule:evenodd;clip-rule:evenodd;fill:#1540EB;}
	.st21{fill-rule:evenodd;clip-rule:evenodd;fill:#59ACF5;}
	.st22{fill:#1D1D1B;}
	.st23{fill-rule:evenodd;clip-rule:evenodd;fill:#A87A6A;}
	.st24{fill:#3DEC94;}
</style>
<g>
	<g>
		<ellipse class="st0" cx="161.3" cy="233.2" rx="61" ry="2.8"/>
	</g>
	<g>
		<g>
			<g>
				<path class="st1" d="M192.4,65.2c-0.3,2.2-0.7,4.5-0.6,6.8c0.1,4,7.2,8.9,7.2,8.9c-4.8,1.5-18.7,2.1-22.9-2.9
					c-2.5-3-3.9-6.7-4.5-10.5c-0.9-6.2,2-17.4,9.6-18.5C191.8,47.4,193.4,57.5,192.4,65.2z"/>
			</g>
			<g>
				<g>
					<polygon class="st2" points="148.1,215.7 146.8,224.8 136.9,224.4 138,215.1 					"/>
				</g>
				<g>
					<g>
						<path class="st3" d="M134.5,220.1l-4.1,5l-2.5,2c-2.1,1.1-2.1,3-2.1,3h21.9l-0.4-7.7c0,0-3.5,0.1-5.8,0.1c0,0-0.5-1.2-1.9-2.5
							C138.9,219.5,135.4,218.9,134.5,220.1z"/>
					</g>
					<g>
						<path class="st4" d="M147.6,230.1l-0.2-4c0,0-3.3,0.6-3.3,4H147.6z"/>
					</g>
					<g>
						<polygon class="st5" points="147.9,233.1 125.6,233.1 125.6,230.1 147.7,230.1 						"/>
					</g>
					<g>
						
							<rect x="130" y="224.3" transform="matrix(0.9997 -2.401709e-02 2.401709e-02 0.9997 -5.3567 3.2273)" class="st1" width="3.3" height="0.7"/>
					</g>
					<g>
						<polygon class="st1" points="131.7,223.3 131.7,222.7 135.5,222.5 135.5,223.2 						"/>
					</g>
				</g>
			</g>
			<g>
				<g>
					<polygon class="st2" points="182.3,215.7 183.6,224.8 193.5,224.4 192.4,215.1 					"/>
				</g>
				<g>
					<g>
						<path class="st3" d="M195.9,220.1l4.1,5l2.5,2c2.1,1.1,2.1,3,2.1,3h-21.9l0.4-7.7c0,0,3.5,0.1,5.8,0.1c0,0,0.5-1.2,1.9-2.5
							C191.5,219.5,195,218.9,195.9,220.1z"/>
					</g>
					<g>
						<path class="st4" d="M182.8,230.1l0.2-4c0,0,3.3,0.6,3.3,4H182.8z"/>
					</g>
					<g>
						<polygon class="st5" points="182.5,233.1 204.8,233.1 204.8,230.1 182.7,230.1 						"/>
					</g>
					<g>
						
							<rect x="198.4" y="223" transform="matrix(2.492625e-02 -0.9997 0.9997 2.492625e-02 -30.7845 417.6756)" class="st1" width="0.7" height="3.3"/>
					</g>
					<g>
						<polygon class="st1" points="198.7,223.3 194.8,223.2 194.9,222.5 198.7,222.7 						"/>
					</g>
				</g>
			</g>
			<g>
				<g>
					<path class="st1" d="M125.1,55.9l5.4-2l-0.1-0.2l1,0.1c0,0,0,0,0.1,0l0.1,0l0,0c0.8,0.1,1.4,0.6,1.7,1.4l5.4,15.4
						c0.4,1.1-0.2,2.3-1.3,2.6l-5.6,2c-1.1,0.4-2.3-0.2-2.6-1.3l-5.4-15.4C123.5,57.5,124.1,56.3,125.1,55.9z"/>
				</g>
				<g>
					<path class="st6" d="M136.3,73.1l-5.6,2c-1.1,0.4-2.3-0.2-2.6-1.3l-5.4-15.4c-0.4-1.1,0.2-2.3,1.3-2.6l5.6-2
						c1.1-0.4,2.3,0.2,2.6,1.3l5.4,15.4C137.9,71.6,137.3,72.7,136.3,73.1z"/>
				</g>
			</g>
			<g>
				<path class="st2" d="M130.2,63.4l-5.8,3.2c-1.7,1.1-2.5,3.1-1.9,5l2.5,8.7l7.3-2.9l-1.7-5.2l3-2.6L130.2,63.4z"/>
			</g>
			<g>
				<path class="st7" d="M151.6,75l-13,18.7l-6.5-17.5l-8.1,0.7c0,0,3.8,17.2,7.8,25.4c2.4,4.9,6.6,5.1,9.7,3.1
					c8.6-5.7,14.5-15.6,14.5-15.6L151.6,75z"/>
			</g>
			<g>
				<g>
					<polygon class="st4" points="161.5,112.3 164.8,128 144.8,128.2 141.8,111.6 					"/>
				</g>
				<g>
					<polygon class="st3" points="136.4,128.2 140,111.6 141.8,111.6 144.8,128.2 					"/>
				</g>
			</g>
			<g>
				<path class="st1" d="M127.8,67.6c-0.1,0-0.2,0-0.2-0.1c-0.1-0.1,0-0.3,0.1-0.3l3.5-2.1c0.1-0.1,0.3,0,0.3,0.1
					c0.1,0.1,0,0.3-0.1,0.3l-3.5,2.1C127.9,67.6,127.8,67.6,127.8,67.6z"/>
			</g>
			<g>
				<path class="st1" d="M129.2,69.8c-0.1,0-0.2,0-0.2-0.1c-0.1-0.1,0-0.3,0.1-0.3l3.2-2.2c0.1-0.1,0.3,0,0.3,0.1
					c0.1,0.1,0,0.3-0.1,0.3l-3.2,2.2C129.3,69.7,129.3,69.8,129.2,69.8z"/>
			</g>
			<g>
				<path class="st8" d="M176.6,107.6c0,0,7.4,4.4,9.5,17.8c1.8,11.4,7.5,93.6,7.5,93.6h-11.2l-22.2-111.8L176.6,107.6z"/>
			</g>
			<g>
				<path class="st8" d="M153.5,107.1c0,0-6.3,4.9-8.3,18.3c-1.8,11.4-8.2,93.6-8.2,93.6h11.2l22.2-111.6L153.5,107.1z"/>
			</g>
			<g>
				<path class="st7" d="M202.6,90.8c-3-3.7-17.3-19.2-17.3-19.2l0,0c-1.2-1.2-2.7-2.1-4.4-2.4l0,0l-5.2-1.2c-1.2-0.4-1.8-2-1.7-3.2
					l-9.4,0.2l-0.5,1.2c-0.3,0.8-1.1,1.2-2,1.6l-3.9,1.3l0,0l0,0c-3.6,2-9.7,8.2-10.3,13.5c-0.6,4.6,6.1,21.4,5.6,24.5l23.1,0.5
					c0.1-1,0.2-1.9,0.3-2.8l5.1,7.1c0,0,17.2-8.1,20.5-11C206.1,97.6,205.5,94.3,202.6,90.8z M177,103.9c1.5-10.9,5-17.4,5-17.4l0,0
					l10.3,9.1L177,103.9z"/>
			</g>
			<g>
				<g>
					<path class="st9" d="M164.4,71.9c0,3.4-2.8,6.2-6.2,6.2c-2.7,0-4.9-1.7-5.8-4c0.4-0.5,0.8-0.9,1.2-1.3c1.6-1.6,3.2-2.9,4.6-3.6
						l3.9-1.3c0.2-0.1,0.3-0.1,0.5-0.2C163.7,68.6,164.4,70.2,164.4,71.9z"/>
				</g>
				<g>
					<path class="st9" d="M164.4,104.5c0,1-0.2,2-0.7,2.8l-10.2-0.2c0.1-0.9-0.2-2.8-0.9-5.2v0c1-2.1,3.1-3.6,5.6-3.6
						C161.6,98.3,164.4,101.1,164.4,104.5z"/>
				</g>
				<g>
					<path class="st9" d="M154.3,88.2c0,3.4-2.8,6.2-6.2,6.2c-3.1,0-5.7-2.3-6.1-5.4l4.7-6.8c0.4-0.1,0.9-0.2,1.4-0.2
						C151.5,82,154.3,84.8,154.3,88.2z"/>
				</g>
				<g>
					<path class="st9" d="M129.9,88.2c0,1.7-0.7,3.3-1.8,4.4c-1.3-4.1-2.3-8-2.8-10.4C128,82.9,129.9,85.3,129.9,88.2z"/>
				</g>
				<g>
					<path class="st9" d="M186.7,73.1c-0.6,2.8-3.1,5-6.1,5c-3.4,0-6.2-2.8-6.2-6.2c0-1.4,0.5-2.8,1.3-3.8h0l5.2,1.2l0,0
						c1.8,0.3,3.3,1.2,4.4,2.4l0,0C185.3,71.6,185.8,72.2,186.7,73.1z"/>
				</g>
				<g>
					<path class="st9" d="M186.8,104.5c0,3.3-2.5,5.9-5.7,6.2l-4.2-5.9c-0.1,0.9-0.2,1.8-0.3,2.8l-1.4,0c-0.5-0.9-0.8-1.9-0.8-3
						c0-2.4,1.4-4.5,3.4-5.5c-0.3,1.5-0.6,3.2-0.8,4.9l7.6-4.1C185.9,100.9,186.8,102.6,186.8,104.5z"/>
				</g>
				<g>
					<circle class="st9" cx="170.5" cy="88.2" r="6.2"/>
				</g>
				<g>
					<path class="st9" d="M141.6,105.5c-3.1,2-7.3,1.8-9.7-3.1c-0.2-0.4-0.4-0.9-0.6-1.4c1.1-1,2.5-1.6,4.1-1.6
						C138.8,99.5,141.5,102.2,141.6,105.5z"/>
				</g>
				<g>
					<path class="st9" d="M204.4,98.5c-0.4,0.8-1.1,1.6-2,2.4c-1,0.8-3.1,2.1-5.6,3.5c0-3.4,2.8-6.1,6.2-6.1
						C203.5,98.3,203.9,98.4,204.4,98.5z"/>
				</g>
				<g>
					<path class="st9" d="M195.3,82.5c-0.7-0.3-1.5-0.5-2.4-0.5c-3.4,0-6.2,2.8-6.2,6.2c0,1.2,0.4,2.4,1,3.4l0,0h0
						c0.6,0.9,1.4,1.7,2.5,2.2c0.8,0.4,1.8,0.6,2.7,0.6c3.4,0,6.2-2.8,6.2-6.2c0-0.6-0.1-1.2-0.3-1.8L195.3,82.5z"/>
				</g>
			</g>
			<g>
				<polygon class="st2" points="175.8,52.6 173.9,65.7 164.3,65.8 168,56.4 				"/>
			</g>
			<g>
				<polygon class="st10" points="165.5,62.6 166.8,59.5 171.3,58.5 				"/>
			</g>
			<g>
				<path class="st2" d="M178.3,49.1c-0.2,5.1-6.8,9.6-6.8,9.6s-5.6,2.6-10.2-0.5c-4.6-3.1-0.1-13.7,1.3-16c1-1.8,4.3-2.4,6.6-2.4
					C174.5,39.8,178.6,44,178.3,49.1z"/>
			</g>
			<g>
				
					<ellipse transform="matrix(0.999 -4.400004e-02 4.400004e-02 0.999 -2.0021 7.1985)" class="st1" cx="162.5" cy="49.1" rx="0.5" ry="0.6"/>
			</g>
			<g>
				
					<ellipse transform="matrix(0.999 -4.400004e-02 4.400004e-02 0.999 -2.0318 7.4152)" class="st1" cx="167.4" cy="49.9" rx="0.5" ry="0.6"/>
			</g>
			<g>
				<path class="st1" d="M193.5,97.4l-1.6-1.8c-0.1-0.1-0.1-0.2,0-0.4c0.1-0.1,0.2-0.2,0.3-0.1l2.9,0.6l-0.1,0.6l-2-0.4l1,1.1
					L193.5,97.4z"/>
			</g>
			<g>
				<path class="st1" d="M164.5,53C164.5,53,164.5,53,164.5,53c-0.1,0-0.9-0.2-1.2-0.8c-0.2-0.4,0.1-1,0.6-2c0.2-0.4,0.4-0.8,0.5-1
					c0-0.1,0.1-0.2,0.2-0.1c0.1,0,0.2,0.1,0.1,0.2c-0.1,0.3-0.3,0.7-0.5,1.1c-0.3,0.5-0.7,1.4-0.6,1.7c0.1,0.3,0.7,0.5,0.8,0.5
					c0.1,0,0.2,0.1,0.2,0.2C164.7,52.9,164.6,53,164.5,53z"/>
			</g>
			<g>
				
					<rect x="182.6" y="84.5" transform="matrix(0.6783 -0.7348 0.7348 0.6783 -5.3267 162.4561)" class="st1" width="0.6" height="5.6"/>
			</g>
			<g>
				<polygon class="st5" points="168.1,151.1 164.5,132.1 161.3,132.1 161.3,131.4 165.1,131.4 168.7,151 				"/>
			</g>
			<g>
				<path class="st1" d="M161.9,37.6c1.4-1.5,4-2.2,8.9-1.4c3.3,0.6,7.9,4.4,9.2,6.4c-0.4,0.3-5.1-1.1-5.1-1.1
					c-1.4,1.5-3.4,2.4-5.5,2.7c-2,0.3-4.1,0.1-6.1-0.4c-0.5-0.1-3.6-1.2-4.1-1.4C159.6,41.9,160.8,38.8,161.9,37.6z"/>
			</g>
			<g>
				<path class="st1" d="M171.6,45.2c-0.2,1.2,2.8,2.9,3.6,4.1c1.1,1.7-0.2,8.9-0.2,8.9s4.5-4,6.4-9.1c0.9-2.5,0.1-4.7-1.5-6.7
					c-1.2-1.5-3.3-2.3-5.3-1.9C172.3,41,171.8,43.3,171.6,45.2z"/>
			</g>
			<g>
				<circle class="st2" cx="175.5" cy="51.6" r="2.3"/>
			</g>
			<g>
				
					<rect x="130.1" y="97.1" transform="matrix(0.1984 -0.9801 0.9801 0.1984 20.5489 219.9028)" class="st3" width="29.1" height="0.6"/>
			</g>
			<g>
				<path class="st5" d="M153.2,105.7l-0.6-0.1c0.2-1.4-1-5.4-2.4-9.6c-1.6-5.1-3.3-10.4-3-12.9c0.3-2.4,1.4-5.9,3.7-8.7l0.5,0.4
					c-1.8,2.2-3.2,5.4-3.5,8.3c-0.3,2.4,1.4,7.8,2.9,12.6C152.3,100.3,153.5,104.2,153.2,105.7z"/>
			</g>
			<g>
				<path class="st1" d="M166.2,54.9C166.2,54.9,166.1,54.9,166.2,54.9l-3.3-0.6c-0.1,0-0.2-0.1-0.2-0.2c0-0.1,0.1-0.2,0.2-0.2
					l3.3,0.6c0.1,0,0.2,0.1,0.2,0.2C166.3,54.8,166.3,54.9,166.2,54.9z"/>
			</g>
			<g>
				<path class="st1" d="M170.2,49C170.2,49,170.2,49,170.2,49l-2.9-0.8c-0.1,0-0.2-0.1-0.1-0.2c0-0.1,0.1-0.2,0.2-0.1l2.9,0.8
					c0.1,0,0.2,0.1,0.1,0.2C170.4,49,170.3,49,170.2,49z"/>
			</g>
			<g>
				<path class="st1" d="M164.1,47.7C164.1,47.7,164.1,47.7,164.1,47.7l-2.4-0.3c-0.1,0-0.2-0.1-0.2-0.2c0-0.1,0.1-0.2,0.2-0.2
					l2.4,0.3c0.1,0,0.2,0.1,0.2,0.2C164.3,47.6,164.2,47.7,164.1,47.7z"/>
			</g>
			<g>
				<g>
					<path class="st2" d="M181,110.5l-0.5,0.7c-1.2,0.7-2.6,0.7-3.8,0.1l-1.6-0.7l-6,2.6c-0.6,0.3-1.3,0.2-1.8-0.2l-1.6-1.4
						c-0.7-0.6-0.7-1.7,0-2.3c1-1,2.3-2.2,2.2-2.1c-0.1,0.1-1.7,0.5-2.7,0.8c-0.5,0.1-0.9-0.2-1.1-0.6l0,0c-0.1-0.4,0.1-0.9,0.5-1.1
						l5.4-2.2c1.3-0.6,2.7-0.5,4.2-0.1l2.6,0.7L181,110.5z"/>
				</g>
				<g>
					<path class="st1" d="M167.1,112.9c-0.1,0-0.2,0-0.2-0.1c-0.1-0.1,0-0.3,0.1-0.3l5.6-3.5c0.1-0.1,0.3,0,0.3,0.1
						c0.1,0.1,0,0.3-0.1,0.3l-5.6,3.5C167.2,112.9,167.2,112.9,167.1,112.9z"/>
				</g>
				<g>
					<path class="st1" d="M165.9,111.6c-0.1,0-0.2,0-0.2-0.1c-0.1-0.1-0.1-0.3,0.1-0.3l5-3.7c0.1-0.1,0.3-0.1,0.3,0.1
						c0.1,0.1,0.1,0.3-0.1,0.3l-5,3.7C166,111.6,166,111.6,165.9,111.6z"/>
				</g>
			</g>
		</g>
		<g>
			<g>
				<path class="st0" d="M140.5,34.5c0,5.2-4.2,9.4-9.4,9.4h-29.2c-4.3,0-7.8-3.5-7.8-7.8c0-4.3,3.5-7.8,7.8-7.8
					c0.9,0,1.7,0.1,2.5,0.4c1.1-5.9,6.3-10.5,12.6-10.5c2.9,0,5.6,1,7.8,2.7c0.2,0.1,0.3,0.2,0.5,0.4c0.9,0.7,1.6,1.6,2.3,2.5
					c0.1,0.2,0.2,0.4,0.4,0.5c0.2,0.4,0.5,0.8,0.6,1.2c0.8-0.2,1.7-0.4,2.6-0.4C136.3,25.1,140.5,29.3,140.5,34.5z"/>
			</g>
			<g>
				<g>
					<path class="st0" d="M121.6,15.8c-2.2-1.8-4.4-2.4-6.6-1.7c-1.7,0.5-2.8,1.6-2.8,1.6l-2-1.9c2-2.1,7.4-4.9,13.1-0.1L121.6,15.8
						z"/>
				</g>
			</g>
			<g>
				<g>
					<path class="st0" d="M129.3,7.9c-13.6-11.4-24.5-0.6-24.9-0.1l-2-1.9c0.1-0.1,13-13.1,28.6-0.1L129.3,7.9z"/>
				</g>
			</g>
			<g>
				<g>
					<path class="st0" d="M125.8,11.9c-9.7-8.1-17.5-0.4-17.8-0.1l-2-1.9c3.4-3.5,12.2-7.9,21.5-0.1L125.8,11.9z"/>
				</g>
			</g>
			<g>
				<g>
					<polygon class="st0" points="104.5,51.2 101.9,49.1 130.1,15.6 132.6,17.7 					"/>
				</g>
			</g>
			<g>
				<g>
					<path class="st5" d="M125.3,21.2l-18.9,22.6h-0.8l19.2-23C125,21,125.1,21.1,125.3,21.2z"/>
				</g>
			</g>
			<g>
				<g>
					<path class="st5" d="M127.9,24.3l-16.4,19.5h-0.8l16.8-20.1C127.7,23.9,127.8,24.1,127.9,24.3z"/>
				</g>
			</g>
		</g>
	</g>
</g>
</svg>
