<svg width="327" height="229" viewBox="0 0 327 229" fill="none" xmlns="http://www.w3.org/2000/svg">
<g clip-path="url(#clip0_13042_57050)">
<path d="M273 158.5C260.2 158.5 248.6 151.4 242.7 140L243.5 139.6C249.2 150.7 260.5 157.6 273 157.6C285.5 157.6 296.8 150.7 302.5 139.6L303.3 140C297.5 151.4 285.8 158.5 273 158.5Z" fill="#DCEEFD"/>
<path d="M60.7 157.4C47.7 157.4 35.8 150.2 29.8 138.6L30.6 138.2C36.4 149.5 47.9 156.5 60.7 156.5C73.4 156.5 84.9 149.5 90.8 138.2L91.6 138.6C85.6 150.2 73.7 157.4 60.7 157.4Z" fill="#DCEEFD"/>
<path d="M209.6 158.5C196.8 158.5 185.2 151.4 179.3 140L180.1 139.6C185.8 150.7 197.1 157.6 209.6 157.6C222.1 157.6 233.4 150.7 239.1 139.6L239.9 140C234 151.4 222.4 158.5 209.6 158.5Z" fill="#DCEEFD"/>
<path d="M244.6 135.3H237.8V226.3H244.6V135.3Z" fill="#DCEEFD"/>
<path d="M241.2 138.2C244.956 138.2 248 135.156 248 131.4C248 127.645 244.956 124.6 241.2 124.6C237.444 124.6 234.4 127.645 234.4 131.4C234.4 135.156 237.444 138.2 241.2 138.2Z" fill="#DCEEFD"/>
<path d="M244.5 219.7H237.8C234.6 219.7 232 222.3 232 225.5V226.3H250.3V225.5C250.3 222.3 247.7 219.7 244.5 219.7Z" fill="#DCEEFD"/>
<path d="M33.2 132.9H26.3V226.3H33.2V132.9Z" fill="#DCEEFD"/>
<path d="M29.8 135.9C33.666 135.9 36.8 132.766 36.8 128.9C36.8 125.034 33.666 121.9 29.8 121.9C25.934 121.9 22.8 125.034 22.8 128.9C22.8 132.766 25.934 135.9 29.8 135.9Z" fill="#DCEEFD"/>
<path d="M33.2 219.6H26.4C23.2 219.6 20.5 222.2 20.5 225.5V226.4H39.1V225.5C39 222.2 36.4 219.6 33.2 219.6Z" fill="#DCEEFD"/>
<path d="M326.6 225.5C326.6 228.7 295.6 228.8 191.4 228.8C91.2 228.8 0 226.8 0 225.5C0 224.2 90.3 222.7 190.5 222.7C295.7 222.7 326.6 223.1 326.6 225.5Z" fill="#DCEEFD"/>
<path d="M174.3 225.4H77.5C70.4 225.4 67.2 221.8 66.6 215.2L51 9.4001C50.6 3.8001 53.7 0.100098 59.9 0.100098H157.2C162.8 0.100098 167.7 4.7001 168.1 10.3001L183.6 215.3C184.2 220.9 179.9 225.4 174.3 225.4Z" fill="#59ACF5"/>
<path d="M178 225.4H87.1C80.9 225.4 75.7 220.6 75.2 214.4L59.8 9.6C59.4 4.4 63.5 0 68.7 0H161C166.6 0 171.5 4.6 171.9 10.2L172.5 17.9L175.4 114.3L186.3 200.2L187.4 215.3C187.8 220.9 183.6 225.4 178 225.4Z" fill="#82C6F8"/>
<path d="M186.3 200.2H74.1L60.5 17.8999H172.5L186.3 200.2Z" fill="#1540EB"/>
<path d="M172.5 17.8999H147.8L70.5 151.7L74.1 199.1L74.2 200.2H107.7L177.2 79.8999L172.5 17.8999Z" fill="#3B5EEE"/>
<path d="M177.3 82.3999C173.4 86.8999 168.7 92.1999 167.1 94.2999C164.2 97.8999 164.6 102.1 168.4 105.5C170.1 107 175.2 111.2 179.8 114.9L177.3 82.3999Z" fill="#002ADF"/>
<path d="M167.1 94.3001C165.6 96.2001 165 98.3001 165.3 100.3L172.4 88.1001C170.1 90.8001 168 93.1001 167.1 94.3001Z" fill="#1540EB"/>
<path d="M143.4 188.5H118.2C116.1 188.5 114 186.8 113.6 184.6C113.2 182.5 114.6 180.7 116.8 180.7H142C144.1 180.7 146.2 182.4 146.6 184.6C146.9 186.8 145.5 188.5 143.4 188.5Z" fill="white"/>
<path fill-rule="evenodd" clip-rule="evenodd" d="M125.7 213.4C126 217.4 129.5 220.6 133.5 220.6C135.4 220.6 137.2 219.8 138.5 218.5C139.8 217.1 140.4 215.2 140.3 213.3C140 209.3 136.5 206.1 132.5 206.1C130.5 206.1 128.8 206.8 127.5 208.2C126.2 209.6 125.6 211.5 125.7 213.4ZM128 208.6C129.2 207.4 130.8 206.7 132.5 206.7C136.1 206.7 139.3 209.7 139.6 213.3C139.7 215 139.2 216.7 138 217.9C136.8 219.1 135.2 219.8 133.5 219.8C129.8 219.8 126.7 216.8 126.4 213.2C126.3 211.5 126.9 209.8 128 208.6Z" fill="#59ACF5"/>
<path d="M154.1 160.7H100.5C99.6 160.7 98.8 160 98.7 159C98.6 158.1 99.3 157.3 100.2 157.3H153.8C154.7 157.3 155.5 158 155.6 159C155.7 159.9 155 160.7 154.1 160.7Z" fill="#5A7BFF"/>
<path d="M156 168.6H101.4C100.5 168.6 99.7 167.9 99.6 166.9C99.5 166 100.2 165.2 101.1 165.2H155.7C156.6 165.2 157.4 165.9 157.5 166.9C157.6 167.8 157 168.6 156 168.6Z" fill="#5A7BFF"/>
<path d="M139.7 149.3H113.1C111.8 149.3 110.6 148.2 110.5 146.9C110.4 145.6 111.4 144.5 112.7 144.5H139.3C140.6 144.5 141.8 145.6 141.9 146.9C142 148.2 141 149.3 139.7 149.3Z" fill="#5A7BFF"/>
<path fill-rule="evenodd" clip-rule="evenodd" d="M54.3 43.9001H55.3C56.2 43.9001 57 43.5001 57.6 42.9001C58.2 42.2001 58.5 41.4001 58.4 40.5001L57.8 32.9001C57.7 31.1001 56.1 29.6001 54.3 29.6001H53.3C52.4 29.6001 51.6 30.0001 51 30.6001C50.4 31.3001 50.1 32.1001 50.2 33.0001L50.8 40.6001C50.9 42.4001 52.5 43.9001 54.3 43.9001ZM51.5 31.1001C52 30.6001 52.6 30.3001 53.3 30.3001H54.3C55.8 30.3001 57.1 31.5001 57.2 33.0001L57.8 40.6001C57.9 41.3001 57.7 42.0001 57.2 42.5001C56.7 43.0001 56.1 43.3001 55.4 43.3001H54.4C52.9 43.3001 51.6 42.1001 51.5 40.6001L50.9 33.0001C50.8 32.3001 51 31.6001 51.5 31.1001Z" fill="#002031"/>
<path fill-rule="evenodd" clip-rule="evenodd" d="M55.5 60.3H56.5C57.4 60.3 58.2 60 58.8 59.3C59.4 58.6 59.7 57.8 59.6 56.9L59 49.3C58.9 47.5 57.3 46 55.5 46H54.5C53.6 46 52.8 46.4 52.2 47C51.6 47.7 51.3 48.5 51.4 49.4L52 57C52.1 58.8 53.7 60.3 55.5 60.3ZM52.7 47.6C53.2 47.1 53.8 46.8 54.5 46.8H55.5C57 46.8 58.3 48 58.4 49.5L59 57.1C59.1 57.8 58.9 58.5 58.4 59C57.9 59.5 57.3 59.8 56.6 59.8H55.6C54.1 59.8 52.8 58.6 52.7 57.1L52.1 49.5C52 48.8 52.2 48.1 52.7 47.6Z" fill="#002031"/>
<path fill-rule="evenodd" clip-rule="evenodd" d="M106.1 11.8H120.3C121.1 11.8 121.8 11.5 122.4 10.9C122.9 10.3 123.2 9.49995 123.1 8.69995C122.9 7.29995 121.7 6.19995 120.3 6.19995H106.1C105.3 6.19995 104.5 6.49995 104 7.09995C103.5 7.69995 103.2 8.49995 103.3 9.29995C103.5 10.7 104.7 11.8 106.1 11.8ZM104.5 7.59995C104.9 7.19995 105.5 6.89995 106.1 6.89995H120.3C121.4 6.89995 122.3 7.69995 122.4 8.79995C122.5 9.39995 122.3 9.99995 121.9 10.4C121.5 10.8 120.9 11.1 120.3 11.1H106.1C105 11.1 104.1 10.3 104 9.19995C103.9 8.59995 104.1 7.99995 104.5 7.59995Z" fill="#59ACF5"/>
<path d="M124 125L79 81.2001L88.9 68.7001L122.5 101.6L150.1 55.6001L162.9 65.9001L127.3 124.6C126.5 125.7 125 125.9 124 125Z" fill="white"/>
<path d="M218.1 122L217.7 107.7L202.7 110.3L203.1 123.2L218.1 122Z" fill="#104A4A"/>
<path d="M255.1 49L249.5 47L249.6 46.8L248.5 46.9001C248.5 46.9001 248.5 46.9001 248.4 46.9001H248.3C247.5 47.0001 246.8 47.5 246.5 48.3L241.1 64.2C240.7 65.3 241.3 66.5001 242.4 66.9001L248.2 69C249.3 69.4 250.5 68.8 250.9 67.7L256.5 51.8C256.8 50.6 256.2 49.4 255.1 49Z" fill="#002031"/>
<path d="M243.6 66.8L249.4 68.9C250.5 69.3 251.7 68.7 252.1 67.6L257.7 51.7C258.1 50.6 257.5 49.4 256.4 49L250.6 46.9C249.5 46.5 248.3 47.1 247.9 48.2L242.3 64.1C241.9 65.2 242.5 66.4 243.6 66.8Z" fill="#237978"/>
<path d="M249.9 56.8L255.9 60.1C257.6 61.2 258.4 63.3001 257.9 65.3001L255.3 74.3001L247.8 71.3001L249.5 65.9001L246.4 63.2001L249.9 56.8Z" fill="#A87A6A"/>
<path d="M227.8 68.8L241.2 88.2L247.9 70.2L255.6 73.8C255.6 73.8 253 88.4 248.9 97C246.4 102.1 240.2 101.8 237.1 99.7C228.2 93.8 221.4 87.1 221.4 87.1L227.8 68.8Z" fill="#F17277"/>
<path d="M221 71.9H222.3L221.4 70.7L221 71.9Z" fill="#F48D91"/>
<path d="M252.4 61.1H252.3L248.7 58.9C248.6 58.8 248.6 58.7 248.6 58.6C248.7 58.5 248.8 58.5 248.9 58.5L252.5 60.7C252.6 60.8 252.6 60.9 252.6 61C252.5 61 252.5 61.1 252.4 61.1Z" fill="#002031"/>
<path d="M250.9 63.2999L247.5 61.0999C247.4 60.9999 247.4 60.8999 247.4 60.7999C247.5 60.6999 247.6 60.7 247.7 60.7L251 62.9C251.1 63 251.1 63.1 251.1 63.2C251.1 63.3 251 63.2999 250.9 63.2999Z" fill="#002031"/>
<path d="M191.6 111C191.6 111 190.9 118.5 190.8 131.9C190.7 145.3 189.8 214 189.8 214L199.1 215.6L209.3 110.6L191.6 111Z" fill="#104A4A"/>
<path d="M210.5 122.2L244.6 215.1L251 219L254.3 214.2L223.7 110.2L212.6 109.4C212.6 109.4 210.6 110.3 210.5 122.2Z" fill="#104A4A"/>
<path d="M218.8 64.7H190.9C185.6 64.7 179.6 69.4 180.4 74.8L182.4 81.3L186 81.9L190.6 110.9L223.4 110.6C224.7 110.6 225.7 109.6 225.7 108.3C226 102.5 226.6 86.7 226.9 79.1C227 76.2 229.1 73.9 229 73C228.6 66.8 223.8 64.7 218.8 64.7Z" fill="#F17277"/>
<path d="M255.5 211.9L262.8 217.2L267.2 219.3C269.4 220.5 269.4 222.5 269.4 222.5H241.3L242.5 213.4C242.7 212.7 244 212.6 244.2 213.2C244.7 214.4 246.8 215.3 248.5 215.3C251 215.4 251.9 213.6 253.3 212.2C253.9 211.7 254.8 211.5 255.5 211.9Z" fill="#C26E5E"/>
<path d="M240.9 225.6H269.5L269.6 222.5H241.2L240.9 225.6Z" fill="#D7A096"/>
<path d="M262.038 216.358L258.974 217.284L259.177 217.954L262.24 217.029L262.038 216.358Z" fill="#002031"/>
<path d="M259.835 214.748L256.67 215.682L256.868 216.353L260.033 215.419L259.835 214.748Z" fill="#002031"/>
<path d="M188.6 211.9L184.2 217.2L181.6 219.3C179.4 220.5 179.3 222.5 179.3 222.5H200.6L200.1 214.3C200.1 214.3 197.4 214.4 194.9 214.4C194.9 214.4 194.4 213.2 192.9 211.7C192.3 211.2 189.6 210.5 188.6 211.9Z" fill="#C26E5E"/>
<path d="M200.9 225.6H179.2L179.1 222.5H200.7L200.9 225.6Z" fill="#D7A096"/>
<path d="M183.8 217V216.3H187.4V217H183.8Z" fill="#002031"/>
<path d="M185.6 214.6H189.7V215.3H185.6V214.6Z" fill="#002031"/>
<path d="M186.6 113.5L187.9 114.3C189.1 115 190.5 115 191.7 114.4L193.3 113.7L199.3 116.3C199.9 116.6 200.6 116.5 201.1 116.1L202.7 114.7C203.4 114.1 203.4 113 202.7 112.4C201.7 111.4 200.4 110.2 200.5 110.3C200.6 110.4 202.2 110.8 203.2 111.1C203.7 111.2 204.2 110.9 204.3 110.5C204.4 110.1 204.2 109.6 203.8 109.4L198.3 107.2C197 106.6 195.6 106.7 194 107.1L191.4 107.8L186.6 113.5Z" fill="#A87A6A"/>
<path d="M201.4 116L195.6 112.5C195.5 112.4 195.5 112.3 195.5 112.2C195.6 112.1 195.7 112.1 195.8 112.1L201.5 115.6C201.6 115.7 201.6 115.8 201.6 115.9C201.6 116 201.5 116 201.4 116Z" fill="#002031"/>
<path d="M202.6 114.7H202.5L197.4 111C197.3 110.9 197.3 110.8 197.4 110.7C197.5 110.6 197.6 110.6 197.7 110.7L202.8 114.4C202.9 114.5 202.9 114.6 202.8 114.7C202.8 114.6 202.7 114.7 202.6 114.7Z" fill="#002031"/>
<path d="M182.9 68.1001C182.9 68.1001 169.5 83.2001 166.5 87.0001C163.6 90.6001 164 94.8001 167.8 98.2001C171.2 101.2 187.6 114.2 187.6 114.2L193.2 106.3L179 91.8001L195.7 76.2001L182.9 68.1001Z" fill="#F17277"/>
<path d="M177.7 93.6L177.2 93.1L178.1 92.1L176.2 92.5L176.1 91.8L179 91.2C179.1 91.2 179.3 91.2 179.4 91.4C179.5 91.5 179.5 91.7 179.4 91.8L177.7 93.6Z" fill="#D3545A"/>
<path d="M185.4 86.4L185 85.9L188.5 82.5L189 82.9L185.4 86.4Z" fill="#D3545A"/>
<path d="M203.9 73.6L198.8 65.6L199.3 65.3L203.9 72.5L207.1 68.4L207.7 68.8L203.9 73.6Z" fill="#D3545A"/>
<path d="M214.3 71.1001L209.9 68.3001L210.3 67.8001L213.4 69.8001L212.7 64.6001H213.4L214.3 71.1001Z" fill="#D3545A"/>
<path d="M209.183 69.6057L208.483 69.636L210.133 107.702L210.832 107.671L209.183 69.6057Z" fill="#D3545A"/>
<path d="M222.6 75.3999H214.6V79.2999H222.6V75.3999Z" fill="white"/>
<path d="M206.2 36.4C206.9 35.8 210.1 33.3 211 32.9C212 32.5 213.2 32.3 214 33C214.4 33.4 214.7 34 214.7 34.5C214.9 36 214.3 37.6 213.1 38.5C214 37.7 215.1 36.9 216.3 37.2C217.6 37.5 218.2 39.3 217.7 40.6C217.2 41.9 216 42.8 214.8 43.5L206.2 36.4Z" fill="#383836"/>
<path d="M196.7 51C196.7 51 197 55.4 200.1 55.4L200.3 51.3L196.7 51Z" fill="#383836"/>
<path d="M199.4 47.7L200.5 64.6999L208.7 68.0999L211.5 64.8L208.1 52.2999L199.4 47.7Z" fill="#A87A6A"/>
<path d="M197 45.4001C196.7 50.6001 201.5 55.2001 206.6 56.0001C212.5 57.0001 216.3 53.0001 215.7 46.7001C215.2 41.5001 212 37.0001 206.8 36.7001C201.7 36.3001 197.3 40.2001 197 45.4001Z" fill="#A87A6A"/>
<path d="M210.8 48.9001C210.7 48.9001 210.6 48.8001 210.6 48.7001C210.6 48.6001 210.7 48.5001 210.8 48.4001C211 48.4001 211.5 48.2001 211.7 47.9001C211.8 47.7001 211.4 46.7001 211.1 46.1001C210.9 45.6001 210.7 45.2001 210.6 44.9001C210.6 44.8001 210.6 44.7001 210.8 44.6001C210.9 44.6001 211 44.6001 211.1 44.8001C211.2 45.1001 211.3 45.5001 211.5 45.9001C212 47.0001 212.2 47.7001 212 48.0001C211.7 48.7001 210.9 48.8001 210.8 48.9001Z" fill="#002031"/>
<path d="M199.9 50.1C200.3 51.5 200.8 52.2 199.5 52.6C198.2 53 196.7 52.2 196.3 50.8C195.9 49.4 196.7 48 198.1 47.6C199.4 47.3 199.5 48.7 199.9 50.1Z" fill="#A87A6A"/>
<path d="M205.4 43.9C205.3 43.9 205.3 43.9 205.4 43.9C205.2 43.8 205.1 43.6999 205.2 43.5999C205.5 42.6999 206.6 42.3 207.5 42.2C207.6 42.2 207.7 42.3 207.7 42.4C207.7 42.5 207.6 42.5999 207.5 42.5999C206.7 42.6999 205.8 43.1 205.5 43.7C205.5 43.8 205.5 43.9 205.4 43.9Z" fill="#002031"/>
<path d="M213.7 43.4C212.9 42.9 212.3 42.7 211.7 43C211.6 43.1 211.5 43 211.4 42.9C211.3 42.8 211.4 42.6999 211.5 42.5999C212.2 42.1999 213 42.4 213.8 43C213.9 43.1 213.9 43.1999 213.8 43.2999C213.8 43.3999 213.7 43.4 213.7 43.4Z" fill="#002031"/>
<path d="M215.5 45L215.6 48C215.6 48.8 215 49.5 214.1 49.5H213.8C213.3 49.1 212.7 48.9 212.1 48.9L208.7 49.1C207.8 49.1 206.9 49.6 206.3 50.3L206.2 50.5C205.7 51.1 204.9 51.5 204.1 51.4C203.2 51.3 202.4 50.8 202 50L200 45.8L198.1 48.1L200.4 53.8C201.2 55.8 203.1 57.1 205.2 57.1L212 57.3C213.2 57.3 214.3 56.9 215.3 56.2C216.7 55 217.3 53.2 217 51.5L215.5 45Z" fill="#383836"/>
<path d="M208.8 50.2001L212.1 50.1001C212.3 50.1001 212.4 50.3001 212.3 50.4001C211.8 51.2001 210.4 52.8001 208.6 50.5001C208.4 50.5001 208.6 50.2001 208.8 50.2001Z" fill="white"/>
<path d="M201.4 40.6999C202.3 40.7999 203.2 40.3999 204.1 40.0999C205.5 39.4999 207 38.7999 208.2 37.8999C209.4 36.8999 210.5 35.6999 210.9 34.1999C211.1 33.4999 211.2 32.6999 210.9 31.9999C210.7 31.2999 210.1 30.6999 209.4 30.4999C208.7 30.2999 208 30.5999 207.4 30.9999C206.8 31.3999 206.4 31.9999 206 32.5999C205.6 33.0999 205.2 33.6999 204.9 34.1999C205.4 33.4999 205.6 32.6999 205.6 31.7999C205.6 31.1999 205.5 30.6999 205.1 30.1999C204.7 29.6999 204 29.5999 203.3 29.6999C202.7 29.7999 202.1 30.1999 201.7 30.6999C200.7 31.5999 200.1 32.8999 199.8 34.1999C199.5 35.4999 199.4 36.8999 199.4 38.2999C199.2 37.7999 199.1 37.3999 198.7 36.9999C198.4 36.5999 197.8 36.3999 197.4 36.5999C197.2 36.6999 197 36.7999 196.8 36.9999C195.6 38.1999 195.2 39.9999 195.1 41.6999C195 42.4999 195 43.1999 195.2 43.9999C195.4 44.9999 196.5 48.3999 196.8 48.3999C199 48.2999 202.1 44.5999 201.4 40.6999Z" fill="#383836"/>
<path d="M206.5 46C206.776 46 207 45.7761 207 45.5C207 45.2239 206.776 45 206.5 45C206.224 45 206 45.2239 206 45.5C206 45.7761 206.224 46 206.5 46Z" fill="#002031"/>
<path d="M212.2 45.7C212.476 45.7 212.7 45.4761 212.7 45.2C212.7 44.9238 212.476 44.7 212.2 44.7C211.924 44.7 211.7 44.9238 211.7 45.2C211.7 45.4761 211.924 45.7 212.2 45.7Z" fill="#002031"/>
<path d="M226.525 81.6714L225.906 95.0566L226.605 95.089L227.224 81.7037L226.525 81.6714Z" fill="#D3545A"/>
<path d="M213.8 121.9L207.9 122.6L206.6 134C206.6 134.3 206.8 134.4 206.9 134.4C207 134.4 207.1 134.4 207.1 134.3C207.1 134.2 207.2 134.1 207.1 134L208.4 123.2L213.8 122.6C214 122.6 214.1 122.4 214.1 122.3C214.1 122.2 214 121.9 213.8 121.9Z" fill="#002031"/>
<path d="M307.1 134.4H300.3V226.3H307.1V134.4Z" fill="#DCEEFD"/>
<path d="M303.6 137.3C307.356 137.3 310.4 134.255 310.4 130.5C310.4 126.744 307.356 123.7 303.6 123.7C299.844 123.7 296.8 126.744 296.8 130.5C296.8 134.255 299.844 137.3 303.6 137.3Z" fill="#DCEEFD"/>
<path d="M307 219.7H300.3C297.1 219.7 294.5 222.3 294.5 225.5V226.3H312.8V225.5C312.8 222.3 310.2 219.7 307 219.7Z" fill="#DCEEFD"/>
</g>
<defs>
<clipPath id="clip0_13042_57050">
<rect width="326.6" height="228.8" fill="white"/>
</clipPath>
</defs>
</svg>
