<svg width="375" height="260" viewBox="0 0 375 260" fill="none" xmlns="http://www.w3.org/2000/svg">
<path fill-rule="evenodd" clip-rule="evenodd" d="M169.135 51.6951H288.525V50.7799C283.135 49.9663 275.508 48.5426 271.339 44.1697C270.525 43.3561 269.813 42.4409 269.203 41.5256C269.133 41.432 269.063 41.3384 268.993 41.2449C267.544 39.3065 266.123 37.4064 263.407 36.3392C258.932 34.6104 253.746 36.1358 249.068 38.068C249.576 36.1358 249.983 34.0002 249.474 31.8646C248.864 29.2205 246.424 26.9833 243.474 26.2714C241.034 25.6612 238.186 25.9663 234.83 27.1866C229.847 29.0172 225.474 31.8646 222.627 35.4239C219.373 31.5595 214.797 27.2883 207.983 26.7799C202.797 26.4748 197.102 28.6104 192.83 32.5765C190.898 34.407 189.373 36.3392 187.847 38.2714C186.017 40.6104 184.085 43.0511 181.542 45.085C179.508 46.6104 177.169 47.729 174.729 48.8477C174.329 49.0474 173.919 49.2472 173.501 49.4505C172.643 49.8683 171.754 50.3011 170.864 50.7799L169.135 51.6951ZM282.932 50.6782H173.102L173.102 50.6781C173.814 50.3731 174.525 50.068 175.135 49.8646C177.576 48.746 180.017 47.5256 182.152 45.8985C184.797 43.7629 186.729 41.3223 188.661 38.8816L188.661 38.8816C190.186 36.9494 191.712 35.0172 193.542 33.2883C197.61 29.5256 203 27.39 207.881 27.7968C214.491 28.3053 219.068 32.7799 222.22 36.5426L222.627 37.0511L223.034 36.5426C225.78 32.9833 230.152 29.9324 235.237 28.1019C238.39 26.9833 241.034 26.6782 243.271 27.1866C245.915 27.7968 247.949 29.729 248.559 32.068C249.068 34.3053 248.559 36.5426 247.949 38.7799L247.746 39.6951L248.661 39.2883C253.339 37.2544 258.729 35.4239 263.203 37.1527C265.746 38.1697 267.068 40.0002 268.491 42.0341C269.203 42.9494 269.915 43.8646 270.729 44.7799C273.78 47.9324 278.458 49.6612 282.932 50.6782Z" fill="#DCEEFD"/>
<path fill-rule="evenodd" clip-rule="evenodd" d="M265.847 26.6779H322.186L320.254 25.5593C318.455 24.6599 316.339 24.3173 314.185 23.9688C313.903 23.9232 313.621 23.8775 313.339 23.8305C313.136 23.7796 312.907 23.7542 312.678 23.7288C312.449 23.7033 312.22 23.6779 312.017 23.6271C307.949 23.0169 305.407 21.7966 304.491 20.1694C304.288 19.8644 304.186 19.661 304.085 19.3559C303.881 18.8474 303.678 18.3389 303.169 17.8305C301.949 16.6101 299.61 16.4067 297.881 16.8135C296.661 17.1186 295.542 17.7288 294.424 18.644C294.322 17.322 293.61 15.5932 292.491 14.0678C291.576 12.7457 289.746 10.6101 287.102 10.4067C276.755 10.5072 272.858 17.2559 270.216 21.8314C270.183 21.8879 270.151 21.9441 270.119 22C270.008 22.1882 269.9 22.3739 269.793 22.5563C268.923 24.0488 268.188 25.3095 267.373 25.7627L265.847 26.6779ZM317.203 25.6611H268.898C269.263 25.2358 269.627 24.6653 270.057 23.9929C270.346 23.5399 270.665 23.0407 271.034 22.5086L271.037 22.5023C273.681 17.8249 277.242 11.5255 287.102 11.4238C289.237 11.6272 290.864 13.5594 291.678 14.6781C293.102 16.6103 293.712 18.7459 293.508 19.6611L293.102 21.2882L294.322 20.1696C295.542 18.8476 296.864 18.1357 298.186 17.8306C299.814 17.4238 301.746 17.8306 302.559 18.6442C302.805 18.8894 302.984 19.2661 303.151 19.6157C303.191 19.701 303.231 19.7847 303.271 19.8645L303.271 19.8645C303.373 20.1696 303.475 20.4747 303.678 20.7798C304.797 22.712 307.441 24.034 311.915 24.7459C312.119 24.7967 312.347 24.8221 312.576 24.8476C312.805 24.873 313.034 24.8984 313.237 24.9493L313.237 24.9493C314.559 25.1526 315.881 25.356 317.203 25.6611Z" fill="#DCEEFD"/>
<path d="M292.491 245.729C292.491 249.187 265.847 249.492 190.797 249.492C118.695 249.492 53.6101 247.458 53.6101 245.729C53.6101 244 118.695 241.966 190.797 241.966C266.559 241.966 292.491 242.576 292.491 245.729Z" fill="#DCEEFD"/>
<path d="M206.051 246.644H106.898C99.5761 246.644 96.3219 242.881 95.7117 236.271L79.7456 25.1526C79.3388 19.356 82.4914 15.5933 88.8982 15.5933H188.661C194.457 15.5933 199.441 20.2712 199.847 25.9661L215.712 236.17C216.22 241.966 211.847 246.644 206.051 246.644Z" fill="#82C6F8"/>
<path d="M209.813 246.644H116.762C110.356 246.644 105.068 241.763 104.559 235.356L88.6947 25.356C88.2879 20.0678 92.4574 15.5933 97.7455 15.5933H192.423C198.22 15.5933 203.203 20.2712 203.61 25.9661L204.22 33.7967L207.271 132.542L218.457 220.61L219.576 236.068C219.881 241.966 215.61 246.644 209.813 246.644Z" fill="#59ACF5"/>
<path d="M218.356 220.712H103.441L89.3049 33.8984H204.118L218.356 220.712Z" fill="#DCEEFD"/>
<path fill-rule="evenodd" clip-rule="evenodd" d="M153.068 234.237C153.373 238.305 156.932 241.661 161 241.661C163.034 241.661 164.864 240.848 166.084 239.424C167.407 238 168.017 236.17 167.915 234.136C167.61 230.068 164.051 226.712 159.983 226.712C158.051 226.712 156.22 227.525 154.898 228.949C153.576 230.373 152.966 232.203 153.068 234.237ZM155.407 229.356C156.525 228.136 158.152 227.424 159.983 227.424C163.746 227.424 167 230.475 167.203 234.136C167.305 235.966 166.796 237.695 165.576 238.915C164.457 240.136 162.83 240.848 161 240.848C157.339 240.848 154.084 237.898 153.779 234.136C153.678 232.305 154.186 230.576 155.407 229.356Z" fill="white"/>
<path d="M198.424 159.797H114.83C112.186 159.797 109.949 157.661 109.746 155.017L103.847 74.0677C103.542 70.305 106.593 67.0508 110.356 67.0508H190.288C193.746 67.0508 196.593 69.6948 196.898 73.1525L202.898 155.119C203 157.661 201.068 159.797 198.424 159.797Z" fill="white"/>
<path d="M200.254 119.932C199.237 125.322 195.78 130.61 197.305 136C198.22 139.051 200.559 141.491 202.085 144.339L200.254 119.932Z" fill="#F0ECEC"/>
<path fill-rule="evenodd" clip-rule="evenodd" d="M166.796 125.526H184.491L185.813 143.221H168.118L166.796 125.526ZM180.322 138.238L179.813 130.611H172.186L172.695 138.238H180.322Z" fill="#002031"/>
<path fill-rule="evenodd" clip-rule="evenodd" d="M123.779 125.526H141.474L142.796 143.221H125.101L123.779 125.526ZM137.203 138.238L136.695 130.611H129.067L129.576 138.238H137.203Z" fill="#002031"/>
<path fill-rule="evenodd" clip-rule="evenodd" d="M163.644 82.4072H181.339L182.661 100.102H164.966L163.644 82.4072ZM177.169 95.1193L176.661 87.4922H169.034L169.542 95.1193H177.169Z" fill="#002031"/>
<path d="M158.559 82.4072H138.322L139.542 100.204H144.627L143.712 87.492H158.966L158.559 82.4072Z" fill="#002031"/>
<path d="M133.237 82.4072H120.525L120.932 87.492H128.559L129.068 95.1191H121.44L121.847 100.204H134.559L133.237 82.4072Z" fill="#002031"/>
<path d="M183.068 105.289H165.271L165.678 110.272H178.39L179.102 120.441H184.186L183.068 105.289Z" fill="#002031"/>
<path d="M159.474 95.1187H149.305L149.712 100.203H154.796L155.203 105.288H145.034L145.745 115.356H140.661L139.949 105.288H122.254L122.559 110.271H135.271L135.983 120.441H151.237L150.423 110.271H160.593L159.474 95.1187Z" fill="#002031"/>
<path d="M123.373 120.441L122.966 115.356H130.593L130.898 120.441H123.373Z" fill="#002031"/>
<path d="M147.067 133.661L146.457 125.526H151.542L152.152 133.661H147.067Z" fill="#002031"/>
<path d="M151.644 133.661L151.339 129.289H157.745L158.05 133.661H151.644Z" fill="#002031"/>
<path d="M166.39 120.441H174.017L173.61 115.356H166.084L166.39 120.441Z" fill="#002031"/>
<path d="M161.101 115.356H155.915L157.542 138.238H147.474L147.779 143.221H163.034L161.305 120.441L161.101 115.356Z" fill="#002031"/>
<path d="M187.237 180.136H129.373C127.745 180.136 126.322 178.814 126.22 177.186V177.186C126.118 175.559 127.339 174.237 128.966 174.237H186.83C188.457 174.237 189.881 175.559 189.983 177.186V177.186C190.084 178.814 188.864 180.136 187.237 180.136Z" fill="#76C0F7"/>
<path d="M163.034 191.729H130.288C128.661 191.729 127.237 190.407 127.135 188.78V188.78C127.034 187.153 128.254 185.831 129.881 185.831H162.627C164.254 185.831 165.678 187.153 165.779 188.78V188.78C165.881 190.407 164.661 191.729 163.034 191.729Z" fill="#76C0F7"/>
<path d="M188.051 191.729H175.034C173.407 191.729 171.983 190.407 171.881 188.78V188.78C171.779 187.153 173 185.831 174.627 185.831H187.644C189.271 185.831 190.695 187.153 190.796 188.78V188.78C191 190.407 189.678 191.729 188.051 191.729Z" fill="#76C0F7"/>
<path fill-rule="evenodd" clip-rule="evenodd" d="M83.1015 60.5424H84.1184C85.0337 60.5424 85.8473 60.1356 86.4574 59.5254C87.0676 58.9153 87.3727 58 87.271 57.0847L86.6608 49.3559C86.5591 47.5254 84.8303 46 82.9998 46H81.9828C81.0676 46 80.254 46.4068 79.6439 47.0169C79.0337 47.6271 78.7286 48.5424 78.8303 49.4576L79.4405 57.1864C79.5422 59.0169 81.271 60.5424 83.1015 60.5424ZM80.2541 47.4239C80.7625 46.9154 81.3727 46.6104 82.0846 46.6104H83.1015C84.5252 46.6104 85.8473 47.8307 86.0507 49.3561L86.6608 57.0849C86.7625 57.7968 86.5591 58.5087 86.0507 59.0171C85.5422 59.5256 84.932 59.8307 84.2202 59.8307H83.2032C81.6778 59.8307 80.3558 58.6104 80.2541 57.0849L79.6439 49.3561C79.5422 48.6442 79.7456 47.9324 80.2541 47.4239Z" fill="#002031"/>
<path fill-rule="evenodd" clip-rule="evenodd" d="M84.3217 77.4237H85.3387C86.2539 77.4237 87.0675 77.0169 87.6776 76.4068C88.2878 75.7966 88.5929 74.8813 88.4912 73.9661L87.881 66.2373C87.7793 64.4068 86.0505 62.8813 84.22 62.8813H83.2031C82.2878 62.8813 81.4742 63.2881 80.8641 63.8983C80.2539 64.5085 79.9488 65.4237 80.0505 66.339L80.6607 74.0678C80.7624 75.8983 82.4912 77.4237 84.3217 77.4237ZM81.4743 64.3053C81.9828 63.7968 82.5929 63.4917 83.3048 63.4917H84.3217C85.8472 63.4917 87.1692 64.712 87.2709 66.2375L87.8811 73.9663C87.9828 74.6781 87.7794 75.39 87.2709 75.8985C86.7624 76.407 86.1522 76.712 85.4404 76.712H84.4234C82.898 76.712 81.576 75.4917 81.4743 73.9663L80.8641 66.2375C80.7624 65.5256 80.9658 64.8137 81.4743 64.3053Z" fill="#002031"/>
<path fill-rule="evenodd" clip-rule="evenodd" d="M136.186 27.5934H150.729C151.542 27.5934 152.356 27.2883 152.763 26.6781C153.271 26.0679 153.576 25.2544 153.474 24.4408C153.373 23.0171 152.152 21.8984 150.627 21.8984H136.186C135.373 21.8984 134.559 22.2035 134.051 22.8137C133.542 23.4239 133.237 24.2374 133.339 25.051C133.441 26.4747 134.661 27.5934 136.186 27.5934ZM134.457 23.3222C134.864 22.9154 135.474 22.6103 136.085 22.6103H150.627C151.746 22.6103 152.661 23.4239 152.763 24.5425C152.864 25.1527 152.661 25.7628 152.254 26.1696C151.847 26.5764 151.237 26.8815 150.627 26.8815H136.085C134.966 26.8815 134.051 26.0679 133.949 24.9493C133.847 24.3391 134.051 23.7289 134.457 23.3222Z" fill="white"/>
<path d="M262.593 89.0167L257.712 87.2879L257.813 87.0845L256.898 87.1862C256.898 87.1862 256.898 87.1862 256.796 87.1862H256.695V87.1862C255.983 87.2879 255.373 87.6946 255.169 88.4065L250.39 102.339C250.085 103.356 250.593 104.373 251.61 104.779L256.695 106.61C257.712 106.915 258.729 106.407 259.034 105.491L263.813 91.559C264.119 90.4404 263.61 89.3218 262.593 89.0167Z" fill="#002031"/>
<path d="M252.627 104.576L257.712 106.407C258.729 106.712 259.746 106.203 260.051 105.288L264.83 91.356C265.135 90.339 264.627 89.3221 263.61 88.9153L258.525 87.0848C257.508 86.7797 256.491 87.2882 256.186 88.2034L251.407 102.136C251.203 103.153 251.712 104.271 252.627 104.576Z" fill="#1540EB"/>
<path d="M258.017 95.8306L263.305 98.678C264.83 99.695 265.542 101.525 265.136 103.254L262.898 111.085L256.288 108.542L257.712 103.763L254.966 101.424L258.017 95.8306Z" fill="#C26E5E"/>
<path d="M238.797 106.305L250.695 123.288L256.39 107.424L263.203 110.576C263.203 110.576 260.559 123.593 256.898 131.119C254.763 135.593 250.898 135.695 248.152 133.966C240.322 128.881 234.932 119.831 234.932 119.831L238.797 106.305Z" fill="#237978"/>
<path fill-rule="evenodd" clip-rule="evenodd" d="M256.39 107.525V107.627V108.034C256.39 110.373 258.322 112.305 260.661 112.305C261.576 112.305 262.39 112 263 111.593C263.102 110.983 263.203 110.678 263.203 110.678L256.39 107.525ZM253.542 115.661L250.797 123.39L248.864 120.644C249.169 122.678 251 124.204 253.034 124.204C255.373 124.204 257.305 122.271 257.305 119.932C257.305 117.695 255.576 115.865 253.542 115.661ZM256.288 132.237V131.831C256.288 130.305 257.102 129.085 258.119 128.373C257.712 129.39 257.305 130.305 256.898 131.22L256.898 131.221C256.695 131.627 256.491 131.932 256.288 132.237ZM245.407 127.559C244.085 127.559 242.966 128.169 242.152 128.983C243.881 130.813 245.915 132.542 248.152 133.966C248.254 134.017 248.356 134.093 248.458 134.169C248.559 134.246 248.661 134.322 248.763 134.373C249.271 133.661 249.576 132.746 249.576 131.83C249.678 129.491 247.746 127.559 245.407 127.559ZM236.051 115.966C236.559 115.661 237.169 115.559 237.78 115.559C240.119 115.559 242.051 117.491 242.152 119.83C242.152 122.169 240.322 124 237.983 124.101C236.051 121.661 234.932 119.83 234.932 119.83L236.051 115.966Z" fill="#0E6866"/>
<path d="M260.356 99.5929H260.254L257.102 97.6607C257 97.559 257 97.4573 257 97.3556C257.102 97.2539 257.203 97.2539 257.305 97.2539L260.458 99.1861C260.559 99.2878 260.559 99.3895 260.559 99.4912C260.458 99.5929 260.356 99.5929 260.356 99.5929Z" fill="#002031"/>
<path d="M259.034 101.627H258.932L255.983 99.6949C255.881 99.5932 255.881 99.4915 255.881 99.3898C255.983 99.2881 256.085 99.2881 256.186 99.2881L259.136 101.22C259.237 101.322 259.237 101.424 259.237 101.525C259.136 101.525 259.136 101.627 259.034 101.627Z" fill="#002031"/>
<path d="M215.203 182.576L206.254 186.746L207.881 194.576L220.797 191.525L215.203 182.576Z" fill="#C26E5E"/>
<path d="M257.509 228.034L260.763 237.39L249.678 239.729L246.831 231.898L257.509 228.034Z" fill="#C26E5E"/>
<path d="M226.288 99.0844C225.78 96.3387 224.661 93.6946 223.441 91.1522C222.83 89.9319 222.22 88.6099 222.424 87.2878C222.525 86.6776 222.729 86.0675 223.034 85.4573C223.847 83.22 224.051 80.7793 224.254 78.3387C224.356 76.4065 224.559 74.3726 223.949 72.5421C223.847 72.1353 223.644 71.8302 223.339 71.6268C223.136 71.5251 223.644 71.1183 224.051 70.8132V70.8132C224.051 70.7115 224.051 70.7115 224.051 70.6099V70.5082C224.051 70.5082 224.051 70.5082 224.051 70.6099V70.6099C224.051 70.5082 224.051 70.5082 224.051 70.4065C224.051 70.4065 224.051 70.4065 224.051 70.3048V70.3048C217.542 68.1692 211.644 70.7115 211.746 78.237C211.746 80.9827 209.712 81.7963 209.203 84.5421C208.39 89.0166 211.542 90.237 210.83 93.7963C210.424 95.7285 206.458 96.9488 206.254 101.627C206.051 106.508 209.407 108.644 210.729 109.864L212.661 107.525C213.475 108.44 214.695 108.949 215.915 109.051C217.136 109.152 218.356 108.949 219.475 108.644C222.424 107.83 225.475 106.101 226.39 103.152C226.492 101.83 226.492 100.508 226.288 99.0844Z" fill="#002031"/>
<path d="M221.203 91.4572C222.83 96.6437 223.746 102.135 225.576 107.22C226.085 108.644 226.593 109.966 227.61 111.084C227.813 111.288 228.017 111.389 228.22 111.593C231.169 111.288 234.22 110.474 236.559 108.644C238.186 107.423 242.254 103.762 240.424 99.7962C239.61 98.0674 237.474 97.4572 237.474 96.0335C237.474 95.1183 237.983 94.3047 237.881 93.3894C237.881 92.3725 237.169 91.4572 236.356 90.8471C235.542 90.1352 234.729 89.6267 234.017 88.9149C233.102 87.7962 232.593 86.3725 232.695 84.9488C232.796 83.7284 233.407 82.5081 233.305 81.2878C233.102 79.9657 231.983 78.8471 230.864 78.1352C229.542 77.3217 228.119 76.8132 226.898 75.8979C225.78 74.9827 225.678 74.1691 225.068 73.0505C223.847 70.8132 220.593 72.6437 219.78 74.3725C219.169 75.5928 219.271 77.1183 219.271 78.542C219.271 80.6776 219.068 82.7115 219.271 84.8471C219.576 86.9827 220.491 89.22 221.203 91.4572Z" fill="#002031"/>
<path d="M259.136 174.034L237.474 135.491C237.474 135.491 225.983 134.169 225.678 134.169C225.373 134.169 233.203 171.085 233.203 171.085L231.474 172.102C232.593 173.322 233.712 174.542 234.729 175.763C237.373 178.814 239.712 182.068 241.949 185.525C242.458 186.339 243.068 187.152 243.576 188.068L254.051 185.729C258.729 184 261.068 178.61 259.136 174.034Z" fill="#F17277"/>
<path d="M214.695 182.373L224.763 176.678C225.373 177.796 225.881 178.813 226.492 179.932C228.424 183.288 230.661 186.542 232.695 189.898L218.763 192.949C216.017 193.559 213.271 192.135 212.254 189.593V189.593C211.136 186.949 212.153 183.796 214.695 182.373Z" fill="#F09899"/>
<path d="M217.034 180.237L228.525 173.729C229.136 174.949 229.847 176.169 230.559 177.39C232.797 181.254 235.237 185.017 237.576 188.779L221.712 192.237C218.661 192.949 215.508 191.322 214.288 188.373V188.373C212.966 185.423 214.186 181.864 217.034 180.237Z" fill="#F17277"/>
<path d="M222.729 176.983L225.475 191.525L229.542 190.61L222.729 176.983V176.983Z" fill="#002031"/>
<path d="M256.593 224.881L257.915 228.847L246.627 232.102L244.898 227.424L256.593 224.881Z" fill="#F09899"/>
<rect x="252.805" y="227.096" width="0.711892" height="3.05097" transform="rotate(-17.6432 252.805 227.096)" fill="white"/>
<rect x="249.052" y="228.191" width="0.711863" height="3.05084" transform="rotate(-16.4633 249.052 228.191)" fill="white"/>
<path d="M216.729 134.373C216.729 138.644 210.22 141.898 211.237 152.881C211.644 157.152 223.136 179.728 226.288 185.322C229.034 190.203 238.797 217.559 241.949 225.288C242.966 227.83 245.712 229.152 248.356 228.339L254.356 226.61C257.203 225.796 258.83 222.847 258.017 220.101L234.22 134.373H216.729Z" fill="#F17277"/>
<path d="M232.695 100.915H213.576C208.695 100.915 205.237 105.186 206.051 110.169L207.983 116.068L211.237 116.576C211.237 116.576 215.203 123.898 216.322 135.695L237.271 135.288C236.763 132.44 242.661 117.186 242.051 113.017C241.542 108.339 236.051 102.746 232.695 100.915Z" fill="#237978"/>
<path fill-rule="evenodd" clip-rule="evenodd" d="M234.424 108.034C234.424 110.373 232.492 112.305 230.153 112.305C227.814 112.305 225.881 110.373 225.881 108.034C225.881 105.695 227.814 103.763 230.153 103.763C232.492 103.763 234.424 105.695 234.424 108.034ZM237.78 115.559C235.441 115.559 233.508 117.491 233.508 119.83C233.508 122.169 235.441 124.101 237.78 124.101C238.695 124.101 239.508 123.796 240.22 123.288C240.729 121.457 241.237 119.627 241.644 118C240.932 116.576 239.508 115.559 237.78 115.559ZM208.085 116.169L209.814 116.474C209.203 116.068 208.593 115.762 207.881 115.661L208.085 116.169ZM225.881 131.83C225.881 129.491 227.814 127.559 230.153 127.559C232.492 127.559 234.424 129.491 234.424 131.83C234.424 133.356 233.61 134.779 232.288 135.491L228.22 135.593C226.797 134.881 225.881 133.457 225.881 131.83ZM215.102 127.559C215.61 130 216.119 132.746 216.424 135.796C218.051 135.186 219.169 133.661 219.169 131.83C219.169 129.491 217.441 127.661 215.102 127.559ZM222.525 115.559C220.186 115.559 218.254 117.491 218.254 119.83C218.254 122.169 220.186 124.101 222.525 124.101C224.864 124.101 226.797 122.169 226.797 119.83C226.797 117.491 224.864 115.559 222.525 115.559ZM214.898 103.763C217.237 103.763 219.169 105.695 219.169 108.034C219.169 110.373 217.237 112.305 214.898 112.305C212.559 112.305 210.627 110.373 210.627 108.034C210.627 105.695 212.559 103.763 214.898 103.763Z" fill="#0E6866"/>
<path d="M226.491 106.61C222.729 106.915 215.814 104.067 213.169 101.017C213.576 101.017 215.407 101.017 215.712 101.017H232.797C232.797 100.915 231.576 106.203 226.491 106.61Z" fill="#C26E5E"/>
<path d="M232.797 100.915L229.136 99.6947C228.322 99.593 227.61 98.9829 227.305 98.271L226.797 97.1523L225.169 97.5591L225.576 101.83H231.373L232.797 100.915Z" fill="#C26E5E"/>
<path d="M261.475 234.542L269.203 239.83L275.305 241.966C277.542 243.186 277.644 245.22 277.644 245.22H244.593L245.814 236.068C246.017 235.457 248.051 235.254 248.254 235.864C248.763 237.084 250.288 238.508 252.119 238.61C254.763 238.712 257.712 236.373 259.136 234.949C259.746 234.339 260.661 234.237 261.475 234.542Z" fill="#FFCC00"/>
<path d="M244.695 245.22L245.407 239.627C245.407 239.627 251.305 239.83 250.797 245.22H244.695Z" fill="#FE6F43"/>
<path d="M244.288 248.373H277.847V245.22H244.593L244.288 248.373Z" fill="white"/>
<rect x="265.198" y="239.995" width="3.35582" height="0.71184" transform="rotate(-16.1713 265.198 239.995)" fill="#002031"/>
<path d="M263 239.118L262.797 238.406L266.153 237.491L266.356 238.203L263 239.118Z" fill="#002031"/>
<path d="M203.915 213.186V213.186C201.474 213.186 199.542 211.254 199.542 208.813V195.695H208.288V208.813C208.288 211.254 206.254 213.186 203.915 213.186Z" fill="#C8E7FC"/>
<path d="M211.441 192.746C210.017 191.525 207.068 192.542 206.763 189.085C206.661 187.457 207.881 185.932 208.898 185.424C209.407 185.118 209.203 183.39 208.593 183.186L203.813 182.983C201.78 182.881 200.051 184.407 199.949 186.44C199.746 189.593 199.441 194.169 199.644 196.712C200.254 204.034 202.695 210.542 204.932 210.644H207.373L206.966 209.83C207.271 209.424 207.576 208.915 207.576 208.101L208.186 203.424L211.542 195.593C211.746 194.881 211.949 193.254 211.441 192.746Z" fill="white"/>
<path d="M213.169 195.593L209.813 203.424L209.203 208.101C209.102 210.034 207.78 210.644 206.458 210.644C204.322 210.644 201.78 204.135 201.169 196.712C200.966 194.068 201.271 189.593 201.474 186.44C201.576 184.407 203.305 182.881 205.339 182.983L210.119 183.186C210.729 183.288 211.034 184.813 210.424 185.118C209.305 185.627 208.186 187.457 208.288 189.085C208.593 192.542 211.542 191.627 212.966 192.746C213.678 193.254 213.474 194.881 213.169 195.593Z" fill="#FFCC00"/>
<path d="M201.474 189.085C205.339 188.474 206.763 185.22 206.763 183.085L205.542 182.983C203.508 182.881 201.779 184.407 201.678 186.44C201.576 187.254 201.474 188.169 201.474 189.085Z" fill="#FE6F43"/>
<path d="M211.034 199.356C211.034 199.254 210.932 198.237 209.305 198.237V197.525C211.746 197.525 211.746 199.356 211.746 199.356H211.034H211.441H211.034Z" fill="#002031"/>
<path d="M209.915 201.593C209.915 201.492 209.813 200.475 208.186 200.475V199.763C210.627 199.763 210.627 201.593 210.627 201.593H209.915H210.322H209.915Z" fill="#002031"/>
<path d="M216.627 85.9658L218.966 101.118L228.83 101.423L223.542 89.3218L216.627 85.9658Z" fill="#C26E5E"/>
<path d="M226.085 95.2204L224.864 92.4747L220.898 92.0679L226.085 95.2204Z" fill="#A95643"/>
<path d="M214.797 84.1356C214.898 88.6102 219.271 92.3729 223.746 92.7797C228.932 93.2881 231.983 89.6271 231.068 84.1356C230.356 79.661 227.305 76 222.729 76C218.153 76 214.695 79.661 214.797 84.1356Z" fill="#C26E5E"/>
<path d="M230.966 72.2373C230.661 72.4407 230.458 72.6441 230.458 72.6441C230.458 72.6441 230.152 70.7119 229.237 70.3051C228.932 70.2034 228.525 70.1017 228.119 70.1017C227.407 70.2034 226.695 70.4068 225.983 70.8135C225.474 71.1186 224.661 70.3051 223.746 70.1017C222.017 69.6949 221.305 71.2203 220.085 71.5254C219.474 71.7288 218.966 71.8305 218.457 72.1356C218.152 72.339 217.847 72.5424 217.542 72.7458C217.441 72.8474 217.339 72.9491 217.237 73.1525C217.135 73.4576 217.237 73.7627 217.441 74.0678C217.847 74.8813 218.458 75.5932 219.169 76.2034L218.763 75.3898C219.678 76.9152 221.203 78.0339 222.932 78.6441C224.559 79.2542 226.39 79.3559 228.119 79.3559C228.83 79.3559 229.542 79.2542 230.152 79.0508C230.763 78.8474 231.373 78.4407 231.881 77.9322C232.288 77.4237 232.39 76.8135 232.593 76.2034C232.593 76.1017 232.695 74.2712 232.593 72.8474C232.491 72.1356 231.576 71.8305 230.966 72.2373Z" fill="#002031"/>
<path d="M221.305 80.1692C221.407 81.2878 221.203 82.5082 220.492 83.4234C219.678 84.4404 218.661 85.9658 217.949 86.9827C216.932 88.5082 217.542 91.559 218.051 95.1183C218.153 96.237 216.729 93.2878 215.915 93.9997C215.814 94.1014 215.712 94.2031 215.509 94.2031C215.203 94.3048 215 93.898 214.797 93.6946C213.17 90.8472 212.153 87.5929 211.949 84.3387C211.848 81.898 212.153 79.2539 213.78 77.4234C214.898 76.1014 216.932 75.2878 218.763 75.6946C220.695 76.2031 221.102 78.3387 221.305 80.1692Z" fill="#002031"/>
<path d="M216.525 139.966L221.508 143.423C221.508 143.423 220.085 145.457 219.983 145.559C219.881 145.661 217.949 147.491 217.949 147.491L215.102 149.22L214.491 149.525L212.661 147.084L212.152 145.254L210.729 143.525L216.525 139.966Z" fill="#C26E5E"/>
<path d="M217.136 140.373C217.136 140.373 215.915 145.152 213.271 147.898L212.661 147.084L212.153 145.254L211.949 144.949L217.136 140.373Z" fill="#A95643"/>
<path d="M207.373 104.271C207.373 104.271 197.814 119.017 195.78 122.271C193.746 125.627 193.949 129.186 196.898 132.237C199.847 135.288 211.237 145.457 211.237 145.457L217.542 139.864L204.627 127.356L218.051 111.695L207.373 104.271Z" fill="#237978"/>
<path fill-rule="evenodd" clip-rule="evenodd" d="M210.83 106.712L215.203 109.763L217.542 111.39C216.83 112 215.915 112.305 214.898 112.305C212.559 112.305 210.627 110.373 210.627 108.034C210.627 107.525 210.729 107.119 210.83 106.712ZM207.474 124.102L211.542 119.322C211.237 117.187 209.508 115.56 207.271 115.56C204.932 115.56 203 117.492 203 119.831C203 122.17 204.932 124.102 207.271 124.102H207.474ZM213.169 135.695C212.254 135.288 211.542 134.678 211.135 133.763L212.152 134.78L213.169 135.695ZM205.034 140.068C205.644 139.559 206.458 139.356 207.271 139.356C209.712 139.356 211.644 141.288 211.441 143.729C211.441 144.339 211.339 144.949 211.034 145.559C210.932 145.458 210.703 145.254 210.36 144.949L210.36 144.949C210.017 144.644 209.559 144.237 209 143.729C207.983 142.712 206.559 141.39 205.034 140.068ZM199.746 127.56C197.712 127.56 196.085 128.882 195.576 130.712C195.678 130.814 195.754 130.941 195.83 131.068C195.907 131.195 195.983 131.322 196.085 131.424L196.186 131.526C196.288 131.627 196.39 131.754 196.491 131.882C196.593 132.009 196.695 132.136 196.797 132.238L197.102 132.543L197.203 132.644L197.407 132.848L197.508 132.949L197.813 133.254C197.813 133.254 197.915 133.356 198.017 133.356L198.322 133.661C198.322 133.661 198.424 133.763 198.525 133.763L198.83 134.068L198.932 134.17L199.339 134.577L199.441 134.678C199.542 134.729 199.619 134.805 199.695 134.882C199.771 134.958 199.847 135.034 199.949 135.085C200.051 135.187 200.152 135.263 200.254 135.339L200.254 135.339C200.356 135.416 200.458 135.492 200.559 135.593C202.491 135.187 203.915 133.458 203.915 131.424C204.017 129.492 202.085 127.56 199.746 127.56ZM205.339 107.525V107.831C205.339 109.661 204.119 111.186 202.491 111.797C203.256 110.754 203.925 109.712 204.532 108.767C204.814 108.329 205.081 107.912 205.339 107.525Z" fill="#0E6866"/>
<path d="M203.915 129.085L203.305 128.678L203.712 127.966L202.186 128.271L202.085 127.559L204.424 127.152C204.525 127.152 204.729 127.152 204.83 127.356C204.932 127.457 204.932 127.661 204.83 127.763L203.915 129.085Z" fill="#002031"/>
<path d="M213.678 150.237L213.475 149.525C219.881 147.186 221.814 142.203 221.814 142.102L222.525 142.305C222.322 142.61 220.39 147.695 213.678 150.237Z" fill="#002031"/>
<path d="M249.78 190.305L235.441 147.288L239 146.881L239.102 147.593L236.458 147.898L250.492 190L249.78 190.305Z" fill="white"/>
<path d="M226.288 88.6098C225.169 88.6098 224.254 88.1013 223.847 87.1861C223.746 87.0844 223.847 86.881 223.949 86.881C224.051 86.7793 224.254 86.881 224.254 86.9827C224.763 87.9996 225.78 88.4064 227.305 87.9996C227.407 87.9996 227.61 87.9996 227.61 88.203C227.61 88.3047 227.61 88.5081 227.407 88.5081C227 88.5081 226.593 88.6098 226.288 88.6098Z" fill="#002031"/>
<path fill-rule="evenodd" clip-rule="evenodd" d="M226.797 82.5083C226.797 83.9321 227.915 85.1524 229.339 85.1524C230.763 85.1524 231.881 83.9321 231.881 82.5083C231.881 81.0846 230.763 79.8643 229.339 79.8643C227.915 79.8643 226.797 81.0846 226.797 82.5083ZM227.305 82.5082C227.305 81.3895 228.22 80.3726 229.339 80.3726C230.458 80.3726 231.373 81.3895 231.373 82.5082C231.373 83.6268 230.458 84.6437 229.339 84.6437C228.22 84.6437 227.305 83.7285 227.305 82.5082Z" fill="white"/>
<path fill-rule="evenodd" clip-rule="evenodd" d="M221.102 83.0166C221.102 84.4404 222.22 85.6607 223.644 85.6607C225.068 85.6607 226.186 84.5421 226.186 83.0166C226.186 81.5929 225.068 80.3726 223.644 80.3726C222.22 80.3726 221.102 81.5929 221.102 83.0166ZM221.61 83.0165C221.61 81.7961 222.525 80.8809 223.644 80.8809C224.763 80.8809 225.678 81.8978 225.678 83.0165C225.678 84.2368 224.763 85.152 223.644 85.152C222.525 85.152 221.61 84.2368 221.61 83.0165Z" fill="white"/>
<path d="M226.898 86.3729C226.797 86.3729 226.695 86.2712 226.695 86.1695C226.695 86.0678 226.797 85.8645 226.898 85.8645C227 85.8645 227.508 85.6611 227.61 85.4577C227.712 85.2543 227.203 84.4407 227 84.0339C226.797 83.6272 226.593 83.3221 226.491 83.017C226.491 82.9153 226.491 82.7119 226.695 82.7119C226.797 82.7119 227 82.7119 227 82.9153C227.102 83.1187 227.203 83.5255 227.407 83.8306C227.915 84.7458 228.119 85.356 228.017 85.6611C227.712 86.1695 227 86.3729 226.898 86.3729V86.3729Z" fill="#002031"/>
<path d="M225.881 82.6099C225.78 82.6099 225.678 82.5083 225.678 82.4066C225.678 82.3049 225.78 82.2032 225.881 82.1015L227 81.9998C227.102 81.9998 227.203 82.1015 227.305 82.2032C227.305 82.3049 227.203 82.4066 227.102 82.5083L225.881 82.6099C225.983 82.6099 225.983 82.6099 225.881 82.6099Z" fill="white"/>
<path d="M220.491 83.3219C220.39 83.3219 220.288 83.2202 220.288 83.1185C220.288 83.0168 220.39 82.8134 220.491 82.8134L221.305 82.7117C221.407 82.7117 221.61 82.8134 221.61 82.9151C221.61 83.0168 221.508 83.2202 221.407 83.2202L220.491 83.3219C220.593 83.3219 220.491 83.3219 220.491 83.3219Z" fill="white"/>
<path d="M213.169 100.915L216.932 99.9998C217.949 99.6947 218.661 98.5761 218.458 97.4574L218.254 96.0337L219.576 102.034L213.169 100.915Z" fill="#C26E5E"/>
<rect x="210.89" y="119.475" width="5.69464" height="0.71183" transform="rotate(-49.3353 210.89 119.475)" fill="#002031"/>
<path d="M237.576 135.491C237.271 134.068 238.39 130.305 239.61 125.83C240.932 121.152 242.356 115.864 242.152 113.729C241.847 111.085 240.525 108.136 238.898 106.203L239.508 105.695C241.644 108.136 242.661 111.39 242.966 113.627C243.271 115.966 241.847 121.051 240.424 126.034C239.305 130 238.186 134.068 238.39 135.39L237.576 135.491Z" fill="white"/>
</svg>
