<?xml version="1.0" encoding="UTF-8"?>
<svg width="375px" height="268px" viewBox="0 0 375 268" version="1.1" xmlns="http://www.w3.org/2000/svg" xmlns:xlink="http://www.w3.org/1999/xlink">
    <title>Group@3x</title>
    <defs>
        <rect id="path-1" x="0" y="0" width="375" height="268"></rect>
    </defs>
    <g id="Symbols" stroke="none" stroke-width="1" fill="none" fill-rule="evenodd">
        <g id="Group">
            <mask id="mask-2" fill="white">
                <use xlink:href="#path-1"></use>
            </mask>
            <g id="Rectangle"></g>
            <g id="holder_testafspraak" mask="url(#mask-2)">
                <g transform="translate(32.593511, 18.712214)">
                    <path d="M274.795802,78.580916 L226.483969,78.580916 L226.483969,16.4996183 L274.795802,16.4996183 L274.795802,78.580916 Z M227.670992,77.3938931 L273.608779,77.3938931 L273.608779,17.6866412 L227.670992,17.6866412 L227.670992,77.3938931 Z" id="Shape" fill="#94E5FF" fill-rule="nonzero"></path>
                    <ellipse id="Oval" fill="#40C5F6" fill-rule="nonzero" cx="150.514504" cy="227.908397" rx="135.439313" ry="3.79847328"></ellipse>
                    <path d="M44.2759542,58.6389313 L0.59351145,58.6389313 C0.23740458,58.6389313 0,58.4015267 0,58.0454198 L0,0.59351145 C0,0.23740458 0.23740458,0 0.59351145,0 L44.3946565,0 C44.7507634,0 44.9881679,0.23740458 44.9881679,0.59351145 L44.9881679,58.0454198 C44.8694656,58.2828244 44.6320611,58.6389313 44.2759542,58.6389313 Z M1.1870229,57.4519084 L43.801145,57.4519084 L43.801145,1.1870229 L1.1870229,1.1870229 L1.1870229,57.4519084 Z" id="Shape" fill="#94E5FF" fill-rule="nonzero"></path>
                    <g id="Group" stroke-width="1" fill="none" fill-rule="evenodd" transform="translate(119.295802, 115.616031)">
                        <polygon id="Path" fill="#94E5FF" fill-rule="nonzero" points="186.481298 103.033588 185.294275 103.033588 185.294275 7.1221374 5.81641221 7.1221374 5.81641221 47.9557252 4.62938931 47.9557252 4.62938931 5.9351145 186.481298 5.9351145"></polygon>
                        <path d="M187.193511,7.1221374 L3.5610687,7.1221374 C1.66183206,7.1221374 0.23740458,5.57900763 0.23740458,3.79847328 C0.23740458,1.89923664 1.78053435,0.47480916 3.5610687,0.47480916 L187.193511,0.47480916 C189.092748,0.47480916 190.517176,2.01793893 190.517176,3.79847328 C190.635878,5.57900763 189.092748,7.1221374 187.193511,7.1221374 Z M3.5610687,1.54312977 C2.3740458,1.54312977 1.42442748,2.49274809 1.42442748,3.67977099 C1.42442748,4.86679389 2.3740458,5.81641221 3.5610687,5.81641221 L187.193511,5.81641221 C188.380534,5.81641221 189.330153,4.86679389 189.330153,3.67977099 C189.330153,2.49274809 188.380534,1.54312977 187.193511,1.54312977 L3.5610687,1.54312977 Z" id="Shape" fill="#94E5FF" fill-rule="nonzero"></path>
                    </g>
                    <g id="Group" stroke-width="1" fill="none" fill-rule="evenodd" transform="translate(36.204198, 37.272519)">
                        <g transform="translate(0.000000, 39.171756)" fill="#40C5F6" fill-rule="nonzero">
                            <rect id="Rectangle" x="38.459542" y="85.109542" width="8.66526718" height="40.2400763"></rect>
                            <path d="M71.3400763,140.780916 L68.2538168,140.780916 L68.2538168,139.475191 C68.2538168,132.590458 62.6748092,126.892748 55.671374,126.892748 L31.2187023,126.892748 C24.3339695,126.892748 18.6362595,132.471756 18.6362595,139.475191 L18.6362595,140.780916 L15.55,140.780916 L15.55,139.475191 C15.55,130.928626 22.5534351,123.925191 31.1,123.925191 L55.5526718,123.925191 C64.0992366,123.925191 71.1026718,130.928626 71.1026718,139.475191 L71.1026718,140.780916 L71.3400763,140.780916 Z" id="Path"></path>
                            <rect id="Rectangle" x="40.9522901" y="125.349618" width="4.03587786" height="20.1793893"></rect>
                            <circle id="Oval" cx="43.4450382" cy="143.748473" r="6.29122137"></circle>
                            <circle id="Oval" cx="69.3221374" cy="143.748473" r="6.29122137"></circle>
                            <path d="M80.4801527,87.4835878 L15.9061069,87.4835878 C12.2263359,87.4835878 9.02137405,84.7534351 8.4278626,81.0736641 L8.4278626,81.0736641 L79.2931298,81.0736641 L80.4801527,87.4835878 Z" id="Path"></path>
                            <path d="M61.4877863,81.0736641 L8.54656489,81.0736641 L0.47480916,16.0248092 C-0.47480916,7.95305344 5.81641221,0.830916031 13.8881679,0.830916031 L41.0709924,0.830916031 C47.0061069,0.830916031 52.1103053,5.22290076 52.8225191,11.1580153 L61.4877863,81.0736641 Z" id="Path"></path>
                            <circle id="Oval" cx="17.2118321" cy="143.748473" r="6.29122137"></circle>
                        </g>
                        <g transform="translate(9.496183, 0.000000)" fill-rule="nonzero">
                            <polygon id="Path" fill="#FFFFFF" points="84.278626 164.758779 84.278626 176.866412 86.771374 179.833969 94.8431298 177.934733 95.6740458 175.323282 95.5553435 164.758779"></polygon>
                            <g transform="translate(81.904580, 173.305344)">
                                <path d="M17.0931298,0.830916031 L25.1648855,6.64732824 L30.0316794,9.02137405 C32.4057252,10.3270992 32.4057252,12.5824427 32.4057252,12.5824427 L0.11870229,12.5824427 L0.35610687,2.49274809 C0.59351145,1.78053435 2.73015267,1.66183206 2.96755725,2.25534351 C3.44236641,3.5610687 5.46030534,5.10419847 7.35954198,5.22290076 C10.2083969,5.34160305 13.1759542,2.73015267 14.719084,1.1870229 C15.3125954,0.59351145 16.2622137,0.35610687 17.0931298,0.830916031 Z" id="Path" fill="#ECAE00"></path>
                                <polygon id="Path" fill="#DCEEFD" points="0 15.9061069 32.5244275 15.9061069 32.5244275 12.4637405 0.11870229 12.4637405"></polygon>
                                <rect id="Rectangle" fill="#002031" x="21.9599237" y="5.81641221" width="3.08625954" height="1"></rect>
                                <rect id="Rectangle" fill="#002031" x="19.3484733" y="4.15458015" width="3.5610687" height="1"></rect>
                            </g>
                            <polygon id="Path" fill="#FFFFFF" points="63.5057252 164.758779 61.4877863 176.866412 63.9805344 179.833969 72.0522901 177.934733 72.8832061 175.323282 75.4946565 164.996183"></polygon>
                            <g transform="translate(57.977099, 173.305344)">
                                <path d="M18.229771,0.830916031 L26.3015267,6.64732824 L31.1683206,9.02137405 C33.5423664,10.3270992 33.5423664,12.5824427 33.5423664,12.5824427 L0.424427481,12.5824427 L1.73015267,2.49274809 C1.96755725,1.78053435 4.10419847,1.66183206 4.34160305,2.25534351 C4.81641221,3.5610687 6.47824427,5.10419847 8.37748092,5.22290076 C11.2263359,5.34160305 14.1938931,2.73015267 15.7370229,1.1870229 C16.4492366,0.59351145 17.398855,0.35610687 18.229771,0.830916031 Z" id="Path" fill="#FFCC00"></path>
                                <polygon id="Path" fill="#FFFFFF" points="0.0683206107 15.9061069 33.6610687 15.9061069 33.6610687 12.4637405 0.305725191 12.4637405"></polygon>
                                <rect id="Rectangle" fill="#002031" x="23.0965649" y="5.81641221" width="3.08625954" height="1"></rect>
                                <rect id="Rectangle" fill="#002031" x="20.4851145" y="4.15458015" width="3.5610687" height="1"></rect>
                            </g>
                            <path d="M40.9522901,9.49618321 C42.4954198,11.1580153 42.0206107,15.3125954 39.290458,14.9564885 C37.5099237,13.8881679 35.8480916,11.9889313 35.2545802,9.97099237 C34.779771,7.00343511 39.8839695,7.59694656 40.9522901,9.49618321 Z" id="Path" fill="#F17277"></path>
                            <path d="M49.3801527,47.480916 L68.9660305,85.7030534 C71.4587786,90.6885496 68.6099237,96.6236641 63.1496183,97.6919847 L56.5022901,98.9977099 L49.3801527,47.480916 Z" id="Path" fill="#0E6866"></path>
                            <path d="M21.9599237,43.5637405 L39.5278626,42.6141221 C45.2255725,42.0206107 49.9736641,45.819084 51.8729008,53.178626 C51.8729008,53.178626 57.689313,77.3938931 59.9446565,97.2171756 L9.49618321,97.2171756 L10.0896947,65.048855 L7.24083969,64.6927481 L7.1221374,55.671374 C8.4278626,49.7362595 14.9564885,44.2759542 21.9599237,43.5637405 Z" id="Path" fill="#237978"></path>
                            <path d="M37.8660305,52.2290076 C43.2076336,51.7541985 42.4954198,44.8694656 42.139313,42.6141221 C41.3083969,42.4954198 40.2400763,42.4954198 39.4091603,42.4954198 L21.7225191,43.5637405 C22.7908397,45.2255725 28.251145,53.0599237 37.8660305,52.2290076 Z" id="Path" fill="#0E6866"></path>
                            <path d="M24.3339695,30.269084 L24.8087786,43.3263359 C24.8087786,43.3263359 30.269084,50.329771 36.7977099,49.8549618 C41.6645038,49.6175573 40.121374,42.7328244 40.121374,42.7328244 L36.9164122,31.930916 C36.9164122,32.0496183 45.2255725,30.8625954 44.0385496,22.7908397 C43.6824427,20.060687 41.5458015,13.8881679 39.4091603,10.4458015 C37.1538168,6.64732824 33.4740458,6.17251908 30.6251908,6.52862595 C29.6755725,6.64732824 27.7763359,6.88473282 26.9454198,7.1221374 C25.8770992,7.35954198 24.8087786,7.59694656 23.8591603,8.07175573 C21.2477099,9.37748092 19.7045802,12.2263359 19.3484733,15.1938931 C18.9923664,17.5679389 19.229771,19.9419847 19.5858779,22.1973282 C19.7045802,22.6721374 19.9419847,23.5030534 19.8232824,23.8591603 C19.8232824,23.9778626 19.8232824,23.9778626 19.7045802,24.0965649 C19.4671756,24.3339695 19.1110687,24.6900763 18.9923664,24.9274809 C18.5175573,25.7583969 18.398855,26.7080153 18.6362595,27.5389313 C19.229771,29.6755725 22.3160305,30.7438931 24.3339695,30.269084 Z" id="Path" fill="#F4C9DB"></path>
                            <path d="M36.9164122,31.930916 C34.4236641,32.0496183 31.4561069,32.0496183 31.4561069,32.0496183 L38.9343511,39.0530534 L36.9164122,31.930916 Z" id="Path" fill="#E7B2CB"></path>
                            <path d="M36.5603053,20.8916031 C36.4416031,20.8916031 36.3229008,20.7729008 36.2041985,20.6541985 C36.0854962,20.4167939 36.2041985,20.1793893 36.3229008,20.060687 C36.3229008,20.060687 37.0351145,19.7045802 37.628626,19.229771 C37.7473282,19.1110687 37.8660305,18.9923664 37.8660305,18.7549618 C37.8660305,18.5175573 37.8660305,18.398855 37.628626,18.2801527 C37.5099237,18.1614504 37.2725191,17.9240458 37.0351145,17.8053435 C36.2041985,16.9744275 35.0171756,16.0248092 34.779771,14.8377863 C34.779771,14.6003817 34.8984733,14.3629771 35.1358779,14.3629771 C35.3732824,14.3629771 35.610687,14.4816794 35.610687,14.719084 C35.7293893,15.6687023 36.7977099,16.4996183 37.628626,17.2118321 C37.8660305,17.4492366 38.1034351,17.5679389 38.2221374,17.8053435 C38.5782443,18.1614504 38.6969466,18.5175573 38.6969466,18.9923664 C38.6969466,19.4671756 38.459542,19.8232824 38.1034351,20.060687 C37.3912214,20.5354962 36.6790076,20.8916031 36.6790076,20.8916031 C36.6790076,20.8916031 36.5603053,20.8916031 36.5603053,20.8916031 Z" id="Path" fill="#002031"></path>
                            <path d="M15.55,16.8557252 C14.0068702,10.0896947 17.6866412,10.6832061 17.6866412,10.6832061 C17.6866412,10.6832061 16.1435115,6.17251908 19.9419847,4.39198473 C25.5209924,1.78053435 30.9812977,3.32366412 30.9812977,3.32366412 C30.9812977,3.32366412 32.9992366,0.23740458 35.4919847,8.43430499e-15 C37.5099237,0.23740458 37.3912214,3.08625954 36.2041985,4.39198473 C42.970229,-3.08625954 47.7183206,7.24083969 33.2366412,11.870229 C28.7259542,13.2946565 22.5534351,13.5320611 22.5534351,13.5320611 C23.5030534,17.8053435 24.8087786,26.1145038 20.7729008,27.8950382 C20.7729008,27.8950382 16.380916,23.2656489 15.55,16.8557252 Z" id="Path" fill="#F17277"></path>
                            <path d="M22.909542,28.6072519 L22.3160305,22.6721374 C22.3160305,22.6721374 18.1614504,23.8591603 18.7549618,27.0641221 L22.909542,28.6072519 Z" id="Path" fill="#F4C9DB"></path>
                            <g transform="translate(37.984733, 86.652672)" id="Path">
                                <path d="M15.55,4.03587786 L17.0931298,2.13664122 C17.6866412,1.30572519 18.6362595,0.830916031 19.7045802,0.830916031 L21.1290076,0.71221374 C22.6721374,0.59351145 23.9778626,1.66183206 24.3339695,3.08625954 L25.5209924,7.71564885 C25.9958015,9.73358779 24.4526718,11.7515267 22.3160305,11.6328244 L16.1435115,11.5141221 L15.55,4.03587786 Z" fill="#DB9BBC"></path>
                                <path d="M0.23740458,10.9206107 L23.0282443,11.2767176 C23.8591603,11.2767176 24.8087786,10.9206107 24.9274809,10.3270992 C25.1648855,9.6148855 25.2835878,8.4278626 24.3339695,7.95305344 L11.9889313,1.78053435 C11.3954198,1.54312977 10.8019084,1.42442748 10.2083969,1.42442748 L0,2.61145038 L0.23740458,10.9206107 Z" fill="#F4C9DB"></path>
                                <path d="M24.3339695,8.54656489 C24.3339695,8.54656489 24.3339695,8.54656489 24.3339695,8.54656489 L16.0248092,7.35954198 C15.7874046,7.35954198 15.6687023,7.1221374 15.6687023,6.88473282 C15.6687023,6.64732824 15.9061069,6.52862595 16.1435115,6.52862595 L24.4526718,7.71564885 C24.6900763,7.71564885 24.8087786,7.95305344 24.8087786,8.19045802 C24.8087786,8.30916031 24.571374,8.54656489 24.3339695,8.54656489 Z" fill="#002031"></path>
                                <path d="M19.5858779,6.17251908 C19.4671756,6.17251908 19.4671756,6.17251908 19.5858779,6.17251908 L12.5824427,4.7480916 C12.3450382,4.7480916 12.2263359,4.51068702 12.2263359,4.27328244 C12.2263359,4.03587786 12.4637405,3.91717557 12.701145,3.91717557 L19.5858779,5.34160305 C19.8232824,5.34160305 19.9419847,5.57900763 19.9419847,5.81641221 C19.9419847,6.05381679 19.7045802,6.17251908 19.5858779,6.17251908 Z" fill="#002031"></path>
                            </g>
                            <path d="M7.00343511,55.671374 L0.23740458,86.771374 C-0.949618321,92.2316794 3.20496183,97.4545802 8.78396947,97.4545802 L44.3946565,97.4545802 L44.3946565,85.3469466 C38.1034351,83.5664122 18.6362595,82.0232824 18.6362595,82.0232824 L25.2835878,58.1641221 L7.00343511,55.671374 Z" id="Path" fill="#237978"></path>
                            <path d="M38.5782443,84.3973282 C38.459542,84.3973282 38.459542,84.3973282 38.5782443,84.3973282 C30.8625954,83.2103053 17.9240458,82.3793893 17.8053435,82.3793893 C17.6866412,82.3793893 17.5679389,82.260687 17.4492366,82.260687 C17.3305344,82.1419847 17.3305344,82.0232824 17.3305344,81.9045802 L20.8916031,64.2179389 C20.8916031,63.9805344 21.1290076,63.8618321 21.3664122,63.8618321 C21.6038168,63.8618321 21.7225191,64.0992366 21.7225191,64.3366412 L18.2801527,81.5484733 C20.6541985,81.6671756 31.6935115,82.4980916 38.5782443,83.5664122 C38.8156489,83.5664122 38.9343511,83.8038168 38.9343511,84.0412214 C38.9343511,84.1599237 38.6969466,84.3973282 38.5782443,84.3973282 Z" id="Path" fill="#FFFFFF"></path>
                            <path d="M18.8736641,82.260687 C18.8736641,82.260687 18.8736641,82.260687 18.8736641,82.260687 C18.8736641,82.260687 16.7370229,82.1419847 15.1938931,82.1419847 C14.9564885,82.1419847 14.719084,81.9045802 14.719084,81.7858779 C14.719084,81.6671756 14.9564885,81.429771 15.1938931,81.429771 C16.7370229,81.429771 18.8736641,81.5484733 18.8736641,81.5484733 C19.1110687,81.5484733 19.229771,81.7858779 19.229771,82.0232824 C19.3484733,82.1419847 19.1110687,82.260687 18.8736641,82.260687 Z" id="Path" fill="#FFFFFF"></path>
                            <path d="M37.3912214,58.0454198 C37.2725191,58.0454198 37.2725191,58.0454198 37.1538168,58.0454198 C36.7977099,57.9267176 36.6790076,57.5706107 36.7977099,57.2145038 L39.6465649,50.5671756 C39.7652672,50.2110687 40.121374,50.0923664 40.4774809,50.2110687 C40.8335878,50.329771 40.9522901,50.6858779 40.8335878,51.0419847 L37.9847328,57.689313 C37.7473282,57.9267176 37.5099237,58.0454198 37.3912214,58.0454198 Z" id="Path" fill="#0E6866"></path>
                            <path d="M42.139313,57.0958015 C42.0206107,57.0958015 41.9019084,57.0958015 41.7832061,56.9770992 L35.610687,52.2290076 C35.3732824,51.9916031 35.2545802,51.6354962 35.4919847,51.3980916 C35.7293893,51.160687 36.0854962,51.0419847 36.3229008,51.2793893 L42.4954198,56.0274809 C42.7328244,56.2648855 42.8515267,56.6209924 42.6141221,56.8583969 C42.4954198,56.9770992 42.2580153,57.0958015 42.139313,57.0958015 Z" id="Path" fill="#0E6866"></path>
                            <path d="M28.251145,16.6183206 C28.1324427,16.6183206 28.1324427,16.6183206 28.0137405,16.6183206 C27.7763359,16.4996183 27.7763359,16.2622137 27.7763359,16.0248092 C27.7763359,15.9061069 28.9633588,13.7694656 30.7438931,13.2946565 C30.9812977,13.2946565 31.2187023,13.4133588 31.2187023,13.6507634 C31.2187023,13.8881679 31.1,14.1255725 30.8625954,14.1255725 C29.4381679,14.4816794 28.4885496,16.380916 28.3698473,16.380916 C28.6072519,16.4996183 28.4885496,16.6183206 28.251145,16.6183206 Z" id="Path" fill="#002031"></path>
                            <path d="M39.1717557,12.2263359 C39.0530534,12.2263359 39.0530534,12.2263359 39.1717557,12.2263359 L36.6790076,12.2263359 C36.4416031,12.2263359 36.3229008,11.9889313 36.3229008,11.7515267 C36.3229008,11.5141221 36.5603053,11.3954198 36.7977099,11.3954198 C36.7977099,11.3954198 36.7977099,11.3954198 36.7977099,11.3954198 L39.290458,11.3954198 C39.5278626,11.3954198 39.6465649,11.6328244 39.6465649,11.870229 C39.5278626,12.1076336 39.290458,12.2263359 39.1717557,12.2263359 Z" id="Path" fill="#002031"></path>
                            <path d="M27.0641221,97.3358779 L26.9454198,98.9977099 C25.7583969,110.274427 34.6610687,120.008015 46.0564885,120.008015 L79.7679389,120.008015 C79.7679389,120.008015 81.3110687,142.205344 81.3110687,168.201145 L97.9293893,168.201145 L98.6416031,113.835496 C98.7603053,105.645038 92.2316794,98.7603053 84.8721374,98.6416031 L60.1820611,97.3358779 L27.0641221,97.3358779 L27.0641221,97.3358779 Z" id="Path" fill="#002031"></path>
                            <path d="M11.5141221,97.3358779 L11.039313,101.60916 C9.73358779,113.954198 19.1110687,120.126718 30.3877863,120.126718 L64.0992366,120.126718 C64.0992366,120.126718 60.3007634,142.324046 60.3007634,168.319847 L77.2751908,168.319847 L85.8217557,116.209542 C87.8396947,103.627099 80.598855,99.5912214 74.901145,98.8790076 L55.5526718,97.4545802 L11.5141221,97.4545802 L11.5141221,97.3358779 Z" id="Path" fill="#334D5A"></path>
                            <path d="M77.6312977,164.402672 L60.8942748,164.402672 C60.6568702,164.402672 60.4194656,164.165267 60.4194656,164.046565 C60.4194656,163.927863 60.6568702,163.690458 60.8942748,163.690458 L77.6312977,163.690458 C77.8687023,163.690458 78.1061069,163.927863 78.1061069,164.046565 C78.1061069,164.165267 77.8687023,164.402672 77.6312977,164.402672 Z" id="Path" fill="#002031"></path>
                            <path d="M64.9301527,164.046565 L64.0992366,163.927863 L68.2538168,123.212977 C68.3725191,121.31374 68.9660305,119.770611 69.7969466,119.177099 C70.390458,118.820992 70.9839695,118.70229 71.5774809,118.583588 C72.2896947,118.464885 72.4083969,118.464885 72.4083969,118.108779 C72.2896947,117.990076 71.221374,117.871374 70.6278626,117.871374 C69.4408397,117.752672 68.2538168,117.752672 68.2538168,116.921756 C68.2538168,116.565649 68.3725191,116.209542 68.6099237,115.853435 C69.3221374,115.022519 70.9839695,115.141221 71.221374,115.141221 C71.5774809,115.141221 71.8148855,114.903817 71.8148855,114.785115 C71.8148855,114.666412 71.4587786,114.310305 70.8652672,114.310305 L30.6251908,114.310305 C25.1648855,114.310305 21.6038168,113.241985 19.5858779,110.867939 C17.9240458,108.968702 17.3305344,106.23855 17.8053435,102.558779 L18.6362595,97.3358779 L19.4671756,97.4545802 L18.6362595,102.677481 C18.1614504,106.119847 18.6362595,108.612595 20.1793893,110.274427 C22.078626,112.411069 25.2835878,113.360687 30.5064885,113.360687 L70.7465649,113.360687 C71.9335878,113.360687 72.5270992,113.954198 72.5270992,114.666412 C72.5270992,115.141221 72.1709924,115.734733 71.221374,115.853435 C70.7465649,115.853435 69.559542,115.972137 69.2034351,116.328244 C69.0847328,116.446947 69.0847328,116.565649 69.0847328,116.684351 C69.2034351,116.803053 70.1530534,116.803053 70.6278626,116.921756 C71.6961832,117.040458 72.6458015,117.040458 73.0019084,117.515267 C73.1206107,117.633969 73.239313,117.871374 73.1206107,118.108779 C73.0019084,119.058397 72.1709924,119.177099 71.5774809,119.295802 C71.1026718,119.414504 70.6278626,119.414504 70.1530534,119.770611 C69.559542,120.126718 69.0847328,121.551145 68.9660305,123.094275 L64.9301527,164.046565 Z" id="Path" fill="#002031"></path>
                            <path d="M18.398855,105.645038 L18.1614504,104.814122 C23.3843511,103.627099 24.571374,97.5732824 24.571374,97.5732824 L25.4022901,97.6919847 C25.4022901,97.810687 24.0965649,104.220611 18.398855,105.645038 Z" id="Path" fill="#002031"></path>
                            <path d="M41.9019084,97.3358779 L44.6320611,97.3358779 L44.6320611,86.1778626 C44.6320611,85.5843511 44.2759542,85.109542 43.6824427,84.9908397 C43.0889313,84.8721374 42.4954198,84.7534351 41.9019084,84.6347328 L41.9019084,97.3358779 Z" id="Path" fill="#0E6866"></path>
                            <path d="M33.4740458,22.3160305 C33.4740458,22.3160305 34.5423664,23.740458 36.2041985,23.8591603 C37.0351145,23.9778626 38.1034351,23.740458 38.9343511,22.5534351 L33.4740458,22.3160305 Z" id="Path" fill="#FFFFFF"></path>
                            <circle id="Oval" fill="#002031" cx="31.4561069" cy="16.8557252" r="1"></circle>
                            <circle id="Oval" fill="#002031" cx="38.6969466" cy="14.9564885" r="1"></circle>
                        </g>
                    </g>
                    <g id="Group" stroke-width="1" fill="none" fill-rule="evenodd" transform="translate(116.921756, 4.345823)">
                        <path d="M71.6961832,30.5526506 L74.5450382,36.2503605 L87.1274809,32.5705895 L81.1923664,19.6320399 L77.9874046,6.33738338 L71.221374,5.03165818 L57.0958015,10.3732612 C57.0958015,10.3732612 56.2648855,13.4595208 57.0958015,16.3083757 C57.689313,18.3263147 58.8763359,19.6320399 58.7576336,21.1751696 L64.5740458,29.3656277 L71.6961832,30.5526506 Z" id="Path" fill="#CE99BB" fill-rule="nonzero"></path>
                        <path d="M58.7576336,21.0564673 C58.2828244,22.0060857 57.689313,22.3621925 57.2145038,23.0744063 C56.6209924,23.78662 56.2648855,25.0923452 56.8583969,26.1606658 L59.9446565,31.7396735 C61.369084,34.4698261 64.9301527,35.3007422 67.4229008,33.6389101 L71.5774809,30.9087574 C72.1709924,30.5526506 72.5270992,29.8404368 72.2896947,29.1282231 L70.8652672,22.7182994 C70.5091603,21.2938719 69.3221374,20.3442536 67.8977099,20.4629559 L58.7576336,21.0564673 Z" id="Path" fill="#DCEEFD" fill-rule="nonzero"></path>
                        <path d="M79.2931298,19.0385284 C79.2931298,21.6499788 84.7534351,27.466391 84.7534351,27.466391 C84.7534351,27.466391 90.0950382,20.8190628 90.0950382,13.6969254 C90.0950382,6.81219254 87.2461832,5.38776506 84.7534351,5.15036047 C83.9225191,5.03165818 83.3290076,4.43814673 83.3290076,3.72593299 C83.2103053,2.4202078 81.9045802,1.11448261 79.6492366,0.283566582 C76.5629771,-0.903456319 68.9660305,1.94539864 65.9984733,3.13242154 C65.2862595,3.36982612 64.5740458,3.36982612 63.9805344,3.01371925 C62.2,1.94539864 58.520229,0.283566582 56.0274809,2.89501696 C52.8225191,6.45608567 55.3152672,11.6789864 57.0958015,12.8660093 C58.8763359,14.0530322 70.8652672,12.0350933 70.8652672,12.0350933 C70.8652672,12.0350933 70.6278626,14.4091391 73.239313,16.0709712 C75.8507634,17.7328032 79.4118321,16.7831849 79.4118321,16.7831849 C79.4118321,16.7831849 79.2931298,17.1392918 79.2931298,19.0385284 Z" id="Path" fill="#1BC1D7" fill-rule="nonzero"></path>
                        <polygon id="Path" fill="#DCEEFD" fill-rule="nonzero" points="72.0522901 30.315246 71.3400763 29.7217345 80.8362595 18.6824215 78.6996183 15.8335666 68.1351145 21.6499788 67.6603053 20.9377651 78.9370229 14.765246 82.0232824 18.8011238"></polygon>
                        <circle id="Oval" fill="#CE99BB" fill-rule="nonzero" cx="79.2931298" cy="17.4953986" r="2.84885496"></circle>
                        <g opacity="0.28" transform="translate(52.229008, 12.747307)" fill="#FFFFFF" fill-rule="nonzero" id="Path">
                            <g>
                                <polygon points="1.89923664 0.59351145 0.23740458 26.1145038 17.0931298 26.1145038 14.2442748 0.11870229"></polygon>
                            </g>
                        </g>
                        <path d="M79.7679389,14.0530322 L53.6534351,14.0530322 L53.6534351,11.085475 L79.7679389,11.085475 C80.598855,11.085475 81.1923664,11.7976887 81.1923664,12.5099025 L81.1923664,12.5099025 C81.1923664,13.3408185 80.4801527,14.0530322 79.7679389,14.0530322 Z" id="Path" fill="#99E6FF" fill-rule="nonzero"></path>
                        <circle id="Oval" fill="#002031" fill-rule="nonzero" cx="60.6568702" cy="17.7328032" r="1"></circle>
                        <path d="M62.2,15.9522689 C62.2,15.9522689 62.0812977,15.9522689 62.0812977,15.9522689 C60.7755725,15.3587574 59.4698473,15.7148643 59.4698473,15.7148643 C59.2324427,15.8335666 58.9950382,15.7148643 58.9950382,15.4774597 C58.8763359,15.2400551 58.9950382,15.0026506 59.2324427,15.0026506 C59.351145,15.0026506 60.8942748,14.5278414 62.4374046,15.2400551 C62.6748092,15.3587574 62.7935115,15.596162 62.6748092,15.8335666 C62.5561069,15.8335666 62.4374046,15.9522689 62.2,15.9522689 Z" id="Path" fill="#002031" fill-rule="nonzero"></path>
                        <g transform="translate(46.293893, 78.033567)" fill="#99E6FF" fill-rule="nonzero" id="Path">
                            <path d="M3.91717557,25.1648855 L3.91717557,25.1648855 C2.49274809,25.1648855 1.30572519,23.9778626 1.30572519,22.5534351 L1.30572519,1.89923664 L6.52862595,1.89923664 L6.52862595,22.5534351 C6.52862595,23.9778626 5.34160305,25.1648855 3.91717557,25.1648855 Z"></path>
                            <path d="M7.1221374,2.84885496 L0.949618321,2.84885496 C0.59351145,2.84885496 0.35610687,2.61145038 0.35610687,2.25534351 L0.35610687,1.1870229 C0.35610687,0.830916031 0.59351145,0.59351145 0.949618321,0.59351145 L7.1221374,0.59351145 C7.47824427,0.59351145 7.71564885,0.830916031 7.71564885,1.1870229 L7.71564885,2.25534351 C7.59694656,2.61145038 7.35954198,2.84885496 7.1221374,2.84885496 Z"></path>
                        </g>
                        <path d="M58.7576336,80.8824215 L45.7003817,80.8824215 C44.8694656,80.8824215 44.1572519,81.5946353 44.2759542,82.4255513 L44.3946565,83.7312765 C44.3946565,84.2060857 44.7507634,84.6808948 45.2255725,84.9182994 L45.819084,85.2744063 L44.9881679,86.3427269 C44.7507634,86.6988338 44.6320611,87.1736429 44.6320611,87.6484521 L44.8694656,88.835475 C44.9881679,89.5476887 45.5816794,90.1412002 46.2938931,90.2599025 L46.5312977,90.2599025 L45.9377863,91.2095208 C45.5816794,91.6843299 45.4629771,92.2778414 45.5816794,92.7526506 L45.7003817,93.1087574 C45.9377863,94.2957803 47.1248092,95.1266964 48.3118321,94.8892918 L61.4877863,91.8030322 L58.7576336,80.8824215 Z" id="Path" fill="#1BC1D7" fill-rule="nonzero"></path>
                        <path d="M30.8625954,53.3434902 L27.420229,46.1026506 C26.9454198,45.0343299 25.9958015,44.0847116 24.9274809,43.6099025 L18.398855,40.8797498 C16.9744275,40.2862383 15.1938931,40.5236429 14.0068702,41.5919635 L9.02137405,46.1026506 C8.66526718,46.4587574 8.54656489,47.0522689 8.90267176,47.527078 L9.14007634,47.7644826 C9.37748092,48.1205895 9.73358779,48.3579941 10.2083969,48.3579941 L12.2263359,48.5953986 L12.5824427,49.0702078 C12.8198473,49.4263147 13.2946565,49.6637193 13.6507634,49.6637193 L15.1938931,49.7824215 C15.55,49.7824215 16.0248092,49.7824215 16.380916,49.545017 L17.8053435,48.9515055 L23.5030534,52.9873834 L26.589313,60.1095208 L30.8625954,53.3434902 Z" id="Path" fill="#1BC1D7" fill-rule="nonzero"></path>
                        <g transform="translate(0.000000, 43.609902)" fill-rule="nonzero">
                            <rect id="Rectangle" fill="#DCEEFD" x="4.51068702" y="2.13664122" width="26.3519084" height="1.06832061"></rect>
                            <path d="M22.078626,3.44236641 L19.4671756,2.49274809 C18.6362595,2.13664122 17.6866412,2.49274809 17.2118321,3.20496183 L17.2118321,3.20496183 C16.7370229,4.03587786 16.9744275,5.22290076 17.8053435,5.69770992 L19.1110687,6.52862595 L22.078626,3.44236641 Z" id="Path" fill="#1BC1D7"></path>
                            <path d="M5.34160305,2.49274809 C5.34160305,3.44236641 3.44236641,4.15458015 2.01793893,4.15458015 C0.59351145,4.15458015 0,3.44236641 0,2.49274809 C0,1.54312977 0.59351145,0.830916031 2.01793893,0.830916031 C3.44236641,0.830916031 5.34160305,1.66183206 5.34160305,2.49274809 Z" id="Path" fill="#DCEEFD"></path>
                        </g>
                        <path d="M21.2477099,51.6816582 C21.1290076,51.6816582 21.1290076,51.6816582 21.0103053,51.5629559 C20.8916031,51.4442536 18.9923664,50.2572307 17.5679389,49.4263147 C17.0931298,49.0702078 16.7370229,48.5953986 16.6183206,48.0018872 C16.4996183,47.4083757 16.6183206,46.8148643 16.9744275,46.3400551 C17.5679389,45.5091391 18.6362595,45.2717345 19.5858779,45.6278414 L23.5030534,47.1709712 C23.740458,47.2896735 23.8591603,47.527078 23.740458,47.7644826 C23.6217557,48.0018872 23.3843511,48.1205895 23.1469466,48.0018872 L19.229771,46.4587574 C18.6362595,46.2213528 18.0427481,46.4587574 17.5679389,46.9335666 C17.3305344,47.2896735 17.2118321,47.6457803 17.3305344,48.0018872 C17.4492366,48.3579941 17.5679389,48.7141009 17.9240458,48.9515055 C19.3484733,49.9011238 21.3664122,51.0881467 21.4851145,51.206849 C21.7225191,51.3255513 21.7225191,51.5629559 21.6038168,51.8003605 C21.4851145,51.6816582 21.3664122,51.6816582 21.2477099,51.6816582 Z" id="Path" fill="#002031" fill-rule="nonzero"></path>
                        <path d="M74.4263359,35.1820399 C64.3366412,40.9984521 50.2110687,62.246162 50.2110687,62.246162 L30.1503817,51.9190628 L24.0965649,59.8721162 C24.0965649,59.8721162 37.1538168,70.6740246 45.1068702,75.3034139 C48.1931298,77.0839483 53.4160305,77.2026506 56.6209924,75.1847116 C64.4553435,70.1992154 74.3076336,63.077078 74.3076336,63.077078" id="Path" fill="#DCEEFD" fill-rule="nonzero"></path>
                        <path d="M80.598855,202.196162 L63.7431298,215.134712 C62.6748092,215.846925 62.0812977,217.152651 62.0812977,218.458376 L62.0812977,222.494254 L91.4007634,222.494254 L92.9438931,220.120208 L94.0122137,222.494254 L102.440076,222.494254 L99.4725191,201.483948 L80.598855,202.196162 Z" id="Path" fill="#985D52" fill-rule="nonzero"></path>
                        <polygon id="Path" fill="#002031" fill-rule="nonzero" points="74.5450382 138.571735 82.260687 142.48891 83.2103053 136.316391"></polygon>
                        <polygon id="Path" fill="#1BC1D7" fill-rule="nonzero" points="95.3179389 203.14578 77.6312977 202.670971 83.0916031 137.028605 96.148855 135.366773"></polygon>
                        <g transform="translate(62.084733, 204.451506)" fill-rule="nonzero">
                            <path d="M38.8122137,0.23740458 L24.2118321,10.6832061 C23.1435115,11.3954198 22.55,12.701145 22.55,14.0068702 L22.55,18.0427481 L51.9881679,18.0427481 L53.5312977,15.6687023 L54.5996183,18.0427481 L63.0274809,18.0427481 L60.4160305,0 L38.8122137,0.23740458 Z" id="Path" fill="#C26E5E"></path>
                            <rect id="Rectangle" fill="#002031" x="22.55" y="14.719084" width="39.8839695" height="1"></rect>
                            <polygon id="Rectangle" fill="#002031" points="0 14.719084 22.55 14.719084 22.55 15.6687023 6.84070326e-17 15.6687023"></polygon>
                        </g>
                        <path d="M121.551145,135.960284 C122.500763,138.453032 126.299237,204.926315 126.299237,204.926315 L94.6057252,204.926315 L94.6057252,135.366773 C94.7244275,135.485475 120.601527,133.467536 121.551145,135.960284 Z" id="Path" fill="#1BC1D7" fill-rule="nonzero"></path>
                        <rect id="Rectangle" fill="#FFFFFF" fill-rule="nonzero" x="94.2496183" y="135.485475" width="1" height="69.4408397"></rect>
                        <path d="M68.728626,50.1385284 C68.728626,50.1385284 86.6526718,86.5801315 86.5339695,87.8858567 C86.4152672,89.1915818 74.5450382,138.453032 74.5450382,138.453032 L127.367557,138.453032 C127.367557,138.453032 133.065267,115.899597 133.065267,98.2129559 C133.065267,78.2709712 114.903817,46.5774597 97.0984733,34.3511238 C93.1812977,31.6209712 88.0770992,30.9087574 83.4477099,32.3331849 L74.3076336,35.0633376 L68.728626,50.1385284 Z" id="Path" fill="#DCEEFD" fill-rule="nonzero"></path>
                        <path d="M85.5843511,85.2744063 C86.1778626,86.6988338 86.6526718,87.7671544 86.6526718,87.8858567 C86.6526718,88.1232612 86.2965649,89.9037956 85.7030534,92.515246 L92.9438931,90.9721162 C97.5732824,89.9037956 100.066031,87.0549406 100.896947,84.0873834 L106.950763,62.4835666 L86.6526718,80.5263147 L85.5843511,85.2744063 Z" id="Path" fill="#99E6FF" fill-rule="nonzero"></path>
                        <path d="M92.5877863,47.4083757 L86.0591603,72.4545589 L57.4519084,79.9328032 L59.5885496,92.9900551 L89.2641221,88.4793681 C93.0625954,88.0045589 96.3862595,85.6305131 98.0480916,82.306849 L109.680916,58.4476887 L92.5877863,47.4083757 Z" id="Path" fill="#DCEEFD" fill-rule="nonzero"></path>
                        <path d="M57.4519084,80.2889101 C57.2145038,80.2889101 57.0958015,80.1702078 57.0958015,79.9328032 C57.0958015,79.6953986 57.2145038,79.4579941 57.4519084,79.4579941 L85.8217557,72.0984521 L91.7568702,48.9515055 C91.7568702,48.7141009 91.9942748,48.5953986 92.2316794,48.5953986 C92.469084,48.5953986 92.5877863,48.8328032 92.5877863,49.0702078 L86.6526718,72.4545589 C86.6526718,72.5732612 86.5339695,72.6919635 86.2965649,72.8106658 L57.4519084,80.2889101 C57.5706107,80.2889101 57.5706107,80.2889101 57.4519084,80.2889101 Z" id="Path" fill="#69DBFF" fill-rule="nonzero"></path>
                        <path d="M77.1564885,68.6560857 C77.0377863,68.6560857 76.8003817,68.5373834 76.8003817,68.4186811 L71.4587786,57.0232612 C71.3400763,56.7858567 71.4587786,56.5484521 71.6961832,56.4297498 C71.9335878,56.3110475 72.1709924,56.4297498 72.2896947,56.6671544 L77.6312977,68.0625742 C77.75,68.2999788 77.6312977,68.5373834 77.3938931,68.6560857 C77.2751908,68.6560857 77.1564885,68.6560857 77.1564885,68.6560857 Z" id="Path" fill="#69DBFF" fill-rule="nonzero"></path>
                        <path d="M114.429008,128.600742 L101.727863,128.600742 C100.659542,128.600742 99.5912214,128.125933 98.8790076,127.295017 C98.1667939,126.464101 97.9293893,125.39578 98.0480916,124.32746 L100.422137,111.38891 C100.422137,111.151506 100.659542,111.032803 100.778244,111.032803 L121.076336,111.032803 C121.195038,111.032803 121.31374,111.032803 121.432443,111.151506 C121.551145,111.270208 121.551145,111.38891 121.551145,111.507612 L118.108779,125.751887 C117.515267,127.413719 116.09084,128.600742 114.429008,128.600742 Z M101.253053,111.863719 L98.9977099,124.446162 C98.8790076,125.277078 99.1164122,126.107994 99.5912214,126.701506 C100.066031,127.295017 100.896947,127.651124 101.727863,127.651124 L114.429008,127.651124 C115.734733,127.651124 116.803053,126.820208 117.15916,125.514483 L120.482824,111.745017 L101.253053,111.745017 L101.253053,111.863719 Z" id="Shape" fill="#002031" fill-rule="nonzero"></path>
                        <path d="M109.918321,116.493109 C108.968702,116.493109 108.256489,115.780895 108.256489,114.831277 C108.256489,113.881658 108.968702,113.169444 109.918321,113.169444 C110.867939,113.169444 111.580153,113.881658 111.580153,114.831277 C111.580153,115.780895 110.749237,116.493109 109.918321,116.493109 Z M109.918321,114.00036 C109.443511,114.00036 109.087405,114.356467 109.087405,114.831277 C109.087405,115.306086 109.443511,115.662193 109.918321,115.662193 C110.39313,115.662193 110.749237,115.306086 110.749237,114.831277 C110.749237,114.356467 110.274427,114.00036 109.918321,114.00036 Z" id="Shape" fill="#002031" fill-rule="nonzero"></path>
                    </g>
                    <g id="Group" stroke-width="1" fill="none" fill-rule="evenodd" transform="translate(126.417939, 93.062595)">
                        <g fill="#94E5FF" fill-rule="nonzero">
                            <path d="M6.64732824,19.9419847 C5.34160305,19.9419847 4.27328244,18.8736641 4.27328244,17.5679389 L4.27328244,3.44236641 L3.91717557,3.44236641 C3.5610687,3.44236641 3.32366412,3.20496183 3.32366412,2.84885496 L3.32366412,0.830916031 C3.32366412,0.47480916 3.5610687,0.23740458 3.91717557,0.23740458 L9.49618321,0.23740458 C9.85229008,0.23740458 10.0896947,0.47480916 10.0896947,0.830916031 L10.0896947,2.84885496 C10.0896947,3.20496183 9.85229008,3.44236641 9.49618321,3.44236641 L9.14007634,3.44236641 L9.14007634,17.5679389 C9.02137405,18.8736641 7.95305344,19.9419847 6.64732824,19.9419847 Z M4.51068702,2.25534351 L4.86679389,2.25534351 C5.22290076,2.25534351 5.46030534,2.49274809 5.46030534,2.84885496 L5.46030534,17.5679389 C5.46030534,18.2801527 6.05381679,18.7549618 6.64732824,18.7549618 C7.24083969,18.7549618 7.83435115,18.1614504 7.83435115,17.5679389 L7.83435115,2.84885496 C7.83435115,2.49274809 8.07175573,2.25534351 8.4278626,2.25534351 L8.78396947,2.25534351 L8.78396947,1.42442748 L4.39198473,1.42442748 L4.39198473,2.25534351 L4.51068702,2.25534351 Z" id="Shape"></path>
                            <path d="M14.3629771,19.9419847 C13.0572519,19.9419847 11.9889313,18.8736641 11.9889313,17.5679389 L11.9889313,3.44236641 L11.6328244,3.44236641 C11.2767176,3.44236641 11.039313,3.20496183 11.039313,2.84885496 L11.039313,0.830916031 C11.039313,0.47480916 11.2767176,0.23740458 11.6328244,0.23740458 L17.2118321,0.23740458 C17.5679389,0.23740458 17.8053435,0.47480916 17.8053435,0.830916031 L17.8053435,2.84885496 C17.8053435,3.20496183 17.5679389,3.44236641 17.2118321,3.44236641 L16.8557252,3.44236641 L16.8557252,17.5679389 C16.7370229,18.8736641 15.6687023,19.9419847 14.3629771,19.9419847 Z M12.2263359,2.25534351 L12.5824427,2.25534351 C12.9385496,2.25534351 13.1759542,2.49274809 13.1759542,2.84885496 L13.1759542,17.5679389 C13.1759542,18.2801527 13.7694656,18.7549618 14.3629771,18.7549618 C14.9564885,18.7549618 15.55,18.1614504 15.55,17.5679389 L15.55,2.84885496 C15.55,2.49274809 15.7874046,2.25534351 16.1435115,2.25534351 L16.4996183,2.25534351 L16.4996183,1.42442748 L12.1076336,1.42442748 L12.1076336,2.25534351 L12.2263359,2.25534351 Z" id="Shape"></path>
                            <path d="M22.078626,19.9419847 C20.7729008,19.9419847 19.7045802,18.8736641 19.7045802,17.5679389 L19.7045802,3.44236641 L19.3484733,3.44236641 C18.9923664,3.44236641 18.7549618,3.20496183 18.7549618,2.84885496 L18.7549618,0.830916031 C18.7549618,0.47480916 18.9923664,0.23740458 19.3484733,0.23740458 L24.9274809,0.23740458 C25.2835878,0.23740458 25.5209924,0.47480916 25.5209924,0.830916031 L25.5209924,2.84885496 C25.5209924,3.20496183 25.2835878,3.44236641 24.9274809,3.44236641 L24.571374,3.44236641 L24.571374,17.5679389 C24.571374,18.8736641 23.5030534,19.9419847 22.078626,19.9419847 Z M19.9419847,2.25534351 L20.2980916,2.25534351 C20.6541985,2.25534351 20.8916031,2.49274809 20.8916031,2.84885496 L20.8916031,17.5679389 C20.8916031,18.2801527 21.4851145,18.7549618 22.078626,18.7549618 C22.6721374,18.7549618 23.2656489,18.1614504 23.2656489,17.5679389 L23.2656489,2.84885496 C23.2656489,2.49274809 23.5030534,2.25534351 23.8591603,2.25534351 L24.2152672,2.25534351 L24.2152672,1.42442748 L19.8232824,1.42442748 L19.8232824,2.25534351 L19.9419847,2.25534351 Z" id="Shape"></path>
                            <path d="M28.251145,24.6900763 C27.8950382,24.6900763 27.6576336,24.4526718 27.6576336,24.0965649 L27.6576336,4.86679389 L1.66183206,4.86679389 L1.66183206,24.0965649 C1.66183206,24.4526718 1.42442748,24.6900763 1.06832061,24.6900763 C0.71221374,24.6900763 0.47480916,24.4526718 0.47480916,24.0965649 L0.47480916,4.27328244 C0.47480916,3.91717557 0.71221374,3.67977099 1.06832061,3.67977099 L28.251145,3.67977099 C28.6072519,3.67977099 28.8446565,3.91717557 28.8446565,4.27328244 L28.8446565,24.0965649 C28.8446565,24.3339695 28.6072519,24.6900763 28.251145,24.6900763 Z" id="Path"></path>
                        </g>
                        <path d="M28.251145,16.7370229 L1.06832061,16.7370229 C0.71221374,16.7370229 0.47480916,16.4996183 0.47480916,16.1435115 C0.47480916,15.7874046 0.71221374,15.55 1.06832061,15.55 L28.251145,15.55 C28.6072519,15.55 28.8446565,15.7874046 28.8446565,16.1435115 C28.8446565,16.4996183 28.6072519,16.7370229 28.251145,16.7370229 Z" id="Path" fill="#94E5FF" fill-rule="nonzero"></path>
                    </g>
                    <path d="M308.151145,30.6251908 L284.648092,30.6251908 L284.648092,7.1221374 L308.151145,7.1221374 L308.151145,30.6251908 Z M285.835115,29.4381679 L306.964122,29.4381679 L306.964122,8.30916031 L285.835115,8.30916031 L285.835115,29.4381679 Z" id="Shape" fill="#94E5FF" fill-rule="nonzero"></path>
                </g>
            </g>
        </g>
    </g>
</svg>