<svg width="12" height="13" viewBox="0 0 12 13" fill="none" xmlns="http://www.w3.org/2000/svg">
<path d="M3.97908 12.5C4.23849 12.5 4.46444 12.4079 4.64854 12.2238L9.66946 7.26151C9.90377 7.03556 10.0042 6.79289 10.0042 6.5C10.0042 6.20711 9.8954 5.96444 9.66946 5.73849L4.64854 0.776151C4.46444 0.59205 4.24686 0.5 3.97908 0.5C3.43515 0.5 3 0.926778 3 1.46234C3 1.73013 3.11715 1.9728 3.30962 2.16527L7.70293 6.5L3.30962 10.8347C3.11715 11.0272 3 11.2699 3 11.5377C3 12.0732 3.43515 12.5 3.97908 12.5Z" fill="#383836"/>
</svg>
