<?xml version="1.0" encoding="UTF-8"?>
<svg width="376px" height="242px" viewBox="0 0 376 242" version="1.1" xmlns="http://www.w3.org/2000/svg" xmlns:xlink="http://www.w3.org/1999/xlink">
    <title>holder_qrcode_maken</title>
    <g id="Symbols" stroke="none" stroke-width="1" fill="none" fill-rule="evenodd">
        <g id="holder_qrcode_maken">
            <g id="Group" opacity="0.25" fill="#FFFFFF" fill-rule="nonzero">
                <g id="Path">
                    <polygon points="0 87.0895522 0 227.014925 116.641791 0 89.7761194 0"></polygon>
                </g>
            </g>
            <path d="M340.298507,237.425373 C340.298507,241.231343 308.395522,241.567164 218.731343,241.567164 C132.425373,241.567164 54.6268657,239.328358 54.6268657,237.425373 C54.6268657,235.522388 132.425373,233.283582 218.731343,233.283582 C309.179104,233.283582 340.298507,233.955224 340.298507,237.425373 Z" id="Path" fill="#27DC71" fill-rule="nonzero"></path>
            <g id="Group" transform="translate(44.776119, 48.134328)" fill-rule="nonzero">
                <path d="M25.5223881,14.4402985 C25.6343284,14.4402985 28.6567164,12.0895522 30,11.0820896 C30.3358209,10.858209 30.7835821,10.858209 31.119403,10.9701493 L31.119403,10.9701493 C31.5671642,11.3059701 31.7910448,11.8656716 31.4552239,12.4253731 L28.880597,15.3358209 L25.5223881,14.4402985 Z" id="Path" fill="#F4C9DB"></path>
                <path d="M22.8358209,16.3432836 L27.0895522,13.2089552 C27.0895522,13.2089552 27.2014925,13.2089552 27.2014925,13.2089552 L37.7238806,15.4477612 L38.0597015,17.4626866 L30.2238806,17.5746269 L25.0746269,21.0447761 L22.8358209,16.3432836 Z" id="Path" fill="#F4C9DB"></path>
                <polygon id="Path" fill="#F4C9DB" points="46.5671642 162.313433 45.2238806 169.589552 47.1268657 175.186567 51.7164179 173.283582 55.9701493 165.895522"></polygon>
                <path d="M12.3134328,48.8059701 L2.68656716,39.6268657 C0.223880597,37.2761194 0.111940299,33.8059701 2.79850746,31.7910448 L22.7238806,16.3432836 L25.9701493,21.2686567 L12.3134328,34.5895522 L19.7014925,40.858209 L12.3134328,48.8059701 Z" id="Path" fill="#F4C9DB"></path>
                <path d="M52.2761194,39.2910448 L58.880597,30.2238806 L44.3283582,11.1940299 L52.1641791,11.0820896 L67.8358209,28.2089552 C69.5149254,30 69.6268657,32.7985075 68.1716418,34.8134328 L52.9477612,55.4104478 L52.2761194,39.2910448 Z" id="Path" fill="#F4C9DB"></path>
                <polygon id="Path" fill="#002031" points="50.9328358 73.4328358 49.141791 75.2238806 49.7014925 73.2089552"></polygon>
                <path d="M27.6492537,74.5522388 L21.9402985,74.2164179 C21.9402985,74.2164179 23.7313433,71.0820896 27.2014925,70.4104478 L27.6492537,74.5522388 Z" id="Path" fill="#002031"></path>
                <path d="M30.6716418,17.1268657 C30,17.1268657 27.9850746,18.1343284 27.3134328,18.4701493 C24.8507463,19.7014925 22.9477612,21.7164179 21.8283582,24.1791045 C20.5970149,26.9776119 21.6044776,30 20.3731343,32.9104478 C20.0373134,33.8059701 19.4776119,34.5895522 19.141791,35.4850746 C18.5820896,37.3880597 19.141791,39.9626866 20.261194,41.641791 C20.4850746,41.9776119 22.9477612,45 23.5074627,44.5522388 C23.5074627,44.5522388 31.2313433,39.738806 42.6492537,40.5223881 C46.6791045,40.858209 48.4701493,39.5149254 49.2537313,38.5074627 C49.9253731,37.7238806 49.9253731,36.7164179 49.5895522,35.8208955 C48.1343284,32.6865672 42.6492537,20.7089552 41.7537313,20.1492537 C38.3955224,19.3656716 30.7835821,17.1268657 30.6716418,17.1268657 Z" id="Path" fill="#FFFFFF"></path>
                <path d="M23.8432836,45.1119403 L28.3208955,79.2537313 L48.0223881,79.5895522 L52.6119403,62.0149254 C53.3955224,58.880597 53.0597015,55.5223881 51.6044776,52.6119403 L47.7985075,45.2238806 L23.8432836,45.1119403 Z" id="Path" fill="#F4C9DB"></path>
                <polygon id="Path" fill="#EDA7C5" points="27.2014925 70.5223881 27.5373134 72.761194 49.5895522 73.3208955 31.9029851 67.1641791"></polygon>
                <path d="M69.8507463,131.529851 L48.0223881,79.2537313 L38.0597015,79.2537313 L31.0074627,79.2537313 L28.0970149,79.2537313 L26.8656716,80.1492537 C20.7089552,84.2910448 17.238806,91.4552239 17.9104478,98.9552239 L23.2835821,163.656716 C23.3955224,165.447761 24.8507463,166.791045 26.641791,166.791045 L35.261194,166.791045 C37.1641791,166.791045 38.619403,165.223881 38.619403,163.432836 L38.1716418,109.253731 L52.6119403,135.335821 L44.5522388,159.738806 C44.1044776,161.19403 44.8880597,162.761194 46.2313433,163.208955 L55.9701493,166.679104 C57.4253731,167.238806 58.9925373,166.455224 59.5522388,165 L69.9626866,136.679104 C70.5223881,135 70.5223881,133.208955 69.8507463,131.529851 Z" id="Path" fill="#237978"></path>
                <path d="M38.619403,111.380597 C38.3955224,111.380597 38.1716418,111.156716 38.1716418,110.932836 L38.1716418,100.074627 C38.1716418,99.9626866 38.1716418,99.8507463 38.2835821,99.738806 C38.3955224,99.6268657 38.5074627,99.6268657 38.619403,99.6268657 L42.8731343,99.6268657 C43.0970149,99.6268657 43.3208955,99.8507463 43.3208955,100.074627 C43.3208955,100.298507 43.0970149,100.522388 42.8731343,100.522388 L39.0671642,100.522388 L39.0671642,110.932836 C38.9552239,111.156716 38.8432836,111.380597 38.619403,111.380597 C38.619403,111.380597 38.619403,111.380597 38.619403,111.380597 Z" id="Path" fill="#002031"></path>
                <polygon id="Path" fill="#F4C9DB" points="27.8731343 28.6567164 29.7761194 40.4104478 38.8432836 40.4104478 35.0373134 32.1268657"></polygon>
                <polygon id="Path" fill="#EDA7C5" points="37.5 37.6119403 36.6044776 35.4850746 31.9029851 34.8134328"></polygon>
                <path d="M25.2985075,26.5298507 C25.5223881,31.6791045 31.119403,34.7014925 31.119403,34.7014925 C31.119403,34.7014925 38.1716418,36.4925373 41.5298507,34.2537313 C45.8955224,31.2313433 41.7537313,21.9402985 40.5223881,19.5895522 C39.5149254,17.7985075 36.380597,17.238806 34.141791,17.238806 C28.9925373,17.3507463 25.0746269,21.4925373 25.2985075,26.5298507 Z" id="Path" fill="#F4C9DB"></path>
                <path d="M37.9477612,32.4626866 C37.1641791,32.4626866 36.4925373,32.1268657 35.9328358,31.5671642 C35.8208955,31.4552239 35.8208955,31.2313433 35.9328358,31.119403 C36.0447761,31.0074627 36.2686567,31.0074627 36.380597,31.119403 C37.1641791,32.0149254 38.3955224,32.1268657 39.8507463,31.2313433 C39.9626866,31.119403 40.1865672,31.2313433 40.1865672,31.3432836 C40.2985075,31.4552239 40.1865672,31.6791045 40.0746269,31.6791045 C39.2910448,32.238806 38.619403,32.4626866 37.9477612,32.4626866 Z" id="Path" fill="#002031"></path>
                <path d="M38.8432836,29.8880597 C38.7313433,29.8880597 38.619403,29.8880597 38.619403,29.7761194 C38.5074627,29.6641791 38.619403,29.4402985 38.7313433,29.4402985 C38.8432836,29.3283582 39.2910448,29.1044776 39.2910448,28.7686567 C39.2910448,28.5447761 38.619403,27.8731343 38.2835821,27.4253731 C37.9477612,27.0895522 37.6119403,26.7537313 37.5,26.5298507 C37.3880597,26.4179104 37.5,26.1940299 37.6119403,26.1940299 C37.7238806,26.0820896 37.9477612,26.1940299 37.9477612,26.3059701 C38.0597015,26.5298507 38.3955224,26.8656716 38.7313433,27.2014925 C39.5149254,27.9850746 39.9626866,28.5447761 39.9626866,28.9925373 C39.8507463,29.6641791 39.1791045,30 39.0671642,30.1119403 C38.9552239,29.8880597 38.8432836,29.8880597 38.8432836,29.8880597 Z" id="Path" fill="#002031"></path>
                <path d="M55.5223881,51.9402985 L55.5223881,34.8134328 L48.2462687,43.4328358 C47.238806,43.9925373 46.3432836,43.7686567 45.3358209,43.7686567 L40.2985075,43.6567164 L38.8432836,40.5223881 L29.7761194,40.5223881 L30.2238806,43.9925373 L26.0820896,43.9925373 C25.0746269,43.9925373 24.0671642,43.6567164 23.1716418,43.0970149 L19.5895522,40.858209 L12.3134328,48.8059701 L21.6044776,58.0970149 L21.8283582,74.2164179 C21.8283582,74.2164179 27.761194,67.7238806 34.4776119,69.9626866 C41.1940299,72.2014925 50.7089552,73.5447761 50.7089552,73.5447761 L53.3955224,62.9104478 C53.9552239,61.4552239 53.7313433,59.2164179 52.7238806,55.5223881 L55.5223881,51.9402985 Z" id="Path" fill="#FE6F43"></path>
                <path d="M34.141791,27.6492537 C33.8059701,27.6492537 33.4701493,27.5373134 33.2462687,27.4253731 C33.1343284,27.3134328 33.0223881,27.2014925 33.1343284,27.0895522 C33.2462687,26.9776119 33.358209,26.8656716 33.4701493,26.9776119 C33.5820896,26.9776119 34.7014925,27.5373134 35.261194,26.4179104 C35.3731343,26.3059701 35.4850746,26.1940299 35.5970149,26.3059701 C35.7089552,26.4179104 35.8208955,26.5298507 35.7089552,26.641791 C35.3731343,27.3134328 34.7014925,27.6492537 34.141791,27.6492537 Z" id="Path" fill="#002031"></path>
                <path d="M40.1865672,25.7462687 C39.8507463,25.7462687 39.5149254,25.6343284 39.2910448,25.5223881 C39.1791045,25.4104478 39.0671642,25.2985075 39.1791045,25.1865672 C39.2910448,25.0746269 39.4029851,24.9626866 39.5149254,25.0746269 C39.6268657,25.1865672 40.7462687,25.6343284 41.3059701,24.5149254 C41.4179104,24.4029851 41.5298507,24.2910448 41.641791,24.4029851 C41.7537313,24.5149254 41.8656716,24.6268657 41.7537313,24.738806 C41.4179104,25.5223881 40.7462687,25.7462687 40.1865672,25.7462687 Z" id="Path" fill="#002031"></path>
                <path d="M25.7462687,29.1044776 C25.7462687,29.1044776 27.5373134,28.4328358 28.4328358,30 C28.4328358,30 30.8955224,26.0820896 28.7686567,23.0597015 L30.5597015,24.738806 L43.2089552,22.9477612 C43.2089552,22.9477612 41.5298507,15.6716418 34.3656716,16.4552239 C33.6940299,16.5671642 32.4626866,16.6791045 31.9029851,16.7910448 C26.9776119,17.6865672 23.5074627,22.2761194 24.9626866,27.8731343 C25.0746269,28.4328358 25.2985075,28.9925373 25.7462687,29.1044776 Z" id="Path" fill="#FFFFFF"></path>
                <circle id="Oval" fill="#F4C9DB" cx="27.2014925" cy="30.6716418" r="2.57462687"></circle>
                <rect id="Rectangle" fill="#104A4A" x="26.1940299" y="166.567164" width="10.0746269" height="1.90298507"></rect>
                <rect id="Rectangle" fill="#104A4A" transform="translate(50.589879, 165.736019) rotate(19.505824) translate(-50.589879, -165.736019) " x="45.5526057" y="164.784534" width="10.0745461" height="1.90296982"></rect>
                <path d="M48.1343284,79.7014925 L28.3208955,79.7014925 C28.0970149,79.7014925 27.8731343,79.4776119 27.8731343,79.2537313 C27.8731343,79.0298507 28.0970149,78.8059701 28.3208955,78.8059701 L48.1343284,78.8059701 C48.358209,78.8059701 48.5820896,79.0298507 48.5820896,79.2537313 C48.5820896,79.4776119 48.358209,79.7014925 48.1343284,79.7014925 Z" id="Path" fill="#002031"></path>
                <g transform="translate(39.179104, 167.910448)" id="Path">
                    <path d="M12.8731343,4.92537313 C11.1940299,5.26119403 10.1865672,7.94776119 7.5,6.15671642 C6.26865672,5.26119403 5.82089552,3.58208955 6.04477612,2.46268657 C6.15671642,1.90298507 4.70149254,1.11940299 4.25373134,1.45522388 L1.34328358,4.81343284 C0.111940299,6.26865672 0.223880597,8.39552239 1.56716418,9.62686567 C3.69402985,11.641791 6.82835821,14.5522388 8.84328358,15.8955224 C14.4402985,19.8134328 20.5970149,21.8283582 21.9402985,20.261194 L23.3955224,18.4701493 L22.6119403,18.2462687 C22.5,17.7985075 22.2761194,17.238806 21.7164179,16.7910448 L18.6940299,13.6567164 L15,6.60447761 C14.6641791,5.93283582 13.6567164,4.81343284 12.8731343,4.92537313 Z" fill="#FFFFFF"></path>
                    <path d="M16.0074627,5.26119403 L19.7014925,12.3134328 L22.7238806,15.4477612 C24.0671642,16.6791045 23.7313433,18.0223881 22.9477612,18.9179104 C21.6044776,20.4850746 15.4477612,18.4701493 9.85074627,14.5522388 C7.8358209,13.2089552 4.70149254,10.2985075 2.57462687,8.28358209 C1.23134328,7.05223881 1.11940299,4.81343284 2.35074627,3.47014925 L5.26119403,0.111940299 C5.70895522,-0.223880597 6.94029851,0.447761194 6.82835821,1.00746269 C6.60447761,2.12686567 7.1641791,4.02985075 8.39552239,4.92537313 C11.0820896,6.71641791 12.0895522,4.02985075 13.7686567,3.69402985 C14.6641791,3.58208955 15.6716418,4.70149254 16.0074627,5.26119403 Z" fill="#FE6F43"></path>
                    <path d="M4.36567164,9.96268657 C6.15671642,6.82835821 4.70149254,3.80597015 3.13432836,2.57462687 L2.35074627,3.47014925 C1.11940299,4.92537313 1.23134328,7.05223881 2.57462687,8.28358209 C3.13432836,8.84328358 3.80597015,9.40298507 4.36567164,9.96268657 Z" fill="#FE9C7E"></path>
                </g>
                <polygon id="Path" fill="#F4C9DB" points="35.261194 168.470149 35.1492537 181.902985 27.5373134 181.791045 26.641791 168.470149"></polygon>
                <g transform="translate(15.671642, 175.746269)">
                    <path d="M8.50746269,1.23134328 L4.70149254,5.82089552 L2.35074627,7.7238806 C0.335820896,8.73134328 0.335820896,10.5223881 0.335820896,10.5223881 L20.7089552,10.5223881 L20.3731343,4.58955224 C20.3731343,3.91791045 19.7014925,3.35820896 19.0298507,3.35820896 C17.9104478,3.35820896 16.2313433,3.47014925 14.8880597,3.47014925 C14.8880597,3.47014925 14.4402985,2.35074627 13.0970149,1.11940299 C12.6492537,0.671641791 9.40298507,0 8.50746269,1.23134328 Z" id="Path" fill="#FE6F43"></path>
                    <path d="M20.7089552,10.5223881 L20.5970149,6.82835821 C20.5970149,6.82835821 17.4626866,7.3880597 17.5746269,10.5223881 L20.7089552,10.5223881 Z" id="Path" fill="#FE9C7E"></path>
                    <polygon id="Path" fill="#FFFFFF" points="21.0447761 13.3208955 0.223880597 13.3208955 0.223880597 10.5223881 20.8208955 10.5223881"></polygon>
                    <polygon id="Path" fill="#002031" points="4.36567164 5.82089552 4.36567164 5.03731343 7.5 4.92537313 7.5 5.82089552"></polygon>
                    <rect id="Rectangle" fill="#002031" transform="translate(7.719368, 3.742199) rotate(-2.093499) translate(-7.719368, -3.742199) " x="5.92838137" y="3.35042058" width="3.58197289" height="1"></rect>
                </g>
                <rect id="Rectangle" fill="#002031" transform="translate(55.105041, 176.338187) rotate(-24.891591) translate(-55.105041, -176.338187) " x="53.4819171" y="175.946398" width="3.24624791" height="1"></rect>
                <rect id="Rectangle" fill="#002031" transform="translate(56.778795, 178.936299) rotate(-24.891591) translate(-56.778795, -178.936299) " x="55.4914896" y="178.54451" width="2.57461041" height="1"></rect>
                <path d="M44.3283582,11.1940299 L41.4179104,7.94776119 C41.1940299,7.6119403 41.1940299,7.1641791 41.4179104,6.82835821 L41.4179104,6.82835821 C41.641791,6.49253731 41.9776119,6.49253731 42.3134328,6.60447761 L44.5522388,7.7238806 L43.6567164,2.79850746 C43.5447761,2.23880597 43.880597,1.56716418 44.4402985,1.56716418 L44.4402985,1.56716418 C44.8880597,1.45522388 45.3358209,1.79104478 45.4477612,2.35074627 L47.0149254,7.3880597 L46.5671642,1.90298507 C46.5671642,1.34328358 46.9029851,0.78358209 47.4626866,0.671641791 L47.4626866,0.671641791 C48.0223881,0.559701493 48.4701493,1.00746269 48.5820896,1.67910448 L49.3656716,7.1641791 L49.9253731,2.57462687 C50.0373134,1.79104478 50.8208955,1.34328358 51.4925373,1.79104478 L51.4925373,1.79104478 C51.8283582,2.01492537 52.0522388,2.46268657 52.0522388,2.91044776 L51.8283582,7.6119403 L52.6119403,5.82089552 C52.8358209,5.14925373 53.7313433,5.14925373 53.9552239,5.82089552 L53.9552239,5.82089552 C54.0671642,6.04477612 54.0671642,6.26865672 53.9552239,6.49253731 L51.8283582,14.8880597 L44.3283582,11.1940299 Z" id="Path" fill="#F4C9DB"></path>
                <path d="M11.641791,36.380597 C11.641791,36.380597 11.5298507,36.380597 11.5298507,36.380597 C11.4179104,36.2686567 11.3059701,36.1567164 11.4179104,36.0447761 L11.8656716,35.1492537 L10.9701493,35.1492537 C10.858209,35.1492537 10.7462687,35.0373134 10.7462687,34.9253731 C10.7462687,34.8134328 10.858209,34.7014925 10.9701493,34.7014925 L12.8731343,34.7014925 L11.9776119,36.4925373 C11.7537313,36.380597 11.641791,36.380597 11.641791,36.380597 Z" id="Path" fill="#002031"></path>
                <path d="M48.4701493,12.4253731 C48.358209,12.4253731 48.358209,12.4253731 48.4701493,12.4253731 C48.1343284,12.4253731 48.1343284,12.2014925 48.1343284,12.0895522 C48.4701493,11.4179104 48.4701493,10.858209 48.1343284,10.4104478 C47.6865672,9.62686567 46.3432836,9.62686567 46.2313433,9.62686567 C46.119403,9.62686567 46.0074627,9.51492537 46.0074627,9.29104478 C46.0074627,9.17910448 46.119403,8.95522388 46.3432836,9.06716418 C46.4552239,9.06716418 48.0223881,9.17910448 48.6940299,10.1865672 C49.0298507,10.7462687 49.0298507,11.5298507 48.6940299,12.4253731 C48.5820896,12.4253731 48.4701493,12.4253731 48.4701493,12.4253731 Z" id="Path" fill="#002031"></path>
                <path d="M60.2238806,31.6791045 C60.2238806,31.6791045 60.1119403,31.6791045 60.1119403,31.6791045 L58.6567164,30.7835821 C58.5447761,30.6716418 58.5447761,30.5597015 58.5447761,30.4477612 C58.5447761,30.3358209 58.6567164,30.2238806 58.7686567,30.2238806 L60.4477612,29.8880597 C60.5597015,29.8880597 60.7835821,30 60.7835821,30.1119403 C60.7835821,30.2238806 60.6716418,30.4477612 60.5597015,30.4477612 L59.5522388,30.6716418 L60.4477612,31.2313433 C60.5597015,31.3432836 60.6716418,31.4552239 60.5597015,31.5671642 C60.4477612,31.6791045 60.3358209,31.6791045 60.2238806,31.6791045 Z" id="Path" fill="#002031"></path>
                <path d="M54.4029851,137.014925 C54.2910448,137.014925 54.2910448,137.014925 54.1791045,137.014925 L52.3880597,136.119403 C52.2761194,136.007463 52.1641791,135.895522 52.1641791,135.783582 C52.1641791,135.671642 52.2761194,135.447761 52.3880597,135.447761 L54.1791045,134.440299 C54.4029851,134.328358 54.6268657,134.440299 54.738806,134.552239 C54.8507463,134.776119 54.738806,135 54.6268657,135.11194 L53.5074627,135.671642 L54.6268657,136.231343 C54.8507463,136.343284 54.9626866,136.567164 54.8507463,136.791045 C54.6268657,136.902985 54.5149254,137.014925 54.4029851,137.014925 Z" id="Path" fill="#002031"></path>
            </g>
            <g id="Group" transform="translate(118.971089, 23.171642)" fill-rule="nonzero">
                <path d="M117.782642,213.69403 L25.9915972,213.69403 C19.2751793,213.69403 16.2527912,210.223881 15.6930897,204.067164 L0.91697034,8.84328358 C0.581149445,3.47014925 3.49159721,0 9.42443303,0 L101.663239,0 C107.036373,0 111.625926,4.36567164 111.961746,9.62686567 L126.737866,204.067164 C127.073687,209.328358 123.155776,213.69403 117.782642,213.69403 Z" id="Path" fill="#134BB9"></path>
                <path d="M121.252791,213.69403 L35.1707017,213.69403 C29.2378659,213.69403 24.424433,209.104478 23.9766718,203.283582 L9.20055243,9.06716418 C8.86473153,4.14179104 12.6707017,0 17.5960748,0 L105.133388,0 C110.506523,0 115.096075,4.36567164 115.431896,9.62686567 L115.991597,16.9029851 L118.790105,108.246269 L129.200552,189.738806 L130.208015,204.067164 C130.543836,209.328358 126.625926,213.69403 121.252791,213.69403 Z" id="Path" fill="#1BC1D7"></path>
                <polygon id="Path" fill="#FFFFFF" points="129.200552 189.962687 22.8572688 189.962687 9.76025392 17.238806 115.991597 17.238806"></polygon>
                <path d="M76.1408509,209.104478 C72.3348808,209.104478 68.9766718,205.970149 68.6408509,202.164179 C68.5289106,200.261194 69.0886121,198.58209 70.3199554,197.238806 C71.5512987,195.895522 73.2304032,195.223881 75.1333883,195.223881 C78.9393584,195.223881 82.2975674,198.358209 82.6333883,202.164179 C82.7453285,204.067164 82.1856271,205.746269 80.9542838,207.089552 C79.7229405,208.432836 77.9318957,209.104478 76.1408509,209.104478 Z M75.1333883,196.007463 C73.4542838,196.007463 71.9990599,196.679104 70.9915972,197.798507 C69.8721942,198.91791 69.424433,200.485075 69.5363733,202.164179 C69.7602539,205.522388 72.782642,208.320896 76.1408509,208.320896 C77.8199554,208.320896 79.2751793,207.649254 80.282642,206.529851 C81.402045,205.410448 81.8498062,203.843284 81.7378659,202.164179 L81.7378659,202.164179 C81.5139853,198.80597 78.4915972,196.007463 75.1333883,196.007463 Z" id="Shape" fill="#FFFFFF"></path>
                <path d="M110.730403,133.320896 L33.3796569,133.320896 C30.9169703,133.320896 28.902045,131.30597 28.6781644,128.955224 L23.1930897,54.0671642 C22.9692091,50.5970149 25.6557763,47.5746269 29.2378659,47.5746269 L103.118463,47.5746269 C106.364732,47.5746269 108.939358,50.0373134 109.163239,53.2835821 L114.760254,129.067164 C114.984135,131.41791 113.081149,133.320896 110.730403,133.320896 Z" id="Path" fill="#FFFFFF"></path>
                <path d="M100.319955,152.238806 L46.8124927,152.238806 C45.2453285,152.238806 44.0139853,151.007463 43.902045,149.440299 L43.902045,149.440299 C43.7901047,147.873134 44.9095077,146.641791 46.4766718,146.641791 L99.9841345,146.641791 C101.551299,146.641791 102.782642,147.873134 102.894582,149.440299 L102.894582,149.440299 C103.006523,151.007463 101.88712,152.238806 100.319955,152.238806 Z" id="Path" fill="#DCEEFD"></path>
                <path d="M77.9318957,162.873134 L47.5960748,162.873134 C46.0289106,162.873134 44.7975674,161.641791 44.6856271,160.074627 L44.6856271,160.074627 C44.5736868,158.507463 45.6930897,157.276119 47.2602539,157.276119 L77.5960748,157.276119 C79.163239,157.276119 80.3945823,158.507463 80.5065226,160.074627 L80.5065226,160.074627 C80.6184629,161.641791 79.4990599,162.873134 77.9318957,162.873134 Z" id="Path" fill="#DCEEFD"></path>
                <path d="M101.103538,162.873134 L89.0139853,162.873134 C87.4468211,162.873134 86.2154778,161.641791 86.1035375,160.074627 L86.1035375,160.074627 C85.9915972,158.507463 87.1110002,157.276119 88.6781644,157.276119 L100.767717,157.276119 C102.334881,157.276119 103.566224,158.507463 103.678164,160.074627 L103.678164,160.074627 C103.790105,161.641791 102.670702,162.873134 101.103538,162.873134 Z" id="Path" fill="#DCEEFD"></path>
                <path d="M4.94682109,41.5298507 L4.0512987,41.5298507 C2.26025392,41.5298507 0.693089743,40.0746269 0.581149445,38.2835821 L0.0214479523,31.119403 C-0.0904923462,30.2238806 0.245328549,29.4402985 0.805030042,28.7686567 C1.36473153,28.0970149 2.14831362,27.761194 3.04383601,27.761194 L3.9393584,27.761194 C5.73040318,27.761194 7.29756736,29.2164179 7.40950765,31.0074627 L7.96920915,38.1716418 C8.08114944,39.0671642 7.74532855,39.8507463 7.18562706,40.5223881 C6.62592556,41.1940299 5.84234347,41.5298507 4.94682109,41.5298507 Z M3.04383601,28.7686567 C2.37219422,28.7686567 1.81249273,28.9925373 1.36473153,29.4402985 C0.91697034,29.8880597 0.693089743,30.4477612 0.805030042,31.119403 L1.36473153,38.2835821 C1.47667183,39.6268657 2.59607482,40.7462687 3.9393584,40.7462687 L4.83488079,40.7462687 C5.50652258,40.7462687 6.06622407,40.5223881 6.51398527,40.0746269 C6.96174646,39.6268657 7.18562706,39.0671642 7.07368676,38.3955224 L6.51398527,31.2313433 C6.40204497,29.8880597 5.28264198,28.7686567 3.9393584,28.7686567 L3.04383601,28.7686567 Z" id="Shape" fill="#002031"></path>
                <path d="M6.06622407,57.2014925 L5.17070168,57.2014925 C3.37965691,57.2014925 1.81249273,55.7462687 1.70055243,53.9552239 L1.14085094,46.7910448 C1.02891064,45.8955224 1.36473153,45.1119403 1.92443303,44.4402985 C2.48413452,43.7686567 3.26771661,43.4328358 4.163239,43.4328358 L5.05876139,43.4328358 C6.84980616,43.4328358 8.41697034,44.8880597 8.52891064,46.6791045 L9.08861213,53.8432836 C9.20055243,54.738806 8.86473153,55.5223881 8.30503004,56.1940299 C7.74532855,56.8656716 6.96174646,57.2014925 6.06622407,57.2014925 Z M4.163239,44.3283582 C3.49159721,44.3283582 2.93189571,44.5522388 2.48413452,45 C2.03637333,45.4477612 1.81249273,46.0074627 1.92443303,46.6791045 L2.48413452,53.8432836 C2.59607482,55.1865672 3.7154778,56.3059701 5.05876139,56.3059701 L5.95428377,56.3059701 C6.62592556,56.3059701 7.18562706,56.0820896 7.63338825,55.6343284 C8.08114944,55.1865672 8.30503004,54.6268657 8.19308974,53.9552239 L7.63338825,46.7910448 C7.52144795,45.4477612 6.40204497,44.3283582 5.05876139,44.3283582 L4.163239,44.3283582 L4.163239,44.3283582 Z" id="Shape" fill="#002031"></path>
                <path d="M66.5139853,11.1940299 L53.0811494,11.1940299 C51.6259256,11.1940299 50.5065226,10.1865672 50.282642,8.73134328 C50.1707017,7.94776119 50.3945823,7.1641791 50.9542838,6.60447761 C51.5139853,6.04477612 52.1856271,5.70895522 52.9692091,5.70895522 L66.402045,5.70895522 C67.8572688,5.70895522 68.9766718,6.71641791 69.2005524,8.17164179 C69.3124927,8.95522388 69.0886121,9.73880597 68.5289106,10.2985075 C68.0811494,10.858209 67.2975674,11.1940299 66.5139853,11.1940299 Z M53.0811494,6.49253731 C52.521448,6.49253731 52.0736868,6.71641791 51.6259256,7.1641791 C51.2901047,7.6119403 51.0662241,8.05970149 51.1781644,8.61940299 C51.2901047,9.62686567 52.0736868,10.2985075 53.0811494,10.2985075 L66.5139853,10.2985075 C67.0736868,10.2985075 67.521448,10.0746269 67.9692091,9.62686567 C68.30503,9.17910448 68.5289106,8.73134328 68.4169703,8.17164179 C68.30503,7.1641791 67.521448,6.49253731 66.5139853,6.49253731 L53.0811494,6.49253731 Z" id="Shape" fill="#FFFFFF"></path>
            </g>
            <g id="Group" transform="translate(239.552239, 55.970149)" fill-rule="nonzero">
                <path d="M10.858209,14.1044776 L10.858209,14.1044776 L20.9328358,41.3059701 C21.9402985,44.1044776 24.6268657,45.8955224 27.6492537,45.7835821 L43.3208955,47.238806 L42.5373134,34.3656716 L28.880597,34.2537313 L18.0223881,13.4328358 L10.858209,14.1044776" id="Path" fill="#DD933C"></path>
                <path d="M96.380597,53.8432836 L89.3283582,40.5223881 C87.3134328,36.8283582 83.5074627,34.4776119 79.2537313,34.3656716 C78.6940299,34.3656716 78.358209,34.3656716 78.358209,34.3656716 L59.8880597,34.2537313 L42.6492537,34.3656716 L42.8731343,47.238806 L51.9402985,48.2462687 L44.1044776,77.1268657 L84.8507463,77.1268657 L84.6268657,53.619403 L96.380597,53.8432836 Z" id="Path" fill="#FFCC00"></path>
                <path d="M65.7089552,61.4552239 C65.1492537,61.4552239 64.7014925,61.9029851 64.7014925,62.4626866 C64.7014925,63.0223881 65.1492537,63.4701493 65.7089552,63.4701493 C66.2686567,63.4701493 66.7164179,63.0223881 66.7164179,62.4626866 C66.7164179,61.9029851 66.2686567,61.4552239 65.7089552,61.4552239 Z M61.7910448,55.6343284 C61.2313433,55.6343284 60.7835821,56.0820896 60.7835821,56.641791 C60.7835821,57.2014925 61.2313433,57.6492537 61.7910448,57.6492537 C62.3507463,57.6492537 62.7985075,57.2014925 62.7985075,56.641791 C62.7985075,56.0820896 62.3507463,55.6343284 61.7910448,55.6343284 Z M64.3656716,39.9626866 C64.9253731,39.9626866 65.3731343,39.5149254 65.3731343,38.9552239 C65.3731343,38.3955224 64.9253731,37.9477612 64.3656716,37.9477612 C63.8059701,37.9477612 63.358209,38.3955224 63.358209,38.9552239 C63.358209,39.5149254 63.8059701,39.9626866 64.3656716,39.9626866 Z M65.4850746,51.6044776 C65.4850746,51.0447761 65.0373134,50.5970149 64.4776119,50.5970149 C63.9179104,50.5970149 63.4701493,51.0447761 63.4701493,51.6044776 C63.4701493,52.1641791 63.9179104,52.6119403 64.4776119,52.6119403 C65.0373134,52.6119403 65.4850746,52.1641791 65.4850746,51.6044776 Z M53.1716418,45.2238806 C53.7313433,45.2238806 54.1791045,44.7761194 54.1791045,44.2164179 C54.1791045,43.6567164 53.7313433,43.2089552 53.1716418,43.2089552 C52.6119403,43.2089552 52.1641791,43.6567164 52.1641791,44.2164179 C52.1641791,44.7761194 52.6119403,45.2238806 53.1716418,45.2238806 Z M53.3955224,68.8432836 C52.8358209,68.8432836 52.3880597,69.2910448 52.3880597,69.8507463 C52.3880597,70.4104478 52.8358209,70.858209 53.3955224,70.858209 C53.9552239,70.858209 54.4029851,70.4104478 54.4029851,69.8507463 C54.4029851,69.2910448 53.9552239,68.8432836 53.3955224,68.8432836 Z M70.5223881,42.5373134 C69.9626866,42.5373134 69.5149254,42.9850746 69.5149254,43.5447761 C69.5149254,44.1044776 69.9626866,44.5522388 70.5223881,44.5522388 C71.0820896,44.5522388 71.5298507,44.1044776 71.5298507,43.5447761 C71.5298507,42.9850746 71.0820896,42.5373134 70.5223881,42.5373134 Z M61.5671642,69.738806 C61.0074627,69.738806 60.5597015,70.1865672 60.5597015,70.7462687 C60.5597015,71.3059701 61.0074627,71.7537313 61.5671642,71.7537313 C62.1268657,71.7537313 62.5746269,71.3059701 62.5746269,70.7462687 C62.4626866,70.1865672 62.0149254,69.738806 61.5671642,69.738806 Z M61.6791045,44.6641791 C61.6791045,44.1044776 61.2313433,43.6567164 60.6716418,43.6567164 C60.1119403,43.6567164 59.6641791,44.1044776 59.6641791,44.6641791 C59.6641791,45.2238806 60.1119403,45.6716418 60.6716418,45.6716418 C61.2313433,45.6716418 61.6791045,45.2238806 61.6791045,44.6641791 Z M53.9552239,56.8656716 C53.3955224,56.8656716 52.9477612,57.3134328 52.9477612,57.8731343 C52.9477612,58.4328358 53.3955224,58.880597 53.9552239,58.880597 C54.5149254,58.880597 54.9626866,58.4328358 54.9626866,57.8731343 C54.9626866,57.3134328 54.5149254,56.8656716 53.9552239,56.8656716 Z M77.238806,69.6268657 C76.6791045,69.6268657 76.2313433,70.0746269 76.2313433,70.6343284 C76.2313433,71.1940299 76.6791045,71.641791 77.238806,71.641791 C77.7985075,71.641791 78.2462687,71.1940299 78.2462687,70.6343284 C78.2462687,70.0746269 77.7985075,69.6268657 77.238806,69.6268657 Z M77.4626866,56.0820896 C76.9029851,56.0820896 76.4552239,56.5298507 76.4552239,57.0895522 C76.4552239,57.6492537 76.9029851,58.0970149 77.4626866,58.0970149 C78.0223881,58.0970149 78.4701493,57.6492537 78.4701493,57.0895522 C78.4701493,56.5298507 78.0223881,56.0820896 77.4626866,56.0820896 Z M72.5373134,75 C71.9776119,75 71.5298507,75.4477612 71.5298507,76.0074627 C71.5298507,76.5671642 71.9776119,77.0149254 72.5373134,77.0149254 C73.0970149,77.0149254 73.5447761,76.5671642 73.5447761,76.0074627 C73.5447761,75.4477612 73.0970149,75 72.5373134,75 Z M68.619403,68.0597015 C68.0597015,68.0597015 67.6119403,68.5074627 67.6119403,69.0671642 C67.6119403,69.6268657 68.0597015,70.0746269 68.619403,70.0746269 C69.1791045,70.0746269 69.6268657,69.6268657 69.6268657,69.0671642 C69.6268657,68.5074627 69.1791045,68.0597015 68.619403,68.0597015 Z M94.0298507,52.6119403 C93.4701493,52.6119403 93.0223881,53.0597015 93.0223881,53.619403 C93.0223881,53.619403 93.0223881,53.7313433 93.0223881,53.7313433 L94.9253731,53.7313433 C94.9253731,53.619403 94.9253731,53.619403 94.9253731,53.5074627 C95.0373134,53.0597015 94.5895522,52.6119403 94.0298507,52.6119403 Z M78.2462687,43.7686567 C77.6865672,43.7686567 77.238806,44.2164179 77.238806,44.7761194 C77.238806,45.3358209 77.6865672,45.7835821 78.2462687,45.7835821 C78.8059701,45.7835821 79.2537313,45.3358209 79.2537313,44.7761194 C79.2537313,44.2164179 78.8059701,43.7686567 78.2462687,43.7686567 Z M73.4328358,38.5074627 C73.9925373,38.5074627 74.4402985,38.0597015 74.4402985,37.5 C74.4402985,36.9402985 73.9925373,36.4925373 73.4328358,36.4925373 C72.8731343,36.4925373 72.4253731,36.9402985 72.4253731,37.5 C72.4253731,38.0597015 72.8731343,38.5074627 73.4328358,38.5074627 Z M68.7313433,55.7462687 C68.1716418,55.7462687 67.7238806,56.1940299 67.7238806,56.7537313 C67.7238806,57.3134328 68.1716418,57.761194 68.7313433,57.761194 C69.2910448,57.761194 69.738806,57.3134328 69.738806,56.7537313 C69.738806,56.1940299 69.2910448,55.7462687 68.7313433,55.7462687 Z M74.3283582,48.358209 C73.7686567,48.358209 73.3208955,48.8059701 73.3208955,49.3656716 C73.3208955,49.9253731 73.7686567,50.3731343 74.3283582,50.3731343 C74.8880597,50.3731343 75.3358209,49.9253731 75.3358209,49.3656716 C75.3358209,48.8059701 74.8880597,48.358209 74.3283582,48.358209 Z M73.880597,62.9104478 C73.3208955,62.9104478 72.8731343,63.358209 72.8731343,63.9179104 C72.8731343,64.4776119 73.3208955,64.9253731 73.880597,64.9253731 C74.4402985,64.9253731 74.8880597,64.4776119 74.8880597,63.9179104 C74.8880597,63.358209 74.3283582,62.9104478 73.880597,62.9104478 Z M56.4179104,38.8432836 C56.9776119,38.8432836 57.4253731,38.3955224 57.4253731,37.8358209 C57.4253731,37.2761194 56.9776119,36.8283582 56.4179104,36.8283582 C55.858209,36.8283582 55.4104478,37.2761194 55.4104478,37.8358209 C55.4104478,38.3955224 55.858209,38.8432836 56.4179104,38.8432836 Z M80.8208955,51.6044776 C81.380597,51.6044776 81.8283582,51.1567164 81.8283582,50.5970149 C81.8283582,50.0373134 81.380597,49.5895522 80.8208955,49.5895522 C80.261194,49.5895522 79.8134328,50.0373134 79.8134328,50.5970149 C79.8134328,51.1567164 80.261194,51.6044776 80.8208955,51.6044776 Z M81.6044776,61.7910448 C81.0447761,61.7910448 80.5970149,62.238806 80.5970149,62.7985075 C80.5970149,63.358209 81.0447761,63.8059701 81.6044776,63.8059701 C82.1641791,63.8059701 82.6119403,63.358209 82.6119403,62.7985075 C82.6119403,62.238806 82.1641791,61.7910448 81.6044776,61.7910448 Z M84.1791045,68.7313433 C84.1791045,69.1791045 84.4029851,69.5149254 84.8507463,69.6268657 L84.8507463,67.8358209 C84.4029851,68.0597015 84.1791045,68.3955224 84.1791045,68.7313433 Z M56.9776119,64.5895522 C56.9776119,64.0298507 56.5298507,63.5820896 55.9701493,63.5820896 C55.4104478,63.5820896 54.9626866,64.0298507 54.9626866,64.5895522 C54.9626866,65.1492537 55.4104478,65.5970149 55.9701493,65.5970149 C56.5298507,65.5970149 56.9776119,65.1492537 56.9776119,64.5895522 Z M65.261194,75.1119403 C64.7014925,75.1119403 64.2537313,75.5597015 64.2537313,76.119403 C64.2537313,76.5671642 64.5895522,77.0149254 65.0373134,77.1268657 L65.3731343,77.1268657 C65.8208955,77.0149254 66.1567164,76.6791045 66.1567164,76.119403 C66.2686567,75.5597015 65.8208955,75.1119403 65.261194,75.1119403 Z M85.7462687,43.7686567 C85.1865672,43.7686567 84.738806,44.2164179 84.738806,44.7761194 C84.738806,45.3358209 85.1865672,45.7835821 85.7462687,45.7835821 C86.3059701,45.7835821 86.7537313,45.3358209 86.7537313,44.7761194 C86.7537313,44.2164179 86.3059701,43.7686567 85.7462687,43.7686567 Z M90.2238806,48.9179104 C89.6641791,48.9179104 89.2164179,49.3656716 89.2164179,49.9253731 C89.2164179,50.4850746 89.6641791,50.9328358 90.2238806,50.9328358 C90.7835821,50.9328358 91.2313433,50.4850746 91.2313433,49.9253731 C91.2313433,49.3656716 90.7835821,48.9179104 90.2238806,48.9179104 Z M90.5597015,44.2164179 C90.7835821,44.2164179 90.8955224,44.1044776 91.119403,43.9925373 L90.2238806,42.3134328 C89.8880597,42.4253731 89.5522388,42.761194 89.5522388,43.2089552 C89.6641791,43.7686567 90.1119403,44.2164179 90.5597015,44.2164179 Z M80.7089552,35.261194 C81.1567164,35.261194 81.4925373,35.0373134 81.6044776,34.7014925 C81.0447761,34.5895522 80.3731343,34.4776119 79.7014925,34.4776119 C79.8134328,34.9253731 80.1492537,35.261194 80.7089552,35.261194 Z M81.8283582,36.8283582 C81.2686567,36.8283582 80.8208955,37.2761194 80.8208955,37.8358209 C80.8208955,38.3955224 81.2686567,38.8432836 81.8283582,38.8432836 C82.3880597,38.8432836 82.8358209,38.3955224 82.8358209,37.8358209 C82.7238806,37.2761194 82.2761194,36.8283582 81.8283582,36.8283582 Z M80.8208955,75.4477612 C80.261194,75.4477612 79.8134328,75.8955224 79.8134328,76.4552239 C79.8134328,76.6791045 79.9253731,76.9029851 80.0373134,77.1268657 L81.4925373,77.1268657 C81.6044776,76.9029851 81.7164179,76.6791045 81.7164179,76.4552239 C81.8283582,75.8955224 81.380597,75.4477612 80.8208955,75.4477612 Z M46.2313433,69.5149254 L45.6716418,71.4179104 C45.7835821,71.4179104 45.8955224,71.5298507 46.0074627,71.5298507 C46.5671642,71.5298507 47.0149254,71.0820896 47.0149254,70.5223881 C47.0149254,69.9626866 46.6791045,69.5149254 46.2313433,69.5149254 Z M57.4253731,74.8880597 C56.8656716,74.8880597 56.4179104,75.3358209 56.4179104,75.8955224 C56.4179104,76.4552239 56.8656716,76.9029851 57.4253731,76.9029851 C57.9850746,76.9029851 58.4328358,76.4552239 58.4328358,75.8955224 C58.4328358,75.3358209 57.9850746,74.8880597 57.4253731,74.8880597 Z M49.4776119,39.1791045 C49.4776119,38.619403 49.0298507,38.1716418 48.4701493,38.1716418 C47.9104478,38.1716418 47.4626866,38.619403 47.4626866,39.1791045 C47.4626866,39.738806 47.9104478,40.1865672 48.4701493,40.1865672 C49.0298507,40.1865672 49.4776119,39.738806 49.4776119,39.1791045 Z M55.858209,51.9402985 C55.858209,52.5 56.3059701,52.9477612 56.8656716,52.9477612 C57.4253731,52.9477612 57.8731343,52.5 57.8731343,51.9402985 C57.8731343,51.380597 57.4253731,50.9328358 56.8656716,50.9328358 C56.3059701,50.9328358 55.858209,51.380597 55.858209,51.9402985 Z M53.619403,34.9253731 C53.619403,34.7014925 53.5074627,34.4776119 53.3955224,34.3656716 L51.7164179,34.3656716 C51.6044776,34.4776119 51.4925373,34.7014925 51.4925373,34.9253731 C51.4925373,35.4850746 51.9402985,35.9328358 52.5,35.9328358 C53.0597015,35.9328358 53.619403,35.4850746 53.619403,34.9253731 Z M50.9328358,73.6567164 C50.3731343,73.6567164 49.9253731,74.1044776 49.9253731,74.6641791 C49.9253731,75.2238806 50.3731343,75.6716418 50.9328358,75.6716418 C51.4925373,75.6716418 51.9402985,75.2238806 51.9402985,74.6641791 C51.8283582,74.1044776 51.4925373,73.6567164 50.9328358,73.6567164 Z M46.0074627,44.3283582 C46.0074627,43.7686567 45.5597015,43.3208955 45,43.3208955 C44.4402985,43.3208955 43.9925373,43.7686567 43.9925373,44.3283582 C43.9925373,44.8880597 44.4402985,45.3358209 45,45.3358209 C45.5597015,45.4477612 46.0074627,44.8880597 46.0074627,44.3283582 Z M50.8208955,63.4701493 C50.8208955,62.9104478 50.3731343,62.4626866 49.8134328,62.4626866 C49.2537313,62.4626866 48.8059701,62.9104478 48.8059701,63.4701493 C48.8059701,64.0298507 49.2537313,64.4776119 49.8134328,64.4776119 C50.3731343,64.4776119 50.8208955,63.9179104 50.8208955,63.4701493 Z M45.1119403,35.261194 C45.6716418,35.261194 46.119403,34.8134328 46.119403,34.2537313 L44.1044776,34.2537313 C44.1044776,34.9253731 44.5522388,35.261194 45.1119403,35.261194 Z" id="Shape" fill="#FFDB4B"></path>
                <polygon id="Path" fill="#DD933C" points="84.6268657 53.619403 108.246269 93.0223881 115.746269 93.4701493 96.380597 53.8432836"></polygon>
                <polygon id="Path" fill="#002031" points="49.3656716 79.5895522 44.1044776 77.1268657 50.261194 77.1268657"></polygon>
                <polygon id="Path" fill="#F17277" points="49.9253731 77.1268657 16.4552239 162.537313 32.3507463 162.537313 69.4029851 77.1268657"></polygon>
                <path d="M84.8507463,77.1268657 L84.8507463,77.1268657 C85.0746269,86.1940299 84.1791045,91.4552239 76.6791045,91.4552239 L45,91.4552239 L49.9253731,77.1268657 L84.8507463,77.1268657 L84.8507463,77.1268657 Z" id="Path" fill="#F17277"></path>
                <path d="M63.358209,87.0895522 L53.8432836,118.208955 C52.9477612,121.455224 53.1716418,124.925373 54.5149254,128.059701 L69.5149254,162.761194 L86.5298507,162.761194 L71.1940299,123.134328 L82.3880597,87.0895522 L63.358209,87.0895522 Z" id="Path" fill="#F17277"></path>
                <polygon id="Path" fill="#DD933C" points="30 162.537313 26.0820896 172.723881 14.7761194 172.276119 19.141791 162.537313"></polygon>
                <polygon id="Path" fill="#DD933C" points="77.5746269 172.723881 73.3208955 162.761194 84.4029851 162.761194 88.6567164 172.276119"></polygon>
                <path d="M84.738806,158.955224 L67.7238806,158.955224 C67.5,158.955224 67.2761194,158.731343 67.2761194,158.507463 C67.2761194,158.283582 67.5,158.059701 67.7238806,158.059701 L84.738806,158.059701 C84.9626866,158.059701 85.1865672,158.283582 85.1865672,158.507463 C85.1865672,158.731343 84.9626866,158.955224 84.738806,158.955224 Z" id="Path" fill="#002031"></path>
                <path d="M34.4776119,158.059701 L18.358209,158.059701 C18.1343284,158.059701 17.9104478,157.835821 17.9104478,157.61194 C17.9104478,157.38806 18.1343284,157.164179 18.358209,157.164179 L34.4776119,157.164179 C34.7014925,157.164179 34.9253731,157.38806 34.9253731,157.61194 C34.9253731,157.835821 34.7014925,158.059701 34.4776119,158.059701 Z" id="Path" fill="#002031"></path>
                <path d="M57.6492537,104.328358 C57.6492537,104.328358 57.5373134,104.328358 57.5373134,104.328358 C57.3134328,104.216418 57.2014925,103.992537 57.3134328,103.768657 L62.7985075,87.5373134 L58.2089552,87.5373134 C57.9850746,87.5373134 57.761194,87.3134328 57.761194,87.0895522 C57.761194,86.8656716 57.9850746,86.641791 58.2089552,86.641791 L63.358209,86.641791 C63.4701493,86.641791 63.5820896,86.7537313 63.6940299,86.8656716 C63.8059701,86.9776119 63.8059701,87.0895522 63.8059701,87.2014925 L58.0970149,103.992537 C57.9850746,104.216418 57.8731343,104.328358 57.6492537,104.328358 Z" id="Path" fill="#002031"></path>
                <path d="M64.5895522,40.2985075 C68.5074627,40.6343284 74.3283582,37.7238806 77.0149254,34.4776119 C76.5671642,34.4776119 59.8880597,34.3656716 59.8880597,34.3656716 C59.8880597,34.3656716 59.2164179,39.8507463 64.5895522,40.2985075 Z" id="Path" fill="#DD933C"></path>
                <polygon id="Path" fill="#DD933C" points="75.3358209 20.261194 72.3134328 34.5895522 62.1268657 34.9253731 67.5 22.2761194"></polygon>
                <polygon id="Path" fill="#D2793C" points="64.8134328 28.4328358 66.0447761 25.6343284 70.1865672 25.1865672"></polygon>
                <path d="M59.5522388,9.17910448 C58.6567164,10.5223881 59.5522388,13.5447761 61.4552239,12.8731343 C62.5746269,11.8656716 63.5820896,10.2985075 63.6940299,8.73134328 C63.6940299,6.60447761 60.1119403,7.6119403 59.5522388,9.17910448 Z" id="Path" fill="#002031"></path>
                <path d="M77.0149254,15.7835821 C76.7910448,20.8208955 70.5223881,25.1865672 70.5223881,25.1865672 C70.5223881,25.1865672 65.1492537,27.6492537 60.7835821,24.6268657 C56.4179104,21.6044776 60.7835821,11.3059701 62.0149254,9.06716418 C63.0223881,7.3880597 66.0447761,6.71641791 68.2835821,6.71641791 C73.3208955,6.71641791 77.238806,10.7462687 77.0149254,15.7835821 Z" id="Path" fill="#DD933C"></path>
                <path d="M78.4701493,10.0746269 C79.3656716,4.14179104 70.7462687,4.25373134 70.7462687,4.25373134 C70.7462687,4.25373134 70.1865672,2.35074627 69.2910448,1.79104478 C67.7238806,0.895522388 67.1641791,2.57462687 67.3880597,3.69402985 C66.6044776,2.35074627 66.1567164,0.335820896 64.2537313,0.335820896 C62.7985075,0.671641791 62.5746269,3.13432836 63.4701493,3.91791045 C57.4253731,-1.45522388 55.0746269,9.40298507 65.9328358,10.5223881 C68.9552239,10.858209 72.0895522,10.7462687 72.3134328,10.5223881 C71.9776119,13.6567164 73.5447761,16.7910448 76.6791045,17.7985075 C76.7910448,17.9104478 78.1343284,13.5447761 78.4701493,10.0746269 Z" id="Path" fill="#002031"></path>
                <path d="M64.5895522,21.4925373 C64.2537313,21.4925373 63.8059701,21.4925373 63.358209,21.380597 C63.2462687,21.380597 63.1343284,21.1567164 63.1343284,21.0447761 C63.1343284,20.9328358 63.358209,20.8208955 63.4701493,20.8208955 C65.0373134,21.1567164 66.1567164,20.8208955 66.6044776,19.8134328 C66.7164179,19.7014925 66.8283582,19.5895522 66.9402985,19.7014925 C67.0522388,19.8134328 67.1641791,19.9253731 67.0522388,20.0373134 C66.7164179,21.0447761 65.8208955,21.4925373 64.5895522,21.4925373 Z" id="Path" fill="#002031"></path>
                <path d="M61.3432836,18.1343284 C59.7761194,18.1343284 58.5447761,16.7910448 58.5447761,15.2238806 C58.5447761,14.4402985 58.880597,13.6567164 59.4402985,13.0970149 C60,12.5373134 60.6716418,12.3134328 61.3432836,12.3134328 C62.9104478,12.3134328 64.141791,13.6567164 64.141791,15.2238806 C64.141791,16.0074627 63.8059701,16.7910448 63.2462687,17.3507463 C62.7985075,17.7985075 62.0149254,18.1343284 61.3432836,18.1343284 Z M61.2313433,13.0970149 C60.7835821,13.0970149 60.2238806,13.3208955 59.8880597,13.6567164 C59.5522388,14.1044776 59.3283582,14.5522388 59.3283582,15.2238806 C59.3283582,16.3432836 60.2238806,17.3507463 61.3432836,17.3507463 C61.7910448,17.3507463 62.3507463,17.1268657 62.6865672,16.7910448 C63.0223881,16.3432836 63.2462687,15.8955224 63.2462687,15.2238806 C63.2462687,14.1044776 62.3507463,13.0970149 61.2313433,13.0970149 Z" id="Shape" fill="#FFFFFF"></path>
                <path d="M67.2761194,18.6940299 C65.7089552,18.6940299 64.4776119,17.3507463 64.4776119,15.7835821 C64.4776119,15 64.8134328,14.2164179 65.261194,13.6567164 C65.8208955,13.0970149 66.4925373,12.8731343 67.1641791,12.8731343 C68.7313433,12.8731343 69.9626866,14.2164179 69.9626866,15.7835821 C69.9626866,16.5671642 69.6268657,17.3507463 69.1791045,17.9104478 C68.7313433,18.358209 67.9477612,18.6940299 67.2761194,18.6940299 Z M67.1641791,13.6567164 C66.6044776,13.6567164 66.1567164,13.880597 65.8208955,14.2164179 C65.4850746,14.6641791 65.261194,15.1119403 65.261194,15.6716418 C65.261194,16.7910448 66.1567164,17.6865672 67.2761194,17.6865672 C67.8358209,17.6865672 68.2835821,17.4626866 68.619403,17.1268657 C68.9552239,16.6791045 69.1791045,16.2313433 69.1791045,15.6716418 C69.1791045,14.6641791 68.2835821,13.6567164 67.1641791,13.6567164 Z" id="Shape" fill="#FFFFFF"></path>
                <path d="M63.9179104,19.2537313 C63.9179104,19.2537313 63.9179104,19.2537313 63.9179104,19.2537313 C63.8059701,19.2537313 63.0223881,19.0298507 62.6865672,18.4701493 C62.5746269,18.1343284 62.7985075,17.4626866 63.2462687,16.4552239 C63.4701493,16.119403 63.5820896,15.6716418 63.6940299,15.4477612 C63.6940299,15.3358209 63.9179104,15.2238806 64.0298507,15.2238806 C64.141791,15.2238806 64.2537313,15.4477612 64.2537313,15.5597015 C64.141791,15.7835821 64.0298507,16.2313433 63.8059701,16.6791045 C63.5820896,17.1268657 63.1343284,18.0223881 63.2462687,18.1343284 C63.358209,18.358209 63.8059701,18.5820896 64.0298507,18.5820896 C64.141791,18.5820896 64.2537313,18.8059701 64.2537313,18.9179104 C64.141791,19.141791 64.0298507,19.2537313 63.9179104,19.2537313 Z" id="Path" fill="#002031"></path>
                <path d="M64.8134328,15.4477612 C64.8134328,15.4477612 64.8134328,15.4477612 64.8134328,15.4477612 L63.5820896,15.3358209 C63.358209,15.3358209 63.1343284,15.1119403 63.2462687,14.8880597 C63.2462687,14.6641791 63.4701493,14.4402985 63.6940299,14.5522388 L64.8134328,14.6641791 C65.0373134,14.6641791 65.261194,14.8880597 65.1492537,15.1119403 C65.261194,15.2238806 65.0373134,15.4477612 64.8134328,15.4477612 Z" id="Path" fill="#FFFFFF"></path>
                <path d="M73.9925373,16.6791045 C73.9925373,16.6791045 73.9925373,16.6791045 73.9925373,16.6791045 L69.5149254,16.119403 C69.2910448,16.119403 69.1791045,15.8955224 69.1791045,15.6716418 C69.1791045,15.4477612 69.4029851,15.3358209 69.6268657,15.3358209 L73.9925373,15.8955224 C74.2164179,15.8955224 74.3283582,16.119403 74.3283582,16.3432836 C74.4402985,16.4552239 74.2164179,16.6791045 73.9925373,16.6791045 Z" id="Path" fill="#FFFFFF"></path>
                <circle id="Oval" fill="#DD933C" cx="74.3283582" cy="17.9104478" r="2.68656716"></circle>
                <path d="M18.9179104,15.7835821 L22.6119403,9.29104478 C22.8358209,8.95522388 22.7238806,8.39552239 22.5,8.17164179 L22.5,8.17164179 C22.2761194,7.94776119 21.8283582,7.8358209 21.6044776,8.05970149 L18.4701493,10.2985075 L18.5820896,4.70149254 C18.5820896,4.14179104 18.1343284,3.58208955 17.5746269,3.58208955 L17.5746269,3.58208955 C17.1268657,3.58208955 16.7910448,3.91791045 16.6791045,4.47761194 L15.7835821,9.62686567 L15.5597015,4.14179104 C15.5597015,3.58208955 15.1119403,3.02238806 14.5522388,3.13432836 L14.5522388,3.13432836 C13.9925373,3.13432836 13.5447761,3.58208955 13.5447761,4.25373134 L13.5447761,9.62686567 L12.4253731,5.26119403 C12.2014925,4.47761194 11.4179104,4.14179104 10.7462687,4.70149254 L10.7462687,4.70149254 C10.4104478,4.92537313 10.2985075,5.37313433 10.4104478,5.82089552 L10.9701493,10.9701493 L9.29104478,8.61940299 C8.61940299,8.05970149 7.8358209,8.17164179 7.6119403,8.84328358 L7.6119403,8.84328358 C7.5,9.06716418 7.6119403,9.29104478 7.7238806,9.51492537 L12.0895522,17.4626866 L18.9179104,15.7835821 Z" id="Path" fill="#DD933C"></path>
                <path d="M18.1343284,11.0820896 C18.1343284,11.0820896 18.0223881,11.0820896 18.1343284,11.0820896 C18.0223881,11.0820896 14.6641791,9.96268657 12.8731343,11.0820896 C12.761194,11.1940299 12.5373134,11.0820896 12.5373134,10.9701493 C12.4253731,10.858209 12.5373134,10.6343284 12.6492537,10.6343284 C14.6641791,9.40298507 18.1343284,10.5223881 18.2462687,10.6343284 C18.358209,10.6343284 18.4701493,10.858209 18.4701493,10.9701493 C18.358209,10.9701493 18.2462687,11.0820896 18.1343284,11.0820896 Z" id="Path" fill="#002031"></path>
                <path d="M115.298507,92.5746269 L119.552239,97.9477612 C119.88806,98.2835821 120,98.7313433 119.776119,99.0671642 L119.776119,99.0671642 C119.552239,99.4029851 119.216418,99.5149254 118.880597,99.4029851 L116.41791,97.9477612 L118.208955,103.208955 C118.432836,103.768657 118.097015,104.440299 117.649254,104.552239 L117.649254,104.552239 C117.201493,104.664179 116.753731,104.440299 116.529851,103.992537 L114.179104,99.2910448 L115.522388,104.552239 C115.634328,105.11194 115.410448,105.671642 114.850746,105.895522 L114.850746,105.895522 C114.291045,106.007463 113.731343,105.671642 113.619403,105.11194 L112.052239,99.9626866 L112.164179,104.440299 C112.164179,105.223881 111.492537,105.783582 110.820896,105.447761 L110.820896,105.447761 C110.485075,105.335821 110.149254,104.88806 110.149254,104.440299 L109.141791,99.4029851 L107.574627,102.313433 C107.014925,103.097015 106.343284,103.208955 105.895522,102.537313 L105.895522,102.537313 C105.783582,102.313433 105.671642,102.089552 105.783582,101.865672 L108.358209,92.7985075 L115.298507,92.5746269 Z" id="Path" fill="#DD933C"></path>
                <path d="M84.6268657,54.0671642 C84.5149254,54.0671642 84.2910448,53.9552239 84.2910448,53.8432836 L81.8283582,49.2537313 C81.7164179,49.0298507 81.8283582,48.8059701 82.0522388,48.6940299 C82.2761194,48.5820896 82.5,48.6940299 82.6119403,48.9179104 L85.0746269,53.5074627 C85.1865672,53.7313433 85.0746269,53.9552239 84.8507463,54.0671642 C84.8507463,54.0671642 84.738806,54.0671642 84.6268657,54.0671642 Z" id="Path" fill="#002031"></path>
                <g transform="translate(0.000000, 166.791045)">
                    <path d="M14.4402985,0.78358209 L7.2761194,5.93283582 L3.02238806,7.94776119 C0.895522388,9.06716418 0.895522388,11.0820896 0.895522388,11.0820896 L30.1119403,11.0820896 L28.880597,2.23880597 C28.6567164,1.56716418 26.8656716,1.45522388 26.641791,2.12686567 C26.1940299,3.35820896 24.738806,4.70149254 23.0597015,4.81343284 C20.5970149,4.92537313 17.9104478,2.57462687 16.5671642,1.23134328 C16.0074627,0.559701493 15.2238806,0.335820896 14.4402985,0.78358209 Z" id="Path" fill="#FFCC00"></path>
                    <polygon id="Path" fill="#FFFFFF" points="30.4477612 14.1044776 0.78358209 14.1044776 0.78358209 11.0820896 30.2238806 11.0820896"></polygon>
                    <rect id="Rectangle" fill="#002031" transform="translate(9.529192, 5.934157) rotate(-73.136118) translate(-9.529192, -5.934157) " x="9.13739975" y="4.36698704" width="1" height="3.13433934"></rect>
                    <rect id="Rectangle" fill="#002031" transform="translate(11.574929, 4.413213) rotate(-73.547728) translate(-11.574929, -4.413213) " x="11.1831609" y="2.79017312" width="1" height="3.24607913"></rect>
                </g>
                <g transform="translate(62.686567, 166.791045)">
                    <path d="M12.2014925,0.78358209 L5.93283582,5.93283582 L2.01492537,7.94776119 C0.111940299,9.06716418 0.447761194,11.0820896 0.447761194,11.0820896 L29.6641791,11.0820896 L26.8656716,2.23880597 C26.5298507,1.56716418 24.6268657,1.45522388 24.5149254,2.12686567 C24.2910448,3.35820896 23.0597015,4.70149254 21.380597,4.81343284 C18.9179104,4.92537313 15.7835821,2.57462687 14.2164179,1.23134328 C13.7686567,0.559701493 12.8731343,0.335820896 12.2014925,0.78358209 Z" id="Path" fill="#FFCC00"></path>
                    <polygon id="Path" fill="#FFFFFF" points="30.5597015 14.1044776 0.895522388 14.1044776 0.335820896 11.0820896 29.7761194 11.0820896"></polygon>
                    <rect id="Rectangle" fill="#002031" transform="translate(8.181856, 5.936754) rotate(-73.948355) translate(-8.181856, -5.936754) " x="7.79007054" y="4.25767171" width="1" height="3.35816404"></rect>
                    <polygon id="Path" fill="#002031" points="11.5298507 5.26119403 8.28358209 4.25373134 8.50746269 3.47014925 11.7537313 4.36567164"></polygon>
                </g>
            </g>
            <path d="M240.335821,6.94029851 L241.343284,10.0746269 C241.455224,10.2985075 241.567164,10.4104478 241.791045,10.5223881 L244.925373,11.5298507 C245.485075,11.7537313 245.485075,12.5373134 244.925373,12.761194 L241.902985,13.7686567 C241.679104,13.880597 241.567164,13.9925373 241.455224,14.2164179 L240.447761,18.0223881 C240.223881,18.6940299 239.328358,18.6940299 239.216418,18.0223881 L238.208955,14.2164179 C238.208955,13.9925373 237.985075,13.880597 237.761194,13.7686567 L234.962687,12.761194 C234.402985,12.5373134 234.402985,11.7537313 234.962687,11.5298507 L237.761194,10.5223881 C237.985075,10.4104478 238.097015,10.2985075 238.208955,10.0746269 L239.216418,6.94029851 C239.328358,6.38059701 240.11194,6.38059701 240.335821,6.94029851 Z" id="Path" fill="#A7FAC1" fill-rule="nonzero"></path>
            <path d="M66.1567164,40.4104478 L66.8283582,42.6492537 C66.8283582,42.761194 66.9402985,42.8731343 67.1641791,42.9850746 L69.4029851,43.6567164 C69.8507463,43.7686567 69.8507463,44.4402985 69.4029851,44.5522388 L67.1641791,45.2238806 C67.0522388,45.2238806 66.8283582,45.4477612 66.8283582,45.5597015 L66.1567164,48.358209 C66.0447761,48.8059701 65.3731343,48.8059701 65.261194,48.358209 L64.5895522,45.5597015 C64.5895522,45.4477612 64.4776119,45.2238806 64.2537313,45.2238806 L62.238806,44.5522388 C61.7910448,44.4402985 61.7910448,43.7686567 62.238806,43.6567164 L64.3656716,42.9850746 C64.4776119,42.9850746 64.5895522,42.8731343 64.7014925,42.6492537 L65.3731343,40.4104478 C65.3731343,39.9626866 66.0447761,39.9626866 66.1567164,40.4104478 Z" id="Path" fill="#A7FAC1" fill-rule="nonzero"></path>
            <path d="M279.402985,38.9552239 L280.074627,41.1940299 C280.074627,41.3059701 280.186567,41.4179104 280.410448,41.5298507 L282.649254,42.2014925 C283.097015,42.3134328 283.097015,42.9850746 282.649254,43.0970149 L280.522388,43.7686567 C280.410448,43.7686567 280.298507,43.9925373 280.186567,44.1044776 L279.514925,46.7910448 C279.402985,47.238806 278.731343,47.238806 278.619403,46.7910448 L277.947761,44.1044776 C277.947761,43.9925373 277.835821,43.880597 277.61194,43.7686567 L275.597015,43.0970149 C275.149254,42.9850746 275.149254,42.3134328 275.597015,42.2014925 L277.61194,41.4179104 C277.723881,41.4179104 277.835821,41.3059701 277.947761,41.0820896 L278.619403,38.8432836 C278.731343,38.5074627 279.291045,38.5074627 279.402985,38.9552239 Z" id="Path" fill="#FFFFFF" fill-rule="nonzero"></path>
            <path d="M290.149254,24.0671642 L290.820896,26.0820896 C290.820896,26.1940299 290.932836,26.3059701 291.044776,26.3059701 L293.059701,26.9776119 C293.507463,27.0895522 293.507463,27.6492537 293.059701,27.761194 L291.044776,28.4328358 C290.932836,28.4328358 290.820896,28.5447761 290.708955,28.7686567 L290.037313,31.2313433 C289.925373,31.6791045 289.365672,31.6791045 289.253731,31.2313433 L288.58209,28.7686567 C288.58209,28.6567164 288.470149,28.5447761 288.358209,28.4328358 L286.567164,27.761194 C286.231343,27.6492537 286.231343,27.0895522 286.567164,26.9776119 L288.358209,26.3059701 C288.470149,26.3059701 288.58209,26.1940299 288.58209,26.0820896 L289.253731,24.0671642 C289.477612,23.619403 290.037313,23.619403 290.149254,24.0671642 Z" id="Path" fill="#3DEC94" fill-rule="nonzero"></path>
            <path d="M83.2835821,27.761194 L83.7313433,29.2164179 C83.7313433,29.3283582 83.8432836,29.4402985 83.9552239,29.4402985 L85.4104478,29.8880597 C85.7462687,30 85.7462687,30.3358209 85.4104478,30.4477612 L83.9552239,30.8955224 C83.8432836,30.8955224 83.7313433,31.0074627 83.7313433,31.119403 L83.2835821,32.9104478 C83.1716418,33.2462687 82.7238806,33.2462687 82.7238806,32.9104478 L82.2761194,31.119403 C82.2761194,31.0074627 82.1641791,30.8955224 82.0522388,30.8955224 L80.7089552,30.4477612 C80.4850746,30.3358209 80.4850746,30 80.7089552,29.8880597 L82.0522388,29.4402985 C82.1641791,29.4402985 82.1641791,29.3283582 82.2761194,29.2164179 L82.7238806,27.761194 C82.7238806,27.5373134 83.1716418,27.5373134 83.2835821,27.761194 Z" id="Path" fill="#A7FAC1" fill-rule="nonzero"></path>
            <g id="Group" opacity="0.25" transform="translate(244.029851, 0.000000)" fill="#FFFFFF" fill-rule="nonzero">
                <g id="Shape">
                    <path d="M0.335820896,0 L130.970149,239.440299 L130.970149,54.2910448 L36.4925373,0 L0.335820896,0 Z M48.1343284,0 L38.5074627,0 L130.970149,53.1716418 L130.970149,37.8358209 L48.1343284,0 Z"></path>
                </g>
            </g>
            <g id="Group" opacity="0.25" fill="#FFFFFF" fill-rule="nonzero">
                <g id="Path">
                    <polygon points="0 66.7164179 79.141791 0 77.5746269 0 0 65.3731343"></polygon>
                </g>
            </g>
            <g id="Symbols_1_" transform="translate(156.597015, 83.955224)" fill="#1BC1D7">
                <g id="Logo_CoronaCheck_1_" fill-rule="nonzero">
                    <g id="Group-2_1_" transform="translate(0.279851, 0.279851)">
                        <g id="Rectangle_10_" transform="translate(2.238806, 32.462687)">
                            <path d="M23.2910448,25.2985075 L5.38059701,25.2985075 C3.36567164,25.2985075 1.46268657,23.619403 1.35074627,21.6044776 L0.119402985,3.69402985 C0.00746268657,1.67910448 1.57462687,0 3.58955224,0 L21.5,0 C23.5149254,0 25.4179104,1.67910448 25.5298507,3.69402985 L26.761194,21.6044776 C26.8731343,23.619403 25.3059701,25.2985075 23.2910448,25.2985075 Z M9.85820896,16.3432836 L17.4701493,16.3432836 L16.9104478,8.73134328 L9.29850746,8.73134328 L9.85820896,16.3432836 Z" id="Shape"></path>
                        </g>
                        <g id="Rectangle_9_">
                            <path d="M23.1791045,25.4104478 L5.26865672,25.4104478 C3.25373134,25.4104478 1.35074627,23.7313433 1.23880597,21.7164179 L0.00746268657,3.80597015 C-0.104477612,1.79104478 1.46268657,0.111940299 3.47761194,0.111940299 L21.3880597,0.111940299 C23.4029851,0.111940299 25.3059701,1.79104478 25.4179104,3.80597015 L26.6492537,21.7164179 C26.8731343,23.7313433 25.3059701,25.4104478 23.1791045,25.4104478 Z M9.74626866,16.4552239 L17.358209,16.4552239 L16.7985075,8.84328358 L9.18656716,8.84328358 L9.74626866,16.4552239 Z" id="Shape"></path>
                        </g>
                        <g id="Rectangle_8_" transform="translate(31.462687, 0.000000)">
                            <path d="M24.0671642,25.4104478 L6.15671642,25.4104478 C4.14179104,25.4104478 2.23880597,23.7313433 2.12686567,21.7164179 L0.895522388,3.80597015 C0.78358209,1.79104478 2.35074627,0.111940299 4.36567164,0.111940299 L22.2761194,0.111940299 C24.2910448,0.111940299 26.1940299,1.79104478 26.3059701,3.80597015 L27.5373134,21.7164179 C27.761194,23.7313433 26.1940299,25.4104478 24.0671642,25.4104478 Z M10.6343284,16.4552239 L18.2462687,16.4552239 L17.6865672,8.84328358 L10.0746269,8.84328358 L10.6343284,16.4552239 Z" id="Shape"></path>
                        </g>
                    </g>
                </g>
                <g id="Group" transform="translate(34.701493, 32.462687)">
                    <path d="M8.96268657,8.61940299 L1.68656716,8.61940299 C1.01492537,8.61940299 0.455223881,8.05970149 0.455223881,7.3880597 L0.00746268657,1.34328358 C0.00746268657,0.671641791 0.455223881,0.111940299 1.12686567,0.111940299 L7.17164179,0.111940299 C7.84328358,0.111940299 8.40298507,0.671641791 8.40298507,1.34328358 L8.96268657,8.61940299 Z" id="Path"></path>
                    <polygon id="Path" points="18.0298507 17.0149254 9.63432836 17.0149254 8.96268657 8.61940299 17.4701493 8.61940299"></polygon>
                    <path d="M25.9776119,25.5223881 L19.9328358,25.5223881 C19.261194,25.5223881 18.7014925,24.9626866 18.7014925,24.2910448 L18.141791,17.0149254 L25.4179104,17.0149254 C26.0895522,17.0149254 26.6492537,17.5746269 26.6492537,18.2462687 L27.0970149,24.2910448 C27.0970149,24.9626866 26.5373134,25.5223881 25.9776119,25.5223881 Z" id="Path"></path>
                    <path d="M24.7462687,8.61940299 L17.4701493,8.61940299 L16.9104478,1.34328358 C16.9104478,0.671641791 17.358209,0.111940299 18.0298507,0.111940299 L24.0746269,0.111940299 C24.7462687,0.111940299 25.3059701,0.671641791 25.3059701,1.34328358 L25.7537313,7.3880597 C25.8656716,8.05970149 25.4179104,8.61940299 24.7462687,8.61940299 Z" id="Path"></path>
                    <path d="M8.96268657,25.5223881 L2.91791045,25.5223881 C2.24626866,25.5223881 1.68656716,24.9626866 1.68656716,24.2910448 L1.23880597,18.2462687 C1.23880597,17.5746269 1.68656716,17.0149254 2.35820896,17.0149254 L9.63432836,17.0149254 L10.1940299,24.2910448 C10.1940299,24.9626866 9.63432836,25.5223881 8.96268657,25.5223881 Z" id="Path"></path>
                </g>
            </g>
        </g>
    </g>
</svg>