<svg width="72" height="78" viewBox="0 0 72 78" fill="none" xmlns="http://www.w3.org/2000/svg">
<path d="M36 78C55.8823 78 72 61.8822 72 42C72 22.1177 55.8823 6 36 6C16.1178 6 0 22.1177 0 42C0 61.8822 16.1178 78 36 78Z" fill="#002D88"/>
<path fill-rule="evenodd" clip-rule="evenodd" d="M58.4098 70.2383C52.2682 75.089 44.4933 77.9994 35.9996 77.9994C35.6076 77.9994 35.281 77.9994 34.8889 77.9994L29.9234 67.1338C29.9234 67.1338 26.0033 65.1935 23.5859 61.1835C23.1285 60.4721 22.8018 59.7607 22.4751 58.9199C22.0178 57.691 25.2192 57.303 29.5967 57.3676C31.0341 57.3676 32.6675 57.4323 34.3009 57.497C36.9797 57.6263 39.7238 57.8204 42.2065 58.0791C44.0359 58.2084 45.6693 58.4025 47.0414 58.5318C47.6947 58.5965 48.2828 58.6612 48.7401 58.7258C49.9162 58.8552 50.6349 58.9199 50.6349 58.9199L50.8962 59.3079H55.339C55.2084 61.3129 55.4697 63.3825 56.0577 65.2582C56.6457 67.0691 57.4298 68.686 58.4098 70.2383Z" fill="#F4C9DB"/>
<path fill-rule="evenodd" clip-rule="evenodd" d="M14.2456 29.9448L22.2819 29.8154L20.3872 34.5368L14.2456 29.9448Z" fill="#F4C9DB"/>
<path fill-rule="evenodd" clip-rule="evenodd" d="M34.9553 30.8511L28.879 38.0949L7.71026 19.3387C6.27287 18.1099 6.1422 15.9755 7.31824 14.5527C8.49429 13.1298 10.6504 12.8711 12.1531 13.9706L34.9553 30.8511Z" fill="#F4C9DB"/>
<path d="M19.2719 19.2734L18.2266 28.6515L20.7093 30.8505V20.3083L19.2719 19.2734Z" fill="#EDA7C5"/>
<path fill-rule="evenodd" clip-rule="evenodd" d="M52.0044 0H29.3982C26.7848 0 24.6287 1.94029 24.3673 4.52735L18.9445 58.0148C18.7485 59.6964 20.1205 61.184 21.8192 61.184H44.3601C46.9735 61.184 49.1296 59.2437 49.3909 56.6566L54.8138 3.16915C55.0751 1.48756 53.7031 0 52.0044 0Z" fill="#82C6F8"/>
<path fill-rule="evenodd" clip-rule="evenodd" d="M49.7862 0H27.2454C24.6319 0 22.4758 1.94029 22.2145 4.52735L16.7916 58.0148C16.5956 59.6964 17.9677 61.184 19.6664 61.184H46.7808L52.7263 3.16915C52.9223 1.48756 51.5503 0 49.7862 0Z" fill="#59ACF5"/>
<path d="M45.7967 50.7712H19.2051L23.8439 5.04492H50.4356L45.7967 50.7712Z" fill="white"/>
<path d="M33.8821 57.9076C35.0335 56.8256 35.1814 55.1294 34.2125 54.1191C33.2436 53.1088 31.5248 53.1671 30.3734 54.2492C29.222 55.3313 29.074 57.0275 30.0429 58.0377C31.0118 59.048 32.7307 58.9897 33.8821 57.9076Z" fill="#82C6F8"/>
<path fill-rule="evenodd" clip-rule="evenodd" d="M42.6005 62.7365C42.6005 62.7365 41.8164 57.239 42.7311 52.7116C43.9072 47.1494 48.154 44.9504 48.154 44.9504L49.6567 33.438C49.9834 30.9156 51.6821 29.1047 54.2956 29.2341H54.7529C55.4716 29.2987 55.9943 29.8161 56.0596 30.5276C56.0596 30.5276 57.0397 45.7266 56.8437 48.8957C56.6477 52.0649 56.0596 67.0698 56.0596 67.0698L32.6694 65.9056L42.6005 62.7365Z" fill="#F4C9DB"/>
<path fill-rule="evenodd" clip-rule="evenodd" d="M22.6732 39.9053C21.5624 41.3929 19.4717 41.7809 17.969 40.7461L12.2194 36.9302C10.39 35.7013 9.93268 33.3083 11.2394 31.562C12.5461 29.7511 15.2249 29.4277 16.9236 30.9153L22.1505 35.378C23.4572 36.4775 23.6532 38.4824 22.6732 39.9053Z" fill="#F4C9DB"/>
<path d="M17.9657 49.0244C20.0946 49.0244 21.8205 47.316 21.8205 45.2085C21.8205 43.101 20.0946 41.3926 17.9657 41.3926C15.8367 41.3926 14.1108 43.101 14.1108 45.2085C14.1108 47.316 15.8367 49.0244 17.9657 49.0244Z" fill="#F4C9DB"/>
<path d="M17.9681 56.2038C19.9166 56.2038 21.4962 54.6402 21.4962 52.7113C21.4962 50.7824 19.9166 49.2188 17.9681 49.2188C16.0195 49.2188 14.4399 50.7824 14.4399 52.7113C14.4399 54.6402 16.0195 56.2038 17.9681 56.2038Z" fill="#F4C9DB"/>
<path d="M32.2448 27.583H26.6912C26.0379 27.583 25.5152 28.1004 25.3845 28.7472L24.8618 34.18C24.8618 34.3094 24.8618 34.4387 24.8618 34.5681C24.9272 34.9561 25.3192 35.2795 25.7112 35.3442C25.7765 35.3442 25.7765 35.3442 25.8419 35.3442H31.3954C32.0487 35.3442 32.5714 34.8268 32.6368 34.18L32.7021 33.4039L33.0941 29.5233L33.1595 28.6825C33.3555 28.1004 32.8981 27.583 32.2448 27.583ZM30.154 32.6278H27.8019L28.0633 30.2994H30.4154L30.154 32.6278Z" fill="#007AFF"/>
<path d="M33.2885 17.688H27.7349C27.0816 17.688 26.5589 18.2054 26.4282 18.8522L25.8402 24.1556V24.285C25.7749 24.9318 26.2322 25.4492 26.8856 25.4492H32.4391C33.0925 25.4492 33.6151 24.9318 33.7458 24.285L34.3338 18.7875C34.3992 18.2054 33.9418 17.688 33.2885 17.688ZM31.1324 22.7328H28.7803L29.0416 20.4044H31.3937L31.1324 22.7328Z" fill="#007AFF"/>
<path d="M43.2211 17.688H37.6675C37.0142 17.688 36.4915 18.2054 36.3608 18.8522L35.7728 24.3497C35.7075 24.9964 36.1648 25.5138 36.8182 25.5138H42.3717C43.0251 25.5138 43.5478 24.9964 43.6131 24.3497L44.2011 18.8522C44.3318 18.2054 43.8744 17.688 43.2211 17.688ZM41.1303 22.7328H38.7783L39.0396 20.4044H41.3917L41.1303 22.7328Z" fill="#007AFF"/>
<path fill-rule="evenodd" clip-rule="evenodd" d="M37.8303 30.1381H35.6089C35.4129 30.1381 35.2822 30.0087 35.2822 29.75L35.4782 27.8744C35.4782 27.6804 35.6742 27.4863 35.8702 27.4863H37.765C37.961 27.4863 38.0917 27.6157 38.0917 27.8744L37.8303 30.1381Z" fill="#007AFF"/>
<path fill-rule="evenodd" clip-rule="evenodd" d="M40.1813 32.7257H37.5679L37.8945 30.1387H40.4426L40.1813 32.7257Z" fill="#007AFF"/>
<path fill-rule="evenodd" clip-rule="evenodd" d="M42.1418 35.3122H40.2471C40.0511 35.3122 39.9204 35.1828 39.9204 34.9241L40.1817 32.7251H42.4032C42.5992 32.7251 42.7298 32.8545 42.7298 33.1132L42.5992 34.9241C42.5338 35.1181 42.3378 35.3122 42.1418 35.3122Z" fill="#007AFF"/>
<path fill-rule="evenodd" clip-rule="evenodd" d="M42.7302 30.1383H40.5088L40.7701 27.9393C40.7701 27.7453 40.9661 27.5513 41.1621 27.5513H42.9915C43.1876 27.5513 43.3182 27.6806 43.3182 27.9393L43.1222 29.7503C43.0569 29.9443 42.9262 30.1383 42.7302 30.1383Z" fill="#007AFF"/>
<path fill-rule="evenodd" clip-rule="evenodd" d="M36.9802 35.3119H35.0855C34.8895 35.3119 34.7588 35.1825 34.7588 34.9238L34.9548 33.0482C34.9548 32.8542 35.1508 32.6602 35.3468 32.6602H37.5682L37.3722 34.9238C37.3069 35.1179 37.1762 35.3119 36.9802 35.3119Z" fill="#007AFF"/>
<path d="M56.3186 36.8652C54.7505 36.8652 54.4892 35.1189 54.4892 35.1189L54.4238 31.1737L55.7959 29.9448L55.9919 30.2035L54.7505 31.3677L54.8158 35.1836C54.8158 35.2483 55.0772 36.6712 56.3839 36.6712V36.9946C56.3839 36.8652 56.3186 36.8652 56.3186 36.8652Z" fill="#002031"/>
<path d="M43.1243 64.2887C43.059 64.2887 42.9937 64.224 42.9937 64.1594C41.0989 58.0798 42.275 53.5524 42.3403 53.4877C42.3403 53.4231 42.471 53.3584 42.5363 53.3584C42.6017 53.3584 42.667 53.4878 42.667 53.5524C42.667 53.6171 41.4909 58.0798 43.3203 64.03C43.3203 64.1594 43.255 64.224 43.1243 64.2887C43.1897 64.2887 43.1897 64.2887 43.1243 64.2887Z" fill="#002031"/>
</svg>
