<?xml version="1.0" encoding="utf-8"?>
<!-- Generator: Adobe Illustrator 24.3.0, SVG Export Plug-In . SVG Version: 6.00 Build 0)  -->
<svg version="1.1" id="Layer_1" xmlns="http://www.w3.org/2000/svg" xmlns:xlink="http://www.w3.org/1999/xlink" x="0px" y="0px"
	 viewBox="0 0 335 236" style="enable-background:new 0 0 335 236;" xml:space="preserve">
<style type="text/css">
	.st0{fill:#DCEEFD;}
	.st1{fill:#002031;}
	.st2{fill:#DD933C;}
	.st3{fill:#FE6F43;}
	.st4{fill:#FE9C7E;}
	.st5{fill:#FFFFFF;}
	.st6{fill:#1540EB;}
	.st7{fill:#59ACF5;}
	.st8{fill:#FFCC00;}
	.st9{fill:#82C6F8;}
	.st10{fill:#D2793C;}
	.st11{fill:#1BC1D7;}
	.st12{fill:#F4C9DB;}
	.st13{fill:#104A4A;}
	.st14{fill:#F48D91;}
	.st15{fill:#22AEC3;}
	.st16{fill:#EDA7C5;}
	.st17{fill:#237978;}
	.st18{fill:#C8915C;}
	.st19{fill-rule:evenodd;clip-rule:evenodd;fill:#F4C9DB;}
	.st20{fill-rule:evenodd;clip-rule:evenodd;fill:#1540EB;}
	.st21{fill-rule:evenodd;clip-rule:evenodd;fill:#59ACF5;}
	.st22{fill:#1D1D1B;}
	.st23{fill-rule:evenodd;clip-rule:evenodd;fill:#A87A6A;}
	.st24{fill:#3DEC94;}
</style>
<g>
	<g>
		<ellipse class="st0" cx="160.7" cy="233.1" rx="55.6" ry="2.9"/>
	</g>
	<g>
		<g>
			<path class="st1" d="M170.4,49.7c-0.1-0.6-0.5-1.2-1-1.6c-0.5-0.5-0.9-1-1.4-1.4c0-0.5-0.4-0.7-0.8-0.8c-0.6-0.1-1.2,0.2-1.7,0.4
				c-0.6,0.2-0.9,0.5-0.9,1.2c0,0.6,0.1,1.3,0.2,1.9c0.3,1.3,0.7,2.6,1.2,3.8c0.4,1,1.2,2.1,2.4,1.4c1.1-0.6,0.9-1.8,0.5-2.7
				c0.4-0.1,0.7-0.2,1-0.5C170.4,50.8,170.5,50.3,170.4,49.7z"/>
		</g>
		<g>
			<path class="st11" d="M179,68.6l-23.1,1.6l-0.4-5.4c-0.1-1.7,1.1-3.1,2.8-3.2l17.1-1.2c1.7-0.1,3.1,1.1,3.2,2.8L179,68.6z"/>
		</g>
		<g>
			<g>
				<g>
					<path class="st1" d="M114.4,49l5.8-2.1l-0.1-0.3l1.1,0.1c0,0,0,0,0.1,0l0.1,0l0,0c0.8,0.1,1.5,0.6,1.8,1.5l5.8,16.6
						c0.4,1.2-0.2,2.4-1.4,2.8l-6,2.2c-1.2,0.4-2.4-0.2-2.8-1.4L113,51.8C112.6,50.7,113.2,49.4,114.4,49z"/>
				</g>
				<g>
					<path class="st6" d="M126.3,67.5l-6,2.2c-1.2,0.4-2.4-0.2-2.8-1.4l-5.8-16.6c-0.4-1.2,0.2-2.4,1.4-2.8l6-2.2
						c1.2-0.4,2.4,0.2,2.8,1.4l5.8,16.6C128.1,65.8,127.5,67.1,126.3,67.5z"/>
				</g>
			</g>
			<g>
				<path class="st12" d="M119.8,57.1l-6.2,3.4c-1.8,1.2-2.7,3.4-2.1,5.4l2.7,9.3l7.8-3.1l-1.8-5.6l3.2-2.8L119.8,57.1z"/>
			</g>
			<g>
				<path class="st11" d="M143,69.4l-14.1,20.3l-5.6-17.2c-0.2-0.7-0.8-1.1-1.5-1.1l-8.2,0.3c-0.5,0-0.9,0.5-0.8,1.1
					c0.9,3.8,4.5,18.3,8.2,25.9c2.6,5.3,9,5,12.3,2.8c9.3-6.1,16.4-13.1,16.4-13.1L143,69.4z"/>
			</g>
			<g>
				<path class="st1" d="M117.2,61.5c-0.1,0-0.1,0-0.2-0.1c-0.1-0.1,0-0.2,0.1-0.3l3.7-2.3c0.1-0.1,0.2,0,0.3,0.1
					c0.1,0.1,0,0.2-0.1,0.3l-3.7,2.3C117.3,61.5,117.2,61.5,117.2,61.5z"/>
			</g>
			<g>
				<path class="st1" d="M118.7,63.8c-0.1,0-0.1,0-0.2-0.1c-0.1-0.1,0-0.2,0.1-0.3l3.4-2.3c0.1-0.1,0.2,0,0.3,0.1
					c0.1,0.1,0,0.2-0.1,0.3l-3.4,2.3C118.8,63.8,118.8,63.8,118.7,63.8z"/>
			</g>
			<g>
				<g>
					<path class="st12" d="M187.5,109.6l-5.9-4c-1.7-1.3-2.3-3.6-1.5-5.6l3.6-9l7.5,3.8l-2.3,5.4l3,3.1L187.5,109.6z"/>
				</g>
				<g>
					<path class="st1" d="M188.7,108c0,0-0.1,0-0.1,0l-3.5-2.6c-0.1-0.1-0.1-0.2,0-0.3c0.1-0.1,0.2-0.1,0.3,0l3.5,2.6
						c0.1,0.1,0.1,0.2,0,0.3C188.9,108,188.8,108,188.7,108z"/>
				</g>
				<g>
					<path class="st1" d="M190.2,105.9c0,0-0.1,0-0.1,0l-3.2-2.6c-0.1-0.1-0.1-0.2,0-0.3c0.1-0.1,0.2-0.1,0.3,0l3.2,2.6
						c0.1,0.1,0.1,0.2,0,0.3C190.3,105.8,190.3,105.9,190.2,105.9z"/>
				</g>
			</g>
			<g>
				<polygon class="st13" points="156,126.1 156.4,109.1 172,111.8 171.6,126.8 				"/>
			</g>
			<g>
				<g>
					<polygon class="st14" points="149.6,73.1 148.3,73.2 149.1,71.8 					"/>
				</g>
			</g>
			<g>
				<path class="st13" d="M183.7,112.5c0,0,0.7,9.3,0.9,23.3c0.2,14-1.2,85.4-1.2,85.4l-9.7,1.7l-8.4-110.8L183.7,112.5z"/>
			</g>
			<g>
				<path class="st13" d="M168.4,125.8l-6.8,96.6l-6.7,4.1l-3.5-5l-1.4-109.8l11.6-0.8C161.7,110.9,168.3,113.4,168.4,125.8z"/>
			</g>
			<g>
				<path class="st15" d="M183.2,113.5h-32.9c-0.7,0-1.3-0.6-1.3-1.3v-3h35.5v3C184.5,112.9,183.9,113.5,183.2,113.5z"/>
			</g>
			<g>
				<path class="st11" d="M151.3,65.4l29-2.5c5.5-0.5,12.1,3.8,11.8,9.6l-1.2,4.7l-3.6,0.9l-1.3,29c-0.1,1.7-1.1,2.7-2.8,2.7
					l-34.5-0.3c-1.3,0-2.4-1-2.4-2.3c-0.3-6.1-1.1-18.2-2.1-26.1c-0.4-3-2.7-5.2-2.7-6.1C141.3,68.5,146.1,65.9,151.3,65.4z"/>
			</g>
			<g>
				<g>
					<path class="st9" d="M194.2,230.1h-22.1l0.4-8.5c0,0,2.8,0.1,5.4,0.1c0,0,0.6-1.3,2.1-2.8c0.6-0.6,3.5-1.3,4.6,0.1l4.6,5.5
						l1,0.8l1.8,1.4C194.2,228,194.2,230.1,194.2,230.1z"/>
				</g>
				<g>
					<path class="st1" d="M171.7,233.3h22.6l0-3.2h-12.7c-1,0-1.9-0.5-2.4-1.4l0,0c-0.5-0.9-1.4-1.4-2.4-1.4h-4.6L171.7,233.3z"/>
				</g>
				<g>
					<polygon class="st1" points="188.6,224.4 184,224.3 184,223.6 188.6,223.7 					"/>
				</g>
				<g>
					
						<rect x="183.8" y="219.6" transform="matrix(3.064642e-02 -0.9995 0.9995 3.064642e-02 -43.5159 399.3921)" class="st1" width="0.7" height="5.1"/>
				</g>
				<g>
					<path class="st3" d="M176.4,231.2h-2.3c-0.5,0-0.9-0.4-0.9-0.9l0,0c0-0.5,0.4-0.9,0.9-0.9h2.3c0.5,0,0.9,0.4,0.9,0.9l0,0
						C177.3,230.8,176.9,231.2,176.4,231.2z"/>
				</g>
				<g>
					<path class="st7" d="M194.2,230.1h-13.2l1.7-1.9c0.5-0.6,1.2-0.9,1.9-0.9h1c0.6,0,1.1-0.2,1.6-0.6c0.8-0.7,1.8-1.1,2.9-1.4
						l1.8,1.4C194.2,228,194.2,230.1,194.2,230.1z"/>
				</g>
			</g>
			<g>
				<path class="st11" d="M211.7,82.7c-10.9,8.8-22.1,17.8-22.1,17.8l-5.8-8.2l14.7-15.1l-23.8,1.4l6.8-15.7l24.6,1.8
					C217.6,65.7,217.8,77.8,211.7,82.7z"/>
			</g>
			<g>
				<path class="st1" d="M200.7,77.6C200.7,77.6,200.7,77.6,200.7,77.6l-3.5-0.1l3.4-2.3c0.1-0.1,0.3-0.1,0.5,0.1
					c0.1,0.1,0.1,0.4-0.1,0.5l-1.7,1.2l1.5,0c0.2,0,0.3,0.2,0.3,0.3C201,77.5,200.8,77.6,200.7,77.6z"/>
			</g>
			<g>
				<path class="st1" d="M184.6,78.4c-0.2,0-0.3-0.1-0.3-0.3c0-0.2,0.1-0.3,0.3-0.3l5.1-0.2c0.2,0,0.3,0.1,0.3,0.3
					c0,0.2-0.1,0.3-0.3,0.3L184.6,78.4C184.6,78.4,184.6,78.4,184.6,78.4z"/>
			</g>
			<g>
				<polygon class="st12" points="170.3,63.8 162,72.5 158.9,64.9 158.7,60.9 158.5,56 158.4,52 165.9,45.1 				"/>
			</g>
			<g>
				<polygon class="st16" points="163.4,53.8 158.7,60.9 158.5,56 				"/>
			</g>
			<g>
				<path class="st12" d="M160.9,55.3c-5.6,2.5-10.4-0.3-11.6-6.7c0-0.1,0-0.2,0-0.2c-0.5-2.9-0.1-5.9,1.2-8.2
					c1.1-1.9,2.7-3.5,5-4.2c5.1-1.8,10.6,1,12.3,6.1c0.1,0.4,0.2,0.8,0.3,1.2C168.8,48,165.4,53.3,160.9,55.3z"/>
			</g>
			<g>
				<path class="st16" d="M168,43.2l-18.7,5.4c0-0.1,0-0.2,0-0.2c-0.5-2.9-0.1-5.9,1.2-8.2L168,43.2z"/>
			</g>
			<g>
				<path class="st8" d="M168,43.2l0.9-4.9c0.2-1-0.1-2-0.9-2.7l-2.4-2.3c-2.2-2.2-5.5-3.1-8.5-2.3l-4.1,1.1c-1.1,0.3-2,1.2-2.2,2.4
					l-1.2,6.2h8.9L168,43.2z"/>
			</g>
			<g>
				<path class="st12" d="M166.1,47.6c0,1.5-0.4,2.4,1.1,2.4c1.5,0,2.7-1.2,2.7-2.6s-1.2-2.7-2.6-2.7
					C165.8,44.6,166.1,46.1,166.1,47.6z"/>
			</g>
			<g>
				<path class="st1" d="M145.5,97.9c-0.2,0-0.3-0.1-0.3-0.3l-1.8-18.2c0-0.2,0.1-0.3,0.3-0.4c0.2,0,0.3,0.1,0.4,0.3l1.8,18.2
					C145.9,97.7,145.7,97.8,145.5,97.9C145.6,97.8,145.5,97.9,145.5,97.9z"/>
			</g>
			<g>
				<g>
					<path class="st9" d="M164.8,230.1h-29.3c0,0,0-2.1,2.3-3.4l2.1-1l2.5-1.2l7.6-5.5c0.8-0.4,1.7-0.2,2.3,0.4
						c1.5,1.5,2.4,3.4,5,3.2c1.8-0.1,4-1,4.4-2.2c0.2-0.7,1.6-0.5,1.8,0.2L164.8,230.1z"/>
				</g>
				<g>
					<path class="st1" d="M165.2,233.3h-29.7l0-3.2H153c0.6,0,1.3-0.2,1.7-0.6l2-1.6c0.5-0.4,1.1-0.6,1.7-0.6h6L165.2,233.3z"/>
				</g>
				<g>
					
						<rect x="144.4" y="222.9" transform="matrix(0.29 -0.957 0.957 0.29 -112.1342 297.9284)" class="st1" width="0.6" height="3.4"/>
				</g>
				<g>
					
						<rect x="146.7" y="221.2" transform="matrix(0.2831 -0.9591 0.9591 0.2831 -108.3677 300.8139)" class="st1" width="0.6" height="3.5"/>
				</g>
				<g>
					<path class="st3" d="M162.5,231.2h-3.8c-0.5,0-0.9-0.4-0.9-0.9l0,0c0-0.5,0.4-0.9,0.9-0.9h3.8c0.5,0,0.9,0.4,0.9,0.9l0,0
						C163.4,230.8,163,231.2,162.5,231.2z"/>
				</g>
				<g>
					<path class="st7" d="M151.7,230.1h-16.2c0,0,0-2.1,2.3-3.4l2.1-1l1.2,1c0.4,0.4,1,0.6,1.6,0.6h5.5c0.7,0,1.4,0.3,1.9,0.9
						L151.7,230.1z"/>
				</g>
			</g>
			<g>
				<path class="st1" d="M167.3,141.4c-0.2,0-0.3-0.1-0.3-0.3l-0.6-14.3l-5.6,0.1c-0.2,0-0.3-0.1-0.3-0.3c0-0.2,0.1-0.3,0.3-0.3
					l6.2-0.1l0.6,14.9C167.6,141.2,167.5,141.4,167.3,141.4C167.3,141.4,167.3,141.4,167.3,141.4z"/>
			</g>
			<g>
				<g>
					
						<ellipse transform="matrix(0.9884 -0.1519 0.1519 0.9884 -5.1333 23.6865)" class="st1" cx="152.5" cy="45.5" rx="0.6" ry="0.6"/>
				</g>
				<g>
					
						<ellipse transform="matrix(0.9884 -0.1519 0.1519 0.9884 -5.1123 24.4802)" class="st1" cx="157.7" cy="45.7" rx="0.6" ry="0.6"/>
				</g>
				<g>
					<path class="st1" d="M155,49.3C155,49.3,155,49.3,155,49.3c-0.1,0-1-0.1-1.3-0.7c-0.2-0.4,0-1.1,0.4-2.1
						c0.2-0.5,0.3-0.9,0.4-1.1c0-0.1,0.1-0.2,0.2-0.2c0.1,0,0.2,0.1,0.2,0.2c-0.1,0.3-0.2,0.7-0.4,1.2c-0.2,0.6-0.6,1.6-0.5,1.8
						c0.2,0.3,0.7,0.4,1,0.5c0.1,0,0.2,0.1,0.2,0.2C155.2,49.2,155.1,49.3,155,49.3z"/>
				</g>
				<g>
					<path class="st1" d="M158.1,51C158.1,51,158.1,51,158.1,51l-4.5-0.6c-0.1,0-0.2-0.1-0.2-0.2c0-0.1,0.1-0.2,0.2-0.2l4.5,0.6
						c0.1,0,0.2,0.1,0.2,0.2C158.3,51,158.2,51,158.1,51z"/>
				</g>
				<g>
					<path class="st1" d="M160,44.3C160,44.3,160,44.3,160,44.3l-3-0.4c-0.1,0-0.2-0.1-0.2-0.2c0-0.1,0.1-0.2,0.2-0.2l2.9,0.4
						c0.1,0,0.2,0.1,0.2,0.2C160.2,44.2,160.1,44.3,160,44.3z"/>
				</g>
				<g>
					<path class="st1" d="M151.4,43.9c-0.1,0-0.2-0.1-0.2-0.1c0-0.1,0-0.2,0.1-0.3l2.5-0.8c0.1,0,0.2,0,0.3,0.1c0,0.1,0,0.2-0.1,0.3
						L151.4,43.9C151.5,43.9,151.5,43.9,151.4,43.9z"/>
				</g>
			</g>
		</g>
		<g>
			<path class="st5" d="M150.6,108l-0.5-0.4l1.9-2.4c1.1-1.5,1.8-3.3,1.8-5.1v-4h20.6v3.1c0,2.3,1,4.5,2.7,6.1l1.8,1.6l-0.4,0.5
				l-1.8-1.6c-1.8-1.7-2.9-4.1-2.9-6.6v-2.5h-19.3v3.3c0,2-0.7,4-1.9,5.5L150.6,108z"/>
		</g>
		<g>
			<path class="st1" d="M168,43.2c0,0-11.9-5.2-20.6-5.2c-8.7,0,2.3,4,2.3,4l2.6-0.4c1.2-0.2,2.4-0.2,3.6,0L168,43.2z"/>
		</g>
		<g>
			<path class="st1" d="M161,42c0,0,1.8,2.7,4,3.5l0.4,2.3l1.3-0.1v-3l1.6,0.2l-0.3-1.7L161,42z"/>
		</g>
		<g>
			<path class="st1" d="M167.6,71.1c-0.1,0-0.2,0-0.2-0.1c-0.1-0.1-0.1-0.3,0-0.5l4.5-4.6c1.8-1.9,4.2-3,6.8-3.2
				c0.2,0,0.3,0.1,0.3,0.3c0,0.2-0.1,0.3-0.3,0.4c-2.4,0.2-4.7,1.3-6.4,3l-4.5,4.6C167.7,71.1,167.6,71.1,167.6,71.1z"/>
		</g>
		<g>
			<path class="st1" d="M159.2,71.1c-0.1,0-0.2-0.1-0.3-0.1l-2.6-3.8c-0.1-0.1-0.1-0.4,0.1-0.5c0.1-0.1,0.4-0.1,0.5,0.1l2.6,3.8
				c0.1,0.1,0.1,0.4-0.1,0.5C159.4,71.1,159.3,71.1,159.2,71.1z"/>
		</g>
		<g>
			<polygon class="st5" points="162.3,72.7 161.8,72.2 171.4,62.3 172.9,61.6 173.2,62.2 171.7,62.8 			"/>
		</g>
		<g>
			<g>
				<g>
					<g>
						<g>
							<g>
								<path class="st0" d="M79.3,14.2c2.2-6.2,7-11,13.2-13.1c11.1-3.7,23.1,2.3,26.8,13.3l-3.2,1.1C113,6.2,102.9,1.2,93.6,4.3
									c-5.2,1.8-9.3,5.8-11.1,11L79.3,14.2z"/>
							</g>
						</g>
						<g>
							<g>
								<polygon class="st0" points="109.8,13.9 110.9,10.7 116.7,12.8 118.8,7 122,8.1 118.8,17.1 								"/>
							</g>
						</g>
					</g>
					<g>
						<g>
							<g>
								<path class="st0" d="M79.9,27.6l3.2-1.1c3.1,9.3,13.2,14.3,22.5,11.2c5.2-1.8,9.3-5.8,11.1-11l3.2,1.1
									c-2.2,6.2-7,11-13.2,13.1C95.7,44.6,83.7,38.6,79.9,27.6z"/>
							</g>
						</g>
						<g>
							<g>
								<polygon class="st0" points="77.3,33.9 80.6,24.7 89.8,28 88.7,31.2 82.6,29 80.5,35.1 								"/>
							</g>
						</g>
					</g>
				</g>
			</g>
			<g>
				<g>
					<path class="st0" d="M99,25.4L99,25.4c-0.9,0-1.6-0.7-1.6-1.6V9c0-0.9,0.7-1.6,1.6-1.6h0c0.9,0,1.6,0.7,1.6,1.6v14.8
						C100.7,24.7,99.9,25.4,99,25.4z"/>
				</g>
				<g>
					<path class="st0" d="M97.5,23.2L97.5,23.2c0.4-0.8,1.4-1.2,2.2-0.8l7.6,3.5c0.8,0.4,1.2,1.4,0.8,2.2v0
						c-0.4,0.8-1.4,1.2-2.2,0.8l-7.6-3.5C97.5,25,97.2,24,97.5,23.2z"/>
				</g>
			</g>
		</g>
	</g>
</g>
</svg>
