<?xml version="1.0" encoding="utf-8"?>
<!-- Generator: Adobe Illustrator 24.3.0, SVG Export Plug-In . SVG Version: 6.00 Build 0)  -->
<svg version="1.1" id="Layer_1" xmlns="http://www.w3.org/2000/svg" xmlns:xlink="http://www.w3.org/1999/xlink" x="0px" y="0px"
	 viewBox="0 0 335 236" enable-background="new 0 0 335 236" xml:space="preserve">
<g>
	<g>
		<path fill="#E93737" d="M146.9,16.2c-2.1-3.1-0.9-8.3,2.6-10.7c3.5-2.3,8.1-1.8,10.2,1.3L146.9,16.2z"/>
	</g>
	<g>
		<g>
			<g>
				<polygon fill="#F4C9DB" points="166.9,41 163.7,29.8 156.7,29.6 158.6,26.1 163.5,26.1 169.5,22.8 168.4,18.1 171.9,18.1 
					173.8,23.7 171.1,29.9 174.6,41 				"/>
			</g>
			<g>
				<path fill="#FFCC00" d="M145.7,39.9c-5.8,0-11.3,2.7-15.3,7.6l-16.6,19.8c-1.1,1.3-1.8,3-1.8,4.9v0c0,3.7,2.5,6.6,5.6,6.6h62.7
					c3.4,0,9.1-3.8,4.2-13.5l-10-19.3c-2-3.8-5.5-6.1-9.3-6.1H145.7z"/>
			</g>
			<g>
				<g>
					<path fill="#FEDE6A" d="M177.2,47.6c-5.4,0.6-9.7-0.2-15.1,0.5c5.3-1.2,8.5-4.3,13.8-5.4l-0.3-3l-8.8,0.3l-27.3,3.7l12.7-3.7
						l-3.4-2.8c-5.8,0-14.4,5.5-18.5,10.4l11.7-0.1c-4.9,1.2-9.8,2.4-14.7,3.6l-5.9,7.1c10-1.9,20-3.6,30-5
						c-11.9,3-23.7,6.6-35.3,11.2l-2.4,2.9c-0.8,0.9-1.3,2-1.6,3.2c0.2,0,0.4,0,0.6,0c15.5-4.2,31.4-6.8,47.2-8.7
						c-13.4,3.8-39.3,15.2-39,16.3c0.1,0.2,0.1,0.5,0.3,0.7h8.3l50.5-7.1c-5.3,3-8.7,4.7-14.2,7.1H176c3.6-1.8,5-2.7,8.5-4.8
						c0.3-1.2,0.4-2.6,0.1-4l-1-3.4l-42.4,5.8c13.3-4.8,25.5-7.7,40.8-10.9l-1.6-5.5c-12.1,1.1-22.3,1.3-34.6,3.1
						c11.8-3.2,21.6-4.8,33.4-7.1L177.2,47.6z"/>
				</g>
			</g>
			<g>
				<path fill="none" d="M145.7,46c-5.8,0-11.3,2.3-15.3,6.4l-16.6,16.7c-1.1,1.1-1.8,2.5-1.8,4.1v0c0,3.1,2.5,5.6,5.6,5.6h62.7
					c3.4,0,9.1-3.2,4.2-11.3l-10-16.2c-2-3.2-5.5-5.2-9.3-5.2H145.7z"/>
			</g>
			<g>
				<path fill="none" d="M140.7,60.5l-8.1,8.3h17.6c1.1,0,1.9,0.9,1.9,1.9v8"/>
			</g>
			<g>
				<path fill="#FFCC00" d="M160.3,35h2.8c1.3,0,2.6,0.6,3.4,1.7v0c1.5,1.9,1,4.7-0.9,6.1l-8.2,5.7l3.9-8.4L160.3,35z"/>
			</g>
			<g>
				<g>
					<g>
						<path fill="#F4C9DB" d="M158.2,77.2c0.2,0.2,0.5,2,1.9,2.7c1.8,0.8,3.9,0.8,5.7,0l3.8-0.9l8.6-0.3c0.6,0.2,1.2,0,1.6-0.5l0,0
							c0.5-0.7,0.3-1.7-0.5-2.1l-10.7-5.4c-0.5-0.2-1-0.3-1.5-0.3l-8.9,1L158.2,77.2z"/>
					</g>
				</g>
			</g>
			<g>
				<rect x="156.7" y="70.3" fill="#FFCC00" width="3.6" height="8.5"/>
			</g>
			<g>
				<path fill="none" d="M134.9,67.7l-1.4-0.5c-0.7-0.3-1.4,0.5-1.1,1.2l0,0c0.3,0.5,0.9,0.6,1.3,0.3L134.9,67.7z"/>
			</g>
			<g>
				<path fill="#F4C9DB" d="M170.1,24.5c0,0-2.2-15.2-7.5-14.6l-8.5,3.5c-2.9,0.8-4.6,3.7-4,6.6c-1.1,0.5-1.8,1.6-1.8,2.8
					c0,1.7,1.4,3.1,3.1,3.1l-1.9,11.4l8.6,11.1l4.1-8.8l-0.6-9.5C161.5,30.2,170.2,29.5,170.1,24.5z"/>
			</g>
			<g>
				<path fill="#EDA7C5" d="M161.5,30.2c0,0-1.8,0.2-4.8-0.6l4.9,3.7L161.5,30.2z"/>
			</g>
			<g>
				<path fill="#002031" d="M151.4,22.5l-1.2-2.5c0,0-1.8,2.1-1.8,2.1c-1.1-1.3-2.1-5.3-1.5-6.9c1-2.8,5.2-4.9,7.8-5.8
					c2.6-0.9,5.5-1.3,8.2-1.3c1.3,0,5.4,0.5,3.5,2.8c-1.3,1.6-7,5.8-13.9,6.9c0,0,1.4,1.6,0.5,4.5C152.8,23.2,151.7,23.3,151.4,22.5
					z"/>
			</g>
			<g>
				<path fill="#FFCC00" d="M149.9,34.6l-7.2,0.7c-3,0.3-5.5,2.3-6.5,5.1l-0.9,2.6l1.8-0.7c3.2-1.2,6.8-1,9.9,0.6l10.5,5.5l-3.9-6.5
					c-1-1.7-2.4-3.2-4.1-4.3l0,0L149.9,34.6z"/>
			</g>
			<g>
				<path fill="none" d="M167.4,60l7.5,16c1,1.8,3.3,2.8,5.4,2.8l0,0"/>
			</g>
			<g>
				<path fill="#FFCC00" d="M180.2,78.7L180.2,78.7c-3.2,0-5.9-2.2-6.5-5.3l-8.8-34.7c-0.2-0.7,0.4-1.4,1.2-1.4h7.9
					c0.5,0,1,0.3,1.1,0.8l11.5,32.5C187.6,74.7,184.5,78.7,180.2,78.7z"/>
			</g>
			<g>
				<polygon fill="#FFCC00" points="174,37.2 165.6,37.2 165,34.6 173.4,34.6 				"/>
			</g>
			<g>
				<path fill="none" d="M138.7,53.5c-2.1,0.8-3.8,2.2-5.4,3.7c-3.3,3.1-6,6.8-7.9,10.9c-0.1,0.3-0.2,0.6-0.1,0.8
					c0.1,0.2,0.3,0.3,0.5,0.3c1.1,0.3,2.2-0.2,3.1-0.9s1.4-1.7,2.1-2.6c1.5-2.1,3.5-3.9,5.8-5.2c1.3-0.8,2.8-1.4,4-2.4
					c1.2-1,2.1-2.6,1.8-4.1c-0.1-0.3-0.1-0.5-0.3-0.7c-0.2-0.3-0.6-0.4-0.9-0.4c-1.6-0.3-3.4,0.4-4.4,1.7"/>
			</g>
			<g>
				<g>
					<path fill="#FEDE6A" d="M172.7,69.3l0.9,3.7l8.3-1.1c-2.5,1.2-5,2.3-7.5,3.4c0.7,1.2,1.8,2.2,3.1,2.8c3-1.3,6-2.7,9-4.2
						c0.2-0.6,0.3-1.3,0.3-2c0,0,0,0,0,0c0-0.1,0-0.2,0-0.4c0,0,0,0,0-0.1c0-0.1,0-0.2,0-0.3c0,0,0-0.1,0-0.1c0-0.1-0.1-0.3-0.1-0.4
						l-1-2.9L172.7,69.3z"/>
				</g>
				<g>
					<path fill="#FEDE6A" d="M179.5,50.4c-3.8,0.4-7.5,0.7-11.3,1.1l1.5,5.9c3.9-0.7,7.7-1.4,11.6-2l-0.9-2.6L179.5,50.4z"/>
				</g>
				<g>
					<path fill="#FEDE6A" d="M171.8,65.7c4-0.8,8.1-1.6,12.3-2.3l-1.6-4.6c-4.1,0.3-8.1,0.6-12.2,1L171.8,65.7z"/>
				</g>
				<g>
					<path fill="#FEDE6A" d="M168.1,51.2c3.7-0.7,7.3-1.3,11-1.9l-1.5-4.2L166.8,46L168.1,51.2z"/>
				</g>
				<g>
					<path fill="#FEDE6A" d="M166,42.6l10-2.5l-0.8-2.2c-0.2-0.5-0.6-0.8-1.1-0.8h-7.9c-0.8,0-1.3,0.7-1.2,1.4L166,42.6z"/>
				</g>
			</g>
			<g>
				<path fill="none" d="M180.2,78.7L180.2,78.7c-3.2,0-5.9-2.2-6.5-5.3l-8.8-34.7c-0.2-0.7,0.4-1.4,1.2-1.4h7.9
					c0.5,0,1,0.3,1.1,0.8l11.5,32.5C187.6,74.7,184.5,78.7,180.2,78.7z"/>
			</g>
			<g>
				<circle fill="#002031" cx="152.9" cy="44.8" r="0.7"/>
			</g>
			<g>
				<circle fill="#002031" cx="161.3" cy="44.8" r="0.7"/>
			</g>
			<g>
				<path fill="#FFFFFF" d="M152.9,56.5c-0.2,0-0.3-0.2-0.3-0.3V45c0-0.2,0.2-0.3,0.3-0.3c0.2,0,0.3,0.2,0.3,0.3v11.2
					C153.2,56.3,153.1,56.5,152.9,56.5z"/>
			</g>
			<g>
				<path fill="#FFFFFF" d="M161.3,56.5c-0.2,0-0.3-0.2-0.3-0.3V45c0-0.2,0.2-0.3,0.3-0.3c0.2,0,0.3,0.2,0.3,0.3v11.2
					C161.6,56.3,161.5,56.5,161.3,56.5z"/>
			</g>
			<g>
				<path fill="#002031" d="M130.7,68.7c-0.1,0-0.2-0.1-0.2-0.2c0-0.1,0.1-0.2,0.2-0.2l1.6,0l2.1-2.6c0.1-0.1,0.2-0.1,0.3,0
					c0.1,0.1,0.1,0.2,0,0.3l-2.2,2.8L130.7,68.7C130.7,68.7,130.7,68.7,130.7,68.7z"/>
			</g>
			<g>
				<path fill="#002031" d="M156.7,79c-0.1,0-0.2-0.1-0.2-0.2v-8.5c0-0.9-0.7-1.6-1.6-1.6h-22.3l-1,1.2c-0.1,0.1-0.2,0.1-0.3,0
					c-0.1-0.1-0.1-0.2,0-0.3l1.2-1.4h22.5c1.1,0,2,0.9,2,2v8.5C156.9,78.9,156.8,79,156.7,79z"/>
			</g>
			<g>
				<path fill="#002031" d="M160.3,79c-0.1,0-0.2-0.1-0.2-0.2v-8.3h-3.4c-0.1,0-0.2-0.1-0.2-0.2s0.1-0.2,0.2-0.2h3.8v8.7
					C160.5,78.9,160.4,79,160.3,79z"/>
			</g>
			<g>
				<path fill="#FFFFFF" d="M157.4,48.8c-0.1,0-0.2-0.1-0.3-0.2l-3.9-6.5c-1.6-2.7-3.8-4.5-6.4-5c-0.2,0-0.4-0.1-0.4-0.3l-0.1-0.2
					l0.2-0.1c0.1-0.1,0.3-0.1,0.4,0l0.1,0c2.7,0.6,5.1,2.5,6.8,5.3l3.9,6.5c0.1,0.2,0,0.4-0.1,0.5C157.6,48.8,157.5,48.8,157.4,48.8
					z"/>
			</g>
			<g>
				<path fill="#002031" d="M172.9,70.3c-0.1,0-0.2-0.1-0.2-0.2l-6.5-25.6c0-0.1,0-0.2,0.2-0.3c0.1,0,0.2,0,0.3,0.2l6.5,25.6
					C173.2,70.1,173.1,70.2,172.9,70.3C172.9,70.3,172.9,70.3,172.9,70.3z"/>
			</g>
			<g>
				<path fill="#002031" d="M165.1,21.1c-0.1,0-0.2-0.1-0.2-0.2c0-0.1,0-0.2,0.1-0.3c0.2-0.1,0.8-0.3,0.9-0.7c0-0.2-0.7-1.1-1-1.5
					c-0.4-0.5-0.8-1-1-1.4c0-0.1,0-0.2,0.1-0.3c0.1,0,0.2,0,0.3,0.1c0.1,0.3,0.5,0.8,0.9,1.3c0.8,0.9,1.3,1.6,1.1,2
					C166.1,20.8,165.3,21.1,165.1,21.1C165.1,21.1,165.1,21.1,165.1,21.1z"/>
			</g>
			<g>
				<circle fill="#002031" cx="161.5" cy="18.7" r="0.5"/>
			</g>
			<g>
				<circle fill="#002031" cx="166.8" cy="17" r="0.5"/>
			</g>
			<g>
				<path fill="#FFFFFF" d="M162.8,22l3.5,0.1c0.2,0,0.3,0.2,0.2,0.4c-0.5,0.8-2.1,2.6-3.9-0.1C162.5,22.2,162.6,22,162.8,22z"/>
			</g>
			<g>
				<path fill="#002031" d="M167.8,14c-0.1,0-0.1,0-0.2-0.1c-1.1-0.8-2.2-0.4-2.3-0.4c-0.2,0.1-0.4,0-0.4-0.2
					c-0.1-0.2,0-0.4,0.2-0.4c0.1,0,1.5-0.5,2.9,0.4c0.2,0.1,0.2,0.3,0.1,0.5C168,14,167.9,14,167.8,14z"/>
			</g>
			<g>
				<path fill="#002031" d="M159.3,17.5c-0.1,0-0.1,0-0.2,0c-0.2-0.1-0.2-0.3-0.1-0.5c0-0.1,1.2-2,2.7-2c0.2,0,0.3,0.2,0.3,0.3
					s-0.2,0.3-0.3,0.3c-0.9,0-1.8,1.2-2.1,1.7C159.6,17.5,159.5,17.5,159.3,17.5z"/>
			</g>
			<g>
				<path fill="#002031" d="M175.4,77C175.4,77,175.4,77,175.4,77l-7.3-1c-0.1,0-0.2-0.1-0.2-0.3c0-0.1,0.1-0.2,0.3-0.2l7.2,1
					c0.1,0,0.2,0.1,0.2,0.3C175.6,76.9,175.5,77,175.4,77z"/>
			</g>
			<g>
				<path fill="#002031" d="M174,75.1C174,75.1,174,75.1,174,75.1l-6.1-1.3c-0.1,0-0.2-0.1-0.2-0.3c0-0.1,0.1-0.2,0.3-0.2l6,1.3
					c0.1,0,0.2,0.1,0.2,0.3C174.2,75,174.1,75.1,174,75.1z"/>
			</g>
		</g>
		<g>
			<rect x="60" y="78.4" fill="#C8E7FC" width="26.5" height="144.4"/>
		</g>
		<g>
			<rect x="86.6" y="78.7" fill="#DCEEFD" width="106.1" height="144.4"/>
		</g>
		<g>
			<path fill="#C8E7FC" d="M192.7,159v63.8h-62.3c-14.2-27.3-13.4-63.1-13.4-63.1l7.8-3.5l5.9,5.9l5.9-5.9l5.9,5.9l5.9-5.9l5.9,5.9
				l5.9-5.9l5.9,5.9l5.9-5.9l5.9,5.9l5.9-5.9l5.9,5.9L192.7,159z"/>
		</g>
		<g>
			<circle fill="#237978" cx="143.2" cy="147.6" r="23.2"/>
		</g>
		<g>
			<path fill="#FFFFFF" d="M141.9,155.8c-1,0-1.9-0.4-2.6-1.1l-9.9-10.1c-1.4-1.4-1.4-3.7,0.1-5.2c1.4-1.4,3.7-1.4,5.2,0.1l7,7.2
				l9.8-12c1.3-1.6,3.6-1.8,5.1-0.5c1.6,1.3,1.8,3.6,0.5,5.1l-12.4,15.2c-0.7,0.8-1.6,1.3-2.7,1.3C142,155.8,142,155.8,141.9,155.8z
				"/>
		</g>
		<g>
			<rect x="60" y="78.4" fill="#1540EB" width="26.5" height="26"/>
		</g>
		<g>
			<rect x="86.6" y="78.4" fill="#59ACF5" width="106.1" height="26"/>
		</g>
		<g>
			<rect x="65.8" y="104.4" fill="#FFFFFF" width="0.7" height="46.5"/>
		</g>
		<g>
			<rect x="72.2" y="131.2" fill="#FFFFFF" width="0.7" height="91.6"/>
		</g>
		<g>
			<rect x="79.3" y="122.9" fill="#FFFFFF" width="0.7" height="61.7"/>
		</g>
		<g>
			<polygon fill="#C8E7FC" points="98.4,104.4 92.5,110.3 86.6,104.4 			"/>
		</g>
		<g>
			<polygon fill="#C8E7FC" points="110.1,104.4 104.3,110.3 98.4,104.4 			"/>
		</g>
		<g>
			<polygon fill="#C8E7FC" points="121.9,104.4 116,110.3 110.1,104.4 			"/>
		</g>
		<g>
			<polygon fill="#C8E7FC" points="133.7,104.4 127.8,110.3 121.9,104.4 			"/>
		</g>
		<g>
			<polygon fill="#C8E7FC" points="145.5,104.4 139.6,110.3 133.7,104.4 			"/>
		</g>
		<g>
			<polygon fill="#C8E7FC" points="157.3,104.4 151.4,110.3 145.5,104.4 			"/>
		</g>
		<g>
			<polygon fill="#C8E7FC" points="169.1,104.4 163.2,110.3 157.3,104.4 			"/>
		</g>
		<g>
			<polygon fill="#C8E7FC" points="180.9,104.4 175,110.3 169.1,104.4 			"/>
		</g>
		<g>
			<polygon fill="#C8E7FC" points="192.7,104.4 186.8,110.3 180.9,104.4 			"/>
		</g>
		<g>
			<path fill="#DCEEFD" d="M222.3,153.5l-5.9-5.9l-5.9,5.9l-5.9-5.9l-5.9,5.9l-5.9-5.9l-5.9,5.9l-5.9-5.9l-5.9,5.9l-5.9-5.9
				l-5.9,5.9l-5.9-5.9l-5.9,5.9l-5.9-5.9l-5.9,5.9l-5.9-5.9l-5.9,5.9l-5.9-5.9l-5.9,5.9c0,0,5.5,80,66.3,80l111,0
				C293.6,233.5,220,214.3,222.3,153.5z"/>
		</g>
		<g>
			
				<ellipse transform="matrix(0.5019 -0.8649 0.8649 0.5019 -78.4647 259.574)" fill="#1BC1D7" cx="186.1" cy="197.9" rx="19.5" ry="27.2"/>
		</g>
		<g>
			<path fill="#FFFFFF" d="M187.5,210.2c-0.7,0-1.4-0.2-2-0.6l-11.3-7.2c-1.7-1.1-2.2-3.3-1.1-5c1.1-1.7,3.3-2.2,5-1.1l7.8,5l6.4-13
				c0.9-1.8,3.1-2.5,4.9-1.7c1.8,0.9,2.5,3.1,1.7,4.9l-8.2,16.6c-0.5,0.9-1.3,1.6-2.3,1.9C188.2,210.2,187.8,210.2,187.5,210.2z"/>
		</g>
		<g>
			<path fill="#002031" d="M148.8,223.1c-0.1,0-0.1,0-0.2-0.1c-29.1-21.6-32.7-69-32.7-69.5l0-0.2l6.2-6.2l5.9,5.9l5.9-5.9l5.9,5.9
				l5.9-5.9l5.9,5.9l5.9-5.9l5.9,5.9l5.9-5.9l5.9,5.9l5.9-5.9l5.9,5.9l5.7-5.7c0.1-0.1,0.4-0.1,0.5,0c0.1,0.1,0.1,0.4,0,0.5
				l-6.1,6.1l-5.9-5.9l-5.9,5.9l-5.9-5.9l-5.9,5.9l-5.9-5.9l-5.9,5.9l-5.9-5.9l-5.9,5.9l-5.9-5.9L128,154l-5.9-5.9l-5.5,5.5
				c0.2,3,4.4,48,32.4,68.9c0.2,0.1,0.2,0.3,0.1,0.5C149,223.1,148.9,223.1,148.8,223.1z"/>
		</g>
	</g>
	<g>
		<g>
			<path fill="#DCEEFD" d="M228.9,50.1l-0.3-0.5c-1.2-1.9-2.6-4.1-4.5-5.5c-2-1.5-4.6-1.9-6.4-1l-0.4-0.8c2.1-1.1,5-0.7,7.3,1.1
				c1.9,1.4,3.2,3.4,4.4,5.2c5.7-6.8,14.3-11.3,23.1-12l0.1,0.9c-8.8,0.7-17.4,5.2-22.9,12.1L228.9,50.1z"/>
		</g>
		<g>
			<path fill="#DCEEFD" d="M257.7,79.5l-0.3-0.4c-1.3-1.9-2.9-4-5-5.1c-1.9-1-4.7-1.2-6.3,0.6l-0.7-0.6c1.9-2.1,5.2-2,7.4-0.8
				c2.2,1.2,3.7,3.2,5,5c4.2-3.1,9.1-5.2,14.2-6l0.1,0.9c-5.2,0.8-10.1,2.9-14.2,6.1L257.7,79.5z"/>
		</g>
	</g>
	<g>
		<path fill="#F17277" d="M146.7,16c0.5-3.7,8.1-9.3,11.5-11.5c1.7-1.1,3.6-2.1,5.6-2.1c0.4,0,0.9,0.1,1.3,0.3
			c0.6,0.4,0.8,0.7,0.8,1.7c0,1.3-1.8,3.9-1.8,3.9C151,9.1,146.7,16,146.7,16z"/>
	</g>
	<g>
		<path fill="#002031" d="M163.7,30.1c-0.1,0-0.2-0.1-0.2-0.2c0-0.1,0-0.2,0.2-0.3c0,0,3.8-0.9,5.3-3.8c0.8-1.6,0.9-3.4,0.1-5.6
			c0-0.1,0-0.2,0.1-0.3c0.1,0,0.2,0,0.3,0.1c0.8,2.3,0.8,4.3-0.1,6C167.8,29.1,164,30,163.7,30.1C163.8,30,163.8,30.1,163.7,30.1z"
			/>
	</g>
</g>
</svg>
