<svg width="270" height="240" viewBox="0 0 270 240" fill="none" xmlns="http://www.w3.org/2000/svg">
<path fill-rule="evenodd" clip-rule="evenodd" d="M116.136 41.6956H235.526V40.7804C230.136 39.9668 222.509 38.5431 218.339 34.1702C217.526 33.3566 216.814 32.4414 216.204 31.5261C216.133 31.4325 216.063 31.3389 215.993 31.2454C214.544 29.307 213.123 27.4068 210.407 26.3397C205.932 24.6109 200.746 26.1363 196.068 28.0685C196.576 26.1363 196.983 24.0007 196.475 21.8651C195.865 19.221 193.424 16.9837 190.475 16.2719C188.034 15.6617 185.187 15.9668 181.831 17.1871C176.848 19.0176 172.475 21.8651 169.627 25.4244C166.373 21.56 161.797 17.2888 154.983 16.7804C149.797 16.4753 144.102 18.6109 139.831 22.577C137.898 24.4075 136.373 26.3397 134.848 28.2719C133.017 30.6109 131.085 33.0515 128.543 35.0854C126.509 36.6109 124.17 37.7295 121.729 38.8482C121.329 39.0479 120.919 39.2477 120.501 39.451C119.643 39.8687 118.754 40.3015 117.865 40.7804L116.136 41.6956ZM229.932 40.6787H120.102L120.102 40.6786C120.814 40.3736 121.526 40.0685 122.136 39.8651C124.576 38.7465 127.017 37.5261 129.153 35.899C131.797 33.7634 133.729 31.3227 135.661 28.8821L135.661 28.8821C137.187 26.9498 138.712 25.0176 140.543 23.2888C144.61 19.5261 150 17.3905 154.882 17.7973C161.492 18.3058 166.068 22.7804 169.22 26.5431L169.627 27.0515L170.034 26.5431C172.78 22.9837 177.153 19.9329 182.237 18.1024C185.39 16.9837 188.034 16.6787 190.271 17.1871C192.915 17.7973 194.949 19.7295 195.559 22.0685C196.068 24.3058 195.559 26.5431 194.949 28.7804L194.746 29.6956L195.661 29.2888C200.339 27.2549 205.729 25.4244 210.204 27.1532C212.746 28.1702 214.068 30.0007 215.492 32.0346C216.204 32.9498 216.915 33.8651 217.729 34.7804C220.78 37.9329 225.458 39.6617 229.932 40.6787Z" fill="#DCEEFD"/>
<path fill-rule="evenodd" clip-rule="evenodd" d="M212.848 16.6784H269.187L267.254 15.5598C265.456 14.6604 263.339 14.3178 261.185 13.9693C260.904 13.9237 260.621 13.878 260.339 13.831C260.136 13.7801 259.907 13.7547 259.678 13.7293C259.449 13.7038 259.221 13.6784 259.017 13.6276C254.949 13.0174 252.407 11.7971 251.492 10.1699C251.288 9.86485 251.187 9.66146 251.085 9.35638C250.882 8.84791 250.678 8.33943 250.17 7.83096C248.949 6.61062 246.61 6.40723 244.882 6.81401C243.661 7.11909 242.543 7.72926 241.424 8.64452C241.322 7.32248 240.61 5.59367 239.492 4.06824C238.576 2.74621 236.746 0.610616 234.102 0.407227C223.755 0.507681 219.858 7.25642 217.216 11.8319C217.184 11.8884 217.151 11.9446 217.119 12.0004C217.008 12.1886 216.9 12.3744 216.794 12.5568C215.924 14.0493 215.189 15.31 214.373 15.7632L212.848 16.6784ZM264.204 15.6615H215.899C216.263 15.2361 216.628 14.6656 217.057 13.9933C217.347 13.5403 217.666 13.0411 218.034 12.5089L218.038 12.5026C220.681 7.82528 224.242 1.52582 234.102 1.42418C236.237 1.62757 237.865 3.55977 238.678 4.67841C240.102 6.61062 240.712 8.74621 240.509 9.66146L240.102 11.2886L241.322 10.1699C242.543 8.8479 243.865 8.13604 245.187 7.83096C246.814 7.42418 248.746 7.83096 249.56 8.64451C249.805 8.88976 249.984 9.26643 250.151 9.61605C250.192 9.70136 250.231 9.78506 250.271 9.86485L250.271 9.86489C250.373 10.17 250.475 10.475 250.678 10.7801C251.797 12.7123 254.441 14.0343 258.915 14.7462C259.119 14.7971 259.348 14.8225 259.576 14.8479C259.805 14.8733 260.034 14.8988 260.237 14.9496C261.56 15.153 262.882 15.3564 264.204 15.6615Z" fill="#DCEEFD"/>
<path d="M239.492 235.73C239.492 239.187 212.848 239.492 137.797 239.492C65.6951 239.492 0.610352 237.458 0.610352 235.73C0.610352 234.001 65.6951 231.967 137.797 231.967C213.56 231.967 239.492 232.577 239.492 235.73Z" fill="#DCEEFD"/>
<path d="M153.051 236.645H53.8984C46.5764 236.645 43.3221 232.882 42.712 226.272L26.7459 15.1531C26.3391 9.35646 29.4916 5.59375 35.8984 5.59375H135.661C141.458 5.59375 146.441 10.2717 146.848 15.9666L162.712 226.17C163.22 231.967 158.848 236.645 153.051 236.645Z" fill="#82C6F8"/>
<path d="M156.814 236.645H63.7632C57.3564 236.645 52.0683 231.763 51.5598 225.356L35.6954 15.3565C35.2886 10.0683 39.4581 5.59375 44.7462 5.59375H139.424C145.221 5.59375 150.204 10.2717 150.611 15.9666L151.221 23.7971L154.272 122.543L165.458 210.611L166.577 226.068C166.882 231.967 162.611 236.645 156.814 236.645Z" fill="#59ACF5"/>
<path d="M165.356 210.712H50.4408L36.3052 23.8984H151.119L165.356 210.712Z" fill="#DCEEFD"/>
<path fill-rule="evenodd" clip-rule="evenodd" d="M100.068 224.238C100.373 228.306 103.932 231.662 108 231.662C110.034 231.662 111.865 230.848 113.085 229.425C114.407 228.001 115.017 226.171 114.915 224.137C114.61 220.069 111.051 216.713 106.983 216.713C105.051 216.713 103.221 217.526 101.899 218.95C100.576 220.374 99.9663 222.204 100.068 224.238ZM102.407 219.357C103.526 218.137 105.153 217.425 106.983 217.425C110.746 217.425 114 220.476 114.204 224.137C114.305 225.967 113.797 227.696 112.576 228.916C111.458 230.137 109.831 230.848 108 230.848C104.339 230.848 101.085 227.899 100.78 224.137C100.678 222.306 101.187 220.577 102.407 219.357Z" fill="white"/>
<path d="M145.424 149.798H61.8308C59.1867 149.798 56.9494 147.662 56.746 145.018L50.8477 64.0687C50.5426 60.306 53.5935 57.0518 57.3562 57.0518H137.288C140.746 57.0518 143.593 59.6958 143.899 63.1535L149.899 145.12C150 147.662 148.068 149.798 145.424 149.798Z" fill="white"/>
<path d="M147.254 109.934C146.237 115.323 142.78 120.612 144.305 126.001C145.22 129.052 147.559 131.493 149.085 134.34L147.254 109.934Z" fill="#F0ECEC"/>
<path fill-rule="evenodd" clip-rule="evenodd" d="M113.797 115.525H131.492L132.814 133.22H115.119L113.797 115.525ZM127.322 128.237L126.814 120.61H119.187L119.695 128.237H127.322Z" fill="#002031"/>
<path fill-rule="evenodd" clip-rule="evenodd" d="M70.7803 115.525H88.4752L89.7972 133.22H72.1023L70.7803 115.525ZM84.204 128.237L83.6955 120.61H76.0684L76.5769 128.237H84.204Z" fill="#002031"/>
<path fill-rule="evenodd" clip-rule="evenodd" d="M110.645 72.4072H128.339L129.661 90.1021H111.967L110.645 72.4072ZM124.17 85.1191L123.661 77.492H116.034L116.543 85.1191H124.17Z" fill="#002031"/>
<path d="M105.56 72.4072H85.3223L86.5426 90.2038H91.6274L90.7121 77.492H105.966L105.56 72.4072Z" fill="#002031"/>
<path d="M80.2377 72.4072H67.5259L67.9327 77.492H75.5598L76.0683 85.1191H68.4411L68.8479 90.2038H81.5598L80.2377 72.4072Z" fill="#002031"/>
<path d="M130.068 95.2891H112.271L112.678 100.272H125.39L126.102 110.442H131.187L130.068 95.2891Z" fill="#002031"/>
<path d="M106.475 85.1191H96.3057L96.7125 90.2039H101.797L102.204 95.2886H92.0345L92.7464 105.356H87.6617L86.9498 95.2886H69.2549L69.56 100.272H82.2718L82.9837 110.441H98.2379L97.4244 100.272H107.594L106.475 85.1191Z" fill="#002031"/>
<path d="M70.3736 110.441L69.9668 105.356H77.5939L77.899 110.441H70.3736Z" fill="#002031"/>
<path d="M94.0682 123.661L93.458 115.525H98.5428L99.1529 123.661H94.0682Z" fill="#002031"/>
<path d="M98.6444 123.662L98.3394 119.289H104.746L105.051 123.662H98.6444Z" fill="#002031"/>
<path d="M113.391 110.441H121.018L120.611 105.356H113.085L113.391 110.441Z" fill="#002031"/>
<path d="M108.102 105.356H102.916L104.543 128.238H94.4751L94.7802 133.221H110.034L108.306 110.441L108.102 105.356Z" fill="#002031"/>
<path d="M134.238 170.137H76.3733C74.7462 170.137 73.3225 168.815 73.2208 167.187C73.1191 165.56 74.3394 164.238 75.9665 164.238H133.831C135.458 164.238 136.882 165.56 136.983 167.187C137.085 168.815 135.865 170.137 134.238 170.137Z" fill="#76C0F7"/>
<path d="M110.034 181.729H77.2883C75.6612 181.729 74.2375 180.407 74.1358 178.78C74.0341 177.153 75.2544 175.831 76.8816 175.831H109.627C111.254 175.831 112.678 177.153 112.78 178.78C112.882 180.407 111.661 181.729 110.034 181.729Z" fill="#76C0F7"/>
<path d="M135.051 181.729H122.034C120.407 181.729 118.983 180.407 118.881 178.78C118.78 177.153 120 175.831 121.627 175.831H134.644C136.271 175.831 137.695 177.153 137.797 178.78C138 180.407 136.678 181.729 135.051 181.729Z" fill="#76C0F7"/>
<path fill-rule="evenodd" clip-rule="evenodd" d="M30.102 50.5433H31.1189C32.0342 50.5433 32.8477 50.1366 33.4579 49.5264C34.0681 48.9162 34.3732 48.001 34.2715 47.0857L33.6613 39.3569C33.5596 37.5264 31.8308 36.001 30.0003 36.001H28.9833C28.0681 36.001 27.2545 36.4078 26.6444 37.0179C26.0342 37.6281 25.7291 38.5433 25.8308 39.4586L26.441 47.1874C26.5427 49.0179 28.2715 50.5433 30.102 50.5433ZM27.2545 37.4247C27.763 36.9162 28.3732 36.6111 29.085 36.6111H30.102C31.5257 36.6111 32.8477 37.8315 33.0511 39.3569L33.6613 47.0857C33.763 47.7976 33.5596 48.5095 33.0511 49.0179C32.5427 49.5264 31.9325 49.8315 31.2206 49.8315H30.2037C28.6783 49.8315 27.3562 48.6111 27.2545 47.0857L26.6444 39.3569C26.5427 38.645 26.746 37.9332 27.2545 37.4247Z" fill="#002031"/>
<path fill-rule="evenodd" clip-rule="evenodd" d="M31.3222 67.4242H32.3391C33.2544 67.4242 34.068 67.0174 34.6781 66.4073C35.2883 65.7971 35.5934 64.8818 35.4917 63.9666L34.8815 56.2378C34.7798 54.4073 33.051 52.8818 31.2205 52.8818H30.2036C29.2883 52.8818 28.4747 53.2886 27.8646 53.8988C27.2544 54.509 26.9493 55.4242 27.051 56.3395L27.6612 64.0683C27.7629 65.8988 29.4917 67.4242 31.3222 67.4242ZM28.4747 54.3056C28.9832 53.7971 29.5934 53.492 30.3052 53.492H31.3222C32.8476 53.492 34.1697 54.7123 34.2713 56.2378L34.8815 63.9666C34.9832 64.6784 34.7798 65.3903 34.2713 65.8988C33.7629 66.4073 33.1527 66.7123 32.4408 66.7123H31.4239C29.8985 66.7123 28.5764 65.492 28.4747 63.9666L27.8646 56.2378C27.7629 55.5259 27.9663 54.814 28.4747 54.3056Z" fill="#002031"/>
<path fill-rule="evenodd" clip-rule="evenodd" d="M83.1868 17.5934H97.7291C98.5427 17.5934 99.3563 17.2883 99.763 16.6781C100.272 16.0679 100.577 15.2544 100.475 14.4408C100.373 13.0171 99.1529 11.8984 97.6274 11.8984H83.1868C82.3732 11.8984 81.5596 12.2035 81.0512 12.8137C80.5427 13.4239 80.2376 14.2374 80.3393 15.051C80.441 16.4747 81.6613 17.5934 83.1868 17.5934ZM81.458 13.3222C81.8647 12.9154 82.4749 12.6103 83.0851 12.6103H97.6274C98.7461 12.6103 99.6613 13.4239 99.763 14.5425C99.8647 15.1527 99.6613 15.7628 99.2546 16.1696C98.8478 16.5764 98.2376 16.8815 97.6274 16.8815H83.0851C81.9664 16.8815 81.0512 16.0679 80.9495 14.9493C80.8478 14.3391 81.0512 13.7289 81.458 13.3222Z" fill="white"/>
<path d="M209.594 79.0181L204.712 77.2893L204.814 77.0859L203.899 77.1876C203.899 77.1876 203.899 77.1876 203.797 77.1876H203.695C202.983 77.2893 202.373 77.6961 202.17 78.408L197.39 92.3402C197.085 93.3571 197.594 94.3741 198.611 94.7809L203.695 96.6114C204.712 96.9164 205.729 96.408 206.034 95.4927L210.814 81.5605C211.119 80.4419 210.611 79.3232 209.594 79.0181Z" fill="#002031"/>
<path d="M199.628 94.5773L204.712 96.4078C205.729 96.7129 206.746 96.2044 207.051 95.2892L211.831 81.357C212.136 80.34 211.628 79.3231 210.611 78.9163L205.526 77.0858C204.509 76.7807 203.492 77.2892 203.187 78.2044L198.407 92.1366C198.204 93.1536 198.712 94.2722 199.628 94.5773Z" fill="#1540EB"/>
<path d="M205.017 85.8311L210.305 88.6785C211.831 89.6955 212.543 91.526 212.136 93.2548L209.899 101.085L203.288 98.5429L204.712 93.7633L201.966 91.4243L205.017 85.8311Z" fill="#C26E5E"/>
<path d="M185.797 96.3057L197.695 113.289L203.39 97.4243L210.204 100.577C210.204 100.577 207.56 113.594 203.899 121.119C201.763 125.594 197.899 125.695 195.153 123.967C187.322 118.882 181.933 109.831 181.933 109.831L185.797 96.3057Z" fill="#237978"/>
<path fill-rule="evenodd" clip-rule="evenodd" d="M203.39 97.5264V97.6281V98.0348C203.39 100.374 205.322 102.306 207.661 102.306C208.577 102.306 209.39 102.001 210 101.594C210.102 100.984 210.204 100.679 210.204 100.679L203.39 97.5264ZM200.543 105.662L197.797 113.391L195.865 110.645C196.17 112.679 198 114.204 200.034 114.204C202.373 114.204 204.305 112.272 204.305 109.933C204.305 107.696 202.577 105.865 200.543 105.662ZM203.289 122.238V121.831C203.289 120.306 204.102 119.086 205.119 118.374C204.712 119.391 204.306 120.306 203.899 121.221L203.899 121.221C203.695 121.628 203.492 121.933 203.289 122.238ZM192.407 117.56C191.085 117.56 189.967 118.17 189.153 118.984C190.882 120.815 192.916 122.543 195.153 123.967C195.255 124.018 195.356 124.094 195.458 124.17C195.56 124.247 195.661 124.323 195.763 124.374C196.272 123.662 196.577 122.747 196.577 121.831C196.678 119.492 194.746 117.56 192.407 117.56ZM183.051 105.967C183.56 105.662 184.17 105.56 184.78 105.56C187.119 105.56 189.051 107.492 189.153 109.831C189.153 112.17 187.322 114.001 184.983 114.103C183.051 111.662 181.933 109.831 181.933 109.831L183.051 105.967Z" fill="#0E6866"/>
<path d="M207.356 89.5939H207.254L204.102 87.6617C204 87.56 204 87.4583 204 87.3566C204.102 87.2549 204.203 87.2549 204.305 87.2549L207.458 89.1871C207.559 89.2888 207.559 89.3905 207.559 89.4922C207.458 89.5939 207.356 89.5939 207.356 89.5939Z" fill="#002031"/>
<path d="M206.034 91.628H205.932L202.983 89.6958C202.881 89.5941 202.881 89.4925 202.881 89.3908C202.983 89.2891 203.085 89.2891 203.186 89.2891L206.136 91.2213C206.237 91.323 206.237 91.4247 206.237 91.5264C206.136 91.5264 206.136 91.628 206.034 91.628Z" fill="#002031"/>
<path d="M162.204 172.577L153.254 176.747L154.882 184.577L167.797 181.526L162.204 172.577Z" fill="#C26E5E"/>
<path d="M204.509 218.034L207.763 227.39L196.678 229.729L193.831 221.899L204.509 218.034Z" fill="#C26E5E"/>
<path d="M173.288 89.0854C172.78 86.3396 171.661 83.6956 170.441 81.1532C169.831 79.9329 169.221 78.6108 169.424 77.2888C169.526 76.6786 169.729 76.0685 170.034 75.4583C170.848 73.221 171.051 70.7803 171.254 68.3396C171.356 66.4074 171.56 64.3735 170.949 62.543C170.848 62.1363 170.644 61.8312 170.339 61.6278C170.136 61.5261 170.644 61.1193 171.051 60.8142C171.051 60.7125 171.051 60.7125 171.051 60.6108V60.5091C171.051 60.5091 171.051 60.5091 171.051 60.6108C171.051 60.5091 171.051 60.5091 171.051 60.4074C171.051 60.4074 171.051 60.4074 171.051 60.3057C164.543 58.1702 158.644 60.7125 158.746 68.2379C158.746 70.9837 156.712 71.7973 156.204 74.543C155.39 79.0176 158.543 80.2379 157.831 83.7973C157.424 85.7295 153.458 86.9498 153.254 91.6278C153.051 96.5091 156.407 98.6447 157.729 99.8651L159.661 97.5261C160.475 98.4413 161.695 98.9498 162.915 99.0515C164.136 99.1532 165.356 98.9498 166.475 98.6447C169.424 97.8312 172.475 96.1024 173.39 93.1532C173.492 91.8312 173.492 90.5091 173.288 89.0854Z" fill="#002031"/>
<path d="M168.204 81.4582C169.831 86.6447 170.746 92.1362 172.577 97.2209C173.085 98.6447 173.594 99.9667 174.611 101.085C174.814 101.289 175.017 101.39 175.221 101.594C178.17 101.289 181.221 100.475 183.56 98.6447C185.187 97.4243 189.255 93.7633 187.424 89.7972C186.611 88.0684 184.475 87.4582 184.475 86.0345C184.475 85.1192 184.983 84.3057 184.882 83.3904C184.882 82.3735 184.17 81.4582 183.356 80.8481C182.543 80.1362 181.729 79.6277 181.017 78.9158C180.102 77.7972 179.594 76.3735 179.695 74.9497C179.797 73.7294 180.407 72.5091 180.305 71.2887C180.102 69.9667 178.983 68.8481 177.865 68.1362C176.543 67.3226 175.119 66.8142 173.899 65.8989C172.78 64.9836 172.678 64.1701 172.068 63.0514C170.848 60.8142 167.594 62.6447 166.78 64.3735C166.17 65.5938 166.272 67.1192 166.272 68.543C166.272 70.6786 166.068 72.7125 166.272 74.8481C166.577 76.9836 167.492 79.2209 168.204 81.4582Z" fill="#002031"/>
<path d="M206.136 164.034L184.475 125.492C184.475 125.492 172.983 124.17 172.678 124.17C172.373 124.17 180.204 161.085 180.204 161.085L178.475 162.102C179.593 163.322 180.712 164.543 181.729 165.763C184.373 168.814 186.712 172.068 188.949 175.526C189.458 176.339 190.068 177.153 190.576 178.068L201.051 175.729C205.729 174 208.068 168.611 206.136 164.034Z" fill="#F17277"/>
<path d="M161.695 172.374L171.763 166.679C172.373 167.797 172.881 168.814 173.492 169.933C175.424 173.289 177.661 176.543 179.695 179.899L165.763 182.95C163.017 183.56 160.271 182.136 159.254 179.594C158.136 176.95 159.153 173.797 161.695 172.374Z" fill="#F09899"/>
<path d="M164.034 170.238L175.526 163.729C176.136 164.95 176.848 166.17 177.559 167.391C179.797 171.255 182.237 175.018 184.576 178.78L168.712 182.238C165.661 182.95 162.509 181.323 161.288 178.374C159.966 175.424 161.187 171.865 164.034 170.238Z" fill="#F17277"/>
<path d="M169.729 166.983L172.475 181.526L176.543 180.611L169.729 166.983Z" fill="#002031"/>
<path d="M203.593 214.882L204.915 218.848L193.627 222.102L191.898 217.424L203.593 214.882Z" fill="#F09899"/>
<rect x="199.806" y="217.097" width="0.711892" height="3.05097" transform="rotate(-17.6432 199.806 217.097)" fill="white"/>
<rect x="196.053" y="218.191" width="0.711863" height="3.05084" transform="rotate(-16.4633 196.053 218.191)" fill="white"/>
<path d="M163.729 124.374C163.729 128.645 157.22 131.899 158.237 142.882C158.644 147.154 170.136 169.73 173.288 175.323C176.034 180.205 185.797 207.56 188.949 215.289C189.966 217.832 192.712 219.154 195.356 218.34L201.356 216.611C204.203 215.798 205.83 212.849 205.017 210.103L181.22 124.374H163.729Z" fill="#F17277"/>
<path d="M179.695 90.916H160.576C155.695 90.916 152.237 95.1872 153.051 100.17L154.983 106.069L158.237 106.577C158.237 106.577 162.203 113.899 163.322 125.696L184.271 125.289C183.763 122.441 189.661 107.187 189.051 103.018C188.542 98.3397 183.051 92.7465 179.695 90.916Z" fill="#237978"/>
<path fill-rule="evenodd" clip-rule="evenodd" d="M181.424 98.0349C181.424 100.374 179.492 102.306 177.153 102.306C174.814 102.306 172.881 100.374 172.881 98.0349C172.881 95.6959 174.814 93.7637 177.153 93.7637C179.492 93.7637 181.424 95.6959 181.424 98.0349ZM184.78 105.56C182.441 105.56 180.508 107.492 180.508 109.831C180.508 112.17 182.441 114.103 184.78 114.103C185.695 114.103 186.508 113.798 187.22 113.289C187.729 111.459 188.237 109.628 188.644 108.001C187.932 106.577 186.508 105.56 184.78 105.56ZM155.085 106.17L156.814 106.476C156.203 106.069 155.593 105.764 154.881 105.662L155.085 106.17ZM172.881 121.831C172.881 119.492 174.814 117.56 177.153 117.56C179.492 117.56 181.424 119.492 181.424 121.831C181.424 123.357 180.61 124.781 179.288 125.492L175.22 125.594C173.797 124.882 172.881 123.459 172.881 121.831ZM162.102 117.56C162.61 120.001 163.119 122.747 163.424 125.798C165.051 125.187 166.169 123.662 166.169 121.831C166.169 119.492 164.441 117.662 162.102 117.56ZM169.525 105.56C167.186 105.56 165.254 107.492 165.254 109.831C165.254 112.17 167.186 114.103 169.525 114.103C171.864 114.103 173.797 112.17 173.797 109.831C173.797 107.492 171.864 105.56 169.525 105.56ZM161.898 93.7637C164.237 93.7637 166.169 95.6959 166.169 98.0349C166.169 100.374 164.237 102.306 161.898 102.306C159.559 102.306 157.627 100.374 157.627 98.0349C157.627 95.6959 159.559 93.7637 161.898 93.7637Z" fill="#0E6866"/>
<path d="M173.492 96.6113C169.729 96.9164 162.814 94.0689 160.17 91.018C160.577 91.018 162.407 91.018 162.712 91.018H179.797C179.797 90.9164 178.577 96.2045 173.492 96.6113Z" fill="#C26E5E"/>
<path d="M179.797 90.916L176.136 89.6957C175.322 89.594 174.611 88.9838 174.306 88.272L173.797 87.1533L172.17 87.5601L172.577 91.8313H178.373L179.797 90.916Z" fill="#C26E5E"/>
<path d="M208.475 224.543L216.203 229.831L222.305 231.966C224.542 233.187 224.644 235.221 224.644 235.221H191.593L192.814 226.068C193.017 225.458 195.051 225.254 195.254 225.865C195.763 227.085 197.288 228.509 199.119 228.61C201.763 228.712 204.712 226.373 206.136 224.949C206.746 224.339 207.661 224.237 208.475 224.543Z" fill="#FFCC00"/>
<path d="M191.695 235.22L192.407 229.627C192.407 229.627 198.305 229.83 197.797 235.22H191.695Z" fill="#FE6F43"/>
<path d="M191.288 238.373H224.847V235.221H191.593L191.288 238.373Z" fill="white"/>
<rect x="212.198" y="229.995" width="3.35582" height="0.71184" transform="rotate(-16.1713 212.198 229.995)" fill="#002031"/>
<path d="M210 229.119L209.796 228.407L213.152 227.492L213.356 228.204L210 229.119Z" fill="#002031"/>
<path d="M150.915 203.187C148.475 203.187 146.542 201.255 146.542 198.814V185.695H155.288V198.814C155.288 201.255 153.254 203.187 150.915 203.187Z" fill="#C8E7FC"/>
<path d="M158.441 182.746C157.017 181.526 154.068 182.543 153.763 179.085C153.661 177.458 154.882 175.932 155.898 175.424C156.407 175.119 156.204 173.39 155.593 173.187L150.814 172.983C148.78 172.882 147.051 174.407 146.949 176.441C146.746 179.593 146.441 184.17 146.644 186.712C147.254 194.034 149.695 200.543 151.932 200.644H154.373L153.966 199.831C154.271 199.424 154.576 198.916 154.576 198.102L155.187 193.424L158.543 185.593C158.746 184.882 158.949 183.255 158.441 182.746Z" fill="white"/>
<path d="M160.17 185.593L156.814 193.424L156.204 198.102C156.102 200.034 154.78 200.644 153.458 200.644C151.322 200.644 148.78 194.136 148.17 186.712C147.966 184.068 148.271 179.593 148.475 176.441C148.576 174.407 150.305 172.882 152.339 172.983L157.119 173.187C157.729 173.288 158.034 174.814 157.424 175.119C156.305 175.627 155.187 177.458 155.288 179.085C155.593 182.543 158.542 181.627 159.966 182.746C160.678 183.255 160.475 184.882 160.17 185.593Z" fill="#FFCC00"/>
<path d="M148.475 179.085C152.339 178.475 153.763 175.221 153.763 173.085L152.542 172.983C150.509 172.882 148.78 174.407 148.678 176.441C148.576 177.255 148.475 178.17 148.475 179.085Z" fill="#FE6F43"/>
<path d="M158.034 189.356C158.034 189.254 157.932 188.237 156.305 188.237V187.525C158.746 187.525 158.746 189.356 158.746 189.356H158.034H158.441H158.034Z" fill="#002031"/>
<path d="M156.915 191.593C156.915 191.492 156.814 190.475 155.187 190.475V189.763C157.627 189.763 157.627 191.593 157.627 191.593H156.915H157.322H156.915Z" fill="#002031"/>
<path d="M163.627 75.9668L165.966 91.1193L175.831 91.4244L170.543 79.3227L163.627 75.9668Z" fill="#C26E5E"/>
<path d="M173.085 85.2209L171.865 82.4751L167.898 82.0684L173.085 85.2209Z" fill="#A95643"/>
<path d="M161.797 74.1366C161.898 78.6111 166.271 82.3739 170.746 82.7806C175.932 83.2891 178.983 79.6281 178.068 74.1366C177.356 69.662 174.305 66.001 169.729 66.001C165.153 66.001 161.695 69.662 161.797 74.1366Z" fill="#C26E5E"/>
<path d="M177.966 62.2383C177.661 62.4416 177.458 62.645 177.458 62.645C177.458 62.645 177.153 60.7128 176.238 60.3061C175.933 60.2044 175.526 60.1027 175.119 60.1027C174.407 60.2044 173.695 60.4077 172.983 60.8145C172.475 61.1196 171.661 60.3061 170.746 60.1027C169.017 59.6959 168.305 61.2213 167.085 61.5264C166.475 61.7298 165.966 61.8315 165.458 62.1366C165.153 62.3399 164.848 62.5433 164.543 62.7467C164.441 62.8484 164.339 62.9501 164.238 63.1535C164.136 63.4586 164.238 63.7637 164.441 64.0688C164.848 64.8823 165.458 65.5942 166.17 66.2044L165.763 65.3908C166.678 66.9162 168.204 68.0349 169.933 68.645C171.56 69.2552 173.39 69.3569 175.119 69.3569C175.831 69.3569 176.543 69.2552 177.153 69.0518C177.763 68.8484 178.373 68.4416 178.882 67.9332C179.288 67.4247 179.39 66.8145 179.594 66.2044C179.594 66.1027 179.695 64.2722 179.594 62.8484C179.492 62.1366 178.577 61.8315 177.966 62.2383Z" fill="#002031"/>
<path d="M168.305 70.1697C168.407 71.2883 168.203 72.5087 167.492 73.4239C166.678 74.4409 165.661 75.9663 164.949 76.9832C163.932 78.5087 164.542 81.5595 165.051 85.1188C165.153 86.2375 163.729 83.2883 162.915 84.0002C162.814 84.1019 162.712 84.2036 162.509 84.2036C162.203 84.3053 162 83.8985 161.797 83.6951C160.17 80.8476 159.153 77.5934 158.949 74.3392C158.848 71.8985 159.153 69.2544 160.78 67.4239C161.898 66.1019 163.932 65.2883 165.763 65.6951C167.695 66.2036 168.102 68.3392 168.305 70.1697Z" fill="#002031"/>
<path d="M163.526 129.967L168.509 133.424C168.509 133.424 167.085 135.458 166.983 135.56C166.882 135.662 164.949 137.492 164.949 137.492L162.102 139.221L161.492 139.526L159.661 137.085L159.153 135.255L157.729 133.526L163.526 129.967Z" fill="#C26E5E"/>
<path d="M164.136 130.374C164.136 130.374 162.915 135.154 160.271 137.899L159.661 137.086L159.153 135.255L158.949 134.95L164.136 130.374Z" fill="#A95643"/>
<path d="M154.373 94.2715C154.373 94.2715 144.814 109.017 142.78 112.271C140.746 115.627 140.949 119.187 143.898 122.238C146.848 125.288 158.237 135.458 158.237 135.458L164.543 129.865L151.627 117.356L165.051 101.695L154.373 94.2715Z" fill="#237978"/>
<path fill-rule="evenodd" clip-rule="evenodd" d="M157.831 96.7129L162.204 99.7637L164.543 101.391C163.831 102.001 162.916 102.306 161.899 102.306C159.56 102.306 157.628 100.374 157.628 98.0349C157.628 97.5264 157.729 97.1197 157.831 96.7129ZM154.475 114.103L158.543 109.323C158.238 107.187 156.509 105.56 154.272 105.56C151.933 105.56 150 107.493 150 109.832C150 112.171 151.933 114.103 154.272 114.103H154.475ZM160.17 125.696C159.255 125.289 158.543 124.679 158.136 123.764L159.153 124.781L160.17 125.696ZM152.034 130.069C152.644 129.56 153.458 129.357 154.272 129.357C156.712 129.357 158.644 131.289 158.441 133.73C158.441 134.34 158.339 134.95 158.034 135.56C157.933 135.459 157.704 135.255 157.361 134.95L157.361 134.95C157.017 134.645 156.56 134.238 156 133.73C154.983 132.713 153.56 131.391 152.034 130.069ZM146.746 117.56C144.712 117.56 143.085 118.882 142.577 120.713C142.678 120.815 142.755 120.942 142.831 121.069C142.907 121.196 142.983 121.323 143.085 121.425L143.187 121.526C143.289 121.628 143.39 121.755 143.492 121.882C143.594 122.01 143.695 122.137 143.797 122.238L144.102 122.543L144.204 122.645L144.407 122.848L144.509 122.95L144.814 123.255C144.814 123.255 144.916 123.357 145.017 123.357L145.322 123.662C145.322 123.662 145.424 123.764 145.526 123.764L145.831 124.069L145.933 124.171L146.339 124.577L146.441 124.679C146.543 124.73 146.619 124.806 146.695 124.882C146.772 124.959 146.848 125.035 146.95 125.086C147.051 125.187 147.153 125.264 147.255 125.34L147.255 125.34C147.356 125.416 147.458 125.493 147.56 125.594C149.492 125.187 150.916 123.459 150.916 121.425C151.017 119.493 149.085 117.56 146.746 117.56ZM152.339 97.5264V97.8315C152.339 99.662 151.119 101.187 149.492 101.798C150.256 100.755 150.926 99.7128 151.533 98.7677C151.814 98.3298 152.082 97.9128 152.339 97.5264Z" fill="#0E6866"/>
<path d="M150.915 119.086L150.305 118.679L150.712 117.967L149.187 118.272L149.085 117.56L151.424 117.153C151.526 117.153 151.729 117.153 151.831 117.357C151.932 117.458 151.932 117.662 151.831 117.763L150.915 119.086Z" fill="#002031"/>
<path d="M160.678 140.238L160.475 139.526C166.881 137.187 168.814 132.204 168.814 132.103L169.525 132.306C169.322 132.611 167.39 137.696 160.678 140.238Z" fill="#002031"/>
<path d="M196.78 180.306L182.441 137.289L186 136.882L186.102 137.594L183.458 137.899L197.492 180L196.78 180.306Z" fill="white"/>
<path d="M173.288 78.6108C172.17 78.6108 171.255 78.1023 170.848 77.1871C170.746 77.0854 170.848 76.882 170.949 76.882C171.051 76.7803 171.255 76.882 171.255 76.9837C171.763 78.0006 172.78 78.4074 174.305 78.0006C174.407 78.0006 174.61 78.0006 174.61 78.204C174.61 78.3057 174.61 78.5091 174.407 78.5091C174 78.5091 173.594 78.6108 173.288 78.6108Z" fill="#002031"/>
<path fill-rule="evenodd" clip-rule="evenodd" d="M173.797 72.5093C173.797 73.933 174.916 75.1534 176.339 75.1534C177.763 75.1534 178.882 73.933 178.882 72.5093C178.882 71.0856 177.763 69.8652 176.339 69.8652C174.916 69.8652 173.797 71.0856 173.797 72.5093ZM174.305 72.5093C174.305 71.3907 175.221 70.3737 176.339 70.3737C177.458 70.3737 178.373 71.3907 178.373 72.5093C178.373 73.6279 177.458 74.6449 176.339 74.6449C175.221 74.6449 174.305 73.7296 174.305 72.5093Z" fill="white"/>
<path fill-rule="evenodd" clip-rule="evenodd" d="M168.102 73.0181C168.102 74.4418 169.221 75.6622 170.644 75.6622C172.068 75.6622 173.187 74.5435 173.187 73.0181C173.187 71.5944 172.068 70.374 170.644 70.374C169.221 70.374 168.102 71.5944 168.102 73.0181ZM168.611 73.0181C168.611 71.7978 169.526 70.8825 170.644 70.8825C171.763 70.8825 172.678 71.8994 172.678 73.0181C172.678 74.2384 171.763 75.1537 170.644 75.1537C169.526 75.1537 168.611 74.2384 168.611 73.0181Z" fill="white"/>
<path d="M173.898 76.3739C173.797 76.3739 173.695 76.2722 173.695 76.1705C173.695 76.0688 173.797 75.8654 173.898 75.8654C174 75.8654 174.509 75.662 174.61 75.4587C174.712 75.2553 174.204 74.4417 174 74.0349C173.797 73.6281 173.593 73.3231 173.492 73.018C173.492 72.9163 173.492 72.7129 173.695 72.7129C173.797 72.7129 174 72.7129 174 72.9163C174.102 73.1197 174.204 73.5265 174.407 73.8315C174.915 74.7468 175.119 75.357 175.017 75.662C174.712 76.1705 174 76.3739 173.898 76.3739Z" fill="#002031"/>
<path d="M172.882 72.6104C172.78 72.6104 172.678 72.5087 172.678 72.407C172.678 72.3053 172.78 72.2037 172.882 72.102L174 72.0003C174.102 72.0003 174.204 72.102 174.305 72.2037C174.305 72.3053 174.204 72.407 174.102 72.5087L172.882 72.6104C172.983 72.6104 172.983 72.6104 172.882 72.6104Z" fill="white"/>
<path d="M167.491 73.3223C167.39 73.3223 167.288 73.2207 167.288 73.119C167.288 73.0173 167.39 72.8139 167.491 72.8139L168.305 72.7122C168.407 72.7122 168.61 72.8139 168.61 72.9156C168.61 73.0173 168.508 73.2207 168.407 73.2207L167.491 73.3223C167.491 73.3223 167.593 73.3223 167.491 73.3223Z" fill="white"/>
<path d="M160.17 90.9155L163.933 90.0003C164.95 89.6952 165.661 88.5766 165.458 87.4579L165.255 86.0342L166.577 92.0342L160.17 90.9155Z" fill="#C26E5E"/>
<rect x="157.891" y="109.476" width="5.69464" height="0.71183" transform="rotate(-49.3353 157.891 109.476)" fill="#002031"/>
<path d="M184.577 125.492C184.272 124.068 185.39 120.305 186.611 115.831C187.933 111.153 189.356 105.865 189.153 103.729C188.848 101.085 187.526 98.136 185.899 96.2038L186.509 95.6953C188.644 98.136 189.661 101.39 189.967 103.628C190.272 105.966 188.848 111.051 187.424 116.034C186.305 120 185.187 124.068 185.39 125.39L184.577 125.492Z" fill="white"/>
</svg>
