<?xml version="1.0" encoding="utf-8"?>
<!-- Generator: Adobe Illustrator 24.3.0, SVG Export Plug-In . SVG Version: 6.00 Build 0)  -->
<svg version="1.1" id="Layer_1" xmlns="http://www.w3.org/2000/svg" xmlns:xlink="http://www.w3.org/1999/xlink" x="0px" y="0px"
	 viewBox="0 0 335 236" enable-background="new 0 0 335 236" xml:space="preserve">
<g>
	<g>
		<path fill="#DCEEFD" d="M265.6,41H148.2l1.7-0.9c1.3-0.7,2.6-1.3,3.8-1.9c2.4-1.1,4.7-2.2,6.7-3.7c2.5-2,4.4-4.4,6.2-6.7
			c1.5-1.9,3-3.8,4.9-5.6c4.2-3.9,9.8-6,14.9-5.7c6.7,0.5,11.2,4.7,14.4,8.5c2.8-3.5,7.1-6.3,12-8.1c3.3-1.2,6.1-1.5,8.5-0.9
			c2.9,0.7,5.3,2.9,5.9,5.5c0.5,2.1,0.1,4.2-0.4,6.1c4.6-1.9,9.7-3.4,14.1-1.7c2.8,1.1,4.2,3.1,5.7,5.1c0.6,0.9,1.3,1.8,2.1,2.6
			c4.1,4.3,11.6,5.7,16.9,6.5L265.6,41z M152.1,40h108c-4.4-1-9-2.7-12-5.8c-0.8-0.9-1.5-1.8-2.2-2.7c-1.4-2-2.7-3.8-5.2-4.8
			c-4.4-1.7-9.7,0.1-14.3,2.1l-0.9,0.4l0.2-0.9c0.6-2.2,1.1-4.4,0.6-6.6c-0.6-2.3-2.6-4.2-5.2-4.8c-2.2-0.5-4.8-0.2-7.9,0.9
			c-5,1.8-9.3,4.8-12,8.3l-0.4,0.5l-0.4-0.5c-3.1-3.7-7.6-8.1-14.1-8.6c-4.8-0.4-10.1,1.7-14.1,5.4c-1.8,1.7-3.3,3.6-4.8,5.5
			c-1.9,2.4-3.8,4.8-6.4,6.9c-2.1,1.6-4.5,2.8-6.9,3.9C153.5,39.4,152.8,39.7,152.1,40z"/>
	</g>
	<g>
		<path fill="#DCEEFD" d="M298.7,16.4h-55.4l1.5-0.9c0.9-0.5,1.7-2,2.7-3.7c2.6-4.5,6.4-11.3,16.7-11.4c2.6,0.2,4.4,2.3,5.3,3.6
			c1.1,1.5,1.8,3.2,1.9,4.5c1.1-0.9,2.2-1.5,3.4-1.8c1.7-0.4,4-0.2,5.2,1c0.5,0.5,0.7,1,0.9,1.5c0.1,0.3,0.2,0.5,0.4,0.8
			c0.9,1.6,3.4,2.8,7.4,3.4c0.4,0.1,0.9,0.1,1.3,0.2c2.4,0.4,4.8,0.7,6.8,1.7L298.7,16.4z M246.3,15.4h47.5
			c-1.3-0.3-2.6-0.5-3.9-0.7c-0.4-0.1-0.9-0.1-1.3-0.2c-4.4-0.7-7-2-8.1-3.9c-0.2-0.3-0.3-0.6-0.4-0.9c-0.2-0.4-0.4-0.9-0.7-1.2
			c-0.8-0.8-2.7-1.2-4.3-0.8c-1.3,0.3-2.6,1-3.8,2.3l-1.2,1.1l0.4-1.6c0.2-0.9-0.4-3-1.8-4.9c-0.8-1.1-2.4-3-4.5-3.2
			c-9.7,0.1-13.2,6.3-15.8,10.9C247.5,13.6,246.9,14.7,246.3,15.4z"/>
	</g>
	<g>
		<path fill="#DCEEFD" d="M269.5,231.8c0,3.4-26.2,3.7-100,3.7c-70.9,0-134.9-2-134.9-3.7c0-1.7,64-3.7,134.9-3.7
			C244,228.1,269.5,228.7,269.5,231.8z"/>
	</g>
	<g>
		<g>
			<path fill="#82C6F8" d="M184.5,232.7H87c-7.2,0-10.4-3.7-11-10.2L60.3,14.9c-0.4-5.7,2.7-9.4,9-9.4h98.1c5.7,0,10.6,4.6,11,10.2
				L194,222.4C194.5,228.1,190.2,232.7,184.5,232.7z"/>
		</g>
		<g>
			<path fill="#59ACF5" d="M188.2,232.7H96.7c-6.3,0-11.5-4.8-12-11.1L69.1,15.1c-0.4-5.2,3.7-9.6,8.9-9.6h93.1
				c5.7,0,10.6,4.6,11,10.2l0.6,7.7l3,97.1l11,86.6l1.1,15.2C198.1,228.1,193.9,232.7,188.2,232.7z"/>
		</g>
		<g>
			<polygon fill="#DCEEFD" points="196.6,207.2 83.6,207.2 69.7,23.5 182.6,23.5 			"/>
		</g>
		<g>
			<path fill="#FFFFFF" d="M140.2,227.8c-4,0-7.5-3.3-7.8-7.3c-0.1-2,0.5-3.8,1.8-5.2c1.3-1.4,3.1-2.2,5-2.2c4,0,7.5,3.3,7.8,7.3
				c0.1,2-0.5,3.8-1.8,5.2C144,227,142.2,227.8,140.2,227.8z M139.2,213.8c-1.8,0-3.4,0.7-4.5,1.9c-1.2,1.2-1.7,2.9-1.6,4.7
				c0.3,3.7,3.5,6.6,7.1,6.6c1.8,0,3.4-0.7,4.5-1.9c1.2-1.2,1.7-2.9,1.6-4.7C146.1,216.8,142.9,213.8,139.2,213.8z"/>
		</g>
		<g>
			<g>
				<path fill="#FFFFFF" d="M177,147.3H94.8c-2.6,0-4.8-2.1-5-4.7L84,63c-0.3-3.7,2.7-6.9,6.4-6.9h78.6c3.4,0,6.2,2.6,6.5,6
					l5.9,80.6C181.5,145.2,179.6,147.3,177,147.3z"/>
			</g>
			<g>
				<g>
					<path fill="#F0ECEC" d="M178.8,108.1c-1,5.3-4.4,10.5-2.9,15.8c0.9,3,3.2,5.4,4.7,8.2L178.8,108.1z"/>
				</g>
			</g>
			<g>
				<g>
					<path fill="#002031" d="M163.3,113.6h-17.4l1.3,17.4h17.4L163.3,113.6z M158.7,118.6l0.5,7.5h-7.5l-0.5-7.5H158.7z"/>
				</g>
				<g>
					<path fill="#002031" d="M121,113.6h-17.4l1.3,17.4h17.4L121,113.6z M116.3,118.6l0.5,7.5h-7.5l-0.5-7.5H116.3z"/>
				</g>
				<g>
					<path fill="#002031" d="M160.2,71.2h-17.4l1.3,17.4h17.4L160.2,71.2z M155.6,76.2l0.5,7.5h-7.5l-0.5-7.5H155.6z"/>
				</g>
				<g>
					<polygon fill="#002031" points="137.8,71.2 117.9,71.2 119.1,88.7 124.1,88.7 123.2,76.2 138.2,76.2 					"/>
				</g>
				<g>
					<polygon fill="#002031" points="112.9,71.2 100.4,71.2 100.8,76.2 108.3,76.2 108.8,83.7 101.3,83.7 101.7,88.7 114.2,88.7 
											"/>
				</g>
				<g>
					<polygon fill="#002031" points="161.9,93.7 144.4,93.7 144.8,98.6 157.3,98.6 158,108.6 163,108.6 					"/>
				</g>
				<g>
					<polygon fill="#002031" points="138.7,83.7 128.7,83.7 129.1,88.7 134.1,88.7 134.5,93.7 124.5,93.7 125.2,103.6 120.2,103.6 
						119.5,93.7 102.1,93.7 102.4,98.6 114.9,98.6 115.6,108.6 130.6,108.6 129.8,98.6 139.8,98.6 					"/>
				</g>
				<g>
					<polygon fill="#002031" points="103.2,108.6 102.8,103.6 110.3,103.6 110.6,108.6 					"/>
				</g>
				<g>
					<polygon fill="#002031" points="126.5,121.6 125.9,113.6 130.9,113.6 131.5,121.6 					"/>
				</g>
				<g>
					<polygon fill="#002031" points="131,121.6 130.7,117.3 137,117.3 137.3,121.6 					"/>
				</g>
				<g>
					<g>
						<polygon fill="#002031" points="145.5,108.6 153,108.6 152.6,103.6 145.2,103.6 						"/>
					</g>
					<g>
						<polygon fill="#002031" points="140.3,103.6 135.2,103.6 136.8,126.1 126.9,126.1 127.2,131 142.2,131 140.5,108.6 						"/>
					</g>
				</g>
			</g>
		</g>
		<g>
			<path fill="#76C0F7" d="M166,167.3h-56.9c-1.6,0-3-1.3-3.1-2.9l0,0c-0.1-1.6,1.1-2.9,2.7-2.9h56.9c1.6,0,3,1.3,3.1,2.9l0,0
				C168.8,166,167.6,167.3,166,167.3z"/>
		</g>
		<g>
			<path fill="#76C0F7" d="M142.2,178.7H110c-1.6,0-3-1.3-3.1-2.9l0,0c-0.1-1.6,1.1-2.9,2.7-2.9h32.2c1.6,0,3,1.3,3.1,2.9l0,0
				C145,177.4,143.8,178.7,142.2,178.7z"/>
		</g>
		<g>
			<path fill="#76C0F7" d="M166.8,178.7H154c-1.6,0-3-1.3-3.1-2.9h0c-0.1-1.6,1.1-2.9,2.7-2.9h12.8c1.6,0,3,1.3,3.1,2.9l0,0
				C169.7,177.4,168.4,178.7,166.8,178.7z"/>
		</g>
		<g>
			<path fill="#002031" d="M64.6,49.7h-1c-1.8,0-3.5-1.5-3.6-3.3l-0.6-7.6c-0.1-0.9,0.2-1.8,0.8-2.4c0.6-0.6,1.4-1,2.3-1h1
				c1.8,0,3.5,1.5,3.6,3.3l0.6,7.6c0.1,0.9-0.2,1.8-0.8,2.4C66.3,49.3,65.5,49.7,64.6,49.7z M62.6,36c-0.7,0-1.3,0.3-1.8,0.8
				c-0.5,0.5-0.7,1.2-0.6,1.9l0.6,7.6c0.1,1.5,1.4,2.7,2.9,2.7h1c0.7,0,1.3-0.3,1.8-0.8c0.5-0.5,0.7-1.2,0.6-1.9l-0.6-7.6
				C66.3,37.2,65,36,63.6,36H62.6z"/>
		</g>
		<g>
			<path fill="#002031" d="M65.8,66.3h-1c-1.8,0-3.5-1.5-3.6-3.3l-0.6-7.6c-0.1-0.9,0.2-1.8,0.8-2.4c0.6-0.6,1.4-1,2.3-1h1
				c1.8,0,3.5,1.5,3.6,3.3l0.6,7.6c0.1,0.9-0.2,1.8-0.8,2.4C67.5,65.9,66.7,66.3,65.8,66.3z M63.8,52.6c-0.7,0-1.3,0.3-1.8,0.8
				c-0.5,0.5-0.7,1.2-0.6,1.9l0.6,7.6c0.1,1.5,1.4,2.7,2.9,2.7h1c0.7,0,1.3-0.3,1.8-0.8c0.5-0.5,0.7-1.2,0.6-1.9l-0.6-7.6
				c-0.1-1.5-1.4-2.7-2.9-2.7H63.8z"/>
		</g>
		<g>
			<path fill="#FFFFFF" d="M130.1,17.3h-14.3c-1.5,0-2.7-1.1-2.8-2.5c-0.1-0.8,0.2-1.6,0.7-2.2c0.5-0.6,1.3-0.9,2.1-0.9H130
				c1.5,0,2.7,1.1,2.8,2.5c0.1,0.8-0.2,1.6-0.7,2.2C131.7,17,130.9,17.3,130.1,17.3z M115.7,12.4c-0.6,0-1.2,0.3-1.6,0.7
				c-0.4,0.4-0.6,1-0.5,1.6c0.1,1.1,1,1.9,2.1,1.9h14.3c0.6,0,1.2-0.3,1.6-0.7c0.4-0.4,0.6-1,0.5-1.6c-0.1-1.1-1-1.9-2.1-1.9H115.7z
				"/>
		</g>
	</g>
	<g>
		<g>
			<g>
				<path fill="#002031" d="M240.1,77.7l-4.8-1.7l0.1-0.2l-0.9,0.1c0,0,0,0-0.1,0l-0.1,0l0,0c-0.7,0.1-1.3,0.5-1.5,1.2l-4.7,13.7
					c-0.3,1,0.2,2,1.2,2.4l5,1.8c1,0.3,2-0.2,2.3-1.1l4.7-13.7C241.6,79.1,241.1,78,240.1,77.7z"/>
			</g>
			<g>
				<path fill="#1540EB" d="M230.3,93l5,1.8c1,0.3,2-0.2,2.3-1.1l4.7-13.7c0.3-1-0.2-2-1.2-2.4l-5-1.8c-1-0.3-2,0.2-2.3,1.1
					l-4.7,13.7C228.9,91.6,229.4,92.7,230.3,93z"/>
			</g>
		</g>
		<g>
			<path fill="#C26E5E" d="M235.6,84.4l5.2,2.8c1.5,1,2.2,2.8,1.8,4.5l-2.2,7.7l-6.5-2.5l1.4-4.7l-2.7-2.3L235.6,84.4z"/>
		</g>
		<g>
			<path fill="#237978" d="M216.7,94.7l11.7,16.7l5.6-15.6l6.7,3.1c0,0-2.6,12.8-6.2,20.2c-2.1,4.4-5.9,4.5-8.6,2.8
				c-7.7-5-13-13.9-13-13.9L216.7,94.7z"/>
		</g>
		<g>
			<path fill="#0E6866" d="M231.2,103.9l-2.7,7.6l-1.9-2.7c0.3,2,2.1,3.5,4.1,3.5c2.3,0,4.2-1.9,4.2-4.2
				C234.9,105.9,233.2,104.1,231.2,103.9z M234,95.9l0,0.1c0,0.1,0,0.3,0,0.4c0,2.3,1.9,4.2,4.2,4.2c0.9,0,1.7-0.3,2.3-0.7
				c0.1-0.6,0.2-0.9,0.2-0.9L234,95.9z M233.9,119.8c0,0.1,0,0.3,0,0.4c0.2-0.3,0.4-0.6,0.6-1c0.4-0.9,0.8-1.8,1.2-2.8
				C234.7,117.1,233.9,118.3,233.9,119.8z M223.2,115.6c-1.3,0-2.4,0.6-3.2,1.4c1.7,1.8,3.7,3.5,5.9,4.9c0.2,0.1,0.4,0.3,0.6,0.4
				c0.5-0.7,0.8-1.6,0.8-2.5C227.4,117.5,225.5,115.6,223.2,115.6z M215.7,103.8c-0.6,0-1.2,0.1-1.7,0.4l-1.1,3.8c0,0,1.1,1.8,3,4.2
				c2.3-0.1,4.1-1.9,4.1-4.2C219.9,105.7,218,103.8,215.7,103.8z"/>
		</g>
		<g>
			<path fill="#002031" d="M237.9,88.1c0,0-0.1,0-0.1,0l-3.1-1.9c-0.1-0.1-0.1-0.2-0.1-0.3c0.1-0.1,0.2-0.1,0.3-0.1l3.1,1.9
				c0.1,0.1,0.1,0.2,0.1,0.3C238,88.1,237.9,88.1,237.9,88.1z"/>
		</g>
		<g>
			<path fill="#002031" d="M236.6,90.1c0,0-0.1,0-0.1,0l-2.9-1.9c-0.1-0.1-0.1-0.2-0.1-0.3c0.1-0.1,0.2-0.1,0.3-0.1l2.9,1.9
				c0.1,0.1,0.1,0.2,0.1,0.3C236.7,90,236.7,90.1,236.6,90.1z"/>
		</g>
		<g>
			<polygon fill="#C26E5E" points="193.5,169.7 184.7,173.8 186.3,181.5 199,178.5 			"/>
		</g>
		<g>
			<polygon fill="#C26E5E" points="235.1,214.4 238.3,223.6 227.4,225.9 224.6,218.2 			"/>
		</g>
		<g>
			<path fill="#002031" d="M204.4,87.6c-0.5-2.7-1.6-5.3-2.8-7.8c-0.6-1.2-1.2-2.5-1-3.8c0.1-0.6,0.3-1.2,0.6-1.8
				c0.8-2.2,1-4.6,1.2-7c0.1-1.9,0.3-3.9-0.3-5.7c-0.1-0.4-0.3-0.7-0.6-0.9c-0.2-0.1,0.3-0.5,0.7-0.8c0,0,0,0,0,0c0-0.1,0-0.1,0-0.2
				c0,0,0-0.1,0-0.1c0,0,0,0,0,0.1c0,0,0,0,0,0c0-0.1,0-0.1,0-0.2c0,0,0,0,0-0.1c0,0,0,0,0,0c-6.4-2.1-12.2,0.4-12.1,7.8
				c0,2.7-2,3.5-2.5,6.2c-0.8,4.4,2.3,5.6,1.6,9.1c-0.4,1.9-4.3,3.1-4.5,7.7c-0.2,4.8,3.1,6.9,4.4,8.1l1.9-2.3
				c0.8,0.9,2,1.4,3.2,1.5c1.2,0.1,2.4-0.1,3.5-0.4c2.9-0.8,5.9-2.5,6.8-5.4C204.6,90.3,204.6,89,204.4,87.6z"/>
		</g>
		<g>
			<path fill="#002031" d="M199.4,80.1c1.6,5.1,2.5,10.5,4.3,15.5c0.5,1.4,1,2.7,2,3.8c0.2,0.2,0.4,0.3,0.6,0.5
				c2.9-0.3,5.9-1.1,8.2-2.9c1.6-1.2,5.6-4.8,3.8-8.7c-0.8-1.7-2.9-2.3-2.9-3.7c0-0.9,0.5-1.7,0.4-2.6c0-1-0.7-1.9-1.5-2.5
				c-0.8-0.7-1.6-1.2-2.3-1.9c-0.9-1.1-1.4-2.5-1.3-3.9c0.1-1.2,0.7-2.4,0.6-3.6c-0.2-1.3-1.3-2.4-2.4-3.1c-1.3-0.8-2.7-1.3-3.9-2.2
				c-1.1-0.9-1.2-1.7-1.8-2.8c-1.2-2.2-4.4-0.4-5.2,1.3c-0.6,1.2-0.5,2.7-0.5,4.1c0,2.1-0.2,4.1,0,6.2
				C197.8,75.7,198.7,77.9,199.4,80.1z"/>
		</g>
		<g>
			<path fill="#F17277" d="M236.7,161.3l-21.3-37.9c0,0-11.3-1.3-11.6-1.3s7.4,36.3,7.4,36.3l-1.7,1c1.1,1.2,2.2,2.4,3.2,3.6
				c2.6,3,4.9,6.2,7.1,9.6c0.5,0.8,1.1,1.6,1.6,2.5l10.3-2.3C236.3,171.1,238.6,165.8,236.7,161.3z"/>
		</g>
		<g>
			<path fill="#F09899" d="M193,169.5l9.9-5.6c0.6,1.1,1.1,2.1,1.7,3.2c1.9,3.3,4.1,6.5,6.1,9.8l-13.7,3c-2.7,0.6-5.4-0.8-6.4-3.3v0
				C189.5,174,190.5,170.9,193,169.5z"/>
		</g>
		<g>
			<path fill="#F17277" d="M195.3,167.4l11.3-6.4c0.6,1.2,1.3,2.4,2,3.6c2.2,3.8,4.6,7.5,6.9,11.2l-15.6,3.4c-3,0.7-6.1-0.9-7.3-3.8
				v0C191.3,172.5,192.5,169,195.3,167.4z"/>
		</g>
		<g>
			<polygon fill="#002031" points="200.9,164.2 203.6,178.5 207.6,177.6 200.9,164.2 			"/>
		</g>
		<g>
			<polygon fill="#F09899" points="234.2,211.3 235.5,215.2 224.4,218.4 222.7,213.8 			"/>
		</g>
		<g>
			
				<rect x="230.9" y="213.3" transform="matrix(0.953 -0.3031 0.3031 0.953 -54.2236 80.1883)" fill="#FFFFFF" width="0.7" height="3"/>
		</g>
		<g>
			
				<rect x="227.2" y="214.4" transform="matrix(0.959 -0.2834 0.2834 0.959 -51.8609 73.3335)" fill="#FFFFFF" width="0.7" height="3"/>
		</g>
		<g>
			<path fill="#F17277" d="M195,122.3c0,4.2-6.4,7.4-5.4,18.2c0.4,4.2,11.7,26.4,14.8,31.9c2.7,4.8,12.3,31.7,15.4,39.3
				c1,2.5,3.7,3.8,6.3,3l5.9-1.7c2.8-0.8,4.4-3.7,3.6-6.4l-23.4-84.3H195z"/>
		</g>
		<g>
			<path fill="#237978" d="M210.7,89.4l-18.8,0c-4.8,0-8.2,4.2-7.4,9.1l1.9,5.8l3.2,0.5c0,0,3.9,7.2,5,18.8l20.6-0.4
				c-0.5-2.8,5.3-17.8,4.7-21.9C219.4,96.7,214,91.2,210.7,89.4z"/>
		</g>
		<g>
			<path fill="#0E6866" d="M215.7,103.8c-2.3,0-4.2,1.9-4.2,4.2c0,2.3,1.9,4.2,4.2,4.2c0.9,0,1.7-0.3,2.4-0.8c0.5-1.8,1-3.6,1.4-5.2
				C218.8,104.8,217.4,103.8,215.7,103.8z M186.5,104.4l1.7,0.3c-0.6-0.4-1.2-0.7-1.9-0.8L186.5,104.4z M208.2,115.6
				c-2.3,0-4.2,1.9-4.2,4.2c0,1.6,0.9,3,2.3,3.7l4-0.1c1.3-0.7,2.1-2.1,2.1-3.6C212.4,117.5,210.5,115.6,208.2,115.6z M193.4,115.6
				c0.5,2.4,1,5.1,1.3,8.1c1.6-0.6,2.7-2.1,2.7-3.9C197.4,117.5,195.7,115.7,193.4,115.6z M208.2,100.6c2.3,0,4.2-1.9,4.2-4.2
				c0-2.3-1.9-4.2-4.2-4.2s-4.2,1.9-4.2,4.2C204,98.7,205.9,100.6,208.2,100.6z M200.7,103.8c-2.3,0-4.2,1.9-4.2,4.2
				c0,2.3,1.9,4.2,4.2,4.2s4.2-1.9,4.2-4.2C204.9,105.7,203,103.8,200.7,103.8z M197.4,96.4c0-2.3-1.9-4.2-4.2-4.2s-4.2,1.9-4.2,4.2
				c0,2.3,1.9,4.2,4.2,4.2S197.4,98.7,197.4,96.4z"/>
		</g>
		<g>
			<path fill="#C26E5E" d="M204.6,95c-3.7,0.3-10.5-2.5-13.1-5.5c0.4,0,2.2,0,2.5,0h16.8C210.8,89.4,209.6,94.6,204.6,95z"/>
		</g>
		<g>
			<path fill="#C26E5E" d="M210.8,89.4l-3.6-1.2c-0.8-0.1-1.5-0.7-1.8-1.4l-0.5-1.1l-1.6,0.4l0.4,4.2h5.7L210.8,89.4z"/>
		</g>
		<g>
			<g>
				<path fill="#FFCC00" d="M239,220.8l7.6,5.2l6,2.1c2.2,1.2,2.3,3.2,2.3,3.2h-32.5l1.2-9c0.2-0.6,2.2-0.8,2.4-0.2
					c0.5,1.2,2,2.6,3.8,2.7c2.6,0.1,5.5-2.2,6.9-3.6C237.3,220.6,238.2,220.5,239,220.8z"/>
			</g>
			<g>
				<path fill="#FE6F43" d="M222.5,231.3l0.7-5.5c0,0,5.8,0.2,5.3,5.5H222.5z"/>
			</g>
			<g>
				<polygon fill="#FFFFFF" points="222.1,234.4 255.1,234.4 255.1,231.3 222.4,231.3 				"/>
			</g>
			<g>
				
					<rect x="242.7" y="225.7" transform="matrix(0.9604 -0.2785 0.2785 0.9604 -53.2855 76.9912)" fill="#002031" width="3.3" height="0.7"/>
			</g>
			<g>
				<polygon fill="#002031" points="240.5,225.3 240.3,224.6 243.6,223.7 243.8,224.4 				"/>
			</g>
		</g>
		<g>
			<g>
				<path fill="#C8E7FC" d="M182.4,199.8L182.4,199.8c-2.4,0-4.3-1.9-4.3-4.3v-12.9h8.6v12.9C186.7,197.9,184.7,199.8,182.4,199.8z"
					/>
			</g>
			<g>
				<path fill="#FFFFFF" d="M189.8,179.7c-1.4-1.2-4.3-0.2-4.6-3.6c-0.1-1.6,1.1-3.1,2.1-3.6c0.5-0.3,0.3-2-0.3-2.2l-4.7-0.2
					c-2-0.1-3.7,1.4-3.8,3.4c-0.2,3.1-0.5,7.6-0.3,10.1c0.6,7.2,3,13.6,5.2,13.7h2.4l-0.4-0.8c0.3-0.4,0.6-0.9,0.6-1.7l0.6-4.6
					l3.3-7.7C190.1,181.8,190.3,180.2,189.8,179.7z"/>
			</g>
			<g>
				<path fill="#FFCC00" d="M191.5,182.5l-3.3,7.7l-0.6,4.6c-0.1,1.9-1.4,2.5-2.7,2.5c-2.1,0-4.6-6.4-5.2-13.7
					c-0.2-2.6,0.1-7,0.3-10.1c0.1-2,1.8-3.5,3.8-3.4l4.7,0.2c0.6,0.1,0.9,1.6,0.3,1.9c-1.1,0.5-2.2,2.3-2.1,3.9
					c0.3,3.4,3.2,2.5,4.6,3.6C192,180.2,191.8,181.8,191.5,182.5z"/>
			</g>
			<g>
				<path fill="#FE6F43" d="M180,176.1c3.8-0.6,5.2-3.8,5.2-5.9l-1.2-0.1c-2-0.1-3.7,1.4-3.8,3.4C180.1,174.3,180,175.2,180,176.1z"
					/>
			</g>
			<g>
				<path fill="#002031" d="M189.4,186.2c0-0.1-0.1-1.1-1.7-1.1v-0.7c2.4,0,2.4,1.8,2.4,1.8L189.4,186.2l0.4,0L189.4,186.2z"/>
			</g>
			<g>
				<path fill="#002031" d="M188.3,188.4c0-0.1-0.1-1.1-1.7-1.1v-0.7c2.4,0,2.4,1.8,2.4,1.8L188.3,188.4l0.4,0L188.3,188.4z"/>
			</g>
		</g>
		<g>
			<polygon fill="#C26E5E" points="194.9,74.7 197.2,89.6 206.9,89.9 201.7,78 			"/>
		</g>
		<g>
			<polygon fill="#A95643" points="204.2,83.8 203,81.1 199.1,80.7 			"/>
		</g>
		<g>
			<path fill="#C26E5E" d="M193.1,72.9c0.1,4.4,4.4,8.1,8.8,8.5c5.1,0.5,8.1-3.1,7.2-8.5c-0.7-4.4-3.7-8-8.2-8S193,68.5,193.1,72.9z
				"/>
		</g>
		<g>
			<path fill="#002031" d="M209,61.2c-0.3,0.2-0.5,0.4-0.5,0.4s-0.3-1.9-1.2-2.3c-0.3-0.1-0.7-0.2-1.1-0.2c-0.7,0.1-1.4,0.3-2.1,0.7
				c-0.5,0.3-1.3-0.5-2.2-0.7c-1.7-0.4-2.4,1.1-3.6,1.4c-0.6,0.2-1.1,0.3-1.6,0.6c-0.3,0.2-0.6,0.4-0.9,0.6
				c-0.1,0.1-0.2,0.2-0.3,0.4c-0.1,0.3,0,0.6,0.2,0.9c0.4,0.8,1,1.5,1.7,2.1l-0.4-0.8c0.9,1.5,2.4,2.6,4.1,3.2
				c1.6,0.6,3.4,0.7,5.1,0.7c0.7,0,1.4-0.1,2-0.3c0.6-0.2,1.2-0.6,1.7-1.1c0.4-0.5,0.5-1.1,0.7-1.7c0-0.1,0.1-1.9,0-3.3
				C210.5,61.1,209.6,60.8,209,61.2z"/>
		</g>
		<g>
			<path fill="#002031" d="M199.5,69c0.1,1.1-0.1,2.3-0.8,3.2c-0.8,1-1.8,2.5-2.5,3.5c-1,1.5-0.4,4.5,0.1,8c0.1,1.1-1.3-1.8-2.1-1.1
				c-0.1,0.1-0.2,0.2-0.4,0.2c-0.3,0.1-0.5-0.3-0.7-0.5c-1.6-2.8-2.6-6-2.8-9.2c-0.1-2.4,0.2-5,1.8-6.8c1.1-1.3,3.1-2.1,4.9-1.7
				C198.9,65.1,199.3,67.2,199.5,69z"/>
		</g>
		<g>
			<path fill="#C26E5E" d="M194.8,127.8l4.9,3.4c0,0-1.4,2-1.5,2.1c-0.1,0.1-2,1.9-2,1.9l-2.8,1.7l-0.6,0.3l-1.8-2.4l-0.5-1.8
				l-1.4-1.7L194.8,127.8z"/>
		</g>
		<g>
			<path fill="#A95643" d="M195.4,128.2c0,0-1.2,4.7-3.8,7.4l-0.6-0.8l-0.5-1.8l-0.2-0.3L195.4,128.2z"/>
		</g>
		<g>
			<path fill="#237978" d="M185.8,92.7c0,0-9.4,14.5-11.4,17.7c-2,3.3-1.8,6.8,1.1,9.8c2.9,3,14.1,13,14.1,13l6.2-5.5l-12.7-12.3
				l13.2-15.4L185.8,92.7z"/>
		</g>
		<g>
			<path fill="#0E6866" d="M185.7,127.2c-0.8,0-1.6,0.2-2.2,0.7c1.5,1.3,2.9,2.6,3.9,3.6c0,0,0,0,0,0c1.1,1,1.8,1.6,2,1.8
				c0.3-0.6,0.4-1.2,0.4-1.8C190,129.1,188.1,127.2,185.7,127.2z M189.5,121.7c0.4,0.9,1.1,1.5,2,1.9l-1-0.9L189.5,121.7z
				 M185.9,112.2l4-4.7c-0.3-2.1-2-3.7-4.2-3.7c-2.3,0-4.2,1.9-4.2,4.2c0,2.3,1.9,4.2,4.2,4.2C185.8,112.2,185.8,112.2,185.9,112.2z
				 M193.5,98.1l-4.3-3c-0.1,0.4-0.2,0.8-0.2,1.3c0,2.3,1.9,4.2,4.2,4.2c1,0,1.9-0.3,2.6-0.9L193.5,98.1z M178.3,115.6
				c-2,0-3.6,1.3-4.1,3.1c0.2,0.2,0.3,0.5,0.5,0.7c0,0,0.1,0.1,0.1,0.1c0.2,0.2,0.4,0.5,0.6,0.7c0.1,0.1,0.2,0.2,0.3,0.3
				c0,0,0.1,0.1,0.1,0.1c0.1,0.1,0.2,0.2,0.2,0.2c0,0,0.1,0.1,0.1,0.1c0.1,0.1,0.2,0.2,0.3,0.3c0,0,0.1,0.1,0.2,0.1
				c0.1,0.1,0.2,0.2,0.3,0.3c0,0,0.1,0.1,0.2,0.1c0.1,0.1,0.2,0.2,0.3,0.3c0,0,0.1,0.1,0.1,0.1c0.1,0.1,0.3,0.3,0.4,0.4
				c0,0,0.1,0.1,0.1,0.1c0.2,0.1,0.3,0.3,0.5,0.4c0,0,0,0,0,0c0.2,0.2,0.4,0.3,0.6,0.5c0,0,0,0,0,0c1.9-0.4,3.3-2.1,3.3-4.1
				C182.5,117.5,180.6,115.6,178.3,115.6z M183.8,96.2c0-0.1,0-0.2,0-0.3c-0.8,1.2-1.7,2.7-2.8,4.2C182.6,99.5,183.8,98,183.8,96.2z
				"/>
		</g>
		<g>
			<path fill="#002031" d="M182.4,117.1l-0.6-0.4l0.4-0.7l-1.5,0.3l-0.1-0.7l2.3-0.4c0.1,0,0.3,0,0.4,0.2c0.1,0.1,0.1,0.3,0,0.4
				L182.4,117.1z"/>
		</g>
		<g>
			<path fill="#002031" d="M192,137.9l-0.2-0.7c6.3-2.3,8.2-7.2,8.2-7.3l0.7,0.2C200.5,130.4,198.6,135.4,192,137.9z"/>
		</g>
		<g>
			<polygon fill="#FFFFFF" points="227.5,177.3 213.4,135 216.9,134.6 217,135.3 214.4,135.6 228.2,177 			"/>
		</g>
		<g>
			<path fill="#002031" d="M204.4,77.3c-1.1,0-2-0.5-2.4-1.4c-0.1-0.1,0-0.3,0.1-0.3c0.1-0.1,0.3,0,0.3,0.1c0.5,1,1.5,1.4,3,1
				c0.1,0,0.3,0,0.3,0.2c0,0.1,0,0.3-0.2,0.3C205.1,77.2,204.7,77.3,204.4,77.3z"/>
		</g>
		<g>
			<path fill="#FFFFFF" d="M207.4,73.9c-1.4,0-2.5-1.2-2.5-2.6s1.1-2.6,2.5-2.6c1.4,0,2.5,1.2,2.5,2.6S208.8,73.9,207.4,73.9z
				 M207.4,69.2c-1.1,0-2,1-2,2.1c0,1.2,0.9,2.1,2,2.1c1.1,0,2-1,2-2.1C209.4,70.2,208.5,69.2,207.4,69.2z"/>
		</g>
		<g>
			<path fill="#FFFFFF" d="M201.8,74.4c-1.4,0-2.5-1.2-2.5-2.6c0-1.4,1.1-2.6,2.5-2.6c1.4,0,2.5,1.2,2.5,2.6
				C204.3,73.3,203.2,74.4,201.8,74.4z M201.8,69.7c-1.1,0-2,0.9-2,2.1c0,1.2,0.9,2.1,2,2.1c1.1,0,2-0.9,2-2.1
				C203.8,70.7,202.9,69.7,201.8,69.7z"/>
		</g>
		<g>
			<path fill="#002031" d="M205,75.1c-0.1,0-0.2-0.1-0.2-0.2c0-0.1,0.1-0.3,0.2-0.3c0.1,0,0.6-0.2,0.7-0.4c0.1-0.2-0.4-1-0.6-1.4
				c-0.2-0.4-0.4-0.7-0.5-1c0-0.1,0-0.3,0.2-0.3c0.1,0,0.3,0,0.3,0.2c0.1,0.2,0.2,0.6,0.4,0.9c0.5,0.9,0.7,1.5,0.6,1.8
				C205.8,74.9,205.1,75.1,205,75.1C205,75.1,205,75.1,205,75.1z"/>
		</g>
		<g>
			<path fill="#FFFFFF" d="M204,71.4c-0.1,0-0.2-0.1-0.2-0.2c0-0.1,0.1-0.2,0.2-0.3l1.1-0.1c0.1,0,0.2,0.1,0.3,0.2
				c0,0.1-0.1,0.2-0.2,0.3L204,71.4C204.1,71.4,204.1,71.4,204,71.4z"/>
		</g>
		<g>
			<path fill="#FFFFFF" d="M198.7,72.1c-0.1,0-0.2-0.1-0.2-0.2c0-0.1,0.1-0.3,0.2-0.3l0.8-0.1c0.1,0,0.3,0.1,0.3,0.2
				c0,0.1-0.1,0.3-0.2,0.3L198.7,72.1C198.8,72.1,198.7,72.1,198.7,72.1z"/>
		</g>
		<g>
			<path fill="#C26E5E" d="M191.5,89.4l3.7-0.9c1-0.3,1.7-1.4,1.5-2.5l-0.2-1.4l1.3,5.9L191.5,89.4z"/>
		</g>
		<g>
			
				<rect x="188.6" y="105.4" transform="matrix(0.6516 -0.7585 0.7585 0.6516 -13.5787 182.0246)" fill="#002031" width="5.6" height="0.7"/>
		</g>
		<g>
			<path fill="#FFFFFF" d="M215.5,123.4c-0.3-1.4,0.8-5.1,2-9.5c1.3-4.6,2.7-9.8,2.5-11.9c-0.3-2.6-1.6-5.5-3.2-7.4l0.6-0.5
				c2.1,2.4,3.1,5.6,3.4,7.8c0.3,2.3-1.1,7.3-2.5,12.2c-1.1,3.9-2.2,7.9-2,9.2L215.5,123.4z"/>
		</g>
	</g>
</g>
</svg>
