<?xml version="1.0" encoding="UTF-8"?>
<svg width="200px" height="200px" viewBox="0 0 200 200" version="1.1" xmlns="http://www.w3.org/2000/svg" xmlns:xlink="http://www.w3.org/1999/xlink">
    <title>Image</title>
    <defs>
        <rect id="path-1" x="0" y="0" width="200" height="200"></rect>
    </defs>
    <g id="Symbols" stroke="none" stroke-width="1" fill="none" fill-rule="evenodd" opacity="0.8">
        <g id="3_Organisms-/-Cards-/-2_QR-ophalen" transform="translate(-135.000000, -32.000000)">
            <g id="Image" transform="translate(135.000000, 32.000000)">
                <mask id="mask-2" fill="white">
                    <use xlink:href="#path-1"></use>
                </mask>
                <g id="Mask"></g>
                <g id="holder_qrcode_maken" mask="url(#mask-2)">
                    <g transform="translate(37.000000, 30.570240)">
                        <path d="M182.4768,142.57728 C182.4768,144.92736 162.7776,145.13472 107.41248,145.13472 C54.12096,145.13472 6.08256,143.75232 6.08256,142.57728 C6.08256,141.40224 54.12096,140.01984 107.41248,140.01984 C163.26144,140.01984 182.4768,140.43456 182.4768,142.57728 Z" id="Path" fill="#27DC71" fill-rule="nonzero"></path>
                        <g id="Group" stroke-width="1" fill="none" fill-rule="evenodd" transform="translate(0.000000, 25.695360)">
                            <path d="M15.75936,8.91648 C15.82848,8.91648 17.69472,7.46496 18.52416,6.84288 C18.73152,6.70464 19.008,6.70464 19.21536,6.77376 L19.21536,6.77376 C19.49184,6.98112 19.63008,7.32672 19.42272,7.67232 L17.83296,9.46944 L15.75936,8.91648 Z" id="Path" fill="#F4C9DB" fill-rule="nonzero"></path>
                            <path d="M14.10048,10.09152 L16.72704,8.15616 C16.72704,8.15616 16.79616,8.15616 16.79616,8.15616 L23.29344,9.53856 L23.5008,10.78272 L18.6624,10.85184 L15.48288,12.99456 L14.10048,10.09152 Z" id="Path" fill="#F4C9DB" fill-rule="nonzero"></path>
                            <polygon id="Path" fill="#F4C9DB" fill-rule="nonzero" points="28.75392 100.224 27.92448 104.7168 29.09952 108.1728 31.93344 106.99776 34.56 102.43584"></polygon>
                            <path d="M7.6032,30.13632 L1.65888,24.46848 C0.13824,23.01696 0.06912,20.87424 1.728,19.63008 L14.03136,10.09152 L16.03584,13.1328 L7.6032,21.35808 L12.16512,25.2288 L7.6032,30.13632 Z" id="Path" fill="#F4C9DB" fill-rule="nonzero"></path>
                            <path d="M32.27904,24.26112 L36.35712,18.6624 L27.37152,6.912 L32.20992,6.84288 L41.88672,17.41824 C42.92352,18.52416 42.99264,20.25216 42.09408,21.49632 L32.69376,34.2144 L32.27904,24.26112 Z" id="Path" fill="#F4C9DB" fill-rule="nonzero"></path>
                            <polygon id="Path" fill="#002031" fill-rule="nonzero" points="31.4496 45.34272 30.34368 46.44864 30.68928 45.20448"></polygon>
                            <path d="M17.07264,46.03392 L13.54752,45.82656 C13.54752,45.82656 14.65344,43.8912 16.79616,43.47648 L17.07264,46.03392 Z" id="Path" fill="#002031" fill-rule="nonzero"></path>
                            <path d="M18.93888,10.57536 C18.52416,10.57536 17.28,11.19744 16.86528,11.4048 C15.34464,12.16512 14.1696,13.40928 13.4784,14.92992 C12.71808,16.65792 13.34016,18.52416 12.57984,20.32128 C12.37248,20.87424 12.02688,21.35808 11.81952,21.91104 C11.47392,23.08608 11.81952,24.67584 12.51072,25.71264 C12.64896,25.92 14.1696,27.78624 14.5152,27.50976 C14.5152,27.50976 19.28448,24.5376 26.33472,25.02144 C28.82304,25.2288 29.92896,24.39936 30.4128,23.77728 C30.82752,23.29344 30.82752,22.67136 30.62016,22.1184 C29.7216,20.18304 26.33472,12.7872 25.78176,12.4416 C23.70816,11.95776 19.008,10.57536 18.93888,10.57536 Z" id="Path" fill="#FFFFFF" fill-rule="nonzero"></path>
                            <path d="M14.72256,27.85536 L17.48736,48.93696 L29.65248,49.14432 L32.4864,38.29248 C32.97024,36.35712 32.76288,34.28352 31.86432,32.4864 L29.51424,27.92448 L14.72256,27.85536 Z" id="Path" fill="#F4C9DB" fill-rule="nonzero"></path>
                            <polygon id="Path" fill="#EDA7C5" fill-rule="nonzero" points="16.79616 43.5456 17.00352 44.928 30.62016 45.2736 19.6992 41.472"></polygon>
                            <path d="M43.13088,81.216 L29.65248,48.93696 L23.5008,48.93696 L19.14624,48.93696 L17.34912,48.93696 L16.5888,49.48992 C12.7872,52.04736 10.64448,56.47104 11.0592,61.10208 L14.37696,101.05344 C14.44608,102.15936 15.34464,102.9888 16.45056,102.9888 L21.7728,102.9888 C22.94784,102.9888 23.8464,102.02112 23.8464,100.9152 L23.56992,67.46112 L32.4864,83.56608 L27.50976,98.63424 C27.23328,99.5328 27.71712,100.50048 28.54656,100.77696 L34.56,102.91968 C35.45856,103.26528 36.42624,102.78144 36.77184,101.88288 L43.2,84.39552 C43.5456,83.35872 43.5456,82.2528 43.13088,81.216 Z" id="Path" fill="#237978" fill-rule="nonzero"></path>
                            <path d="M23.8464,68.7744 C23.70816,68.7744 23.56992,68.63616 23.56992,68.49792 L23.56992,61.79328 C23.56992,61.72416 23.56992,61.65504 23.63904,61.58592 C23.70816,61.5168 23.77728,61.5168 23.8464,61.5168 L26.47296,61.5168 C26.6112,61.5168 26.74944,61.65504 26.74944,61.79328 C26.74944,61.93152 26.6112,62.06976 26.47296,62.06976 L24.12288,62.06976 L24.12288,68.49792 C24.05376,68.63616 23.98464,68.7744 23.8464,68.7744 C23.8464,68.7744 23.8464,68.7744 23.8464,68.7744 Z" id="Path" fill="#002031" fill-rule="nonzero"></path>
                            <polygon id="Path" fill="#F4C9DB" fill-rule="nonzero" points="17.21088 17.69472 18.38592 24.95232 23.98464 24.95232 21.63456 19.83744"></polygon>
                            <polygon id="Path" fill="#EDA7C5" fill-rule="nonzero" points="23.1552 23.22432 22.60224 21.91104 19.6992 21.49632"></polygon>
                            <path d="M15.62112,16.38144 C15.75936,19.56096 19.21536,21.4272 19.21536,21.4272 C19.21536,21.4272 23.56992,22.53312 25.64352,21.15072 C28.3392,19.28448 25.78176,13.54752 25.02144,12.096 C24.39936,10.99008 22.464,10.64448 21.0816,10.64448 C17.90208,10.7136 15.48288,13.27104 15.62112,16.38144 Z" id="Path" fill="#F4C9DB" fill-rule="nonzero"></path>
                            <path d="M23.43168,20.0448 C22.94784,20.0448 22.53312,19.83744 22.18752,19.49184 C22.1184,19.42272 22.1184,19.28448 22.18752,19.21536 C22.25664,19.14624 22.39488,19.14624 22.464,19.21536 C22.94784,19.76832 23.70816,19.83744 24.60672,19.28448 C24.67584,19.21536 24.81408,19.28448 24.81408,19.3536 C24.8832,19.42272 24.81408,19.56096 24.74496,19.56096 C24.26112,19.90656 23.8464,20.0448 23.43168,20.0448 Z" id="Path" fill="#002031" fill-rule="nonzero"></path>
                            <path d="M23.98464,18.45504 C23.91552,18.45504 23.8464,18.45504 23.8464,18.38592 C23.77728,18.3168 23.8464,18.17856 23.91552,18.17856 C23.98464,18.10944 24.26112,17.9712 24.26112,17.76384 C24.26112,17.6256 23.8464,17.21088 23.63904,16.9344 C23.43168,16.72704 23.22432,16.51968 23.1552,16.38144 C23.08608,16.31232 23.1552,16.17408 23.22432,16.17408 C23.29344,16.10496 23.43168,16.17408 23.43168,16.2432 C23.5008,16.38144 23.70816,16.5888 23.91552,16.79616 C24.39936,17.28 24.67584,17.6256 24.67584,17.90208 C24.60672,18.3168 24.192,18.52416 24.12288,18.59328 C24.05376,18.45504 23.98464,18.45504 23.98464,18.45504 Z" id="Path" fill="#002031" fill-rule="nonzero"></path>
                            <path d="M34.28352,32.07168 L34.28352,21.49632 L29.79072,26.81856 C29.16864,27.16416 28.61568,27.02592 27.9936,27.02592 L24.8832,26.9568 L23.98464,25.02144 L18.38592,25.02144 L18.6624,27.16416 L16.10496,27.16416 C15.48288,27.16416 14.8608,26.9568 14.30784,26.6112 L12.096,25.2288 L7.6032,30.13632 L13.34016,35.87328 L13.4784,45.82656 C13.4784,45.82656 17.14176,41.8176 21.28896,43.2 C25.43616,44.5824 31.31136,45.41184 31.31136,45.41184 L32.97024,38.84544 C33.31584,37.94688 33.1776,36.56448 32.55552,34.28352 L34.28352,32.07168 Z" id="Path" fill="#FE6F43" fill-rule="nonzero"></path>
                            <path d="M21.0816,17.07264 C20.87424,17.07264 20.66688,17.00352 20.52864,16.9344 C20.45952,16.86528 20.3904,16.79616 20.45952,16.72704 C20.52864,16.65792 20.59776,16.5888 20.66688,16.65792 C20.736,16.65792 21.4272,17.00352 21.7728,16.31232 C21.84192,16.2432 21.91104,16.17408 21.98016,16.2432 C22.04928,16.31232 22.1184,16.38144 22.04928,16.45056 C21.84192,16.86528 21.4272,17.07264 21.0816,17.07264 Z" id="Path" fill="#002031" fill-rule="nonzero"></path>
                            <path d="M24.81408,15.8976 C24.60672,15.8976 24.39936,15.82848 24.26112,15.75936 C24.192,15.69024 24.12288,15.62112 24.192,15.552 C24.26112,15.48288 24.33024,15.41376 24.39936,15.48288 C24.46848,15.552 25.15968,15.82848 25.50528,15.13728 C25.5744,15.06816 25.64352,14.99904 25.71264,15.06816 C25.78176,15.13728 25.85088,15.2064 25.78176,15.27552 C25.5744,15.75936 25.15968,15.8976 24.81408,15.8976 Z" id="Path" fill="#002031" fill-rule="nonzero"></path>
                            <path d="M15.8976,17.9712 C15.8976,17.9712 17.00352,17.55648 17.55648,18.52416 C17.55648,18.52416 19.07712,16.10496 17.76384,14.23872 L18.86976,15.27552 L26.68032,14.1696 C26.68032,14.1696 25.64352,9.6768 21.21984,10.16064 C20.80512,10.22976 20.0448,10.29888 19.6992,10.368 C16.65792,10.92096 14.5152,13.75488 15.41376,17.21088 C15.48288,17.55648 15.62112,17.90208 15.8976,17.9712 Z" id="Path" fill="#FFFFFF" fill-rule="nonzero"></path>
                            <circle id="Oval" fill="#F4C9DB" fill-rule="nonzero" cx="16.79616" cy="18.93888" r="1.58976"></circle>
                            <rect id="Rectangle" fill="#104A4A" fill-rule="nonzero" x="16.17408" y="102.85056" width="6.2208" height="1.17504"></rect>
                            <rect id="Rectangle" fill="#104A4A" fill-rule="nonzero" transform="translate(31.237834, 102.337351) rotate(19.505824) translate(-31.237834, -102.337351) " x="28.1274585" y="101.749836" width="6.22075014" height="1.17503058"></rect>
                            <path d="M29.7216,49.21344 L17.48736,49.21344 C17.34912,49.21344 17.21088,49.0752 17.21088,48.93696 C17.21088,48.79872 17.34912,48.66048 17.48736,48.66048 L29.7216,48.66048 C29.85984,48.66048 29.99808,48.79872 29.99808,48.93696 C29.99808,49.0752 29.85984,49.21344 29.7216,49.21344 Z" id="Path" fill="#002031" fill-rule="nonzero"></path>
                            <g transform="translate(24.192000, 103.680000)" fill-rule="nonzero" id="Path">
                                <path d="M7.9488,3.04128 C6.912,3.24864 6.28992,4.90752 4.63104,3.8016 C3.87072,3.24864 3.59424,2.21184 3.73248,1.52064 C3.8016,1.17504 2.90304,0.6912 2.62656,0.89856 L0.82944,2.97216 C0.06912,3.87072 0.13824,5.184 0.96768,5.94432 C2.28096,7.18848 4.21632,8.9856 5.46048,9.81504 C8.91648,12.23424 12.71808,13.4784 13.54752,12.51072 L14.44608,11.4048 L13.96224,11.26656 C13.89312,10.99008 13.75488,10.64448 13.40928,10.368 L11.54304,8.43264 L9.26208,4.07808 C9.05472,3.66336 8.43264,2.97216 7.9488,3.04128 Z" fill="#FFFFFF"></path>
                                <path d="M9.88416,3.24864 L12.16512,7.6032 L14.03136,9.53856 C14.8608,10.29888 14.65344,11.12832 14.1696,11.68128 C13.34016,12.64896 9.53856,11.4048 6.08256,8.9856 C4.8384,8.15616 2.90304,6.35904 1.58976,5.11488 C0.76032,4.35456 0.6912,2.97216 1.45152,2.14272 L3.24864,0.06912 C3.52512,-0.13824 4.28544,0.27648 4.21632,0.62208 C4.07808,1.31328 4.42368,2.48832 5.184,3.04128 C6.84288,4.1472 7.46496,2.48832 8.50176,2.28096 C9.05472,2.21184 9.6768,2.90304 9.88416,3.24864 Z" fill="#FE6F43"></path>
                                <path d="M2.69568,6.15168 C3.8016,4.21632 2.90304,2.35008 1.93536,1.58976 L1.45152,2.14272 C0.6912,3.04128 0.76032,4.35456 1.58976,5.11488 C1.93536,5.46048 2.35008,5.80608 2.69568,6.15168 Z" fill="#FE9C7E"></path>
                            </g>
                            <polygon id="Path" fill="#F4C9DB" fill-rule="nonzero" points="21.7728 104.0256 21.70368 112.32 17.00352 112.25088 16.45056 104.0256"></polygon>
                            <g transform="translate(9.676800, 108.518400)" fill-rule="nonzero">
                                <path d="M5.25312,0.76032 L2.90304,3.59424 L1.45152,4.76928 C0.20736,5.39136 0.20736,6.49728 0.20736,6.49728 L12.7872,6.49728 L12.57984,2.83392 C12.57984,2.4192 12.16512,2.0736 11.7504,2.0736 C11.0592,2.0736 10.0224,2.14272 9.19296,2.14272 C9.19296,2.14272 8.91648,1.45152 8.08704,0.6912 C7.81056,0.41472 5.80608,0 5.25312,0.76032 Z" id="Path" fill="#FE6F43"></path>
                                <path d="M12.7872,6.49728 L12.71808,4.21632 C12.71808,4.21632 10.78272,4.56192 10.85184,6.49728 L12.7872,6.49728 Z" id="Path" fill="#FE9C7E"></path>
                                <polygon id="Path" fill="#FFFFFF" points="12.99456 8.22528 0.13824 8.22528 0.13824 6.49728 12.85632 6.49728"></polygon>
                                <polygon id="Path" fill="#002031" points="2.69568 3.59424 2.69568 3.1104 4.63104 3.04128 4.63104 3.59424"></polygon>
                                <rect id="Rectangle" fill="#002031" transform="translate(4.766493, 2.310703) rotate(-2.093499) translate(-4.766493, -2.310703) " x="3.6606095" y="2.06879089" width="2.21176797" height="1"></rect>
                            </g>
                            <rect id="Rectangle" fill="#002031" fill-rule="nonzero" transform="translate(34.025820, 108.883893) rotate(-24.891591) translate(-34.025820, -108.883893) " x="33.0235863" y="108.641974" width="2.00446719" height="1"></rect>
                            <rect id="Rectangle" fill="#002031" fill-rule="nonzero" transform="translate(35.059316, 110.488154) rotate(-24.891591) translate(-35.059316, -110.488154) " x="34.264441" y="110.246236" width="1.58974984" height="1"></rect>
                            <path d="M27.37152,6.912 L25.5744,4.90752 C25.43616,4.70016 25.43616,4.42368 25.5744,4.21632 L25.5744,4.21632 C25.71264,4.00896 25.92,4.00896 26.12736,4.07808 L27.50976,4.76928 L26.9568,1.728 C26.88768,1.3824 27.09504,0.96768 27.44064,0.96768 L27.44064,0.96768 C27.71712,0.89856 27.9936,1.10592 28.06272,1.45152 L29.0304,4.56192 L28.75392,1.17504 C28.75392,0.82944 28.96128,0.48384 29.30688,0.41472 L29.30688,0.41472 C29.65248,0.3456 29.92896,0.62208 29.99808,1.0368 L30.48192,4.42368 L30.82752,1.58976 C30.89664,1.10592 31.38048,0.82944 31.7952,1.10592 L31.7952,1.10592 C32.00256,1.24416 32.1408,1.52064 32.1408,1.79712 L32.00256,4.70016 L32.4864,3.59424 C32.62464,3.17952 33.1776,3.17952 33.31584,3.59424 L33.31584,3.59424 C33.38496,3.73248 33.38496,3.87072 33.31584,4.00896 L32.00256,9.19296 L27.37152,6.912 Z" id="Path" fill="#F4C9DB" fill-rule="nonzero"></path>
                            <path d="M7.18848,22.464 C7.18848,22.464 7.11936,22.464 7.11936,22.464 C7.05024,22.39488 6.98112,22.32576 7.05024,22.25664 L7.32672,21.70368 L6.77376,21.70368 C6.70464,21.70368 6.63552,21.63456 6.63552,21.56544 C6.63552,21.49632 6.70464,21.4272 6.77376,21.4272 L7.9488,21.4272 L7.39584,22.53312 C7.2576,22.464 7.18848,22.464 7.18848,22.464 Z" id="Path" fill="#002031" fill-rule="nonzero"></path>
                            <path d="M29.92896,7.67232 C29.85984,7.67232 29.85984,7.67232 29.92896,7.67232 C29.7216,7.67232 29.7216,7.53408 29.7216,7.46496 C29.92896,7.05024 29.92896,6.70464 29.7216,6.42816 C29.44512,5.94432 28.61568,5.94432 28.54656,5.94432 C28.47744,5.94432 28.40832,5.8752 28.40832,5.73696 C28.40832,5.66784 28.47744,5.5296 28.61568,5.59872 C28.6848,5.59872 29.65248,5.66784 30.0672,6.28992 C30.27456,6.63552 30.27456,7.11936 30.0672,7.67232 C29.99808,7.67232 29.92896,7.67232 29.92896,7.67232 Z" id="Path" fill="#002031" fill-rule="nonzero"></path>
                            <path d="M37.18656,19.56096 C37.18656,19.56096 37.11744,19.56096 37.11744,19.56096 L36.21888,19.008 C36.14976,18.93888 36.14976,18.86976 36.14976,18.80064 C36.14976,18.73152 36.21888,18.6624 36.288,18.6624 L37.3248,18.45504 C37.39392,18.45504 37.53216,18.52416 37.53216,18.59328 C37.53216,18.6624 37.46304,18.80064 37.39392,18.80064 L36.77184,18.93888 L37.3248,19.28448 C37.39392,19.3536 37.46304,19.42272 37.39392,19.49184 C37.3248,19.56096 37.25568,19.56096 37.18656,19.56096 Z" id="Path" fill="#002031" fill-rule="nonzero"></path>
                            <path d="M33.59232,84.60288 C33.5232,84.60288 33.5232,84.60288 33.45408,84.60288 L32.34816,84.04992 C32.27904,83.9808 32.20992,83.91168 32.20992,83.84256 C32.20992,83.77344 32.27904,83.6352 32.34816,83.6352 L33.45408,83.01312 C33.59232,82.944 33.73056,83.01312 33.79968,83.08224 C33.8688,83.22048 33.79968,83.35872 33.73056,83.42784 L33.03936,83.77344 L33.73056,84.11904 C33.8688,84.18816 33.93792,84.3264 33.8688,84.46464 C33.73056,84.53376 33.66144,84.60288 33.59232,84.60288 Z" id="Path" fill="#002031" fill-rule="nonzero"></path>
                        </g>
                        <g id="Group" stroke-width="1" fill="none" fill-rule="evenodd" transform="translate(45.619200, 9.797760)">
                            <path d="M72.9216,132.43392 L16.2432,132.43392 C12.096,132.43392 10.22976,130.2912 9.88416,126.4896 L0.76032,5.94432 C0.55296,2.62656 2.35008,0.48384 6.01344,0.48384 L62.96832,0.48384 C66.28608,0.48384 69.12,3.17952 69.32736,6.42816 L78.4512,126.4896 C78.65856,129.73824 76.23936,132.43392 72.9216,132.43392 Z" id="Path" fill="#134BB9" fill-rule="nonzero"></path>
                            <path d="M75.06432,132.43392 L21.91104,132.43392 C18.24768,132.43392 15.27552,129.6 14.99904,126.00576 L5.8752,6.08256 C5.66784,3.04128 8.01792,0.48384 11.0592,0.48384 L65.11104,0.48384 C68.4288,0.48384 71.26272,3.17952 71.47008,6.42816 L71.81568,10.92096 L73.54368,67.32288 L79.97184,117.64224 L80.59392,126.4896 C80.80128,129.73824 78.38208,132.43392 75.06432,132.43392 Z" id="Path" fill="#1BC1D7" fill-rule="nonzero"></path>
                            <polygon id="Path" fill="#FFFFFF" fill-rule="nonzero" points="79.97184 117.78048 14.30784 117.78048 6.2208 11.12832 71.81568 11.12832"></polygon>
                            <path d="M47.20896,129.6 C44.85888,129.6 42.78528,127.66464 42.57792,125.31456 C42.5088,124.13952 42.8544,123.10272 43.61472,122.27328 C44.37504,121.44384 45.41184,121.02912 46.58688,121.02912 C48.93696,121.02912 51.01056,122.96448 51.21792,125.31456 C51.28704,126.4896 50.94144,127.5264 50.18112,128.35584 C49.4208,129.18528 48.31488,129.6 47.20896,129.6 Z M46.58688,121.51296 C45.55008,121.51296 44.65152,121.92768 44.02944,122.61888 C43.33824,123.31008 43.06176,124.27776 43.13088,125.31456 C43.26912,127.38816 45.13536,129.11616 47.20896,129.11616 C48.24576,129.11616 49.14432,128.70144 49.7664,128.01024 C50.4576,127.31904 50.73408,126.35136 50.66496,125.31456 L50.66496,125.31456 C50.52672,123.24096 48.66048,121.51296 46.58688,121.51296 Z" id="Shape" fill="#FFFFFF" fill-rule="nonzero"></path>
                            <path d="M68.56704,82.80576 L20.80512,82.80576 C19.28448,82.80576 18.04032,81.5616 17.90208,80.11008 L14.5152,33.8688 C14.37696,31.72608 16.03584,29.85984 18.24768,29.85984 L63.86688,29.85984 C65.87136,29.85984 67.46112,31.38048 67.59936,33.38496 L71.05536,80.1792 C71.1936,81.63072 70.01856,82.80576 68.56704,82.80576 Z" id="Path" fill="#FFFFFF" fill-rule="nonzero"></path>
                            <path d="M62.13888,94.48704 L29.09952,94.48704 C28.13184,94.48704 27.37152,93.72672 27.3024,92.75904 L27.3024,92.75904 C27.23328,91.79136 27.92448,91.03104 28.89216,91.03104 L61.93152,91.03104 C62.8992,91.03104 63.65952,91.79136 63.72864,92.75904 L63.72864,92.75904 C63.79776,93.72672 63.10656,94.48704 62.13888,94.48704 Z" id="Path" fill="#DCEEFD" fill-rule="nonzero"></path>
                            <path d="M48.31488,101.05344 L29.58336,101.05344 C28.61568,101.05344 27.85536,100.29312 27.78624,99.32544 L27.78624,99.32544 C27.71712,98.35776 28.40832,97.59744 29.376,97.59744 L48.10752,97.59744 C49.0752,97.59744 49.83552,98.35776 49.90464,99.32544 L49.90464,99.32544 C49.97376,100.29312 49.28256,101.05344 48.31488,101.05344 Z" id="Path" fill="#DCEEFD" fill-rule="nonzero"></path>
                            <path d="M62.62272,101.05344 L55.15776,101.05344 C54.19008,101.05344 53.42976,100.29312 53.36064,99.32544 L53.36064,99.32544 C53.29152,98.35776 53.98272,97.59744 54.9504,97.59744 L62.41536,97.59744 C63.38304,97.59744 64.14336,98.35776 64.21248,99.32544 L64.21248,99.32544 C64.2816,100.29312 63.5904,101.05344 62.62272,101.05344 Z" id="Path" fill="#DCEEFD" fill-rule="nonzero"></path>
                            <path d="M3.24864,26.12736 L2.69568,26.12736 C1.58976,26.12736 0.62208,25.2288 0.55296,24.12288 L0.20736,19.6992 C0.13824,19.14624 0.3456,18.6624 0.6912,18.24768 C1.0368,17.83296 1.52064,17.6256 2.0736,17.6256 L2.62656,17.6256 C3.73248,17.6256 4.70016,18.52416 4.76928,19.63008 L5.11488,24.05376 C5.184,24.60672 4.97664,25.09056 4.63104,25.50528 C4.28544,25.92 3.8016,26.12736 3.24864,26.12736 Z M2.0736,18.24768 C1.65888,18.24768 1.31328,18.38592 1.0368,18.6624 C0.76032,18.93888 0.62208,19.28448 0.6912,19.6992 L1.0368,24.12288 C1.10592,24.95232 1.79712,25.64352 2.62656,25.64352 L3.17952,25.64352 C3.59424,25.64352 3.93984,25.50528 4.21632,25.2288 C4.4928,24.95232 4.63104,24.60672 4.56192,24.192 L4.21632,19.76832 C4.1472,18.93888 3.456,18.24768 2.62656,18.24768 L2.0736,18.24768 Z" id="Shape" fill="#002031" fill-rule="nonzero"></path>
                            <path d="M3.93984,35.80416 L3.38688,35.80416 C2.28096,35.80416 1.31328,34.9056 1.24416,33.79968 L0.89856,29.376 C0.82944,28.82304 1.0368,28.3392 1.3824,27.92448 C1.728,27.50976 2.21184,27.3024 2.7648,27.3024 L3.31776,27.3024 C4.42368,27.3024 5.39136,28.20096 5.46048,29.30688 L5.80608,33.73056 C5.8752,34.28352 5.66784,34.76736 5.32224,35.18208 C4.97664,35.5968 4.4928,35.80416 3.93984,35.80416 Z M2.7648,27.85536 C2.35008,27.85536 2.00448,27.9936 1.728,28.27008 C1.45152,28.54656 1.31328,28.89216 1.3824,29.30688 L1.728,33.73056 C1.79712,34.56 2.48832,35.2512 3.31776,35.2512 L3.87072,35.2512 C4.28544,35.2512 4.63104,35.11296 4.90752,34.83648 C5.184,34.56 5.32224,34.2144 5.25312,33.79968 L4.90752,29.376 C4.8384,28.54656 4.1472,27.85536 3.31776,27.85536 L2.7648,27.85536 L2.7648,27.85536 Z" id="Shape" fill="#002031" fill-rule="nonzero"></path>
                            <path d="M41.26464,7.39584 L32.97024,7.39584 C32.07168,7.39584 31.38048,6.77376 31.24224,5.8752 C31.17312,5.39136 31.31136,4.90752 31.65696,4.56192 C32.00256,4.21632 32.41728,4.00896 32.90112,4.00896 L41.19552,4.00896 C42.09408,4.00896 42.78528,4.63104 42.92352,5.5296 C42.99264,6.01344 42.8544,6.49728 42.5088,6.84288 C42.23232,7.18848 41.74848,7.39584 41.26464,7.39584 Z M32.97024,4.4928 C32.62464,4.4928 32.34816,4.63104 32.07168,4.90752 C31.86432,5.184 31.72608,5.46048 31.7952,5.80608 C31.86432,6.42816 32.34816,6.84288 32.97024,6.84288 L41.26464,6.84288 C41.61024,6.84288 41.88672,6.70464 42.1632,6.42816 C42.37056,6.15168 42.5088,5.8752 42.43968,5.5296 C42.37056,4.90752 41.88672,4.4928 41.26464,4.4928 L32.97024,4.4928 Z" id="Shape" fill="#FFFFFF" fill-rule="nonzero"></path>
                        </g>
                        <g id="Group" stroke-width="1" fill="none" fill-rule="evenodd" transform="translate(120.268800, 30.533760)">
                            <path d="M6.70464,8.70912 L6.70464,8.70912 L12.92544,25.50528 C13.54752,27.23328 15.2064,28.3392 17.07264,28.27008 L26.74944,29.16864 L26.2656,21.21984 L17.83296,21.15072 L11.12832,8.2944 L6.70464,8.70912" id="Path" fill="#DD933C" fill-rule="nonzero"></path>
                            <path d="M59.51232,33.24672 L55.15776,25.02144 C53.9136,22.74048 51.56352,21.28896 48.93696,21.21984 C48.59136,21.21984 48.384,21.21984 48.384,21.21984 L36.9792,21.15072 L26.33472,21.21984 L26.47296,29.16864 L32.07168,29.79072 L27.23328,47.62368 L52.39296,47.62368 L52.25472,33.10848 L59.51232,33.24672 Z" id="Path" fill="#FFCC00" fill-rule="nonzero"></path>
                            <path d="M40.57344,37.94688 C40.22784,37.94688 39.95136,38.22336 39.95136,38.56896 C39.95136,38.91456 40.22784,39.19104 40.57344,39.19104 C40.91904,39.19104 41.19552,38.91456 41.19552,38.56896 C41.19552,38.22336 40.91904,37.94688 40.57344,37.94688 Z M38.15424,34.35264 C37.80864,34.35264 37.53216,34.62912 37.53216,34.97472 C37.53216,35.32032 37.80864,35.5968 38.15424,35.5968 C38.49984,35.5968 38.77632,35.32032 38.77632,34.97472 C38.77632,34.62912 38.49984,34.35264 38.15424,34.35264 Z M39.744,24.67584 C40.0896,24.67584 40.36608,24.39936 40.36608,24.05376 C40.36608,23.70816 40.0896,23.43168 39.744,23.43168 C39.3984,23.43168 39.12192,23.70816 39.12192,24.05376 C39.12192,24.39936 39.3984,24.67584 39.744,24.67584 Z M40.4352,31.86432 C40.4352,31.51872 40.15872,31.24224 39.81312,31.24224 C39.46752,31.24224 39.19104,31.51872 39.19104,31.86432 C39.19104,32.20992 39.46752,32.4864 39.81312,32.4864 C40.15872,32.4864 40.4352,32.20992 40.4352,31.86432 Z M32.832,27.92448 C33.1776,27.92448 33.45408,27.648 33.45408,27.3024 C33.45408,26.9568 33.1776,26.68032 32.832,26.68032 C32.4864,26.68032 32.20992,26.9568 32.20992,27.3024 C32.20992,27.648 32.4864,27.92448 32.832,27.92448 Z M32.97024,42.5088 C32.62464,42.5088 32.34816,42.78528 32.34816,43.13088 C32.34816,43.47648 32.62464,43.75296 32.97024,43.75296 C33.31584,43.75296 33.59232,43.47648 33.59232,43.13088 C33.59232,42.78528 33.31584,42.5088 32.97024,42.5088 Z M43.5456,26.2656 C43.2,26.2656 42.92352,26.54208 42.92352,26.88768 C42.92352,27.23328 43.2,27.50976 43.5456,27.50976 C43.8912,27.50976 44.16768,27.23328 44.16768,26.88768 C44.16768,26.54208 43.8912,26.2656 43.5456,26.2656 Z M38.016,43.06176 C37.6704,43.06176 37.39392,43.33824 37.39392,43.68384 C37.39392,44.02944 37.6704,44.30592 38.016,44.30592 C38.3616,44.30592 38.63808,44.02944 38.63808,43.68384 C38.56896,43.33824 38.29248,43.06176 38.016,43.06176 Z M38.08512,27.57888 C38.08512,27.23328 37.80864,26.9568 37.46304,26.9568 C37.11744,26.9568 36.84096,27.23328 36.84096,27.57888 C36.84096,27.92448 37.11744,28.20096 37.46304,28.20096 C37.80864,28.20096 38.08512,27.92448 38.08512,27.57888 Z M33.31584,35.11296 C32.97024,35.11296 32.69376,35.38944 32.69376,35.73504 C32.69376,36.08064 32.97024,36.35712 33.31584,36.35712 C33.66144,36.35712 33.93792,36.08064 33.93792,35.73504 C33.93792,35.38944 33.66144,35.11296 33.31584,35.11296 Z M47.6928,42.99264 C47.3472,42.99264 47.07072,43.26912 47.07072,43.61472 C47.07072,43.96032 47.3472,44.2368 47.6928,44.2368 C48.0384,44.2368 48.31488,43.96032 48.31488,43.61472 C48.31488,43.26912 48.0384,42.99264 47.6928,42.99264 Z M47.83104,34.62912 C47.48544,34.62912 47.20896,34.9056 47.20896,35.2512 C47.20896,35.5968 47.48544,35.87328 47.83104,35.87328 C48.17664,35.87328 48.45312,35.5968 48.45312,35.2512 C48.45312,34.9056 48.17664,34.62912 47.83104,34.62912 Z M44.78976,46.3104 C44.44416,46.3104 44.16768,46.58688 44.16768,46.93248 C44.16768,47.27808 44.44416,47.55456 44.78976,47.55456 C45.13536,47.55456 45.41184,47.27808 45.41184,46.93248 C45.41184,46.58688 45.13536,46.3104 44.78976,46.3104 Z M42.37056,42.02496 C42.02496,42.02496 41.74848,42.30144 41.74848,42.64704 C41.74848,42.99264 42.02496,43.26912 42.37056,43.26912 C42.71616,43.26912 42.99264,42.99264 42.99264,42.64704 C42.99264,42.30144 42.71616,42.02496 42.37056,42.02496 Z M58.0608,32.4864 C57.7152,32.4864 57.43872,32.76288 57.43872,33.10848 C57.43872,33.10848 57.43872,33.1776 57.43872,33.1776 L58.61376,33.1776 C58.61376,33.10848 58.61376,33.10848 58.61376,33.03936 C58.68288,32.76288 58.4064,32.4864 58.0608,32.4864 Z M48.31488,27.02592 C47.96928,27.02592 47.6928,27.3024 47.6928,27.648 C47.6928,27.9936 47.96928,28.27008 48.31488,28.27008 C48.66048,28.27008 48.93696,27.9936 48.93696,27.648 C48.93696,27.3024 48.66048,27.02592 48.31488,27.02592 Z M45.34272,23.77728 C45.68832,23.77728 45.9648,23.5008 45.9648,23.1552 C45.9648,22.8096 45.68832,22.53312 45.34272,22.53312 C44.99712,22.53312 44.72064,22.8096 44.72064,23.1552 C44.72064,23.5008 44.99712,23.77728 45.34272,23.77728 Z M42.43968,34.42176 C42.09408,34.42176 41.8176,34.69824 41.8176,35.04384 C41.8176,35.38944 42.09408,35.66592 42.43968,35.66592 C42.78528,35.66592 43.06176,35.38944 43.06176,35.04384 C43.06176,34.69824 42.78528,34.42176 42.43968,34.42176 Z M45.89568,29.85984 C45.55008,29.85984 45.2736,30.13632 45.2736,30.48192 C45.2736,30.82752 45.55008,31.104 45.89568,31.104 C46.24128,31.104 46.51776,30.82752 46.51776,30.48192 C46.51776,30.13632 46.24128,29.85984 45.89568,29.85984 Z M45.6192,38.84544 C45.2736,38.84544 44.99712,39.12192 44.99712,39.46752 C44.99712,39.81312 45.2736,40.0896 45.6192,40.0896 C45.9648,40.0896 46.24128,39.81312 46.24128,39.46752 C46.24128,39.12192 45.89568,38.84544 45.6192,38.84544 Z M34.83648,23.98464 C35.18208,23.98464 35.45856,23.70816 35.45856,23.36256 C35.45856,23.01696 35.18208,22.74048 34.83648,22.74048 C34.49088,22.74048 34.2144,23.01696 34.2144,23.36256 C34.2144,23.70816 34.49088,23.98464 34.83648,23.98464 Z M49.90464,31.86432 C50.25024,31.86432 50.52672,31.58784 50.52672,31.24224 C50.52672,30.89664 50.25024,30.62016 49.90464,30.62016 C49.55904,30.62016 49.28256,30.89664 49.28256,31.24224 C49.28256,31.58784 49.55904,31.86432 49.90464,31.86432 Z M50.38848,38.15424 C50.04288,38.15424 49.7664,38.43072 49.7664,38.77632 C49.7664,39.12192 50.04288,39.3984 50.38848,39.3984 C50.73408,39.3984 51.01056,39.12192 51.01056,38.77632 C51.01056,38.43072 50.73408,38.15424 50.38848,38.15424 Z M51.97824,42.43968 C51.97824,42.71616 52.11648,42.92352 52.39296,42.99264 L52.39296,41.88672 C52.11648,42.02496 51.97824,42.23232 51.97824,42.43968 Z M35.18208,39.88224 C35.18208,39.53664 34.9056,39.26016 34.56,39.26016 C34.2144,39.26016 33.93792,39.53664 33.93792,39.88224 C33.93792,40.22784 34.2144,40.50432 34.56,40.50432 C34.9056,40.50432 35.18208,40.22784 35.18208,39.88224 Z M40.29696,46.37952 C39.95136,46.37952 39.67488,46.656 39.67488,47.0016 C39.67488,47.27808 39.88224,47.55456 40.15872,47.62368 L40.36608,47.62368 C40.64256,47.55456 40.84992,47.3472 40.84992,47.0016 C40.91904,46.656 40.64256,46.37952 40.29696,46.37952 Z M52.94592,27.02592 C52.60032,27.02592 52.32384,27.3024 52.32384,27.648 C52.32384,27.9936 52.60032,28.27008 52.94592,28.27008 C53.29152,28.27008 53.568,27.9936 53.568,27.648 C53.568,27.3024 53.29152,27.02592 52.94592,27.02592 Z M55.71072,30.20544 C55.36512,30.20544 55.08864,30.48192 55.08864,30.82752 C55.08864,31.17312 55.36512,31.4496 55.71072,31.4496 C56.05632,31.4496 56.3328,31.17312 56.3328,30.82752 C56.3328,30.48192 56.05632,30.20544 55.71072,30.20544 Z M55.91808,27.3024 C56.05632,27.3024 56.12544,27.23328 56.26368,27.16416 L55.71072,26.12736 C55.50336,26.19648 55.296,26.40384 55.296,26.68032 C55.36512,27.02592 55.6416,27.3024 55.91808,27.3024 Z M49.83552,21.7728 C50.112,21.7728 50.31936,21.63456 50.38848,21.4272 C50.04288,21.35808 49.62816,21.28896 49.21344,21.28896 C49.28256,21.56544 49.48992,21.7728 49.83552,21.7728 Z M50.52672,22.74048 C50.18112,22.74048 49.90464,23.01696 49.90464,23.36256 C49.90464,23.70816 50.18112,23.98464 50.52672,23.98464 C50.87232,23.98464 51.1488,23.70816 51.1488,23.36256 C51.07968,23.01696 50.8032,22.74048 50.52672,22.74048 Z M49.90464,46.58688 C49.55904,46.58688 49.28256,46.86336 49.28256,47.20896 C49.28256,47.3472 49.35168,47.48544 49.4208,47.62368 L50.31936,47.62368 C50.38848,47.48544 50.4576,47.3472 50.4576,47.20896 C50.52672,46.86336 50.25024,46.58688 49.90464,46.58688 Z M28.54656,42.92352 L28.20096,44.09856 C28.27008,44.09856 28.3392,44.16768 28.40832,44.16768 C28.75392,44.16768 29.0304,43.8912 29.0304,43.5456 C29.0304,43.2 28.82304,42.92352 28.54656,42.92352 Z M35.45856,46.24128 C35.11296,46.24128 34.83648,46.51776 34.83648,46.86336 C34.83648,47.20896 35.11296,47.48544 35.45856,47.48544 C35.80416,47.48544 36.08064,47.20896 36.08064,46.86336 C36.08064,46.51776 35.80416,46.24128 35.45856,46.24128 Z M30.55104,24.192 C30.55104,23.8464 30.27456,23.56992 29.92896,23.56992 C29.58336,23.56992 29.30688,23.8464 29.30688,24.192 C29.30688,24.5376 29.58336,24.81408 29.92896,24.81408 C30.27456,24.81408 30.55104,24.5376 30.55104,24.192 Z M34.49088,32.07168 C34.49088,32.41728 34.76736,32.69376 35.11296,32.69376 C35.45856,32.69376 35.73504,32.41728 35.73504,32.07168 C35.73504,31.72608 35.45856,31.4496 35.11296,31.4496 C34.76736,31.4496 34.49088,31.72608 34.49088,32.07168 Z M33.10848,21.56544 C33.10848,21.4272 33.03936,21.28896 32.97024,21.21984 L31.93344,21.21984 C31.86432,21.28896 31.7952,21.4272 31.7952,21.56544 C31.7952,21.91104 32.07168,22.18752 32.41728,22.18752 C32.76288,22.18752 33.10848,21.91104 33.10848,21.56544 Z M31.4496,45.48096 C31.104,45.48096 30.82752,45.75744 30.82752,46.10304 C30.82752,46.44864 31.104,46.72512 31.4496,46.72512 C31.7952,46.72512 32.07168,46.44864 32.07168,46.10304 C32.00256,45.75744 31.7952,45.48096 31.4496,45.48096 Z M28.40832,27.37152 C28.40832,27.02592 28.13184,26.74944 27.78624,26.74944 C27.44064,26.74944 27.16416,27.02592 27.16416,27.37152 C27.16416,27.71712 27.44064,27.9936 27.78624,27.9936 C28.13184,28.06272 28.40832,27.71712 28.40832,27.37152 Z M31.38048,39.19104 C31.38048,38.84544 31.104,38.56896 30.7584,38.56896 C30.4128,38.56896 30.13632,38.84544 30.13632,39.19104 C30.13632,39.53664 30.4128,39.81312 30.7584,39.81312 C31.104,39.81312 31.38048,39.46752 31.38048,39.19104 Z M27.85536,21.7728 C28.20096,21.7728 28.47744,21.49632 28.47744,21.15072 L27.23328,21.15072 C27.23328,21.56544 27.50976,21.7728 27.85536,21.7728 Z" id="Shape" fill="#FFDB4B" fill-rule="nonzero"></path>
                            <polygon id="Path" fill="#002031" fill-rule="nonzero" points="30.48192 49.14432 27.23328 47.62368 31.03488 47.62368"></polygon>
                            <polygon id="Path" fill="#F17277" fill-rule="nonzero" points="30.82752 47.62368 10.16064 100.36224 19.97568 100.36224 42.8544 47.62368"></polygon>
                            <path d="M52.39296,47.62368 L52.39296,47.62368 C52.5312,53.2224 51.97824,56.47104 47.3472,56.47104 L27.78624,56.47104 L30.82752,47.62368 L52.39296,47.62368 L52.39296,47.62368 Z" id="Path" fill="#F17277" fill-rule="nonzero"></path>
                            <path d="M39.12192,53.77536 L33.24672,72.99072 C32.69376,74.9952 32.832,77.13792 33.66144,79.07328 L42.92352,100.50048 L53.42976,100.50048 L43.96032,76.032 L50.87232,53.77536 L39.12192,53.77536 Z" id="Path" fill="#F17277" fill-rule="nonzero"></path>
                            <polygon id="Path" fill="#DD933C" fill-rule="nonzero" points="18.52416 100.36224 16.10496 106.65216 9.12384 106.37568 11.81952 100.36224"></polygon>
                            <path d="M52.32384,98.1504 L41.8176,98.1504 C41.67936,98.1504 41.54112,98.01216 41.54112,97.87392 C41.54112,97.73568 41.67936,97.59744 41.8176,97.59744 L52.32384,97.59744 C52.46208,97.59744 52.60032,97.73568 52.60032,97.87392 C52.60032,98.01216 52.46208,98.1504 52.32384,98.1504 Z" id="Path" fill="#002031" fill-rule="nonzero"></path>
                            <path d="M21.28896,97.59744 L11.33568,97.59744 C11.19744,97.59744 11.0592,97.4592 11.0592,97.32096 C11.0592,97.18272 11.19744,97.04448 11.33568,97.04448 L21.28896,97.04448 C21.4272,97.04448 21.56544,97.18272 21.56544,97.32096 C21.56544,97.4592 21.4272,97.59744 21.28896,97.59744 Z" id="Path" fill="#002031" fill-rule="nonzero"></path>
                            <path d="M35.5968,64.41984 C35.5968,64.41984 35.52768,64.41984 35.52768,64.41984 C35.38944,64.35072 35.32032,64.21248 35.38944,64.07424 L38.77632,54.05184 L35.9424,54.05184 C35.80416,54.05184 35.66592,53.9136 35.66592,53.77536 C35.66592,53.63712 35.80416,53.49888 35.9424,53.49888 L39.12192,53.49888 C39.19104,53.49888 39.26016,53.568 39.32928,53.63712 C39.3984,53.70624 39.3984,53.77536 39.3984,53.84448 L35.87328,64.21248 C35.80416,64.35072 35.73504,64.41984 35.5968,64.41984 Z" id="Path" fill="#002031" fill-rule="nonzero"></path>
                            <path d="M39.88224,24.8832 C42.30144,25.09056 45.89568,23.29344 47.55456,21.28896 C47.27808,21.28896 36.9792,21.21984 36.9792,21.21984 C36.9792,21.21984 36.56448,24.60672 39.88224,24.8832 Z" id="Path" fill="#DD933C" fill-rule="nonzero"></path>
                            <polygon id="Path" fill="#DD933C" fill-rule="nonzero" points="46.51776 12.51072 44.65152 21.35808 38.3616 21.56544 41.67936 13.75488"></polygon>
                            <polygon id="Path" fill="#D2793C" fill-rule="nonzero" points="40.02048 17.55648 40.7808 15.82848 43.33824 15.552"></polygon>
                            <path d="M36.77184,5.66784 C36.21888,6.49728 36.77184,8.36352 37.94688,7.9488 C38.63808,7.32672 39.26016,6.35904 39.32928,5.39136 C39.32928,4.07808 37.11744,4.70016 36.77184,5.66784 Z" id="Path" fill="#002031" fill-rule="nonzero"></path>
                            <path d="M47.55456,9.74592 C47.41632,12.85632 43.5456,15.552 43.5456,15.552 C43.5456,15.552 40.22784,17.07264 37.53216,15.2064 C34.83648,13.34016 37.53216,6.98112 38.29248,5.59872 C38.91456,4.56192 40.7808,4.1472 42.1632,4.1472 C45.2736,4.1472 47.6928,6.63552 47.55456,9.74592 Z" id="Path" fill="#DD933C" fill-rule="nonzero"></path>
                            <path d="M48.45312,6.2208 C49.00608,2.55744 43.68384,2.62656 43.68384,2.62656 C43.68384,2.62656 43.33824,1.45152 42.78528,1.10592 C41.8176,0.55296 41.472,1.58976 41.61024,2.28096 C41.1264,1.45152 40.84992,0.20736 39.67488,0.20736 C38.77632,0.41472 38.63808,1.93536 39.19104,2.4192 C35.45856,-0.89856 34.00704,5.80608 40.71168,6.49728 C42.57792,6.70464 44.51328,6.63552 44.65152,6.49728 C44.44416,8.43264 45.41184,10.368 47.3472,10.99008 C47.41632,11.0592 48.24576,8.36352 48.45312,6.2208 Z" id="Path" fill="#002031" fill-rule="nonzero"></path>
                            <path d="M39.88224,13.27104 C39.67488,13.27104 39.3984,13.27104 39.12192,13.20192 C39.0528,13.20192 38.98368,13.06368 38.98368,12.99456 C38.98368,12.92544 39.12192,12.85632 39.19104,12.85632 C40.15872,13.06368 40.84992,12.85632 41.1264,12.23424 C41.19552,12.16512 41.26464,12.096 41.33376,12.16512 C41.40288,12.23424 41.472,12.30336 41.40288,12.37248 C41.19552,12.99456 40.64256,13.27104 39.88224,13.27104 Z" id="Path" fill="#002031" fill-rule="nonzero"></path>
                            <path d="M37.87776,11.19744 C36.91008,11.19744 36.14976,10.368 36.14976,9.40032 C36.14976,8.91648 36.35712,8.43264 36.70272,8.08704 C37.04832,7.74144 37.46304,7.6032 37.87776,7.6032 C38.84544,7.6032 39.60576,8.43264 39.60576,9.40032 C39.60576,9.88416 39.3984,10.368 39.0528,10.7136 C38.77632,10.99008 38.29248,11.19744 37.87776,11.19744 Z M37.80864,8.08704 C37.53216,8.08704 37.18656,8.22528 36.9792,8.43264 C36.77184,8.70912 36.6336,8.9856 36.6336,9.40032 C36.6336,10.09152 37.18656,10.7136 37.87776,10.7136 C38.15424,10.7136 38.49984,10.57536 38.7072,10.368 C38.91456,10.09152 39.0528,9.81504 39.0528,9.40032 C39.0528,8.70912 38.49984,8.08704 37.80864,8.08704 Z" id="Shape" fill="#FFFFFF" fill-rule="nonzero"></path>
                            <path d="M41.54112,11.54304 C40.57344,11.54304 39.81312,10.7136 39.81312,9.74592 C39.81312,9.26208 40.02048,8.77824 40.29696,8.43264 C40.64256,8.08704 41.05728,7.9488 41.472,7.9488 C42.43968,7.9488 43.2,8.77824 43.2,9.74592 C43.2,10.22976 42.99264,10.7136 42.71616,11.0592 C42.43968,11.33568 41.95584,11.54304 41.54112,11.54304 Z M41.472,8.43264 C41.1264,8.43264 40.84992,8.57088 40.64256,8.77824 C40.4352,9.05472 40.29696,9.3312 40.29696,9.6768 C40.29696,10.368 40.84992,10.92096 41.54112,10.92096 C41.88672,10.92096 42.1632,10.78272 42.37056,10.57536 C42.57792,10.29888 42.71616,10.0224 42.71616,9.6768 C42.71616,9.05472 42.1632,8.43264 41.472,8.43264 Z" id="Shape" fill="#FFFFFF" fill-rule="nonzero"></path>
                            <path d="M39.46752,11.88864 C39.46752,11.88864 39.46752,11.88864 39.46752,11.88864 C39.3984,11.88864 38.91456,11.7504 38.7072,11.4048 C38.63808,11.19744 38.77632,10.78272 39.0528,10.16064 C39.19104,9.95328 39.26016,9.6768 39.32928,9.53856 C39.32928,9.46944 39.46752,9.40032 39.53664,9.40032 C39.60576,9.40032 39.67488,9.53856 39.67488,9.60768 C39.60576,9.74592 39.53664,10.0224 39.3984,10.29888 C39.26016,10.57536 38.98368,11.12832 39.0528,11.19744 C39.12192,11.33568 39.3984,11.47392 39.53664,11.47392 C39.60576,11.47392 39.67488,11.61216 39.67488,11.68128 C39.60576,11.81952 39.53664,11.88864 39.46752,11.88864 Z" id="Path" fill="#002031" fill-rule="nonzero"></path>
                            <path d="M40.02048,9.53856 C40.02048,9.53856 40.02048,9.53856 40.02048,9.53856 L39.26016,9.46944 C39.12192,9.46944 38.98368,9.3312 39.0528,9.19296 C39.0528,9.05472 39.19104,8.91648 39.32928,8.9856 L40.02048,9.05472 C40.15872,9.05472 40.29696,9.19296 40.22784,9.3312 C40.29696,9.40032 40.15872,9.53856 40.02048,9.53856 Z" id="Path" fill="#FFFFFF" fill-rule="nonzero"></path>
                            <path d="M45.68832,10.29888 C45.68832,10.29888 45.68832,10.29888 45.68832,10.29888 L42.92352,9.95328 C42.78528,9.95328 42.71616,9.81504 42.71616,9.6768 C42.71616,9.53856 42.8544,9.46944 42.99264,9.46944 L45.68832,9.81504 C45.82656,9.81504 45.89568,9.95328 45.89568,10.09152 C45.9648,10.16064 45.82656,10.29888 45.68832,10.29888 Z" id="Path" fill="#FFFFFF" fill-rule="nonzero"></path>
                            <path d="M11.68128,9.74592 L13.96224,5.73696 C14.10048,5.5296 14.03136,5.184 13.89312,5.04576 L13.89312,5.04576 C13.75488,4.90752 13.4784,4.8384 13.34016,4.97664 L11.4048,6.35904 L11.47392,2.90304 C11.47392,2.55744 11.19744,2.21184 10.85184,2.21184 L10.85184,2.21184 C10.57536,2.21184 10.368,2.4192 10.29888,2.7648 L9.74592,5.94432 L9.60768,2.55744 C9.60768,2.21184 9.3312,1.86624 8.9856,1.93536 L8.9856,1.93536 C8.64,1.93536 8.36352,2.21184 8.36352,2.62656 L8.36352,5.94432 L7.67232,3.24864 C7.53408,2.7648 7.05024,2.55744 6.63552,2.90304 L6.63552,2.90304 C6.42816,3.04128 6.35904,3.31776 6.42816,3.59424 L6.77376,6.77376 L5.73696,5.32224 C5.32224,4.97664 4.8384,5.04576 4.70016,5.46048 L4.70016,5.46048 C4.63104,5.59872 4.70016,5.73696 4.76928,5.8752 L7.46496,10.78272 L11.68128,9.74592 Z" id="Path" fill="#DD933C" fill-rule="nonzero"></path>
                            <path d="M11.19744,6.84288 C11.19744,6.84288 11.12832,6.84288 11.19744,6.84288 C11.12832,6.84288 9.05472,6.15168 7.9488,6.84288 C7.87968,6.912 7.74144,6.84288 7.74144,6.77376 C7.67232,6.70464 7.74144,6.5664 7.81056,6.5664 C9.05472,5.80608 11.19744,6.49728 11.26656,6.5664 C11.33568,6.5664 11.4048,6.70464 11.4048,6.77376 C11.33568,6.77376 11.26656,6.84288 11.19744,6.84288 Z" id="Path" fill="#002031" fill-rule="nonzero"></path>
                            <g transform="translate(0.000000, 102.988800)" fill-rule="nonzero">
                                <path d="M8.91648,0.48384 L4.4928,3.66336 L1.86624,4.90752 C0.55296,5.59872 0.55296,6.84288 0.55296,6.84288 L18.59328,6.84288 L17.83296,1.3824 C17.69472,0.96768 16.5888,0.89856 16.45056,1.31328 C16.17408,2.0736 15.27552,2.90304 14.23872,2.97216 C12.71808,3.04128 11.0592,1.58976 10.22976,0.76032 C9.88416,0.3456 9.40032,0.20736 8.91648,0.48384 Z" id="Path" fill="#FFCC00"></path>
                                <polygon id="Path" fill="#FFFFFF" points="18.80064 8.70912 0.48384 8.70912 0.48384 6.84288 18.6624 6.84288"></polygon>
                                <rect id="Rectangle" fill="#002031" transform="translate(5.884009, 3.664176) rotate(-73.136118) translate(-5.884009, -3.664176) " x="5.6420885" y="2.69649222" width="1" height="1.93536678"></rect>
                                <rect id="Rectangle" fill="#002031" transform="translate(7.147195, 2.725035) rotate(-73.547728) translate(-7.147195, -2.725035) " x="6.90528875" y="1.72285378" width="1" height="2.00436298"></rect>
                            </g>
                            <g transform="translate(38.707200, 102.988800)" fill-rule="nonzero">
                                <path d="M7.53408,0.48384 L3.66336,3.66336 L1.24416,4.90752 C0.06912,5.59872 0.27648,6.84288 0.27648,6.84288 L18.3168,6.84288 L16.5888,1.3824 C16.38144,0.96768 15.2064,0.89856 15.13728,1.31328 C14.99904,2.0736 14.23872,2.90304 13.20192,2.97216 C11.68128,3.04128 9.74592,1.58976 8.77824,0.76032 C8.50176,0.3456 7.9488,0.20736 7.53408,0.48384 Z" id="Path" fill="#FFCC00"></path>
                                <polygon id="Path" fill="#FFFFFF" points="18.86976 8.70912 0.55296 8.70912 0.20736 6.84288 18.38592 6.84288"></polygon>
                                <rect id="Rectangle" fill="#002031" transform="translate(5.052067, 3.665779) rotate(-73.948355) translate(-5.052067, -3.665779) " x="4.81015044" y="2.62899307" width="1" height="2.07357227"></rect>
                            </g>
                        </g>
                        <path d="M120.75264,0.2592 L121.37472,2.19456 C121.44384,2.3328 121.51296,2.40192 121.6512,2.47104 L123.58656,3.09312 C123.93216,3.23136 123.93216,3.7152 123.58656,3.85344 L121.72032,4.47552 C121.58208,4.54464 121.51296,4.61376 121.44384,4.752 L120.82176,7.10208 C120.68352,7.5168 120.13056,7.5168 120.06144,7.10208 L119.43936,4.752 C119.43936,4.61376 119.30112,4.54464 119.16288,4.47552 L117.43488,3.85344 C117.08928,3.7152 117.08928,3.23136 117.43488,3.09312 L119.16288,2.47104 C119.30112,2.40192 119.37024,2.3328 119.43936,2.19456 L120.06144,0.2592 C120.13056,-0.0864 120.6144,-0.0864 120.75264,0.2592 Z" id="Path" fill="#A7FAC1" fill-rule="nonzero"></path>
                        <path d="M13.20192,20.92608 L13.61664,22.30848 C13.61664,22.3776 13.68576,22.44672 13.824,22.51584 L15.2064,22.93056 C15.48288,22.99968 15.48288,23.4144 15.2064,23.48352 L13.824,23.89824 C13.75488,23.89824 13.61664,24.03648 13.61664,24.1056 L13.20192,25.8336 C13.1328,26.11008 12.71808,26.11008 12.64896,25.8336 L12.23424,24.1056 C12.23424,24.03648 12.16512,23.89824 12.02688,23.89824 L10.78272,23.48352 C10.50624,23.4144 10.50624,22.99968 10.78272,22.93056 L12.096,22.51584 C12.16512,22.51584 12.23424,22.44672 12.30336,22.30848 L12.71808,20.92608 C12.71808,20.6496 13.1328,20.6496 13.20192,20.92608 Z" id="Path" fill="#A7FAC1" fill-rule="nonzero"></path>
                        <path d="M144.87552,20.02752 L145.29024,21.40992 C145.29024,21.47904 145.35936,21.54816 145.4976,21.61728 L146.88,22.032 C147.15648,22.10112 147.15648,22.51584 146.88,22.58496 L145.56672,22.99968 C145.4976,22.99968 145.42848,23.13792 145.35936,23.20704 L144.94464,24.86592 C144.87552,25.1424 144.4608,25.1424 144.39168,24.86592 L143.97696,23.20704 C143.97696,23.13792 143.90784,23.0688 143.7696,22.99968 L142.52544,22.58496 C142.24896,22.51584 142.24896,22.10112 142.52544,22.032 L143.7696,21.54816 C143.83872,21.54816 143.90784,21.47904 143.97696,21.3408 L144.39168,19.9584 C144.4608,19.75104 144.8064,19.75104 144.87552,20.02752 Z" id="Path" fill="#FFFFFF" fill-rule="nonzero"></path>
                        <path d="M151.51104,10.83456 L151.92576,12.07872 C151.92576,12.14784 151.99488,12.21696 152.064,12.21696 L153.30816,12.63168 C153.58464,12.7008 153.58464,13.0464 153.30816,13.11552 L152.064,13.53024 C151.99488,13.53024 151.92576,13.59936 151.85664,13.7376 L151.44192,15.25824 C151.3728,15.53472 151.0272,15.53472 150.95808,15.25824 L150.54336,13.7376 C150.54336,13.66848 150.47424,13.59936 150.40512,13.53024 L149.2992,13.11552 C149.09184,13.0464 149.09184,12.7008 149.2992,12.63168 L150.40512,12.21696 C150.47424,12.21696 150.54336,12.14784 150.54336,12.07872 L150.95808,10.83456 C151.09632,10.55808 151.44192,10.55808 151.51104,10.83456 Z" id="Path" fill="#3DEC94" fill-rule="nonzero"></path>
                        <path d="M23.77728,13.11552 L24.05376,14.01408 C24.05376,14.0832 24.12288,14.15232 24.192,14.15232 L25.09056,14.4288 C25.29792,14.49792 25.29792,14.70528 25.09056,14.7744 L24.192,15.05088 C24.12288,15.05088 24.05376,15.12 24.05376,15.18912 L23.77728,16.29504 C23.70816,16.5024 23.43168,16.5024 23.43168,16.29504 L23.1552,15.18912 C23.1552,15.12 23.08608,15.05088 23.01696,15.05088 L22.18752,14.7744 C22.04928,14.70528 22.04928,14.49792 22.18752,14.4288 L23.01696,14.15232 C23.08608,14.15232 23.08608,14.0832 23.1552,14.01408 L23.43168,13.11552 C23.43168,12.97728 23.70816,12.97728 23.77728,13.11552 Z" id="Path" fill="#A7FAC1" fill-rule="nonzero"></path>
                        <g id="Symbols_1_" stroke-width="1" fill="none" fill-rule="evenodd" transform="translate(69.220195, 48.055680)">
                            <g id="Logo_CoronaCheck_1_" fill="#1BC1D7" fill-rule="nonzero">
                                <g id="Group-2_1_">
                                    <g id="Rectangle_10_" transform="translate(1.451520, 19.975680)">
                                        <path d="M14.3113247,15.62112 L3.25212469,15.62112 C2.00796469,15.62112 0.832924689,14.58432 0.763804689,13.34016 L0.00348468926,2.28096 C-0.0656353107,1.0368 0.902044689,0 2.14620469,0 L13.2054047,0 C14.4495647,0 15.6246047,1.0368 15.6937247,2.28096 L16.4540447,13.34016 C16.5231647,14.58432 15.5554847,15.62112 14.3113247,15.62112 Z M6.01692469,10.09152 L10.7170847,10.09152 L10.3714847,5.39136 L5.67132469,5.39136 L6.01692469,10.09152 Z" id="Shape"></path>
                                    </g>
                                    <g id="Rectangle_9_">
                                        <path d="M14.3113247,15.62112 L3.25212469,15.62112 C2.00796469,15.62112 0.832924689,14.58432 0.763804689,13.34016 L0.00348468926,2.28096 C-0.0656353107,1.0368 0.902044689,0 2.14620469,0 L13.2054047,0 C14.4495647,0 15.6246047,1.0368 15.6937247,2.28096 L16.4540447,13.34016 C16.5922847,14.58432 15.6246047,15.62112 14.3113247,15.62112 Z M6.01692469,10.09152 L10.7170847,10.09152 L10.3714847,5.39136 L5.67132469,5.39136 L6.01692469,10.09152 Z" id="Shape"></path>
                                    </g>
                                    <g id="Rectangle_8_" transform="translate(19.975680, 0.000000)">
                                        <path d="M14.3113247,15.62112 L3.25212469,15.62112 C2.00796469,15.62112 0.832924689,14.58432 0.763804689,13.34016 L0.00348468926,2.28096 C-0.0656353107,1.0368 0.902044689,0 2.14620469,0 L13.2054047,0 C14.4495647,0 15.6246047,1.0368 15.6937247,2.28096 L16.4540447,13.34016 C16.5922847,14.58432 15.6246047,15.62112 14.3113247,15.62112 Z M6.01692469,10.09152 L10.7170847,10.09152 L10.3714847,5.39136 L5.67132469,5.39136 L6.01692469,10.09152 Z" id="Shape"></path>
                                    </g>
                                </g>
                            </g>
                            <g id="Group" transform="translate(20.635805, 19.802880)" fill="#1BC1D7">
                                <path d="M6.15168,5.32224 L1.65888,5.32224 C1.24416,5.32224 0.89856,4.97664 0.89856,4.56192 L0.62208,0.82944 C0.62208,0.41472 0.89856,0.06912 1.31328,0.06912 L5.04576,0.06912 C5.46048,0.06912 5.80608,0.41472 5.80608,0.82944 L6.15168,5.32224 Z" id="Path"></path>
                                <polygon id="Path" points="11.7504 10.50624 6.5664 10.50624 6.15168 5.32224 11.4048 5.32224"></polygon>
                                <path d="M16.65792,15.75936 L12.92544,15.75936 C12.51072,15.75936 12.16512,15.41376 12.16512,14.99904 L11.81952,10.50624 L16.31232,10.50624 C16.72704,10.50624 17.07264,10.85184 17.07264,11.26656 L17.34912,14.99904 C17.34912,15.41376 17.00352,15.75936 16.65792,15.75936 Z" id="Path"></path>
                                <path d="M15.8976,5.32224 L11.4048,5.32224 L11.0592,0.82944 C11.0592,0.41472 11.33568,0.06912 11.7504,0.06912 L15.48288,0.06912 C15.8976,0.06912 16.2432,0.41472 16.2432,0.82944 L16.51968,4.56192 C16.5888,4.97664 16.31232,5.32224 15.8976,5.32224 Z" id="Path"></path>
                                <path d="M6.15168,15.75936 L2.4192,15.75936 C2.00448,15.75936 1.65888,15.41376 1.65888,14.99904 L1.3824,11.26656 C1.3824,10.85184 1.65888,10.50624 2.0736,10.50624 L6.5664,10.50624 L6.912,14.99904 C6.912,15.41376 6.5664,15.75936 6.15168,15.75936 Z" id="Path"></path>
                            </g>
                        </g>
                    </g>
                </g>
            </g>
        </g>
    </g>
</svg>